<?xml version="1.0" encoding="utf-8"?>
<!-- Generator: Adobe Illustrator 24.2.3, SVG Export Plug-In . SVG Version: 6.00 Build 0)  -->
<svg version="1.1" id="Capa_1" xmlns="http://www.w3.org/2000/svg" xmlns:xlink="http://www.w3.org/1999/xlink" x="0px" y="0px"
  viewBox="0 0 20.3 11.9" style="enable-background:new 0 0 20.3 11.9;" xml:space="preserve">
<style type="text/css">
  .st0{fill:#AAAAAA;}
</style>
<g>
  <path class="st0" d="M20.1,1.2l-1-1C19,0.1,18.8,0,18.6,0c-0.2,0-0.3,0.1-0.5,0.2l-8,8l-8-8C2,0.1,1.9,0,1.7,0
    C1.5,0,1.4,0.1,1.2,0.2l-1,1C0.1,1.4,0,1.5,0,1.7C0,1.9,0.1,2,0.2,2.2l9.5,9.5c0.1,0.1,0.3,0.2,0.5,0.2c0.2,0,0.3-0.1,0.5-0.2
    l9.5-9.5c0.1-0.1,0.2-0.3,0.2-0.5C20.3,1.5,20.3,1.4,20.1,1.2z"/>
</g>
</svg>
