<?xml version="1.0" encoding="utf-8"?>
<!-- Generator: Adobe Illustrator 24.0.2, SVG Export Plug-In . SVG Version: 6.00 Build 0)  -->
<svg version="1.1" id="Capa_1" xmlns="http://www.w3.org/2000/svg" xmlns:xlink="http://www.w3.org/1999/xlink" x="0px" y="0px"
  viewBox="0 0 285 110" style="enable-background:new 0 0 285 110;" xml:space="preserve">
<style type="text/css">
  .st0{fill:#272727;}
  .st1{fill:#FD3435;}
  .st2{fill:#222222;}
</style>
<g>
  <g>
    <g>
      <path class="st0" d="M109.54,12.42l7.4-0.03l0.03,6.38l-7.18,0.03l0.11,23.48l-8.36,0.04l-0.11-23.48l-4.45,0.02l-0.03-6.38
        l4.45-0.02l-0.01-1.28c-0.01-3.26,0.95-5.86,2.89-7.78c1.94-1.92,4.68-2.89,8.22-2.91c1.25-0.01,2.44,0.12,3.57,0.38
        c1.13,0.26,2.07,0.64,2.82,1.13l-2.17,6.02c-0.97-0.67-2.09-1-3.38-1c-2.54,0.01-3.8,1.4-3.79,4.17L109.54,12.42z"/>

        <rect x="123.05" y="0.53" transform="matrix(1 -4.482001e-03 4.482001e-03 1 -0.0945 0.5705)" class="st0" width="8.36" height="41.67"/>
      <path class="st0" d="M168.21,13.19l0.13,28.84l-7.93,0.04l-0.02-3.43c-1.1,1.26-2.42,2.22-3.95,2.89
        c-1.53,0.67-3.19,1.01-4.98,1.01c-3.79,0.02-6.8-1.06-9.02-3.23c-2.23-2.17-3.35-5.4-3.37-9.69l-0.07-16.29l8.36-0.04l0.07,15.06
        c0.02,4.65,1.98,6.96,5.87,6.94c2-0.01,3.61-0.67,4.82-1.98c1.21-1.31,1.81-3.25,1.8-5.82l-0.06-14.26L168.21,13.19z"/>
      <path class="st0" d="M176.33,8.34c-0.93-0.9-1.4-2.03-1.4-3.38c-0.01-1.35,0.45-2.48,1.37-3.39s2.12-1.37,3.59-1.38
        c1.47-0.01,2.68,0.42,3.61,1.29c0.93,0.87,1.4,1.96,1.4,3.27c0.01,1.42-0.45,2.6-1.37,3.53c-0.92,0.93-2.12,1.4-3.59,1.41
        C178.46,9.69,177.26,9.24,176.33,8.34z"/>

        <rect x="176.04" y="13.13" transform="matrix(1 -4.482001e-03 4.482001e-03 1 -0.1217 0.808)" class="st0" width="8.36" height="28.84"/>
      <path class="st0" d="M213.07,0.04l0.07,16c-2.08-2.31-4.97-3.46-8.65-3.45c-2.72,0.01-5.17,0.63-7.36,1.86
        c-2.19,1.23-3.91,2.97-5.15,5.22c-1.24,2.26-1.85,4.87-1.84,7.83c0.01,2.97,0.65,5.57,1.91,7.82c1.26,2.25,2.99,3.97,5.2,5.18
        s4.66,1.8,7.38,1.79c3.93-0.02,6.93-1.28,8.99-3.79l0.01,3.32l7.99-0.04L221.43,0L213.07,0.04z M211.29,33.23
        c-1.39,1.45-3.13,2.19-5.24,2.2c-2.14,0.01-3.92-0.71-5.32-2.15c-1.4-1.44-2.11-3.38-2.12-5.81s0.68-4.37,2.06-5.83
        c1.39-1.45,3.15-2.18,5.3-2.19c2.11-0.01,3.86,0.71,5.26,2.15c1.4,1.44,2.11,3.38,2.12,5.81S212.67,31.77,211.29,33.23z"/>
      <path class="st0" d="M119.82,58.5c1.87,1.76,2.81,4.36,2.82,7.79l0.08,17.74l-2.57,0.01l-0.02-4.99
        c-0.89,1.65-2.18,2.93-3.9,3.85c-1.71,0.92-3.76,1.38-6.16,1.39c-3.11,0.01-5.57-0.71-7.38-2.16c-1.81-1.46-2.72-3.38-2.73-5.78
        c-0.01-2.32,0.81-4.21,2.47-5.67c1.65-1.45,4.31-2.19,7.95-2.21l9.59-0.04l-0.01-2.25c-0.01-2.61-0.73-4.59-2.14-5.94
        c-1.42-1.35-3.48-2.02-6.2-2.01c-1.86,0.01-3.64,0.34-5.33,0.99c-1.69,0.65-3.13,1.51-4.3,2.59l-1.35-1.92
        c1.39-1.26,3.06-2.24,5.03-2.94c1.96-0.71,4.02-1.06,6.16-1.07C115.29,55.86,117.95,56.73,119.82,58.5z M116.35,80.46
        c1.62-1.08,2.84-2.64,3.65-4.68l-0.02-5.25l-9.54,0.04c-2.75,0.01-4.74,0.52-5.97,1.53c-1.23,1.01-1.84,2.39-1.83,4.14
        c0.01,1.82,0.69,3.26,2.06,4.31c1.36,1.05,3.28,1.57,5.74,1.56C112.76,82.09,114.73,81.54,116.35,80.46z"/>
      <path class="st0" d="M147.64,82.14c-0.68,0.65-1.52,1.14-2.54,1.49c-1.02,0.34-2.08,0.52-3.19,0.52
        c-2.43,0.01-4.31-0.65-5.64-1.98c-1.33-1.33-2-3.2-2.01-5.59l-0.08-18.28l-5.15,0.02l-0.01-2.31l5.15-0.02l-0.03-6.11l2.68-0.01
        l0.03,6.11l8.9-0.04l0.01,2.31l-8.9,0.04l0.08,18.01c0.01,1.82,0.45,3.21,1.33,4.15c0.88,0.94,2.18,1.41,3.89,1.4
        c1.75-0.01,3.2-0.53,4.34-1.57L147.64,82.14z"/>
      <path class="st0" d="M168.22,82.05c-0.68,0.65-1.52,1.14-2.54,1.49c-1.02,0.34-2.08,0.52-3.19,0.52
        c-2.43,0.01-4.31-0.65-5.64-1.98c-1.33-1.33-2-3.2-2.01-5.59l-0.08-18.28l-5.15,0.02l-0.01-2.31l5.15-0.02l-0.03-6.11l2.68-0.01
        l0.03,6.11l8.9-0.04l0.01,2.31l-8.9,0.04l0.08,18.01c0.01,1.82,0.45,3.21,1.33,4.15c0.88,0.94,2.18,1.41,3.89,1.4
        c1.75-0.01,3.2-0.53,4.33-1.57L168.22,82.05z"/>
      <path class="st0" d="M192.99,58.17c1.87,1.76,2.81,4.36,2.82,7.79l0.08,17.74l-2.57,0.01l-0.02-4.99
        c-0.89,1.65-2.18,2.93-3.9,3.85c-1.71,0.92-3.76,1.38-6.16,1.39c-3.11,0.01-5.57-0.71-7.38-2.16c-1.81-1.46-2.72-3.38-2.73-5.78
        c-0.01-2.32,0.81-4.21,2.47-5.67c1.65-1.45,4.31-2.19,7.95-2.21l9.6-0.04l-0.01-2.25c-0.01-2.61-0.73-4.59-2.14-5.94
        c-1.42-1.35-3.48-2.02-6.2-2.01c-1.86,0.01-3.63,0.34-5.33,0.99c-1.69,0.65-3.13,1.51-4.3,2.59l-1.35-1.92
        c1.39-1.26,3.06-2.24,5.03-2.94c1.96-0.71,4.02-1.06,6.16-1.07C188.46,55.53,191.12,56.41,192.99,58.17z M189.52,80.13
        c1.62-1.08,2.84-2.64,3.65-4.68l-0.02-5.25l-9.54,0.04c-2.75,0.01-4.74,0.52-5.97,1.53c-1.23,1.01-1.84,2.39-1.83,4.14
        c0.01,1.82,0.69,3.26,2.06,4.31c1.36,1.05,3.28,1.57,5.74,1.56C185.93,81.76,187.9,81.21,189.52,80.13z"/>
      <path class="st0" d="M210.78,82.02c-2.15-1.2-3.84-2.89-5.06-5.04c-1.22-2.16-1.84-4.59-1.85-7.31
        c-0.01-2.75,0.58-5.21,1.79-7.38c1.21-2.17,2.88-3.85,5.02-5.06c2.14-1.21,4.57-1.82,7.28-1.83c2.25-0.01,4.3,0.42,6.14,1.29
        c1.84,0.87,3.34,2.14,4.49,3.81l-1.98,1.46c-1.01-1.39-2.25-2.43-3.74-3.12c-1.49-0.69-3.12-1.03-4.91-1.02
        c-2.18,0.01-4.13,0.51-5.86,1.5c-1.73,0.99-3.08,2.38-4.06,4.17c-0.98,1.79-1.46,3.85-1.45,6.17c0.01,2.32,0.51,4.38,1.5,6.16
        c0.99,1.78,2.35,3.16,4.09,4.14c1.74,0.98,3.7,1.46,5.88,1.45c1.79-0.01,3.42-0.36,4.9-1.07c1.48-0.7,2.72-1.75,3.71-3.15
        l1.99,1.44c-1.14,1.69-2.62,2.97-4.46,3.85c-1.84,0.88-3.88,1.33-6.13,1.34C215.37,83.82,212.93,83.23,210.78,82.02z"/>
      <path class="st0" d="M246.16,68.52l-7.26,6.68l0.04,8.31l-2.68,0.01l-0.18-39.77l2.68-0.01l0.13,28.14l17.83-16.43l3.43-0.02
        l-12.01,11.36l13.31,16.61l-3.32,0.01L246.16,68.52z"/>
      <path class="st0" d="M267.55,82.57c-2.04-0.67-3.63-1.52-4.78-2.55l1.22-2.15c1.15,0.96,2.62,1.76,4.43,2.39
        c1.81,0.64,3.69,0.95,5.66,0.94c2.82-0.01,4.9-0.49,6.24-1.42c1.34-0.93,2-2.22,1.99-3.87c-0.01-1.18-0.38-2.11-1.11-2.78
        c-0.74-0.68-1.64-1.17-2.71-1.49c-1.07-0.32-2.56-0.65-4.45-1c-2.22-0.38-4.01-0.8-5.37-1.26c-1.36-0.46-2.52-1.2-3.49-2.24
        c-0.97-1.03-1.46-2.46-1.47-4.28c-0.01-2.22,0.9-4.05,2.74-5.51c1.83-1.46,4.45-2.19,7.84-2.21c1.79-0.01,3.56,0.23,5.31,0.73
        c1.75,0.49,3.19,1.15,4.3,1.96l-1.22,2.15c-1.15-0.82-2.45-1.44-3.92-1.86c-1.47-0.42-2.97-0.63-4.51-0.62
        c-2.61,0.01-4.57,0.5-5.89,1.47c-1.32,0.97-1.97,2.24-1.97,3.81c0.01,1.25,0.38,2.22,1.14,2.92s1.68,1.21,2.77,1.54
        c1.09,0.33,2.62,0.69,4.59,1.08c2.18,0.38,3.94,0.8,5.29,1.24c1.34,0.44,2.48,1.16,3.41,2.16c0.93,1,1.4,2.37,1.41,4.12
        c0.01,2.32-0.95,4.19-2.87,5.59c-1.92,1.4-4.64,2.11-8.14,2.13C271.74,83.57,269.6,83.24,267.55,82.57z"/>
      <g>
        <path class="st1" d="M79.96,0.63L65.35,0.7c-1.45,0.01-2.61,1.18-2.61,2.63s1.18,2.61,2.63,2.61l11.99-0.05l0.06,12.6
          c0.01,1.45,1.18,2.61,2.63,2.6c1.45-0.01,2.61-1.18,2.61-2.63L82.59,3.24C82.58,1.79,81.4,0.63,79.96,0.63z"/>
        <path class="st1" d="M0,26.3l0,0.29l0.21,47.14l0.05,11.61l11.61-0.05l47.43-0.21c6.39-0.03,11.59-5.28,11.56-11.67l-0.21-47.43
          l-0.05-11.62l-59.04,0.26C5.17,14.66-0.03,19.91,0,26.3z M45.39,23.81L60,23.75c1.74-0.01,3.15,1.4,3.16,3.13l0.07,15.22
          c0.01,1.74-1.4,3.15-3.13,3.16c-1.74,0.01-3.15-1.4-3.16-3.13l-0.05-12.07l-11.46,0.05c-1.74,0.01-3.15-1.4-3.16-3.13
          S43.66,23.82,45.39,23.81z M30.86,39.7l14.61-0.07c1.74-0.01,3.15,1.4,3.16,3.13l0.07,15.21c0.01,1.74-1.4,3.15-3.13,3.16
          c-1.74,0.01-3.15-1.4-3.16-3.13l-0.05-12.07l-11.46,0.05c-1.74,0.01-3.15-1.4-3.16-3.13C27.72,41.13,29.12,39.71,30.86,39.7z"/>
      </g>
    </g>
 </g>
  <g>
    <path class="st2" d="M110.83,100.57l-2.55,6.72h-0.6l-2.27-5.83l-2.28,5.83h-0.59l-2.55-6.72h0.62l2.24,6l2.29-6h0.55l2.28,5.99
      l2.27-5.99H110.83z"/>
    <path class="st2" d="M119.99,104.08h-5.78c0.02,0.52,0.15,0.99,0.4,1.4c0.25,0.41,0.59,0.72,1.01,0.95
      c0.42,0.22,0.9,0.33,1.44,0.33c0.44,0,0.84-0.08,1.22-0.24c0.37-0.16,0.68-0.39,0.93-0.7l0.37,0.42c-0.29,0.35-0.66,0.62-1.1,0.81
      c-0.44,0.19-0.92,0.28-1.44,0.28c-0.67,0-1.27-0.15-1.79-0.44c-0.52-0.29-0.93-0.7-1.23-1.21c-0.3-0.51-0.44-1.1-0.44-1.76
      c0-0.65,0.14-1.24,0.42-1.76c0.28-0.52,0.66-0.92,1.15-1.22c0.49-0.29,1.04-0.44,1.65-0.44c0.61,0,1.16,0.14,1.64,0.43
      c0.48,0.29,0.87,0.69,1.15,1.2c0.28,0.51,0.42,1.1,0.42,1.75L119.99,104.08z M115.52,101.4c-0.38,0.21-0.68,0.51-0.91,0.89
      c-0.23,0.38-0.36,0.81-0.39,1.29h5.15c-0.03-0.48-0.15-0.91-0.39-1.29c-0.23-0.38-0.54-0.67-0.91-0.89
      c-0.38-0.21-0.8-0.32-1.27-0.32C116.33,101.09,115.9,101.19,115.52,101.4z"/>
    <path class="st2" d="M134.96,101.25c0.49,0.49,0.73,1.19,0.73,2.11v3.93h-0.64v-3.87c0-0.76-0.19-1.33-0.57-1.72
      c-0.38-0.39-0.92-0.59-1.6-0.59c-0.79,0-1.41,0.24-1.87,0.71c-0.45,0.47-0.68,1.11-0.68,1.9v3.58h-0.64v-9.55h0.64v4.23
      c0.23-0.46,0.57-0.82,1.03-1.07c0.45-0.25,0.99-0.38,1.61-0.38C133.8,100.52,134.47,100.76,134.96,101.25z"/>
    <path class="st2" d="M144.72,101.16c0.45,0.42,0.67,1.05,0.67,1.87v4.26h-0.62v-1.2c-0.21,0.39-0.53,0.7-0.94,0.92
      c-0.41,0.22-0.91,0.33-1.48,0.33c-0.75,0-1.34-0.18-1.77-0.53c-0.43-0.35-0.65-0.82-0.65-1.39c0-0.56,0.2-1.01,0.6-1.36
      c0.4-0.35,1.04-0.52,1.91-0.52h2.3V103c0-0.63-0.17-1.1-0.51-1.43c-0.34-0.33-0.83-0.49-1.49-0.49c-0.45,0-0.87,0.08-1.28,0.23
      c-0.41,0.15-0.75,0.36-1.04,0.62l-0.32-0.46c0.33-0.3,0.74-0.53,1.21-0.7c0.47-0.17,0.97-0.25,1.48-0.25
      C143.63,100.52,144.27,100.73,144.72,101.16z M143.86,106.43c0.39-0.26,0.68-0.63,0.88-1.12v-1.26h-2.29
      c-0.66,0-1.14,0.12-1.44,0.36c-0.3,0.24-0.44,0.57-0.44,0.99c0,0.44,0.16,0.78,0.49,1.04c0.33,0.25,0.79,0.38,1.38,0.38
      C142.99,106.81,143.47,106.68,143.86,106.43z"/>
    <path class="st2" d="M151.15,106.9c-0.51-0.29-0.92-0.7-1.21-1.22c-0.29-0.52-0.44-1.1-0.44-1.76c0-0.66,0.15-1.25,0.44-1.77
      c0.29-0.52,0.7-0.92,1.21-1.21c0.51-0.29,1.1-0.43,1.75-0.43c0.54,0,1.03,0.11,1.47,0.32c0.44,0.21,0.8,0.52,1.07,0.92l-0.48,0.35
      c-0.24-0.33-0.54-0.59-0.89-0.75c-0.36-0.17-0.75-0.25-1.18-0.25c-0.52,0-0.99,0.12-1.41,0.35c-0.42,0.24-0.74,0.57-0.98,1
      c-0.24,0.43-0.35,0.92-0.35,1.48s0.12,1.05,0.35,1.48c0.24,0.43,0.56,0.76,0.98,1c0.42,0.24,0.89,0.35,1.41,0.35
      c0.43,0,0.82-0.08,1.18-0.25c0.36-0.17,0.65-0.42,0.89-0.75l0.48,0.35c-0.27,0.4-0.63,0.71-1.07,0.92
      c-0.44,0.21-0.93,0.32-1.47,0.32C152.25,107.34,151.67,107.2,151.15,106.9z"/>
    <path class="st2" d="M161.85,103.7l-1.75,1.6v1.99h-0.64v-9.55h0.64v6.76l4.3-3.93h0.82l-2.9,2.72l3.18,4h-0.8L161.85,103.7z"/>
    <path class="st2" d="M180.1,100.57l-3.45,7.63c-0.26,0.59-0.56,1.01-0.89,1.26c-0.34,0.25-0.74,0.37-1.2,0.37
      c-0.31,0-0.6-0.05-0.87-0.15c-0.27-0.1-0.5-0.25-0.69-0.45l0.32-0.49c0.34,0.35,0.76,0.53,1.25,0.53c0.33,0,0.61-0.09,0.84-0.27
      c0.23-0.18,0.45-0.49,0.64-0.93l0.36-0.81l-3.02-6.69h0.68l2.69,6.01l2.69-6.01H180.1z"/>
    <path class="st2" d="M184.4,106.9c-0.51-0.29-0.91-0.7-1.2-1.22c-0.29-0.52-0.44-1.1-0.44-1.76c0-0.65,0.15-1.24,0.44-1.76
      c0.29-0.52,0.69-0.92,1.2-1.22c0.51-0.29,1.08-0.44,1.72-0.44c0.63,0,1.21,0.15,1.72,0.44c0.51,0.29,0.91,0.7,1.2,1.22
      c0.29,0.52,0.44,1.1,0.44,1.76c0,0.65-0.15,1.24-0.44,1.76c-0.29,0.52-0.69,0.92-1.2,1.22c-0.51,0.29-1.08,0.44-1.72,0.44
      C185.49,107.34,184.91,107.2,184.4,106.9z M187.51,106.4c0.41-0.24,0.73-0.57,0.97-1c0.24-0.43,0.35-0.92,0.35-1.47
      s-0.12-1.04-0.35-1.47c-0.24-0.43-0.56-0.76-0.97-1c-0.41-0.24-0.87-0.36-1.38-0.36c-0.51,0-0.98,0.12-1.38,0.36
      c-0.41,0.24-0.73,0.58-0.97,1c-0.24,0.43-0.35,0.92-0.35,1.47s0.12,1.04,0.35,1.47c0.24,0.43,0.56,0.76,0.97,1
      c0.41,0.24,0.87,0.36,1.38,0.36C186.64,106.76,187.1,106.64,187.51,106.4z"/>
    <path class="st2" d="M199.55,100.57v6.72h-0.62v-1.44c-0.22,0.47-0.55,0.84-0.99,1.1c-0.44,0.26-0.95,0.39-1.54,0.39
      c-0.88,0-1.56-0.24-2.06-0.73c-0.5-0.49-0.75-1.19-0.75-2.11v-3.93h0.64v3.87c0,0.76,0.19,1.33,0.58,1.72
      c0.39,0.39,0.93,0.59,1.63,0.59c0.76,0,1.35-0.24,1.8-0.71c0.44-0.47,0.66-1.11,0.66-1.9v-3.58H199.55z"/>
    <path class="st2" d="M206.05,100.91c0.44-0.26,0.97-0.39,1.6-0.39v0.63l-0.15-0.01c-0.75,0-1.33,0.23-1.75,0.7
      c-0.42,0.47-0.63,1.12-0.63,1.95v3.5h-0.64v-6.72h0.62v1.47C205.29,101.55,205.61,101.17,206.05,100.91z"/>
    <path class="st2" d="M217.37,107.1c-0.49-0.16-0.87-0.37-1.15-0.62l0.3-0.51c0.27,0.23,0.63,0.42,1.06,0.58
      c0.43,0.15,0.89,0.23,1.36,0.23c0.68,0,1.18-0.11,1.5-0.33c0.32-0.22,0.48-0.53,0.48-0.93c0-0.28-0.09-0.51-0.26-0.67
      c-0.18-0.16-0.39-0.28-0.65-0.36c-0.26-0.08-0.61-0.16-1.07-0.24c-0.53-0.09-0.96-0.2-1.29-0.31c-0.33-0.11-0.6-0.29-0.84-0.54
      c-0.23-0.25-0.35-0.59-0.35-1.03c0-0.53,0.22-0.97,0.66-1.32c0.44-0.35,1.07-0.52,1.89-0.52c0.43,0,0.85,0.06,1.27,0.18
      c0.42,0.12,0.76,0.28,1.03,0.48l-0.3,0.51c-0.27-0.2-0.59-0.35-0.94-0.45c-0.35-0.1-0.71-0.15-1.08-0.15
      c-0.63,0-1.1,0.12-1.42,0.35c-0.32,0.23-0.48,0.54-0.48,0.91c0,0.3,0.09,0.53,0.27,0.7c0.18,0.17,0.4,0.29,0.66,0.37
      c0.26,0.08,0.63,0.17,1.1,0.26c0.52,0.09,0.95,0.2,1.27,0.3c0.32,0.11,0.59,0.28,0.82,0.52c0.22,0.24,0.33,0.57,0.33,0.99
      c0,0.56-0.23,1-0.7,1.34c-0.46,0.33-1.12,0.5-1.96,0.5C218.38,107.34,217.86,107.26,217.37,107.1z"/>
    <path class="st2" d="M226.47,106.9c-0.51-0.29-0.91-0.7-1.2-1.22c-0.29-0.52-0.44-1.1-0.44-1.76c0-0.65,0.15-1.24,0.44-1.76
      c0.29-0.52,0.69-0.92,1.2-1.22c0.51-0.29,1.08-0.44,1.72-0.44c0.63,0,1.21,0.15,1.72,0.44c0.51,0.29,0.91,0.7,1.2,1.22
      c0.29,0.52,0.44,1.1,0.44,1.76c0,0.65-0.15,1.24-0.44,1.76c-0.29,0.52-0.69,0.92-1.2,1.22c-0.51,0.29-1.08,0.44-1.72,0.44
      C227.55,107.34,226.98,107.2,226.47,106.9z M229.57,106.4c0.41-0.24,0.73-0.57,0.97-1c0.24-0.43,0.35-0.92,0.35-1.47
      s-0.12-1.04-0.35-1.47c-0.24-0.43-0.56-0.76-0.97-1c-0.41-0.24-0.87-0.36-1.38-0.36s-0.98,0.12-1.38,0.36
      c-0.41,0.24-0.73,0.58-0.97,1c-0.24,0.43-0.35,0.92-0.35,1.47s0.12,1.04,0.35,1.47c0.24,0.43,0.56,0.76,0.97,1
      c0.41,0.24,0.87,0.36,1.38,0.36S229.16,106.64,229.57,106.4z"/>
    <path class="st2" d="M236.49,99.59v0.98h2.15v0.55h-2.14v6.17h-0.64v-6.17h-1.24v-0.55h1.24v-1.03c0-0.57,0.16-1.02,0.49-1.35
      c0.33-0.33,0.79-0.5,1.38-0.5c0.26,0,0.5,0.04,0.74,0.11c0.24,0.07,0.43,0.18,0.59,0.33l-0.26,0.49
      c-0.27-0.25-0.62-0.37-1.04-0.37C236.91,98.24,236.49,98.69,236.49,99.59z"/>
    <path class="st2" d="M245.47,106.86c-0.16,0.15-0.37,0.27-0.61,0.35c-0.24,0.08-0.5,0.12-0.77,0.12c-0.58,0-1.03-0.16-1.35-0.48
      c-0.32-0.32-0.48-0.77-0.48-1.34v-4.39h-1.24v-0.55h1.24V99.1h0.64v1.47h2.14v0.55h-2.14v4.32c0,0.44,0.11,0.77,0.32,1
      c0.21,0.23,0.52,0.34,0.93,0.34c0.42,0,0.77-0.12,1.04-0.37L245.47,106.86z"/>
    <path class="st2" d="M258.92,100.57l-2.55,6.72h-0.6l-2.27-5.83l-2.28,5.83h-0.59l-2.55-6.72h0.62l2.24,6l2.29-6h0.55l2.28,5.99
      l2.27-5.99H258.92z"/>
    <path class="st2" d="M266.58,101.16c0.45,0.42,0.67,1.05,0.67,1.87v4.26h-0.62v-1.2c-0.21,0.39-0.53,0.7-0.94,0.92
      c-0.41,0.22-0.91,0.33-1.48,0.33c-0.75,0-1.34-0.18-1.77-0.53c-0.43-0.35-0.65-0.82-0.65-1.39c0-0.56,0.2-1.01,0.6-1.36
      c0.4-0.35,1.04-0.52,1.91-0.52h2.3V103c0-0.63-0.17-1.1-0.51-1.43c-0.34-0.33-0.83-0.49-1.49-0.49c-0.45,0-0.87,0.08-1.28,0.23
      c-0.41,0.15-0.75,0.36-1.04,0.62l-0.32-0.46c0.33-0.3,0.74-0.53,1.21-0.7c0.47-0.17,0.97-0.25,1.48-0.25
      C265.49,100.52,266.13,100.73,266.58,101.16z M265.72,106.43c0.39-0.26,0.68-0.63,0.88-1.12v-1.26h-2.29
      c-0.66,0-1.14,0.12-1.44,0.36c-0.3,0.24-0.44,0.57-0.44,0.99c0,0.44,0.16,0.78,0.49,1.04c0.33,0.25,0.79,0.38,1.38,0.38
      C264.86,106.81,265.33,106.68,265.72,106.43z"/>
    <path class="st2" d="M273.67,100.91c0.44-0.26,0.97-0.39,1.6-0.39v0.63l-0.15-0.01c-0.75,0-1.33,0.23-1.75,0.7
      c-0.42,0.47-0.63,1.12-0.63,1.95v3.5h-0.64v-6.72h0.62v1.47C272.91,101.55,273.23,101.17,273.67,100.91z"/>
    <path class="st2" d="M284.84,104.08h-5.78c0.02,0.52,0.15,0.99,0.4,1.4c0.25,0.41,0.59,0.72,1.01,0.95
      c0.42,0.22,0.9,0.33,1.44,0.33c0.44,0,0.84-0.08,1.22-0.24c0.37-0.16,0.68-0.39,0.93-0.7l0.37,0.42c-0.29,0.35-0.66,0.62-1.1,0.81
      s-0.92,0.28-1.44,0.28c-0.67,0-1.27-0.15-1.79-0.44c-0.52-0.29-0.93-0.7-1.23-1.21c-0.3-0.51-0.44-1.1-0.44-1.76
      c0-0.65,0.14-1.24,0.42-1.76c0.28-0.52,0.66-0.92,1.15-1.22c0.49-0.29,1.04-0.44,1.65-0.44c0.61,0,1.16,0.14,1.64,0.43
      c0.48,0.29,0.87,0.69,1.15,1.2c0.28,0.51,0.42,1.1,0.42,1.75L284.84,104.08z M280.38,101.4c-0.38,0.21-0.68,0.51-0.91,0.89
      c-0.23,0.38-0.36,0.81-0.39,1.29h5.15c-0.03-0.48-0.15-0.91-0.39-1.29c-0.23-0.38-0.54-0.67-0.91-0.89
      c-0.38-0.21-0.8-0.32-1.27-0.32C281.18,101.09,280.75,101.19,280.38,101.4z"/>
  </g>
</g>
</svg>
