<?xml version="1.0" encoding="utf-8"?>
<!-- Generator: Adobe Illustrator 24.2.1, SVG Export Plug-In . SVG Version: 6.00 Build 0)  -->
<svg version="1.1" id="Capa_1" xmlns="http://www.w3.org/2000/svg" xmlns:xlink="http://www.w3.org/1999/xlink" x="0px" y="0px"
  viewBox="0 0 18.8 18.6" style="enable-background:new 0 0 18.8 18.6;" xml:space="preserve">
<style type="text/css">
  .st0{fill:#272727;}
</style>
<g>
  <g>
    <path class="st0" d="M18.6,17.5l-5.4-5.4c1-1.3,1.7-2.9,1.7-4.7c0-4.1-3.3-7.4-7.4-7.4S0,3.3,0,7.4s3.3,7.4,7.4,7.4
      c1.8,0,3.4-0.6,4.7-1.7l5.4,5.4c0.2,0.2,0.4,0.2,0.6,0l0.6-0.6C18.8,17.9,18.8,17.7,18.6,17.5z M7.4,13.3c-3.2,0-5.9-2.6-5.9-5.9
      s2.6-5.9,5.9-5.9s5.9,2.6,5.9,5.9S10.7,13.3,7.4,13.3z"/>
  </g>
</g>
</svg>
