<?xml version="1.0" encoding="utf-8"?>
<!-- Generator: Adobe Illustrator 25.2.0, SVG Export Plug-In . SVG Version: 6.00 Build 0)  -->
<svg version="1.1" xmlns="http://www.w3.org/2000/svg" xmlns:xlink="http://www.w3.org/1999/xlink" x="0px" y="0px"
	 viewBox="0 0 1537.1 832.6" style="enable-background:new 0 0 1537.1 832.6;" xml:space="preserve">
<style type="text/css">
	.st0{fill:#FFFFFF;}
	.st1{fill:#FF3435;}
	.st2{fill:#F9F9F9;}
	.st3{fill:#272727;}
</style>
<g id="bg">
</g>
<g id="Capa_1">
	<g>
		<g>
			<g>
				<path class="st0" d="M622.3,90.6l33.8,0l0,29.2l-32.8,0l0,107.3l-38.2,0l0-107.3l-20.3,0l0-29.2l20.3,0l0-5.8
					c0-14.9,4.4-26.7,13.4-35.5c8.9-8.7,21.4-13.1,37.6-13.1c5.7,0,11.1,0.6,16.3,1.8c5.1,1.2,9.4,3,12.9,5.2l-10,27.5
					c-4.4-3.1-9.5-4.6-15.4-4.6c-11.6,0-17.4,6.3-17.4,19L622.3,90.6z"/>
				<rect x="683.8" y="36.7" class="st0" width="38.2" height="190.4"/>
				<path class="st0" d="M890.3,95.4l0,131.8l-36.2,0l0-15.7c-5.1,5.7-11.1,10.1-18.1,13.1c-7,3-14.6,4.5-22.8,4.5
					c-17.3,0-31-5-41.1-14.9c-10.1-10-15.2-24.7-15.2-44.3l0-74.4l38.2,0l0,68.8c0,21.2,8.9,31.8,26.7,31.8c9.1,0,16.5-3,22-8.9
					c5.5-6,8.3-14.8,8.3-26.6l0-65.1L890.3,95.4z"/>
				<path class="st0" d="M927.5,73.4c-4.2-4.2-6.3-9.3-6.3-15.5c0-6.1,2.1-11.3,6.3-15.5s9.7-6.2,16.4-6.2c6.7,0,12.2,2,16.4,6
					c4.2,4,6.3,9,6.3,15c0,6.5-2.1,11.8-6.3,16.1c-4.2,4.2-9.7,6.4-16.4,6.4C937.2,79.6,931.7,77.6,927.5,73.4z"/>
				<rect x="925.8" y="95.4" class="st0" width="38.2" height="131.8"/>
				<path class="st0" d="M1095.5,36.3l0,73.1c-9.5-10.6-22.6-15.9-39.4-15.9c-12.4,0-23.6,2.8-33.7,8.3c-10,5.6-17.9,13.5-23.6,23.8
					c-5.7,10.3-8.6,22.2-8.6,35.8c0,13.6,2.9,25.5,8.6,35.8c5.7,10.3,13.6,18.2,23.6,23.8c10,5.6,21.3,8.3,33.7,8.3
					c18,0,31.7-5.7,41.1-17.1l0,15.2l36.5,0l0-190.9L1095.5,36.3z M1086.7,187.9c-6.4,6.6-14.4,9.9-24,9.9c-9.8,0-17.9-3.3-24.2-9.9
					c-6.4-6.6-9.6-15.5-9.5-26.6c0-11.1,3.2-20,9.6-26.6c6.4-6.6,14.4-9.9,24.2-9.9c9.6,0,17.6,3.3,24,9.9
					c6.4,6.6,9.6,15.5,9.5,26.6C1096.2,172.4,1093,181.3,1086.7,187.9z"/>
			</g>
			<g>
				<path class="st0" d="M660.4,329.7c8.9,8.4,13.3,20.8,13.3,37.2l0,84.6l-12.3,0l0-23.8c-4.3,7.8-10.5,13.9-18.7,18.3
					c-8.2,4.3-18,6.5-29.4,6.5c-14.8,0-26.6-3.5-35.2-10.5c-8.6-7-12.9-16.2-12.9-27.6c0-11.1,4-20.1,11.9-27
					c7.9-6.9,20.6-10.4,38-10.4l45.8,0l0-10.7c0-12.4-3.4-21.9-10.1-28.4c-6.7-6.5-16.6-9.7-29.5-9.7c-8.9,0-17.3,1.5-25.4,4.6
					c-8.1,3.1-15,7.2-20.6,12.3l-6.4-9.2c6.6-6,14.7-10.6,24-13.9c9.4-3.3,19.2-5,29.4-5C638.8,317,651.5,321.3,660.4,329.7z
					 M643.4,434.4c7.8-5.1,13.6-12.5,17.5-22.2l0-25.1l-45.5,0c-13.1,0-22.6,2.4-28.5,7.2c-5.9,4.8-8.8,11.3-8.8,19.7
					c0,8.7,3.2,15.6,9.7,20.6c6.5,5,15.6,7.5,27.4,7.5C626.2,442.1,635.6,439.5,643.4,434.4z"/>
				<path class="st0" d="M792.6,443.1c-3.2,3.1-7.3,5.4-12.1,7c-4.9,1.6-9.9,2.4-15.2,2.4c-11.6,0-20.5-3.2-26.8-9.6
					c-6.3-6.4-9.5-15.3-9.5-26.7l0-87.2l-24.5,0l0-11l24.5,0l0-29.1l12.8,0l0,29.1l42.4,0l0,11l-42.4,0l0,85.9
					c0,8.7,2.1,15.3,6.3,19.8c4.2,4.5,10.4,6.8,18.5,6.8c8.3,0,15.3-2.5,20.7-7.4L792.6,443.1z"/>
				<path class="st0" d="M890.8,443.1c-3.2,3.1-7.3,5.4-12.1,7c-4.9,1.6-9.9,2.4-15.2,2.4c-11.6,0-20.5-3.2-26.8-9.6
					c-6.3-6.4-9.5-15.3-9.5-26.7l0-87.2l-24.5,0l0-11l24.5,0l0-29.1l12.8,0l0,29.1l42.4,0l0,11l-42.4,0l0,85.9
					c0,8.7,2.1,15.3,6.3,19.8c4.2,4.5,10.4,6.8,18.5,6.8c8.3,0,15.3-2.5,20.7-7.4L890.8,443.1z"/>
				<path class="st0" d="M1009.4,329.8c8.9,8.4,13.3,20.8,13.3,37.2l0,84.6l-12.3,0l0-23.8c-4.3,7.8-10.5,13.9-18.7,18.3
					c-8.2,4.3-18,6.5-29.4,6.5c-14.8,0-26.6-3.5-35.2-10.5c-8.6-7-12.9-16.2-12.9-27.6c0-11.1,4-20.1,11.9-27
					c7.9-6.9,20.6-10.4,38-10.4l45.8,0l0-10.7c0-12.4-3.4-21.9-10.1-28.4c-6.7-6.5-16.6-9.7-29.5-9.7c-8.9,0-17.3,1.5-25.4,4.6
					c-8.1,3.1-15,7.2-20.6,12.3l-6.4-9.2c6.6-6,14.7-10.6,24-13.9c9.4-3.3,19.2-5,29.4-5C987.8,317.1,1000.5,321.3,1009.4,329.8z
					 M992.4,434.5c7.8-5.1,13.6-12.5,17.5-22.2l0-25.1l-45.5,0c-13.1,0-22.6,2.4-28.5,7.2c-5.9,4.8-8.8,11.3-8.8,19.7
					c0,8.7,3.2,15.6,9.7,20.6c6.5,5,15.6,7.5,27.4,7.5C975.2,442.1,984.6,439.6,992.4,434.5z"/>
				<path class="st0" d="M1093.8,443.9c-10.2-5.8-18.2-13.8-24-24.2s-8.7-21.9-8.7-34.9c0-13.1,2.9-24.8,8.7-35.2
					c5.8-10.3,13.8-18.3,24-24c10.2-5.7,21.8-8.6,34.8-8.6c10.7,0,20.5,2.1,29.3,6.3c8.8,4.2,15.9,10.3,21.4,18.3l-9.5,6.9
					c-4.8-6.7-10.7-11.6-17.8-15c-7.1-3.3-14.9-5-23.4-5c-10.4,0-19.7,2.3-28,7c-8.3,4.7-14.7,11.3-19.4,19.8
					c-4.7,8.5-7,18.3-7,29.4c0,11.1,2.3,20.9,7,29.4c4.7,8.5,11.2,15.1,19.4,19.8c8.3,4.7,17.6,7,28,7c8.5,0,16.3-1.7,23.4-5
					c7.1-3.3,13-8.3,17.8-15l9.5,6.9c-5.5,8-12.6,14.1-21.4,18.3c-8.8,4.2-18.5,6.3-29.3,6.3C1115.6,452.6,1104,449.7,1093.8,443.9z
					"/>
				<path class="st0" d="M1262.8,380.3L1228,412l0,39.6l-12.8,0l0-189.7l12.8,0l0,134.2l85.4-78l16.4,0l-57.5,53.9l63.1,79.5
					l-15.8,0L1262.8,380.3z"/>
				<path class="st0" d="M1364.5,447.8c-9.7-3.2-17.3-7.3-22.8-12.3l5.9-10.2c5.5,4.6,12.5,8.4,21.1,11.5c8.6,3.1,17.6,4.6,27,4.6
					c13.5,0,23.4-2.2,29.8-6.6c6.4-4.4,9.6-10.6,9.6-18.4c0-5.6-1.7-10.1-5.2-13.3c-3.5-3.2-7.8-5.6-12.9-7.2
					c-5.1-1.5-12.2-3.2-21.2-4.9c-10.6-1.9-19.1-3.9-25.6-6.1c-6.5-2.2-12-5.8-16.6-10.7c-4.6-4.9-6.9-11.8-6.9-20.5
					c0-10.6,4.4-19.3,13.2-26.2c8.8-6.9,21.3-10.4,37.5-10.3c8.5,0,17,1.2,25.3,3.6c8.3,2.4,15.2,5.5,20.5,9.5l-5.9,10.2
					c-5.5-3.9-11.7-6.9-18.7-8.9s-14.2-3.1-21.5-3.1c-12.4,0-21.8,2.3-28.1,6.9c-6.3,4.6-9.5,10.7-9.5,18.1c0,6,1.8,10.6,5.4,13.9
					c3.6,3.3,8,5.8,13.2,7.4c5.2,1.6,12.5,3.4,21.9,5.2c10.4,1.9,18.8,3.9,25.2,6c6.4,2.1,11.8,5.6,16.2,10.4
					c4.4,4.8,6.6,11.3,6.6,19.7c0,11.1-4.6,19.9-13.8,26.6c-9.2,6.6-22.2,10-38.9,10C1384.5,452.7,1374.3,451,1364.5,447.8z"/>
			</g>
			<g>
				<g>
					<path class="st0" d="M155.1,548.3l-18.9,49.8h-4.5L115,554.9l-16.9,43.2h-4.4l-18.9-49.8h4.6L96,592.8l17-44.5h4.1l16.9,44.4
						l16.8-44.4H155.1z"/>
					<path class="st0" d="M223.1,574.4h-42.8c0.1,3.9,1.1,7.3,3,10.4c1.8,3,4.3,5.4,7.5,7c3.1,1.7,6.7,2.5,10.6,2.5
						c3.2,0,6.2-0.6,9-1.8c2.8-1.2,5.1-2.9,6.9-5.2l2.8,3.1c-2.2,2.6-4.9,4.6-8.2,6c-3.3,1.4-6.8,2.1-10.6,2.1
						c-5,0-9.4-1.1-13.3-3.2c-3.9-2.2-6.9-5.2-9.1-9c-2.2-3.8-3.3-8.2-3.3-13.1c0-4.8,1-9.2,3.1-13c2.1-3.8,4.9-6.9,8.5-9
						c3.6-2.2,7.7-3.2,12.2-3.2c4.5,0,8.6,1.1,12.2,3.2c3.6,2.1,6.4,5.1,8.5,8.9c2.1,3.8,3.1,8.1,3.1,13L223.1,574.4z M190,554.5
						c-2.8,1.6-5,3.8-6.7,6.6c-1.7,2.8-2.7,6-2.9,9.6h38.2c-0.2-3.6-1.1-6.7-2.9-9.5c-1.7-2.8-4-5-6.8-6.6c-2.8-1.6-5.9-2.4-9.4-2.4
						C195.9,552.2,192.8,552.9,190,554.5z"/>
					<path class="st0" d="M334,553.4c3.6,3.6,5.4,8.8,5.4,15.6v29.1h-4.8v-28.7c0-5.6-1.4-9.9-4.2-12.8c-2.8-2.9-6.8-4.4-11.9-4.4
						c-5.9,0-10.5,1.8-13.8,5.2c-3.4,3.5-5.1,8.2-5.1,14.1v26.5h-4.8v-70.8h4.8v31.4c1.7-3.4,4.3-6.1,7.6-8
						c3.4-1.9,7.3-2.8,11.9-2.8C325.5,548,330.4,549.8,334,553.4z"/>
					<path class="st0" d="M406.3,552.7c3.3,3.1,5,7.8,5,13.9v31.6h-4.6v-8.9c-1.6,2.9-3.9,5.2-7,6.8c-3.1,1.6-6.7,2.4-11,2.4
						c-5.5,0-9.9-1.3-13.1-3.9c-3.2-2.6-4.8-6-4.8-10.3c0-4.1,1.5-7.5,4.4-10.1s7.7-3.9,14.2-3.9h17.1v-4c0-4.6-1.3-8.2-3.8-10.6
						c-2.5-2.4-6.2-3.6-11-3.6c-3.3,0-6.5,0.6-9.5,1.7c-3,1.1-5.6,2.7-7.7,4.6l-2.4-3.4c2.5-2.2,5.5-4,9-5.2c3.5-1.2,7.2-1.9,11-1.9
						C398.3,548,403,549.5,406.3,552.7z M400,591.7c2.9-1.9,5.1-4.7,6.5-8.3v-9.3h-17c-4.9,0-8.4,0.9-10.6,2.7
						c-2.2,1.8-3.3,4.2-3.3,7.3c0,3.2,1.2,5.8,3.6,7.7c2.4,1.9,5.8,2.8,10.2,2.8C393.6,594.6,397.1,593.7,400,591.7z"/>
					<path class="st0" d="M454,595.3c-3.8-2.2-6.8-5.2-9-9c-2.2-3.8-3.2-8.2-3.2-13c0-4.9,1.1-9.3,3.2-13.1c2.2-3.8,5.2-6.8,9-9
						c3.8-2.1,8.1-3.2,13-3.2c4,0,7.6,0.8,10.9,2.3c3.3,1.6,5.9,3.8,8,6.8l-3.5,2.6c-1.8-2.5-4-4.3-6.6-5.6
						c-2.6-1.2-5.5-1.9-8.7-1.9c-3.9,0-7.4,0.9-10.4,2.6c-3.1,1.8-5.5,4.2-7.3,7.4c-1.8,3.2-2.6,6.8-2.6,11s0.9,7.8,2.6,11
						c1.7,3.2,4.2,5.6,7.3,7.4c3.1,1.8,6.6,2.6,10.4,2.6c3.2,0,6.1-0.6,8.7-1.9c2.6-1.2,4.8-3.1,6.6-5.6l3.5,2.6c-2,3-4.7,5.3-8,6.8
						c-3.3,1.6-6.9,2.3-10.9,2.3C462.2,598.5,457.8,597.4,454,595.3z"/>
					<path class="st0" d="M533.3,571.5l-13,11.8v14.8h-4.8v-70.8h4.8v50.1l31.9-29.1h6.1l-21.5,20.1l23.6,29.7h-5.9L533.3,571.5z"/>
					<path class="st0" d="M668.6,548.3L643,604.9c-1.9,4.4-4.1,7.5-6.6,9.3c-2.5,1.8-5.5,2.8-8.9,2.8c-2.3,0-4.4-0.4-6.4-1.1
						c-2-0.8-3.7-1.9-5.1-3.3l2.4-3.6c2.5,2.6,5.6,3.9,9.3,3.9c2.4,0,4.5-0.7,6.2-2c1.7-1.3,3.3-3.6,4.8-6.9l2.7-6l-22.4-49.6h5.1
						l19.9,44.6l19.9-44.6H668.6z"/>
					<path class="st0" d="M700.5,595.3c-3.8-2.2-6.8-5.2-8.9-9c-2.2-3.8-3.2-8.2-3.2-13c0-4.8,1.1-9.2,3.2-13c2.2-3.8,5.1-6.9,8.9-9
						c3.8-2.2,8-3.2,12.7-3.2c4.7,0,9,1.1,12.7,3.2c3.8,2.2,6.8,5.2,8.9,9c2.2,3.8,3.2,8.2,3.2,13c0,4.8-1.1,9.2-3.2,13
						c-2.2,3.8-5.1,6.9-8.9,9c-3.8,2.2-8,3.2-12.7,3.2C708.5,598.5,704.3,597.4,700.5,595.3z M723.5,591.6c3-1.8,5.4-4.3,7.2-7.4
						c1.7-3.2,2.6-6.8,2.6-10.9c0-4.1-0.9-7.7-2.6-10.9c-1.7-3.2-4.1-5.7-7.2-7.4c-3-1.8-6.4-2.7-10.3-2.7s-7.2,0.9-10.3,2.7
						c-3,1.8-5.4,4.3-7.2,7.4c-1.8,3.2-2.6,6.8-2.6,10.9c0,4.1,0.9,7.7,2.6,10.9c1.7,3.2,4.1,5.7,7.2,7.4c3,1.8,6.4,2.7,10.3,2.7
						S720.5,593.3,723.5,591.6z"/>
					<path class="st0" d="M812.7,548.3v49.8h-4.6v-10.7c-1.7,3.5-4.1,6.2-7.3,8.2c-3.2,1.9-7.1,2.9-11.4,2.9
						c-6.5,0-11.6-1.8-15.3-5.4c-3.7-3.6-5.5-8.8-5.5-15.6v-29.1h4.8V577c0,5.6,1.4,9.9,4.3,12.8c2.9,2.9,6.9,4.4,12.1,4.4
						c5.6,0,10-1.8,13.3-5.2c3.3-3.5,4.9-8.2,4.9-14.1v-26.5H812.7z"/>
					<path class="st0" d="M860.9,550.9c3.2-1.9,7.2-2.9,11.8-2.9v4.7l-1.1-0.1c-5.5,0-9.9,1.7-13,5.2c-3.1,3.5-4.7,8.3-4.7,14.5
						v25.9h-4.8v-49.8h4.6v10.9C855.3,555.6,857.7,552.8,860.9,550.9z"/>
					<path class="st0" d="M944.8,596.7c-3.6-1.2-6.5-2.7-8.5-4.6l2.2-3.8c2,1.7,4.7,3.1,7.9,4.3c3.2,1.1,6.6,1.7,10.1,1.7
						c5,0,8.7-0.8,11.1-2.5c2.4-1.7,3.6-3.9,3.6-6.9c0-2.1-0.7-3.8-2-5c-1.3-1.2-2.9-2.1-4.8-2.7c-1.9-0.6-4.5-1.2-7.9-1.8
						c-3.9-0.7-7.1-1.5-9.5-2.3c-2.4-0.8-4.5-2.2-6.2-4c-1.7-1.8-2.6-4.4-2.6-7.6c0-3.9,1.6-7.2,4.9-9.8c3.3-2.6,7.9-3.9,14-3.9
						c3.2,0,6.3,0.4,9.4,1.3c3.1,0.9,5.7,2.1,7.6,3.5l-2.2,3.8c-2-1.5-4.4-2.6-7-3.3c-2.6-0.8-5.3-1.1-8-1.1
						c-4.6,0-8.1,0.9-10.5,2.6c-2.4,1.7-3.5,4-3.5,6.8c0,2.2,0.7,4,2,5.2c1.3,1.2,3,2.2,4.9,2.8c1.9,0.6,4.7,1.3,8.2,2
						c3.9,0.7,7,1.4,9.4,2.2c2.4,0.8,4.4,2.1,6.1,3.9c1.7,1.8,2.5,4.2,2.5,7.3c0,4.1-1.7,7.4-5.2,9.9c-3.4,2.5-8.3,3.7-14.5,3.7
						C952.3,598.5,948.5,597.9,944.8,596.7z"/>
					<path class="st0" d="M1012.2,595.3c-3.8-2.2-6.8-5.2-8.9-9c-2.2-3.8-3.2-8.2-3.2-13c0-4.8,1.1-9.2,3.2-13
						c2.2-3.8,5.1-6.9,8.9-9c3.8-2.2,8-3.2,12.7-3.2c4.7,0,9,1.1,12.7,3.2c3.8,2.2,6.8,5.2,8.9,9c2.2,3.8,3.2,8.2,3.2,13
						c0,4.8-1.1,9.2-3.2,13c-2.2,3.8-5.1,6.9-8.9,9c-3.8,2.2-8,3.2-12.7,3.2C1020.3,598.5,1016,597.4,1012.2,595.3z M1035.2,591.6
						c3-1.8,5.4-4.3,7.2-7.4c1.7-3.2,2.6-6.8,2.6-10.9c0-4.1-0.9-7.7-2.6-10.9c-1.7-3.2-4.1-5.7-7.2-7.4c-3-1.8-6.4-2.7-10.3-2.7
						c-3.8,0-7.2,0.9-10.3,2.7c-3,1.8-5.4,4.3-7.2,7.4c-1.8,3.2-2.6,6.8-2.6,10.9c0,4.1,0.9,7.7,2.6,10.9c1.7,3.2,4.1,5.7,7.2,7.4
						c3,1.8,6.4,2.7,10.3,2.7C1028.8,594.2,1032.2,593.3,1035.2,591.6z"/>
					<path class="st0" d="M1086.5,541.1v7.2h15.9v4.1h-15.8v45.7h-4.8v-45.7h-9.2v-4.1h9.2v-7.6c0-4.2,1.2-7.5,3.6-10
						c2.4-2.5,5.8-3.7,10.2-3.7c1.9,0,3.7,0.3,5.5,0.8c1.7,0.5,3.2,1.4,4.3,2.4l-1.9,3.6c-2-1.8-4.6-2.8-7.7-2.8
						C1089.6,531.1,1086.5,534.4,1086.5,541.1z"/>
					<path class="st0" d="M1153.1,595c-1.2,1.1-2.7,2-4.5,2.6c-1.8,0.6-3.7,0.9-5.7,0.9c-4.3,0-7.7-1.2-10-3.6
						c-2.4-2.4-3.5-5.7-3.5-10v-32.5h-9.2v-4.1h9.2v-10.9h4.8v10.9h15.8v4.1h-15.8v32.1c0,3.2,0.8,5.7,2.3,7.4
						c1.6,1.7,3.9,2.5,6.9,2.5c3.1,0,5.7-0.9,7.7-2.8L1153.1,595z"/>
					<path class="st0" d="M1252.8,548.3l-18.9,49.8h-4.5l-16.8-43.2l-16.9,43.2h-4.4l-18.9-49.8h4.6l16.6,44.5l17-44.5h4.1
						l16.9,44.4l16.8-44.4H1252.8z"/>
					<path class="st0" d="M1309.6,552.7c3.3,3.1,5,7.8,5,13.9v31.6h-4.6v-8.9c-1.6,2.9-3.9,5.2-7,6.8c-3.1,1.6-6.7,2.4-11,2.4
						c-5.5,0-9.9-1.3-13.1-3.9c-3.2-2.6-4.8-6-4.8-10.3c0-4.1,1.5-7.5,4.4-10.1c3-2.6,7.7-3.9,14.2-3.9h17.1v-4
						c0-4.6-1.3-8.2-3.8-10.6c-2.5-2.4-6.2-3.6-11-3.6c-3.3,0-6.5,0.6-9.5,1.7c-3,1.1-5.6,2.7-7.7,4.6l-2.4-3.4c2.5-2.2,5.5-4,9-5.2
						c3.5-1.2,7.2-1.9,11-1.9C1301.5,548,1306.2,549.5,1309.6,552.7z M1303.2,591.7c2.9-1.9,5.1-4.7,6.5-8.3v-9.3h-17
						c-4.9,0-8.4,0.9-10.6,2.7c-2.2,1.8-3.3,4.2-3.3,7.3c0,3.2,1.2,5.8,3.6,7.7c2.4,1.9,5.8,2.8,10.2,2.8
						C1296.8,594.6,1300.3,593.7,1303.2,591.7z"/>
					<path class="st0" d="M1362.1,550.9c3.2-1.9,7.2-2.9,11.8-2.9v4.7l-1.1-0.1c-5.5,0-9.9,1.7-13,5.2c-3.1,3.5-4.7,8.3-4.7,14.5
						v25.9h-4.8v-49.8h4.6v10.9C1356.5,555.6,1358.9,552.8,1362.1,550.9z"/>
					<path class="st0" d="M1444.9,574.4h-42.8c0.1,3.9,1.1,7.3,3,10.4c1.8,3,4.3,5.4,7.5,7c3.1,1.7,6.7,2.5,10.6,2.5
						c3.2,0,6.2-0.6,9-1.8c2.8-1.2,5.1-2.9,6.9-5.2l2.8,3.1c-2.2,2.6-4.9,4.6-8.2,6c-3.3,1.4-6.8,2.1-10.6,2.1
						c-5,0-9.4-1.1-13.3-3.2c-3.9-2.2-6.9-5.2-9.1-9c-2.2-3.8-3.3-8.2-3.3-13.1c0-4.8,1-9.2,3.1-13c2.1-3.8,4.9-6.9,8.5-9
						c3.6-2.2,7.7-3.2,12.2-3.2c4.5,0,8.6,1.1,12.2,3.2c3.6,2.1,6.4,5.1,8.5,8.9c2.1,3.8,3.1,8.1,3.1,13L1444.9,574.4z
						 M1411.8,554.5c-2.8,1.6-5,3.8-6.7,6.6c-1.7,2.8-2.7,6-2.9,9.6h38.2c-0.2-3.6-1.1-6.7-2.9-9.5c-1.7-2.8-4-5-6.8-6.6
						c-2.8-1.6-5.9-2.4-9.4-2.4S1414.6,552.9,1411.8,554.5z"/>
				</g>
			</g>
			<g>
				<path class="st1" d="M481.9,36.9h-61c-5.2,0-9.3,4.2-9.3,9.3s4.2,9.3,9.3,9.3h51.7v49.7c0,5.2,4.2,9.3,9.3,9.3
					c5.2,0,9.3-4.2,9.3-9.3v-59C491.2,41.1,487,36.9,481.9,36.9z"/>
				<path class="st1" d="M74.8,178v275.3h275.3c45.2,0,81.9-36.7,81.9-81.9V96.2H156.7C111.5,96.2,74.8,132.8,74.8,178z
					 M320.8,136.9h61c5.2,0,9.3,4.2,9.3,9.3v59c0,5.2-4.2,9.3-9.3,9.3c-5.2,0-9.3-4.2-9.3-9.3v-49.7h-51.7c-5.2,0-9.3-4.2-9.3-9.3
					S315.6,136.9,320.8,136.9z M261.3,196.1h61c5.2,0,9.3,4.2,9.3,9.3v59c0,5.2-4.2,9.3-9.3,9.3c-5.2,0-9.3-4.2-9.3-9.3v-49.7h-51.7
					c-5.2,0-9.3-4.2-9.3-9.3C251.9,200.3,256.1,196.1,261.3,196.1z"/>
			</g>
		</g>
		<path class="st2" d="M1451.2,806.6H85.9c-36.6,0-66.3-29.7-66.3-66.3v0c0-36.6,29.7-66.3,66.3-66.3h1365.3
			c36.6,0,66.3,29.7,66.3,66.3v0C1517.5,776.9,1487.8,806.6,1451.2,806.6z"/>
		<g>
			<g>
				<path class="st3" d="M110.4,745.9H93.2l-3.4,7.9h-6.6l15.4-34.2h6.3l15.5,34.2h-6.7L110.4,745.9z M108.3,740.9l-6.5-15l-6.4,15
					H108.3z"/>
				<path class="st3" d="M132.6,753.2c-2.5-0.7-4.4-1.7-5.8-3l2.2-4.9c1.4,1.1,3.1,2,5.2,2.7c2,0.7,4.1,1.1,6.1,1.1
					c2.5,0,4.4-0.4,5.7-1.2c1.3-0.8,1.9-1.9,1.9-3.2c0-1-0.4-1.8-1.1-2.4c-0.7-0.6-1.6-1.1-2.7-1.5c-1.1-0.4-2.5-0.8-4.4-1.2
					c-2.6-0.6-4.7-1.2-6.3-1.9c-1.6-0.6-3-1.6-4.2-2.9c-1.2-1.3-1.7-3.1-1.7-5.4c0-1.9,0.5-3.6,1.5-5.2c1-1.5,2.6-2.8,4.6-3.7
					c2.1-0.9,4.6-1.4,7.6-1.4c2.1,0,4.1,0.3,6.2,0.8c2,0.5,3.8,1.3,5.2,2.2l-2,4.9c-1.5-0.9-3.1-1.5-4.7-2c-1.6-0.5-3.2-0.7-4.7-0.7
					c-2.5,0-4.4,0.4-5.6,1.3c-1.2,0.8-1.8,2-1.8,3.4c0,1,0.4,1.8,1.1,2.4c0.7,0.6,1.6,1.1,2.7,1.5c1.1,0.4,2.5,0.8,4.4,1.2
					c2.5,0.6,4.6,1.2,6.3,1.8c1.6,0.6,3,1.6,4.2,2.9c1.2,1.3,1.7,3.1,1.7,5.3c0,1.9-0.5,3.6-1.5,5.1c-1,1.5-2.6,2.8-4.7,3.7
					c-2.1,0.9-4.6,1.4-7.6,1.4C137.7,754.3,135.1,753.9,132.6,753.2z"/>
				<path class="st3" d="M196.8,753.8l0-22.7l-11.2,18.8h-2.8l-11.2-18.5v22.4h-6.1v-34.2h5.2l13.6,22.7l13.4-22.7h5.2l0,34.2H196.8
					z"/>
			</g>
			<g>
				<path class="st3" d="M294.9,719.6h6.4v34.2h-6.4V719.6z"/>
				<path class="st3" d="M318.4,753.2c-2.5-0.7-4.4-1.7-5.8-3l2.2-4.9c1.4,1.1,3.1,2,5.2,2.7c2,0.7,4.1,1.1,6.1,1.1
					c2.5,0,4.4-0.4,5.7-1.2c1.3-0.8,1.9-1.9,1.9-3.2c0-1-0.4-1.8-1.1-2.4c-0.7-0.6-1.6-1.1-2.7-1.5c-1.1-0.4-2.5-0.8-4.4-1.2
					c-2.6-0.6-4.7-1.2-6.3-1.9c-1.6-0.6-3-1.6-4.2-2.9c-1.2-1.3-1.7-3.1-1.7-5.4c0-1.9,0.5-3.6,1.5-5.2c1-1.5,2.6-2.8,4.6-3.7
					c2.1-0.9,4.6-1.4,7.6-1.4c2.1,0,4.1,0.3,6.2,0.8c2,0.5,3.8,1.3,5.2,2.2l-2,4.9c-1.5-0.9-3.1-1.5-4.7-2c-1.6-0.5-3.2-0.7-4.7-0.7
					c-2.5,0-4.4,0.4-5.6,1.3c-1.2,0.8-1.8,2-1.8,3.4c0,1,0.4,1.8,1.1,2.4c0.7,0.6,1.6,1.1,2.7,1.5c1.1,0.4,2.5,0.8,4.4,1.2
					c2.5,0.6,4.6,1.2,6.3,1.8c1.6,0.6,3,1.6,4.2,2.9c1.2,1.3,1.7,3.1,1.7,5.3c0,1.9-0.5,3.6-1.5,5.1c-1,1.5-2.6,2.8-4.7,3.7
					c-2.1,0.9-4.6,1.4-7.6,1.4C323.4,754.3,320.8,753.9,318.4,753.2z"/>
				<path class="st3" d="M357.6,752c-2.8-1.5-5-3.6-6.6-6.3c-1.6-2.7-2.4-5.7-2.4-9c0-3.3,0.8-6.3,2.4-9c1.6-2.7,3.8-4.8,6.6-6.3
					c2.8-1.5,5.9-2.3,9.4-2.3c3.5,0,6.6,0.8,9.4,2.3c2.8,1.5,5,3.6,6.6,6.3c1.6,2.7,2.4,5.7,2.4,9c0,3.4-0.8,6.4-2.4,9
					c-1.6,2.7-3.8,4.8-6.6,6.3c-2.8,1.5-6,2.3-9.4,2.3C363.6,754.3,360.4,753.6,357.6,752z M373.2,747.2c1.8-1,3.3-2.5,4.3-4.3
					c1-1.8,1.6-3.9,1.6-6.2c0-2.3-0.5-4.3-1.6-6.2c-1-1.8-2.5-3.3-4.3-4.3c-1.8-1-3.9-1.5-6.2-1.5c-2.3,0-4.3,0.5-6.2,1.5
					c-1.8,1-3.3,2.5-4.3,4.3c-1,1.8-1.6,3.9-1.6,6.2c0,2.3,0.5,4.3,1.6,6.2c1,1.8,2.5,3.3,4.3,4.3c1.8,1,3.9,1.5,6.2,1.5
					C369.3,748.7,371.4,748.2,373.2,747.2z"/>
				<path class="st3" d="M395.5,737.7h13.4v5.1h-13.4V737.7z"/>
				<path class="st3" d="M421.1,719.6h6.4v34.2h-6.4V719.6z"/>
				<path class="st3" d="M467.3,748.5v5.3h-25.7v-34.2h25v5.3H448v8.9h16.5v5.2H448v9.4H467.3z"/>
				<path class="st3" d="M485.6,752c-2.8-1.5-5-3.6-6.6-6.3c-1.6-2.7-2.4-5.7-2.4-9c0-3.4,0.8-6.4,2.4-9c1.6-2.7,3.8-4.8,6.6-6.3
					c2.8-1.5,5.9-2.3,9.4-2.3c2.8,0,5.4,0.5,7.7,1.5c2.3,1,4.3,2.4,5.9,4.3l-4.1,3.9c-2.5-2.7-5.5-4-9.1-4c-2.3,0-4.5,0.5-6.3,1.5
					c-1.9,1-3.3,2.5-4.4,4.3c-1,1.8-1.6,3.9-1.6,6.2c0,2.3,0.5,4.4,1.6,6.2c1,1.8,2.5,3.3,4.4,4.3c1.9,1,4,1.5,6.3,1.5
					c3.6,0,6.7-1.4,9.1-4.1l4.1,3.9c-1.6,1.9-3.6,3.3-5.9,4.3c-2.3,1-4.9,1.5-7.7,1.5C491.5,754.3,488.4,753.6,485.6,752z"/>
				<path class="st3" d="M560.3,748.5v5.4h-25.2v-4.3l13.6-12.9c1.5-1.5,2.6-2.7,3.1-3.8c0.5-1.1,0.8-2.2,0.8-3.3
					c0-1.6-0.5-2.8-1.6-3.7c-1.1-0.8-2.7-1.3-4.7-1.3c-3.5,0-6.2,1.2-8,3.6l-4.5-3.4c1.3-1.8,3.1-3.2,5.4-4.2c2.3-1,4.8-1.5,7.6-1.5
					c3.7,0,6.7,0.9,8.9,2.6c2.2,1.8,3.3,4.2,3.3,7.2c0,1.9-0.4,3.6-1.2,5.2c-0.8,1.6-2.3,3.5-4.5,5.6l-9.1,8.7H560.3z"/>
				<path class="st3" d="M591.3,723.5c2.6,2.9,3.9,7.1,3.9,12.6c0,3.8-0.7,7.1-2.1,9.9c-1.4,2.7-3.4,4.8-5.9,6.2
					c-2.5,1.4-5.5,2.1-8.8,2.1c-1.8,0-3.4-0.2-5-0.6c-1.5-0.4-2.9-0.9-4-1.6l2.3-4.8c1.7,1.1,3.9,1.7,6.5,1.7c3.3,0,5.9-1,7.7-3
					c1.9-2,2.8-4.9,2.8-8.8v0c-1,1.2-2.3,2.1-3.9,2.7c-1.6,0.6-3.3,0.9-5.3,0.9c-2.2,0-4.3-0.4-6.1-1.3c-1.8-0.9-3.2-2.1-4.2-3.7
					c-1-1.6-1.5-3.4-1.5-5.5c0-2.2,0.6-4.2,1.7-5.8c1.1-1.7,2.6-3,4.5-3.9c1.9-0.9,4-1.4,6.4-1.4
					C585.1,719.1,588.7,720.6,591.3,723.5z M585.9,734.1c1.3-1.1,1.9-2.5,1.9-4.2c0-1.7-0.6-3-1.9-4.1c-1.3-1.1-3-1.6-5.2-1.6
					c-2,0-3.6,0.5-4.8,1.6c-1.2,1.1-1.9,2.5-1.9,4.2c0,1.8,0.6,3.2,1.9,4.3c1.2,1,2.9,1.6,5,1.6
					C582.9,735.7,584.6,735.2,585.9,734.1z"/>
				<path class="st3" d="M616,719.6v34.2h-6.4v-28.9h-7.2v-5.3H616z"/>
				<path class="st3" d="M658.2,746.1h-6.1v7.8H646v-7.8h-18.8v-4.4l16.9-22.1h6.8L635,740.7h11.2v-6.9h6v6.9h6.1V746.1z"/>
				<path class="st3" d="M689.4,719.6v4.3l-13.3,30h-6.8l12.9-28.9h-13.4v5.8h-5.9v-11.2H689.4z"/>
				<path class="st3" d="M696.3,737.7h13.4v5.1h-13.4V737.7z"/>
				<path class="st3" d="M743.5,748.5v5.4h-25.2v-4.3l13.6-12.9c1.5-1.5,2.6-2.7,3.1-3.8c0.5-1.1,0.8-2.2,0.8-3.3
					c0-1.6-0.5-2.8-1.6-3.7c-1.1-0.8-2.7-1.3-4.7-1.3c-3.5,0-6.2,1.2-8,3.6l-4.5-3.4c1.3-1.8,3.1-3.2,5.4-4.2c2.3-1,4.8-1.5,7.6-1.5
					c3.7,0,6.7,0.9,8.9,2.6c2.2,1.8,3.3,4.2,3.3,7.2c0,1.9-0.4,3.6-1.2,5.2c-0.8,1.6-2.3,3.5-4.5,5.6l-9.1,8.7H743.5z"/>
				<path class="st3" d="M758.9,752.2c-2.2-1.4-3.8-3.4-5.1-6.1c-1.2-2.7-1.9-5.8-1.9-9.5c0-3.7,0.6-6.8,1.9-9.5
					c1.2-2.7,2.9-4.7,5.1-6.1c2.2-1.4,4.6-2.1,7.3-2.1c2.7,0,5.2,0.7,7.4,2.1c2.2,1.4,3.9,3.4,5.1,6.1c1.2,2.7,1.9,5.8,1.9,9.5
					c0,3.7-0.6,6.8-1.9,9.5c-1.2,2.7-2.9,4.7-5.1,6.1c-2.2,1.4-4.6,2.1-7.4,2.1C763.5,754.3,761.1,753.6,758.9,752.2z M772,745.8
					c1.4-2,2.1-5,2.1-9c0-4-0.7-7-2.1-9c-1.4-2-3.3-3-5.8-3c-2.4,0-4.3,1-5.7,3c-1.4,2-2.1,5-2.1,9c0,4,0.7,7,2.1,9
					c1.4,2,3.3,3,5.7,3C768.7,748.8,770.6,747.8,772,745.8z"/>
				<path class="st3" d="M801.4,719.6v34.2H795v-28.9h-7.2v-5.3H801.4z"/>
				<path class="st3" d="M839.4,739.1c1,1.4,1.4,3,1.4,4.9c0,2.1-0.6,3.9-1.7,5.5c-1.2,1.6-2.8,2.8-4.9,3.6
					c-2.1,0.8-4.6,1.2-7.4,1.2c-2.8,0-5.3-0.4-7.4-1.2c-2.1-0.8-3.7-2-4.9-3.6c-1.1-1.6-1.7-3.4-1.7-5.5c0-1.9,0.5-3.5,1.4-4.9
					c0.9-1.4,2.3-2.5,4.1-3.3c-1.4-0.7-2.4-1.7-3.2-3c-0.7-1.2-1.1-2.6-1.1-4.2c0-1.9,0.5-3.6,1.6-5c1.1-1.4,2.6-2.5,4.5-3.3
					c1.9-0.8,4.1-1.2,6.7-1.2c2.5,0,4.8,0.4,6.7,1.2c1.9,0.8,3.4,1.9,4.5,3.3c1.1,1.4,1.6,3.1,1.6,5c0,1.6-0.4,3-1.1,4.2
					c-0.8,1.2-1.8,2.2-3.2,3C837,736.7,838.4,737.8,839.4,739.1z M832.4,747.9c1.4-1,2.1-2.3,2.1-4.1c0-1.7-0.7-3-2.1-4
					c-1.4-1-3.2-1.5-5.6-1.5c-2.3,0-4.2,0.5-5.5,1.5c-1.3,1-2,2.3-2,4c0,1.7,0.7,3.1,2,4.1c1.3,1,3.2,1.5,5.5,1.5
					C829.1,749.3,831,748.8,832.4,747.9z M822.1,725.4c-1.2,0.8-1.7,2-1.7,3.6c0,1.5,0.6,2.6,1.7,3.5c1.2,0.9,2.7,1.3,4.7,1.3
					c2,0,3.6-0.4,4.8-1.3c1.2-0.9,1.8-2,1.8-3.5c0-1.5-0.6-2.7-1.8-3.6c-1.2-0.8-2.8-1.3-4.8-1.3
					C824.8,724.1,823.2,724.5,822.1,725.4z"/>
			</g>
			<g>
				<path class="st3" d="M928.1,719.6h6.4v34.2h-6.4V719.6z"/>
				<path class="st3" d="M951.5,753.2c-2.5-0.7-4.4-1.7-5.8-3l2.2-4.9c1.4,1.1,3.1,2,5.2,2.7c2,0.7,4.1,1.1,6.1,1.1
					c2.5,0,4.4-0.4,5.7-1.2c1.3-0.8,1.9-1.9,1.9-3.2c0-1-0.4-1.8-1.1-2.4c-0.7-0.6-1.6-1.1-2.7-1.5c-1.1-0.4-2.5-0.8-4.4-1.2
					c-2.6-0.6-4.7-1.2-6.3-1.9c-1.6-0.6-3-1.6-4.2-2.9c-1.2-1.3-1.7-3.1-1.7-5.4c0-1.9,0.5-3.6,1.5-5.2c1-1.5,2.6-2.8,4.6-3.7
					c2.1-0.9,4.6-1.4,7.6-1.4c2.1,0,4.1,0.3,6.2,0.8c2,0.5,3.8,1.3,5.2,2.2l-2,4.9c-1.5-0.9-3.1-1.5-4.7-2c-1.6-0.5-3.2-0.7-4.7-0.7
					c-2.5,0-4.4,0.4-5.6,1.3c-1.2,0.8-1.8,2-1.8,3.4c0,1,0.4,1.8,1.1,2.4c0.7,0.6,1.6,1.1,2.7,1.5c1.1,0.4,2.5,0.8,4.4,1.2
					c2.5,0.6,4.6,1.2,6.3,1.8c1.6,0.6,3,1.6,4.2,2.9c1.2,1.3,1.7,3.1,1.7,5.3c0,1.9-0.5,3.6-1.5,5.1c-1,1.5-2.6,2.8-4.7,3.7
					c-2.1,0.9-4.6,1.4-7.6,1.4C956.6,754.3,954,753.9,951.5,753.2z"/>
				<path class="st3" d="M990.8,752c-2.8-1.5-5-3.6-6.6-6.3c-1.6-2.7-2.4-5.7-2.4-9c0-3.3,0.8-6.3,2.4-9c1.6-2.7,3.8-4.8,6.6-6.3
					c2.8-1.5,5.9-2.3,9.4-2.3c3.5,0,6.6,0.8,9.4,2.3c2.8,1.5,5,3.6,6.6,6.3c1.6,2.7,2.4,5.7,2.4,9c0,3.4-0.8,6.4-2.4,9
					c-1.6,2.7-3.8,4.8-6.6,6.3c-2.8,1.5-6,2.3-9.4,2.3C996.7,754.3,993.6,753.6,990.8,752z M1006.4,747.2c1.8-1,3.3-2.5,4.3-4.3
					c1-1.8,1.6-3.9,1.6-6.2c0-2.3-0.5-4.3-1.6-6.2c-1-1.8-2.5-3.3-4.3-4.3c-1.8-1-3.9-1.5-6.2-1.5c-2.3,0-4.3,0.5-6.2,1.5
					c-1.8,1-3.3,2.5-4.3,4.3c-1,1.8-1.6,3.9-1.6,6.2c0,2.3,0.5,4.3,1.6,6.2c1,1.8,2.5,3.3,4.3,4.3c1.8,1,3.9,1.5,6.2,1.5
					C1002.5,748.7,1004.6,748.2,1006.4,747.2z"/>
				<path class="st3" d="M1028.6,737.7h13.4v5.1h-13.4V737.7z"/>
				<path class="st3" d="M1054.3,719.6h6.4v34.2h-6.4V719.6z"/>
				<path class="st3" d="M1100.4,748.5v5.3h-25.7v-34.2h25v5.3h-18.6v8.9h16.5v5.2h-16.5v9.4H1100.4z"/>
				<path class="st3" d="M1118.8,752c-2.8-1.5-5-3.6-6.6-6.3c-1.6-2.7-2.4-5.7-2.4-9c0-3.4,0.8-6.4,2.4-9c1.6-2.7,3.8-4.8,6.6-6.3
					c2.8-1.5,5.9-2.3,9.4-2.3c2.8,0,5.4,0.5,7.7,1.5c2.3,1,4.3,2.4,5.9,4.3l-4.1,3.9c-2.5-2.7-5.5-4-9.1-4c-2.3,0-4.5,0.5-6.3,1.5
					c-1.9,1-3.3,2.5-4.4,4.3c-1,1.8-1.6,3.9-1.6,6.2c0,2.3,0.5,4.4,1.6,6.2c1,1.8,2.5,3.3,4.4,4.3c1.9,1,4,1.5,6.3,1.5
					c3.6,0,6.7-1.4,9.1-4.1l4.1,3.9c-1.6,1.9-3.6,3.3-5.9,4.3c-2.3,1-4.9,1.5-7.7,1.5C1124.7,754.3,1121.5,753.6,1118.8,752z"/>
				<path class="st3" d="M1190.5,737c1.7,1.8,2.5,4,2.5,6.6c0,2-0.5,3.8-1.5,5.4c-1,1.6-2.5,2.9-4.6,3.9c-2,1-4.5,1.4-7.5,1.4
					c-2.4,0-4.8-0.4-7.1-1.1c-2.3-0.7-4.2-1.7-5.8-2.9l2.7-4.9c1.2,1,2.7,1.9,4.5,2.5c1.8,0.6,3.6,0.9,5.5,0.9c2.2,0,4-0.5,5.3-1.4
					c1.3-0.9,1.9-2.2,1.9-3.8c0-1.6-0.6-2.8-1.8-3.7c-1.2-0.9-3.1-1.3-5.6-1.3h-3.1v-4.4l7.8-9.2h-15.6v-5.3h23.3v4.3l-8.3,9.9
					C1186.4,734.1,1188.8,735.2,1190.5,737z"/>
				<path class="st3" d="M1209,752.2c-2.2-1.4-3.8-3.4-5.1-6.1c-1.2-2.7-1.9-5.8-1.9-9.5c0-3.7,0.6-6.8,1.9-9.5
					c1.2-2.7,2.9-4.7,5.1-6.1c2.2-1.4,4.6-2.1,7.3-2.1c2.7,0,5.2,0.7,7.4,2.1c2.2,1.4,3.9,3.4,5.1,6.1c1.2,2.7,1.9,5.8,1.9,9.5
					c0,3.7-0.6,6.8-1.9,9.5c-1.2,2.7-2.9,4.7-5.1,6.1c-2.2,1.4-4.6,2.1-7.4,2.1C1213.6,754.3,1211.1,753.6,1209,752.2z
					 M1222.1,745.8c1.4-2,2.1-5,2.1-9c0-4-0.7-7-2.1-9c-1.4-2-3.3-3-5.8-3c-2.4,0-4.3,1-5.7,3c-1.4,2-2.1,5-2.1,9c0,4,0.7,7,2.1,9
					c1.4,2,3.3,3,5.7,3C1218.7,748.8,1220.7,747.8,1222.1,745.8z"/>
				<path class="st3" d="M1251.4,719.6v34.2h-6.4v-28.9h-7.2v-5.3H1251.4z"/>
				<path class="st3" d="M1274.9,719.6v34.2h-6.4v-28.9h-7.2v-5.3H1274.9z"/>
				<path class="st3" d="M1298.5,719.6v34.2h-6.4v-28.9h-7.2v-5.3H1298.5z"/>
				<path class="st3" d="M1310.7,737.7h13.4v5.1h-13.4V737.7z"/>
				<path class="st3" d="M1357.9,748.5v5.4h-25.2v-4.3l13.6-12.9c1.5-1.5,2.6-2.7,3.1-3.8c0.5-1.1,0.8-2.2,0.8-3.3
					c0-1.6-0.5-2.8-1.6-3.7c-1.1-0.8-2.7-1.3-4.7-1.3c-3.5,0-6.2,1.2-8,3.6l-4.5-3.4c1.3-1.8,3.1-3.2,5.4-4.2c2.3-1,4.8-1.5,7.6-1.5
					c3.7,0,6.7,0.9,8.9,2.6c2.2,1.8,3.3,4.2,3.3,7.2c0,1.9-0.4,3.6-1.2,5.2c-0.8,1.6-2.3,3.5-4.5,5.6l-9.1,8.7H1357.9z"/>
				<path class="st3" d="M1373.3,752.2c-2.2-1.4-3.8-3.4-5.1-6.1c-1.2-2.7-1.9-5.8-1.9-9.5c0-3.7,0.6-6.8,1.9-9.5
					c1.2-2.7,2.9-4.7,5.1-6.1c2.2-1.4,4.6-2.1,7.3-2.1c2.7,0,5.2,0.7,7.4,2.1c2.2,1.4,3.9,3.4,5.1,6.1c1.2,2.7,1.9,5.8,1.9,9.5
					c0,3.7-0.6,6.8-1.9,9.5c-1.2,2.7-2.9,4.7-5.1,6.1c-2.2,1.4-4.6,2.1-7.4,2.1C1377.9,754.3,1375.4,753.6,1373.3,752.2z
					 M1386.4,745.8c1.4-2,2.1-5,2.1-9c0-4-0.7-7-2.1-9c-1.4-2-3.3-3-5.8-3c-2.4,0-4.3,1-5.7,3c-1.4,2-2.1,5-2.1,9c0,4,0.7,7,2.1,9
					c1.4,2,3.3,3,5.7,3C1383.1,748.8,1385,747.8,1386.4,745.8z"/>
				<path class="st3" d="M1415.7,719.6v34.2h-6.4v-28.9h-7.2v-5.3H1415.7z"/>
				<path class="st3" d="M1449.9,723.5c2.6,2.9,3.9,7.1,3.9,12.6c0,3.8-0.7,7.1-2.1,9.9c-1.4,2.7-3.4,4.8-5.9,6.2
					c-2.5,1.4-5.5,2.1-8.8,2.1c-1.8,0-3.4-0.2-5-0.6c-1.5-0.4-2.9-0.9-4-1.6l2.3-4.8c1.7,1.1,3.9,1.7,6.5,1.7c3.3,0,5.9-1,7.7-3
					c1.9-2,2.8-4.9,2.8-8.8v0c-1,1.2-2.3,2.1-3.9,2.7c-1.6,0.6-3.3,0.9-5.3,0.9c-2.2,0-4.3-0.4-6.1-1.3c-1.8-0.9-3.2-2.1-4.2-3.7
					c-1-1.6-1.5-3.4-1.5-5.5c0-2.2,0.6-4.2,1.7-5.8c1.1-1.7,2.6-3,4.5-3.9c1.9-0.9,4-1.4,6.4-1.4
					C1443.7,719.1,1447.3,720.6,1449.9,723.5z M1444.5,734.1c1.3-1.1,1.9-2.5,1.9-4.2c0-1.7-0.6-3-1.9-4.1c-1.3-1.1-3-1.6-5.2-1.6
					c-2,0-3.6,0.5-4.8,1.6c-1.2,1.1-1.9,2.5-1.9,4.2c0,1.8,0.6,3.2,1.9,4.3c1.2,1,2.9,1.6,5,1.6
					C1441.5,735.7,1443.2,735.2,1444.5,734.1z"/>
			</g>
			<path class="st1" d="M260.2,734.9l-13-13c-1.1-1.1-2.9-1.1-4,0c-1.1,1.1-1.1,2.9,0,4l11,11l-10.6,10.6c-1.1,1.1-1.1,2.9,0,4
				c1.1,1.1,2.9,1.1,4,0l12.6-12.6C261.3,737.8,261.3,736,260.2,734.9z"/>
			<path class="st1" d="M889.4,734.9l-13-13c-1.1-1.1-2.9-1.1-4,0c-1.1,1.1-1.1,2.9,0,4l11,11l-10.6,10.6c-1.1,1.1-1.1,2.9,0,4
				c1.1,1.1,2.9,1.1,4,0l12.6-12.6C890.5,737.8,890.5,736,889.4,734.9z"/>
		</g>
	</g>
</g>
</svg>
