<?xml version="1.0" encoding="utf-8"?>
<!-- Generator: Adobe Illustrator 24.1.2, SVG Export Plug-In . SVG Version: 6.00 Build 0)  -->
<svg version="1.1" id="Capa_1" xmlns="http://www.w3.org/2000/svg" xmlns:xlink="http://www.w3.org/1999/xlink" x="0px" y="0px"
	 viewBox="0 0 568 568" style="enable-background:new 0 0 568 568;" xml:space="preserve">
<style type="text/css">
	.st0{fill:#FF3435;}
</style>
<g>
	<path class="st0" d="M284,86c52.9,0,102.6,20.6,140,58c37.4,37.4,58,87.1,58,140s-20.6,102.6-58,140c-37.4,37.4-87.1,58-140,58
		s-102.6-20.6-140-58c-37.4-37.4-58-87.1-58-140s20.6-102.6,58-140C181.4,106.6,231.1,86,284,86 M284,56C158.1,56,56,158.1,56,284
		s102.1,228,228,228s228-102.1,228-228S409.9,56,284,56L284,56z"/>
</g>
<g>
	<path class="st0" d="M284,32c34,0,67,6.7,98.1,19.8c30,12.7,57,30.9,80.1,54c23.1,23.1,41.3,50.1,54,80.1
		C529.3,217,536,250,536,284s-6.7,67-19.8,98.1c-12.7,30-30.9,57-54,80.1c-23.1,23.1-50.1,41.3-80.1,54C351,529.3,318,536,284,536
		s-67-6.7-98.1-19.8c-30-12.7-57-30.9-80.1-54c-23.1-23.1-41.3-50.1-54-80.1C38.7,351,32,318,32,284s6.7-67,19.8-98.1
		c12.7-30,30.9-57,54-80.1c23.1-23.1,50.1-41.3,80.1-54C217,38.7,250,32,284,32 M284,26C141.5,26,26,141.5,26,284s115.5,258,258,258
		s258-115.5,258-258S426.5,26,284,26L284,26z"/>
</g>
<g>
	<path class="st0" d="M284,1c38.2,0,75.3,7.5,110.2,22.2c33.7,14.3,64,34.7,90,60.6s46.4,56.3,60.6,90c14.8,34.9,22.2,72,22.2,110.2
		s-7.5,75.3-22.2,110.2c-14.3,33.7-34.7,64-60.6,90s-56.3,46.4-90,60.6c-34.9,14.8-72,22.2-110.2,22.2s-75.3-7.5-110.2-22.2
		c-33.7-14.3-64-34.7-90-60.6s-46.4-56.3-60.6-90C8.5,359.3,1,322.2,1,284s7.5-75.3,22.2-110.2c14.3-33.7,34.7-64,60.6-90
		s56.3-46.4,90-60.6C208.7,8.5,245.8,1,284,1 M284,0C127.2,0,0,127.2,0,284s127.2,284,284,284s284-127.2,284-284S440.8,0,284,0
		L284,0z"/>
</g>
</svg>
