<?xml version="1.0" encoding="UTF-8"?>
<svg width="306px" height="306px" viewBox="0 0 306 306" version="1.1" xmlns="http://www.w3.org/2000/svg" xmlns:xlink="http://www.w3.org/1999/xlink">
    <!-- Generator: Sketch 48.2 (47327) - http://www.bohemiancoding.com/sketch -->
    <title>Continuous Hacking</title>
    <desc>Created with Sketch.</desc>
    <defs>
        <path d="M38.4652414,0 C17.3087357,0 0,17.3096232 0,38.4660422 L0,39.4109702 L0,195.533958 L0,234 L38.4652414,234 L195.534759,234 C216.690306,234 234,216.690377 234,195.533958 L234,38.4660422 L234,0 L38.4652414,0 Z" id="path-1"></path>
        <filter x="-23.1%" y="-23.1%" width="146.2%" height="146.2%" filterUnits="objectBoundingBox" id="filter-2">
            <feOffset dx="0" dy="0" in="SourceAlpha" result="shadowOffsetOuter1"></feOffset>
            <feGaussianBlur stdDeviation="18" in="shadowOffsetOuter1" result="shadowBlurOuter1"></feGaussianBlur>
            <feColorMatrix values="0 0 0 0 0   0 0 0 0 0   0 0 0 0 0  0 0 0 0.2325351 0" type="matrix" in="shadowBlurOuter1"></feColorMatrix>
        </filter>
        <rect id="path-3" x="0" y="0" width="167.486301" height="131.424658"></rect>
        <polygon id="path-5" points="0 151.643836 151.60398 151.643836 151.60398 0 0 0"></polygon>
    </defs>
    <g id="Page-1" stroke="none" stroke-width="1" fill="none" fill-rule="evenodd">
        <g id="Continuous-Hacking" transform="translate(36.000000, 36.000000)">
            <g id="Group-9">
                <g id="Page-1-Copy-2">
                    <g id="Fill-2">
                        <use fill="black" fill-opacity="1" filter="url(#filter-2)" xlink:href="#path-1"></use>
                        <use fill="#FFFFFF" fill-rule="evenodd" xlink:href="#path-1"></use>
                    </g>
                </g>
                <g id="Group-2-Copy" transform="translate(34.458904, 57.698630)">
                    <mask id="mask-4" fill="white">
                        <use xlink:href="#path-3"></use>
                    </mask>
                    <g id="Mask"></g>
                    <g id="Group-2" mask="url(#mask-4)">
                        <g transform="translate(8.663085, -25.996086)" id="Page-1">
                            <g>
                                <path d="M130.884924,24.2622185 L17.8313613,24.2622185 L17.8313613,18.1956698 L27.2522342,18.1956698 C28.9865476,18.1956698 30.3925251,16.8388226 30.3925251,15.1638865 L30.3925251,6.06456059 L118.32376,6.06456059 L118.32376,15.1638865 C118.32273,16.8388226 119.729737,18.1956698 121.464051,18.1956698 L130.884924,18.1956698 L130.884924,24.2622185 Z M134.025214,12.1311092 L124.604342,12.1311092 L124.604342,3.03277731 C124.604342,1.3578413 123.198364,0 121.464051,0 L27.2522342,0 C25.5179208,0 24.1119432,1.3578413 24.1119432,3.03277731 L24.1119432,12.1311092 L14.6910704,12.1311092 C12.9567569,12.1311092 11.5507794,13.4889505 11.5507794,15.1638865 L11.5507794,27.2949958 C11.5507794,28.9699318 12.9567569,30.3287671 14.6910704,30.3287671 L134.025214,30.3287671 C135.759528,30.3287671 137.165505,28.9699318 137.165505,27.2949958 L137.165505,15.1638865 C137.165505,13.4889505 135.759528,12.1311092 134.025214,12.1311092 Z" id="Fill-1" fill="#A8A9A8"></path>
                                <mask id="mask-6" fill="white">
                                    <use xlink:href="#path-5"></use>
                                </mask>
                                <g id="Clip-4"></g>
                                <polygon id="Fill-3" fill="#A8A9A8" mask="url(#mask-6)" points="37.5400331 18.7749511 112.620099 18.7749511 112.620099 11.553816 37.5400331 11.553816"></polygon>
                                <path d="M142.12899,25.9960861 L9.47498994,25.9960861 C4.242162,25.9960861 0,30.2393923 0,35.4736317 L0,67.0664857 C0,72.3017606 4.242162,76.5440313 9.47498994,76.5440313 L86.1268614,76.5440313 L86.1268614,70.2267031 L9.47498994,70.2267031 C7.73071396,70.2267031 6.31665996,68.8122676 6.31665996,67.0664857 L6.31665996,35.4736317 C6.31665996,33.7288852 7.73071396,32.3154853 9.47498994,32.3154853 L142.12899,32.3154853 C143.873266,32.3154853 145.28732,33.7288852 145.28732,35.4736317 L145.28732,67.0664857 C145.28732,68.8122676 143.873266,70.2267031 142.12899,70.2267031 L142.12899,76.5440313 C147.361818,76.5440313 151.60398,72.3017606 151.60398,67.0664857 L151.60398,35.4736317 C151.60398,30.2393923 147.361818,25.9960861 142.12899,25.9960861" id="Fill-5" fill="#A8A9A8" mask="url(#mask-6)"></path>
                                <path d="M142.12899,25.9960861 L9.47498994,25.9960861 C4.242162,25.9960861 0,30.2393923 0,35.4736317 L0,67.0664857 C0,72.3017606 4.242162,76.5440313 9.47498994,76.5440313 L86.1268614,76.5440313 L86.1268614,70.2267031 L9.47498994,70.2267031 C7.73071396,70.2267031 6.31665996,68.8122676 6.31665996,67.0664857 L6.31665996,35.4736317 C6.31665996,33.7288852 7.73071396,32.3154853 9.47498994,32.3154853 L142.12899,32.3154853 C143.873266,32.3154853 145.28732,33.7288852 145.28732,35.4736317 L145.28732,67.0664857 C145.28732,68.8122676 143.873266,70.2267031 142.12899,70.2267031 L142.12899,76.5440313 C147.361818,76.5440313 151.60398,72.3017606 151.60398,67.0664857 L151.60398,35.4736317 C151.60398,30.2393923 147.361818,25.9960861 142.12899,25.9960861 Z" id="Stroke-6" stroke="#FFFFFF" stroke-width="0.5" mask="url(#mask-6)"></path>
                                <path d="M9.34049611,126.549615 C7.62097945,126.549615 6.22699741,125.135208 6.22699741,123.390498 L6.22699741,91.7982908 C6.22699741,90.0535801 7.62097945,88.6391736 9.34049611,88.6391736 L85.1869981,88.6391736 L85.1869981,82.3209393 L9.34049611,82.3209393 C4.18194614,82.3209393 0,86.5641586 0,91.7982908 L0,123.390498 C0,128.62463 4.18194614,132.868885 9.34049611,132.868885 L83.9603755,132.868885 L83.9603755,126.549615 L9.34049611,126.549615 Z" id="Fill-7" fill="#A8A9A8" mask="url(#mask-6)"></path>
                                <path d="M9.34049611,126.549615 C7.62097945,126.549615 6.22699741,125.135208 6.22699741,123.390498 L6.22699741,91.7982908 C6.22699741,90.0535801 7.62097945,88.6391736 9.34049611,88.6391736 L85.1869981,88.6391736 L85.1869981,82.3209393 L9.34049611,82.3209393 C4.18194614,82.3209393 0,86.5641586 0,91.7982908 L0,123.390498 C0,128.62463 4.18194614,132.868885 9.34049611,132.868885 L83.9603755,132.868885 L83.9603755,126.549615 L9.34049611,126.549615 Z" id="Stroke-8" stroke="#FFFFFF" stroke-width="0.5" mask="url(#mask-6)"></path>
                                <path d="M22.0923125,144.423174 L22.0923125,138.645793 L15.8823217,138.645793 L15.8823217,147.311391 C15.8823217,148.90649 17.2724966,150.199609 18.9873171,150.199609 L82.2993033,150.199609 L82.2993033,144.423174 L22.0923125,144.423174 Z" id="Fill-9" fill="#A8A9A8" mask="url(#mask-6)"></path>
                                <path d="M22.0923125,144.423174 L22.0923125,138.645793 L15.8823217,138.645793 L15.8823217,147.311391 C15.8823217,148.90649 17.2724966,150.199609 18.9873171,150.199609 L82.2993033,150.199609 L82.2993033,144.423174 L22.0923125,144.423174 Z" id="Stroke-10" stroke="#FFFFFF" stroke-width="0.5" mask="url(#mask-6)"></path>
                                <polygon id="Fill-11" fill="#A8A9A8" mask="url(#mask-6)" points="15.8823217 63.5459883 23.1015588 63.5459883 23.1015588 37.5499022 15.8823217 37.5499022"></polygon>
                                <polygon id="Stroke-12" stroke="#FFFFFF" stroke-width="0.5" mask="url(#mask-6)" points="15.8823217 63.5459883 23.1015588 63.5459883 23.1015588 37.5499022 15.8823217 37.5499022"></polygon>
                                <polygon id="Fill-13" fill="#A8A9A8" mask="url(#mask-6)" points="28.8769485 49.1037182 36.0961856 49.1037182 36.0961856 37.5499022 28.8769485 37.5499022"></polygon>
                                <polygon id="Stroke-14" stroke="#FFFFFF" stroke-width="0.5" mask="url(#mask-6)" points="28.8769485 49.1037182 36.0961856 49.1037182 36.0961856 37.5499022 28.8769485 37.5499022"></polygon>
                                <polygon id="Fill-15" fill="#A8A9A8" mask="url(#mask-6)" points="41.8715753 49.1037182 49.0908125 49.1037182 49.0908125 37.5499022 41.8715753 37.5499022"></polygon>
                                <polygon id="Stroke-16" stroke="#FFFFFF" stroke-width="0.5" mask="url(#mask-6)" points="41.8715753 49.1037182 49.0908125 49.1037182 49.0908125 37.5499022 41.8715753 37.5499022"></polygon>
                                <polygon id="Fill-17" fill="#A8A9A8" mask="url(#mask-6)" points="28.8769485 63.5459883 36.0961856 63.5459883 36.0961856 56.3248532 28.8769485 56.3248532"></polygon>
                                <polygon id="Stroke-18" stroke="#FFFFFF" stroke-width="0.5" mask="url(#mask-6)" points="28.8769485 63.5459883 36.0961856 63.5459883 36.0961856 56.3248532 28.8769485 56.3248532"></polygon>
                                <polygon id="Fill-19" fill="#A8A9A8" mask="url(#mask-6)" points="41.8715753 63.5459883 49.0908125 63.5459883 49.0908125 56.3248532 41.8715753 56.3248532"></polygon>
                                <polygon id="Stroke-20" stroke="#FFFFFF" stroke-width="0.5" mask="url(#mask-6)" points="41.8715753 63.5459883 49.0908125 63.5459883 49.0908125 56.3248532 41.8715753 56.3248532"></polygon>
                                <path d="M132.55638,37.5499022 L56.5876328,37.5499022 C54.8395195,37.5499022 53.4223547,39.0047202 53.4223547,40.8003448 L53.4223547,60.2966106 C53.4223547,62.0911702 54.8395195,63.5459883 56.5876328,63.5459883 L77.2101815,63.5459883 L77.2101815,57.047233 L59.7529108,57.047233 L59.7529108,44.0497224 L129.391102,44.0497224 L129.391102,57.047233 L129.679515,57.047233 L129.679515,63.5459883 L132.55638,63.5459883 C134.304493,63.5459883 135.721658,62.0911702 135.721658,60.2955456 L135.721658,40.7992798 C135.721658,39.0047202 134.304493,37.5499022 132.55638,37.5499022" id="Fill-21" fill="#A8A9A8" mask="url(#mask-6)"></path>
                                <path d="M132.55638,37.5499022 L56.5876328,37.5499022 C54.8395195,37.5499022 53.4223547,39.0047202 53.4223547,40.8003448 L53.4223547,60.2966106 C53.4223547,62.0911702 54.8395195,63.5459883 56.5876328,63.5459883 L77.2101815,63.5459883 L77.2101815,57.047233 L59.7529108,57.047233 L59.7529108,44.0497224 L129.391102,44.0497224 L129.391102,57.047233 L129.679515,57.047233 L129.679515,63.5459883 L132.55638,63.5459883 C134.304493,63.5459883 135.721658,62.0911702 135.721658,60.2955456 L135.721658,40.7992798 C135.721658,39.0047202 134.304493,37.5499022 132.55638,37.5499022 Z" id="Stroke-22" stroke="#FFFFFF" stroke-width="0.5" mask="url(#mask-6)"></path>
                                <path d="M85.1869981,100.373244 L85.1869981,93.8747554 L19.0243424,93.8747554 C17.2890737,93.8747554 15.8823217,95.3305788 15.8823217,97.1239999 L15.8823217,116.620532 C15.8823217,118.415018 17.2890737,119.870841 19.0243424,119.870841 L85.1869981,119.870841 L85.1869981,113.371287 L22.1663631,113.371287 L22.1663631,100.373244 L85.1869981,100.373244 Z" id="Fill-23" fill="#A8A9A8" mask="url(#mask-6)"></path>
                                <path d="M85.1869981,100.373244 L85.1869981,93.8747554 L19.0243424,93.8747554 C17.2890737,93.8747554 15.8823217,95.3305788 15.8823217,97.1239999 L15.8823217,116.620532 C15.8823217,118.415018 17.2890737,119.870841 19.0243424,119.870841 L85.1869981,119.870841 L85.1869981,113.371287 L22.1663631,113.371287 L22.1663631,100.373244 L85.1869981,100.373244 Z" id="Stroke-24" stroke="#FFFFFF" stroke-width="0.5" mask="url(#mask-6)"></path>
                                <path d="M114.299511,124.023074 L97.9440162,140.937855 C96.3251287,142.611939 96.3374709,145.311768 97.9707577,146.971093 C99.6030159,148.630417 102.239108,148.618821 103.857995,146.944737 L117.282214,133.059752 L131.516905,147.519281 C133.149163,149.177552 135.784227,149.165955 137.403114,147.492926 C139.022002,145.818842 139.00966,143.116905 137.376373,141.458634 L120.185721,123.995664 C118.552434,122.336339 115.918399,122.34899 114.299511,124.023074" id="Fill-25" fill="#F73435" mask="url(#mask-6)"></path>
                                <path d="M114.299511,98.0268149 L97.9440162,114.941082 C96.3251287,116.615115 96.3374709,119.315916 97.9707577,120.97519 C99.6030159,122.634465 102.239108,122.621814 103.857995,120.947782 L117.282214,107.064273 L131.516905,121.523362 C133.149163,123.181582 135.784227,123.169986 137.403114,121.495954 C139.022002,119.821921 139.00966,117.12112 137.376373,115.4629 L120.185721,98.0004604 C118.552434,96.3401319 115.918399,96.3527821 114.299511,98.0268149" id="Fill-26" fill="#F73435" mask="url(#mask-6)"></path>
                                <path d="M114.299511,69.1423006 L97.9440162,86.0569136 C96.3251287,87.7309807 96.3374709,90.4307827 97.9707577,92.0911452 C99.6030159,93.7493992 102.239108,93.7378031 103.857995,92.063736 L117.282214,78.1788891 L131.516905,92.6382742 C133.149163,94.2965282 135.784227,94.2859862 137.403114,92.6119192 C139.022002,90.9378522 139.00966,88.2359417 137.376373,86.5776876 L120.185721,69.1159456 C118.552434,67.4555832 115.918399,67.4682336 114.299511,69.1423006" id="Fill-27" fill="#F73435" mask="url(#mask-6)"></path>
                            </g>
                        </g>
                    </g>
                </g>
            </g>
        </g>
    </g>
</svg>
