<?xml version="1.0" encoding="UTF-8"?>
<svg width="306px" height="306px" viewBox="0 0 306 306" version="1.1" xmlns="http://www.w3.org/2000/svg" xmlns:xlink="http://www.w3.org/1999/xlink">
    <!-- Generator: Sketch 48.2 (47327) - http://www.bohemiancoding.com/sketch -->
    <title>Differentiators</title>
    <desc>Created with Sketch.</desc>
    <defs>
        <path d="M38.4652414,0 C17.3087357,0 0,17.3096232 0,38.4660422 L0,39.4109702 L0,195.533958 L0,234 L38.4652414,234 L195.534759,234 C216.690306,234 234,216.690377 234,195.533958 L234,38.4660422 L234,0 L38.4652414,0 Z" id="path-1"></path>
        <filter x="-23.1%" y="-23.1%" width="146.2%" height="146.2%" filterUnits="objectBoundingBox" id="filter-2">
            <feOffset dx="0" dy="0" in="SourceAlpha" result="shadowOffsetOuter1"></feOffset>
            <feGaussianBlur stdDeviation="18" in="shadowOffsetOuter1" result="shadowBlurOuter1"></feGaussianBlur>
            <feColorMatrix values="0 0 0 0 0   0 0 0 0 0   0 0 0 0 0  0 0 0 0.2325351 0" type="matrix" in="shadowBlurOuter1"></feColorMatrix>
        </filter>
        <polygon id="path-3" points="0 109.253158 155.474568 109.253158 155.474568 0 0 0"></polygon>
    </defs>
    <g id="Page-1" stroke="none" stroke-width="1" fill="none" fill-rule="evenodd">
        <g id="Differentiators" transform="translate(36.000000, 36.000000)">
            <g id="Group-10">
                <g id="Page-1">
                    <g id="Fill-2">
                        <use fill="black" fill-opacity="1" filter="url(#filter-2)" xlink:href="#path-1"></use>
                        <use fill="#FFFFFF" fill-rule="evenodd" xlink:href="#path-1"></use>
                    </g>
                </g>
                <g id="Page-1" transform="translate(45.678082, 62.506849)">
                    <path d="M54.6266589,70.694926 C45.7530904,70.694926 38.5583918,63.5002274 38.5583918,54.6266589 C38.5583918,45.752289 45.7530904,38.5575904 54.6266589,38.5575904 C63.5002274,38.5575904 70.694926,45.752289 70.694926,54.6266589 C70.694926,63.5002274 63.5002274,70.694926 54.6266589,70.694926 Z M103.272214,44.5838918 L93.1268712,44.5838918 C87.8666795,44.5838918 85.2333781,38.2226178 88.9509329,34.5042616 L96.1255973,27.3303986 C97.5215836,25.9344123 97.5215836,23.6681384 96.1255973,22.2729534 L86.9803644,13.1277205 C85.5843781,11.7317342 83.3189055,11.7317342 81.9229192,13.1277205 L74.7482548,20.3023849 C71.0290973,24.0199397 64.669426,21.3866384 64.669426,16.1264466 L64.669426,5.98110411 C64.669426,4.00492603 63.068289,2.40378904 61.092111,2.40378904 L48.1588027,2.40378904 C46.1850288,2.40378904 44.5838918,4.00492603 44.5838918,5.98110411 L44.5838918,16.1280493 C44.5838918,21.3890425 38.2250219,24.0223438 34.505063,20.3039877 L27.3303986,13.1277205 C25.9344123,11.7317342 23.6689397,11.7317342 22.2729534,13.1277205 L13.1277205,22.2729534 C11.7317342,23.6681384 11.7317342,25.9344123 13.1277205,27.3303986 L20.3023849,34.5042616 C24.0223438,38.2226178 21.3866384,44.5838918 16.1264466,44.5838918 L5.98110411,44.5838918 C4.00492603,44.5838918 2.40378904,46.1842274 2.40378904,48.1604055 L2.40378904,61.0945151 C2.40378904,63.068289 4.00492603,64.669426 5.98110411,64.669426 L16.1264466,64.669426 C21.3866384,64.669426 24.0199397,71.0298986 20.3023849,74.7482548 L13.1277205,81.9229192 C11.7317342,83.3205082 11.7317342,85.5843781 13.1277205,86.9803644 L22.2729534,96.1255973 C23.6689397,97.5215836 25.9344123,97.5215836 27.3303986,96.1255973 L34.505063,88.9509329 C38.2250219,85.230974 44.5838918,87.8658781 44.5838918,93.1268712 L44.5838918,103.271412 C44.5838918,105.248392 46.1850288,106.848727 48.1612068,106.848727 L61.0945151,106.848727 C63.068289,106.848727 64.669426,105.248392 64.669426,103.271412 L64.669426,93.1268712 C64.669426,87.8658781 71.0290973,85.230974 74.7482548,88.9509329 L81.9229192,96.1255973 C83.3189055,97.5215836 85.5843781,97.5215836 86.9803644,96.1255973 L96.1255973,86.9803644 C97.5215836,85.5843781 97.5215836,83.3189055 96.1255973,81.9229192 L88.9509329,74.7482548 C85.230974,71.0298986 87.8666795,64.669426 93.1268712,64.669426 L103.272214,64.669426 C105.248392,64.669426 106.849529,63.068289 106.849529,61.092111 L106.849529,48.1588027 C106.849529,46.1842274 105.248392,44.5838918 103.272214,44.5838918 Z" id="Stroke-1" stroke="#A8A9A8" stroke-width="4.8"></path>
                    <mask id="mask-4" fill="white">
                        <use xlink:href="#path-3"></use>
                    </mask>
                    <g id="Clip-4"></g>
                    <polygon id="Fill-3" fill="#FFFFFF" mask="url(#mask-4)" points="82.8079521 85.4789178 118.869596 85.4789178 118.869596 39.8008356 82.8079521 39.8008356"></polygon>
                    <path d="M105.530073,58.1324116 L91.3306007,44.0595555 C89.9257993,42.6667747 87.658724,42.6771925 86.2659432,44.0819938 C84.8731623,45.4875966 84.8827788,47.7554733 86.2875801,49.1482541 L97.9435048,60.6991993 L85.8051555,72.9465349 C84.413176,74.3513363 84.4227925,76.6184116 85.8283952,78.0111925 C87.2331966,79.4039733 89.5010733,79.3935555 90.8930527,77.9887541 L105.552512,63.1970692 C106.945292,61.7922678 106.934875,59.5251925 105.530073,58.1324116" id="Fill-5" fill="#F73435" mask="url(#mask-4)"></path>
                    <path d="M129.571169,58.1324116 L115.371697,44.0595555 C113.966895,42.6667747 111.699018,42.6771925 110.307039,44.0819938 C108.914258,45.4875966 108.923875,47.7554733 110.328676,49.1482541 L121.984601,60.6991993 L109.846251,72.9465349 C108.454272,74.3513363 108.463888,76.6184116 109.869491,78.0111925 C111.274292,79.4039733 113.542169,79.3935555 114.934149,77.9887541 L129.593608,63.1970692 C130.986388,61.7922678 130.975971,59.5251925 129.571169,58.1324116" id="Fill-6" fill="#F73435" mask="url(#mask-4)"></path>
                    <path d="M154.413635,58.1324116 L140.214162,44.0595555 C138.809361,42.6667747 136.541484,42.6771925 135.149505,44.0819938 C133.756724,45.4875966 133.76634,47.7554733 135.171142,49.1482541 L146.827066,60.6991993 L134.688717,72.9465349 C133.296738,74.3513363 133.306354,76.6184116 134.711957,78.0111925 C136.116758,79.4039733 138.384635,79.3935555 139.776614,77.9887541 L154.436073,63.1970692 C155.828854,61.7922678 155.818436,59.5251925 154.413635,58.1324116" id="Fill-7" fill="#F73435" mask="url(#mask-4)"></path>
                </g>
            </g>
        </g>
    </g>
</svg>
