<?xml version="1.0" encoding="UTF-8"?>
<svg width="306px" height="306px" viewBox="0 0 306 306" version="1.1" xmlns="http://www.w3.org/2000/svg" xmlns:xlink="http://www.w3.org/1999/xlink">
    <!-- Generator: Sketch 48.2 (47327) - http://www.bohemiancoding.com/sketch -->
    <title>FAQ</title>
    <desc>Created with Sketch.</desc>
    <defs>
        <path d="M38.4652414,0 C17.3087357,0 0,17.3096232 0,38.4660422 L0,39.4109702 L0,195.533958 L0,234 L38.4652414,234 L195.534759,234 C216.690306,234 234,216.690377 234,195.533958 L234,38.4660422 L234,0 L38.4652414,0 Z" id="path-1"></path>
        <filter x="-23.1%" y="-23.1%" width="146.2%" height="146.2%" filterUnits="objectBoundingBox" id="filter-2">
            <feOffset dx="0" dy="0" in="SourceAlpha" result="shadowOffsetOuter1"></feOffset>
            <feGaussianBlur stdDeviation="18" in="shadowOffsetOuter1" result="shadowBlurOuter1"></feGaussianBlur>
            <feColorMatrix values="0 0 0 0 0   0 0 0 0 0   0 0 0 0 0  0 0 0 0.2325351 0" type="matrix" in="shadowBlurOuter1"></feColorMatrix>
        </filter>
    </defs>
    <g id="Page-1" stroke="none" stroke-width="1" fill="none" fill-rule="evenodd">
        <g id="FAQ" transform="translate(36.000000, 36.000000)">
            <g id="Group-13">
                <g id="Page-1-Copy-2">
                    <g id="Fill-2">
                        <use fill="black" fill-opacity="1" filter="url(#filter-2)" xlink:href="#path-1"></use>
                        <use fill="#FFFFFF" fill-rule="evenodd" xlink:href="#path-1"></use>
                    </g>
                </g>
                <g id="Page-1" transform="translate(51.287671, 67.315068)">
                    <polygon id="Fill-1" fill="#A8A9A8" points="33.7905616 64.3315685 41.2777603 64.3315685 41.2777603 56.8499795 33.7905616 56.8499795"></polygon>
                    <polygon id="Stroke-2" stroke="#FFFFFF" stroke-width="1.6" points="33.7905616 64.3315685 41.2777603 64.3315685 41.2777603 56.8499795 33.7905616 56.8499795"></polygon>
                    <g id="Group-15" transform="translate(0.000000, 0.068918)">
                        <path d="M37.5356836,19.3409014 C30.4291356,19.3409014 24.6472521,25.1227849 24.6472521,32.2293329 L32.1288411,32.2293329 C32.1288411,29.2474356 34.5545877,26.8224904 37.5356836,26.8224904 C40.5167795,26.8224904 42.9417247,29.2474356 42.9417247,32.2293329 C42.9417247,35.2096274 40.5167795,37.635374 37.5356836,37.635374 L33.794889,37.635374 L33.794889,49.2888945 L41.2764781,49.2888945 L41.2764781,44.5632164 C46.5647178,42.9564699 50.4233137,38.0352575 50.4233137,32.2293329 C50.4233137,25.1227849 44.6422315,19.3409014 37.5356836,19.3409014" id="Fill-3" fill="#A8A9A8"></path>
                        <path d="M37.5356836,19.3409014 C30.4291356,19.3409014 24.6472521,25.1227849 24.6472521,32.2293329 L32.1288411,32.2293329 C32.1288411,29.2474356 34.5545877,26.8224904 37.5356836,26.8224904 C40.5167795,26.8224904 42.9417247,29.2474356 42.9417247,32.2293329 C42.9417247,35.2096274 40.5167795,37.635374 37.5356836,37.635374 L33.794889,37.635374 L33.794889,49.2888945 L41.2764781,49.2888945 L41.2764781,44.5632164 C46.5647178,42.9564699 50.4233137,38.0352575 50.4233137,32.2293329 C50.4233137,25.1227849 44.6422315,19.3409014 37.5356836,19.3409014 Z" id="Stroke-5" stroke="#FFFFFF" stroke-width="1.6"></path>
                        <path d="M120.203155,90.3647096 L107.620046,90.3647096 L107.620046,99.3128055 L95.0794089,90.3647096 L67.4345527,90.3647096 L67.4345527,82.8711 L75.0716075,82.8711 L75.0716075,23.1898808 L120.203155,23.1898808 L120.203155,90.3647096 Z M32.6062171,75.389511 L20.0655801,84.3368055 L20.0655801,75.389511 L7.48166918,75.389511 L7.48166918,8.21388082 L67.5892171,8.21388082 L67.5892171,75.389511 L32.6062171,75.389511 Z M75.0708062,15.7082918 L75.0708062,0.732291781 L8.01369863e-05,0.732291781 L8.01369863e-05,82.8711 L12.5831897,82.8711 L12.5831897,98.8648397 L35.0015116,82.8711 L59.9521623,82.8711 L59.9521623,97.8471 L92.683313,97.8471 L115.101635,113.84084 L115.101635,97.8471 L127.684745,97.8471 L127.684745,15.7082918 L75.0708062,15.7082918 Z" id="Fill-7" fill="#A8A9A8"></path>
                        <path d="M120.203155,90.3647096 L107.620046,90.3647096 L107.620046,99.3128055 L95.0794089,90.3647096 L67.4345527,90.3647096 L67.4345527,82.8711 L75.0716075,82.8711 L75.0716075,23.1898808 L120.203155,23.1898808 L120.203155,90.3647096 Z M32.6062171,75.389511 L20.0655801,84.3368055 L20.0655801,75.389511 L7.48166918,75.389511 L7.48166918,8.21388082 L67.5892171,8.21388082 L67.5892171,75.389511 L32.6062171,75.389511 Z M75.0708062,15.7082918 L75.0708062,0.732291781 L8.01369863e-05,0.732291781 L8.01369863e-05,82.8711 L12.5831897,82.8711 L12.5831897,98.8648397 L35.0015116,82.8711 L59.9521623,82.8711 L59.9521623,97.8471 L92.683313,97.8471 L115.101635,113.84084 L115.101635,97.8471 L127.684745,97.8471 L127.684745,15.7082918 L75.0708062,15.7082918 Z" id="Stroke-9" stroke="#FFFFFF" stroke-width="1.6"></path>
                        <path d="M93.504637,55.821261 L85.5037603,63.894261 C84.7120068,64.6924253 84.7176164,65.9818295 85.5165822,66.7735829 C86.3155479,67.5653363 87.6049521,67.5597267 88.3967055,66.760761 L94.9639315,60.1342336 L101.927034,67.0348295 C102.726,67.8265829 104.014603,67.8209733 104.806356,67.0220075 C105.59811,66.2230418 105.5925,64.934439 104.793534,64.1426856 L96.3839589,55.808439 C95.5849932,55.0166856 94.2963904,55.0222952 93.504637,55.821261" id="Fill-11" fill="#F73435"></path>
                        <path d="M93.504637,42.153337 L85.5037603,50.226337 C84.7120068,51.0245014 84.7176164,52.3139055 85.5165822,53.1056589 C86.3155479,53.8974123 87.6049521,53.8918027 88.3967055,53.092837 L94.9639315,46.4663096 L101.927034,53.3669055 C102.726,54.1586589 104.014603,54.1530493 104.806356,53.3540836 C105.59811,52.5551178 105.5925,51.2665151 104.793534,50.4747616 L96.3839589,42.1405151 C95.5849932,41.3487616 94.2963904,41.3543712 93.504637,42.153337" id="Fill-13" fill="#F73435"></path>
                    </g>
                </g>
            </g>
        </g>
    </g>
</svg>
