<?xml version="1.0" encoding="UTF-8"?>
<svg width="306px" height="306px" viewBox="0 0 306 306" version="1.1" xmlns="http://www.w3.org/2000/svg" xmlns:xlink="http://www.w3.org/1999/xlink">
    <!-- Generator: Sketch 48.2 (47327) - http://www.bohemiancoding.com/sketch -->
    <title>One-Shot Hacking</title>
    <desc>Created with Sketch.</desc>
    <defs>
        <path d="M38.4652414,0 C17.3087357,0 0,17.3096232 0,38.4660422 L0,39.4109702 L0,195.533958 L0,234 L38.4652414,234 L195.534759,234 C216.690306,234 234,216.690377 234,195.533958 L234,38.4660422 L234,0 L38.4652414,0 Z" id="path-1"></path>
        <filter x="-23.1%" y="-23.1%" width="146.2%" height="146.2%" filterUnits="objectBoundingBox" id="filter-2">
            <feOffset dx="0" dy="0" in="SourceAlpha" result="shadowOffsetOuter1"></feOffset>
            <feGaussianBlur stdDeviation="18" in="shadowOffsetOuter1" result="shadowBlurOuter1"></feGaussianBlur>
            <feColorMatrix values="0 0 0 0 0   0 0 0 0 0   0 0 0 0 0  0 0 0 0.2325351 0" type="matrix" in="shadowBlurOuter1"></feColorMatrix>
        </filter>
        <polygon id="path-3" points="0.000397843194 0.421752055 139.795136 0.421752055 139.795136 17.6297452 0.000397843194 17.6297452"></polygon>
        <polygon id="path-5" points="0 161.876712 139.438356 161.876712 139.438356 0 0 0"></polygon>
    </defs>
    <g id="Page-1" stroke="none" stroke-width="1" fill="none" fill-rule="evenodd">
        <g id="One-Shot-Hacking" transform="translate(36.000000, 36.000000)">
            <g id="Page-1">
                <g id="Fill-2">
                    <use fill="black" fill-opacity="1" filter="url(#filter-2)" xlink:href="#path-1"></use>
                    <use fill="#FFFFFF" fill-rule="evenodd" xlink:href="#path-1"></use>
                </g>
            </g>
            <g id="Page-1" transform="translate(48.883562, 37.664384)">
                <g id="Group-3" transform="translate(0.000000, 143.445205)">
                    <mask id="mask-4" fill="white">
                        <use xlink:href="#path-3"></use>
                    </mask>
                    <g id="Clip-2"></g>
                    <path d="M125.233479,11.894074 L14.5624534,11.894074 C10.8605224,11.8891767 7.56140775,9.59236164 6.32312081,6.15840274 L133.471817,6.15840274 C132.23353,9.59236164 128.934415,11.8891767 125.233479,11.894074 M136.882327,0.421752055 L2.91261003,0.421752055 C1.30432891,0.421752055 0.000397843194,1.70679315 0.000397843194,3.29056712 C0.00934931507,11.2064986 6.52403162,17.6209301 14.5624534,17.6297452 L125.233479,17.6297452 C133.2719,17.6209301 139.785588,11.2064986 139.795534,3.29056712 C139.795534,1.70679315 138.491603,0.421752055 136.882327,0.421752055" id="Fill-1" fill="#A8A9A8" mask="url(#mask-4)"></path>
                </g>
                <path d="M17.6626285,56.8972603 C12.77552,56.8972603 8.81506849,60.7870302 8.81506849,65.5834902 L8.81506849,146.650685 L14.7134418,146.650685 L14.7134418,65.5834902 C14.7134418,63.9846702 16.033928,62.6874211 17.6626285,62.6874211 L33.6575342,62.6874211 L33.6575342,56.8972603 L17.6626285,56.8972603 Z" id="Fill-4" fill="#A8A9A8"></path>
                <path d="M122.576449,56.8972603 L106.582192,56.8972603 L106.582192,62.6874211 L122.576449,62.6874211 C124.205083,62.6874211 125.525516,63.9846702 125.525516,65.5834902 L125.525516,146.650685 L131.424658,146.650685 L131.424658,65.5834902 C131.424658,60.7870302 127.463359,56.8972603 122.576449,56.8972603" id="Fill-6" fill="#A8A9A8"></path>
                <mask id="mask-6" fill="white">
                    <use xlink:href="#path-5"></use>
                </mask>
                <g id="Clip-9"></g>
                <polygon id="Fill-8" fill="#A8A9A8" mask="url(#mask-6)" points="58.5 153.061644 81.739726 153.061644 81.739726 147.452055 58.5 147.452055"></polygon>
                <polygon id="Fill-10" fill="#A8A9A8" mask="url(#mask-6)" points="67.3150685 126.616438 72.9246575 126.616438 72.9246575 108.986301 67.3150685 108.986301"></polygon>
                <polygon id="Fill-11" fill="#A8A9A8" mask="url(#mask-6)" points="67.3150685 137.835616 72.9246575 137.835616 72.9246575 132.226027 67.3150685 132.226027"></polygon>
                <polygon id="Fill-12" fill="#A8A9A8" mask="url(#mask-6)" points="44.0753425 121.006849 49.6849315 121.006849 49.6849315 103.376712 44.0753425 103.376712"></polygon>
                <polygon id="Fill-13" fill="#A8A9A8" mask="url(#mask-6)" points="44.0753425 132.226027 49.6849315 132.226027 49.6849315 126.616438 44.0753425 126.616438"></polygon>
                <polygon id="Fill-14" fill="#A8A9A8" mask="url(#mask-6)" points="90.5547945 121.006849 96.1643836 121.006849 96.1643836 103.376712 90.5547945 103.376712"></polygon>
                <polygon id="Fill-15" fill="#A8A9A8" mask="url(#mask-6)" points="90.5547945 132.226027 96.1643836 132.226027 96.1643836 126.616438 90.5547945 126.616438"></polygon>
                <path d="M73.3353375,25.9218299 L90.8646976,8.19348778 C92.5995663,6.43956353 92.5865897,3.60907198 90.8367481,1.87015564 C89.0859083,0.132239828 86.2610071,0.143245627 84.5261385,1.89716987 L70.1381083,16.4498385 L54.8826439,1.295853 C53.1328023,-0.443063334 50.3079011,-0.43005648 48.5740307,1.32386777 C46.8391621,3.07879254 46.8511404,5.9092841 48.6019802,7.64719991 L67.0267243,25.9508452 C68.7765659,27.6897615 71.6004688,27.6767547 73.3353375,25.9218299" id="Fill-16" fill="#F73435" mask="url(#mask-6)"></path>
                <path d="M73.3353375,55.5725148 L90.8646976,37.8441727 C92.5995663,36.0902485 92.5865897,33.2597569 90.8367481,31.5208406 C89.0859083,29.7829248 86.2610071,29.7939306 84.5261385,31.5478548 L70.1381083,46.1005235 L54.8826439,30.9465379 C53.1328023,29.2076216 50.3079011,29.2206285 48.5740307,30.9745527 C46.8391621,32.7294775 46.8511404,35.559969 48.6019802,37.2978848 L67.0267243,55.6015301 C68.7765659,57.3404465 71.6004688,57.3274396 73.3353375,55.5725148" id="Fill-17" fill="#F73435" mask="url(#mask-6)"></path>
                <path d="M73.3353375,84.4218299 L90.8646976,66.6934878 C92.5995663,64.9395635 92.5865897,62.109072 90.8367481,60.3701556 C89.0859083,58.6322398 86.2610071,58.6432456 84.5261385,60.3971699 L70.1381083,74.9498385 L54.8826439,59.795853 C53.1328023,58.0569367 50.3079011,58.0699435 48.5740307,59.8238678 C46.8391621,61.5787925 46.8511404,64.4092841 48.6019802,66.1471999 L67.0267243,84.4508452 C68.7765659,86.1897615 71.6004688,86.1767547 73.3353375,84.4218299" id="Fill-18" fill="#F73435" mask="url(#mask-6)"></path>
            </g>
        </g>
    </g>
</svg>
