<?xml version="1.0" encoding="utf-8"?>
<!-- Generator: Adobe Illustrator 24.2.1, SVG Export Plug-In . SVG Version: 6.00 Build 0)  -->
<svg version="1.1" id="Capa_1" xmlns="http://www.w3.org/2000/svg" xmlns:xlink="http://www.w3.org/1999/xlink" x="0px" y="0px"
  viewBox="0 0 22.2 18" style="enable-background:new 0 0 22.2 18;" xml:space="preserve">
<style type="text/css">
  .st0{fill:#272727;}
</style>
<g>
  <g>
    <path class="st0" d="M22.2,2.1c-0.8,0.4-1.7,0.6-2.6,0.7c0.9-0.6,1.7-1.4,2-2.5c-0.9,0.5-1.9,0.9-2.9,1.1c-0.8-0.9-2-1.4-3.3-1.4
      c-2.5,0-4.5,2-4.5,4.6c0,0.4,0,0.7,0.1,1c-3.8-0.2-7.1-2-9.4-4.8C1.1,1.5,0.9,2.3,0.9,3.1c0,1.6,0.8,3,2,3.8
      c-0.7,0-1.4-0.2-2.1-0.6c0,0,0,0,0,0.1c0,2.2,1.6,4,3.6,4.5C4.2,11,3.8,11,3.3,11c-0.3,0-0.6,0-0.9-0.1c0.6,1.8,2.3,3.1,4.3,3.2
      c-1.5,1.2-3.5,1.9-5.6,1.9c-0.4,0-0.7,0-1.1-0.1c2,1.3,4.4,2,7,2c8.4,0,12.9-6.9,12.9-12.9c0-0.2,0-0.4,0-0.6
      C20.8,3.9,21.6,3.1,22.2,2.1z"/>
  </g>
</g>
</svg>
