<?xml version="1.0" encoding="utf-8"?>
<!-- Generator: Adobe Illustrator 24.2.1, SVG Export Plug-In . SVG Version: 6.00 Build 0)  -->
<svg version="1.1" id="Capa_1" xmlns="http://www.w3.org/2000/svg" xmlns:xlink="http://www.w3.org/1999/xlink" x="0px" y="0px"
  viewBox="0 0 9.8 18.1" style="enable-background:new 0 0 9.8 18.1;" xml:space="preserve">
<style type="text/css">
  .st0{fill:#272727;}
</style>
<g>
  <path class="st0" d="M9.4,0H7.1C4.4,0,2.7,1.7,2.7,4.5v2H0.4C0.2,6.5,0,6.7,0,6.9v3c0,0.2,0.2,0.4,0.4,0.4h2.3v7.5
    c0,0.2,0.2,0.4,0.4,0.4h3.1c0.2,0,0.4-0.2,0.4-0.4v-7.5h2.8c0.2,0,0.4-0.2,0.4-0.4v-3c0-0.1,0-0.2-0.1-0.3C9.5,6.5,9.4,6.5,9.3,6.5
    H6.5V4.8c0-0.8,0.2-1.3,1.3-1.3h1.6c0.2,0,0.4-0.2,0.4-0.4V0.4C9.8,0.2,9.6,0,9.4,0z"/>
</g>
</svg>
