<?xml version="1.0" encoding="utf-8"?>
<!-- Generator: Adobe Illustrator 24.2.1, SVG Export Plug-In . SVG Version: 6.00 Build 0)  -->
<svg version="1.1" id="Layer_1" xmlns="http://www.w3.org/2000/svg" xmlns:xlink="http://www.w3.org/1999/xlink" x="0px" y="0px"
  viewBox="0 0 25.9 18.3" style="enable-background:new 0 0 25.9 18.3;" xml:space="preserve">
<style type="text/css">
  .st0{fill:#272727;}
</style>
<g id="XMLID_822_">
  <path id="XMLID_823_" class="st0" d="M24.9,1.6C24,0.5,22.3,0,19,0H7C3.6,0,1.8,0.5,0.9,1.7C0,2.8,0,4.5,0,6.9v4.5
    c0,4.6,1.1,6.9,7,6.9h12c2.9,0,4.5-0.4,5.5-1.4c1.1-1,1.5-2.7,1.5-5.5V6.9C25.9,4.4,25.9,2.7,24.9,1.6z M16.6,9.7l-5.4,2.8
    c-0.1,0.1-0.3,0.1-0.4,0.1c-0.2,0-0.3,0-0.4-0.1c-0.3-0.2-0.4-0.4-0.4-0.7V6.2c0-0.3,0.2-0.6,0.4-0.7c0.3-0.2,0.6-0.2,0.8,0
    l5.4,2.8c0.3,0.1,0.5,0.4,0.5,0.7C17.1,9.3,16.9,9.6,16.6,9.7z"/>
</g>
</svg>
