<?xml version="1.0" encoding="utf-8"?>
<!-- Generator: Adobe Illustrator 24.2.1, SVG Export Plug-In . SVG Version: 6.00 Build 0)  -->
<svg version="1.1" id="Capa_1" xmlns="http://www.w3.org/2000/svg" xmlns:xlink="http://www.w3.org/1999/xlink" x="0px" y="0px"
  viewBox="0 0 18 18" style="enable-background:new 0 0 18 18;" xml:space="preserve">
<style type="text/css">
  .st0{fill:#272727;}
</style>
<g>
  <path class="st0" d="M18,5.3c0-1-0.2-1.6-0.4-2.2c-0.2-0.6-0.6-1.1-1-1.6c-0.5-0.5-1-0.8-1.6-1c-0.6-0.2-1.2-0.4-2.2-0.4
    C11.8,0,11.5,0,9,0S6.3,0,5.3,0.1c-1,0-1.6,0.2-2.2,0.4C2.5,0.7,2,1.1,1.5,1.5c-0.5,0.5-0.8,1-1,1.6C0.3,3.7,0.1,4.3,0.1,5.3
    C0,6.3,0,6.6,0,9s0,2.8,0.1,3.7c0,1,0.2,1.6,0.4,2.2c0.2,0.6,0.6,1.1,1,1.6c0.5,0.5,1,0.8,1.6,1c0.6,0.2,1.2,0.4,2.2,0.4
    C6.3,18,6.6,18,9,18s2.8,0,3.7-0.1c1,0,1.6-0.2,2.2-0.4c1.2-0.5,2.2-1.4,2.6-2.6c0.2-0.6,0.4-1.2,0.4-2.2c0-1,0.1-1.3,0.1-3.7
    S18,6.3,18,5.3z M16.3,12.7c0,0.9-0.2,1.4-0.3,1.7c-0.3,0.8-0.9,1.4-1.7,1.7c-0.3,0.1-0.8,0.3-1.7,0.3c-1,0-1.2,0.1-3.6,0.1
    s-2.7,0-3.6-0.1c-0.9,0-1.4-0.2-1.7-0.3c-0.4-0.1-0.7-0.4-1-0.7c-0.3-0.3-0.5-0.6-0.7-1c-0.1-0.3-0.3-0.8-0.3-1.7
    c0-1-0.1-1.2-0.1-3.6s0-2.7,0.1-3.6C1.7,4.5,1.9,4,2,3.7c0.1-0.4,0.4-0.7,0.7-1C3,2.4,3.3,2.2,3.7,2C4,1.9,4.5,1.7,5.4,1.7
    c1,0,1.2-0.1,3.6-0.1c2.4,0,2.7,0,3.6,0.1c0.9,0,1.4,0.2,1.7,0.3c0.4,0.1,0.7,0.4,1,0.7c0.3,0.3,0.5,0.6,0.7,1
    c0.1,0.3,0.3,0.8,0.3,1.7c0,1,0.1,1.2,0.1,3.6S16.4,11.7,16.3,12.7z"/>
  <path class="st0" d="M9,4.4C6.5,4.4,4.4,6.5,4.4,9s2.1,4.6,4.6,4.6c2.6,0,4.6-2.1,4.6-4.6S11.6,4.4,9,4.4z M9,12c-1.7,0-3-1.3-3-3
    s1.3-3,3-3c1.7,0,3,1.3,3,3S10.7,12,9,12z"/>
  <path class="st0" d="M14.9,4.2c0,0.6-0.5,1.1-1.1,1.1c-0.6,0-1.1-0.5-1.1-1.1c0-0.6,0.5-1.1,1.1-1.1C14.4,3.1,14.9,3.6,14.9,4.2z"
    />
</g>
</svg>
