<?xml version="1.0" encoding="utf-8"?>
<!-- Generator: Adobe Illustrator 24.2.1, SVG Export Plug-In . SVG Version: 6.00 Build 0)  -->
<svg version="1.1" id="Bold" xmlns="http://www.w3.org/2000/svg" xmlns:xlink="http://www.w3.org/1999/xlink" x="0px" y="0px"
  viewBox="0 0 18.1 18.1" style="enable-background:new 0 0 18.1 18.1;" xml:space="preserve">
<style type="text/css">
  .st0{fill:#272727;}
</style>
<g>
  <path class="st0" d="M18.1,18.1L18.1,18.1L18.1,18.1l0-6.6c0-3.2-0.7-5.7-4.5-5.7c-1.8,0-3.1,1-3.5,2H10V6H6.4v12.1h3.7v-6
    c0-1.6,0.3-3.1,2.2-3.1c1.9,0,2,1.8,2,3.2v5.9H18.1z"/>
  <path class="st0" d="M0.3,6h3.8v12.1H0.3V6z"/>
  <path class="st0" d="M2.2,0C1,0,0,1,0,2.2s1,2.2,2.2,2.2s2.2-1,2.2-2.2C4.3,1,3.4,0,2.2,0z"/>
</g>
</svg>
