<?xml version="1.0" encoding="UTF-8"?>
<svg width="306px" height="306px" viewBox="0 0 306 306" version="1.1" xmlns="http://www.w3.org/2000/svg" xmlns:xlink="http://www.w3.org/1999/xlink">
    <!-- Generator: Sketch 48.2 (47327) - http://www.bohemiancoding.com/sketch -->
    <title>Certifications</title>
    <desc>Created with Sketch.</desc>
    <defs>
        <path d="M38.4652414,0 C17.3087357,0 0,17.3096232 0,38.4660422 L0,39.4109702 L0,195.533958 L0,234 L38.4652414,234 L195.534759,234 C216.690306,234 234,216.690377 234,195.533958 L234,38.4660422 L234,0 L38.4652414,0 Z" id="path-1"></path>
        <filter x="-23.1%" y="-23.1%" width="146.2%" height="146.2%" filterUnits="objectBoundingBox" id="filter-2">
            <feOffset dx="0" dy="0" in="SourceAlpha" result="shadowOffsetOuter1"></feOffset>
            <feGaussianBlur stdDeviation="18" in="shadowOffsetOuter1" result="shadowBlurOuter1"></feGaussianBlur>
            <feColorMatrix values="0 0 0 0 0   0 0 0 0 0   0 0 0 0 0  0 0 0 0.2325351 0" type="matrix" in="shadowBlurOuter1"></feColorMatrix>
        </filter>
    </defs>
    <g id="Page-1" stroke="none" stroke-width="1" fill="none" fill-rule="evenodd">
        <g id="Certifications" transform="translate(36.000000, 36.000000)">
            <g id="Group-12">
                <g id="Page-1">
                    <g id="Fill-2">
                        <use fill="black" fill-opacity="1" filter="url(#filter-2)" xlink:href="#path-1"></use>
                        <use fill="#FFFFFF" fill-rule="evenodd" xlink:href="#path-1"></use>
                    </g>
                    <g transform="translate(52.089041, 64.109589)">
                        <path d="M127.818493,88.1510856 L90.2422603,88.1510856 C89.0458151,74.8235034 77.2728904,64.9890925 63.9453082,66.1855377 C52.2749589,67.2321267 43.0271507,76.4807363 41.9797603,88.1510856 L4.40753425,88.1510856 L4.40753425,4.40793493 L127.818493,4.40793493 L127.818493,88.1510856 Z M96.3422877,109.238332 L85.4332397,111.84599 C84.7584863,112.007866 84.1999315,112.476668 83.9242603,113.112955 L79.4614315,123.41136 L71.5471027,113.980839 L71.567137,113.980839 C72.4326164,113.783702 73.2868767,113.53688 74.1235068,113.241175 C74.288589,113.183476 74.4472603,113.11536 74.6131438,113.056058 C75.2277945,112.822058 75.8336301,112.566421 76.4290479,112.281935 C76.6710616,112.169743 76.9138767,112.061558 77.1518836,111.938949 C77.8130137,111.59436 78.4741438,111.222524 79.1088288,110.814627 C79.4149521,110.620695 79.7082534,110.402723 80.0055616,110.192764 C80.2259384,110.040503 80.4463151,109.902668 80.6666918,109.740791 C80.7836918,109.653442 80.8870685,109.549264 81.0016644,109.45951 C81.2220411,109.278401 81.4776781,109.12614 81.702863,108.937017 C81.9272466,108.747092 82.1564384,108.496264 82.3904384,108.288709 C82.6813356,108.024257 82.9674247,107.758202 83.2446986,107.482531 C83.6077192,107.11951 83.9595205,106.746873 84.2985,106.363017 C84.6182466,106.001599 84.9219658,105.635373 85.2200753,105.261134 C85.4733082,104.93738 85.7201301,104.600003 85.9557329,104.269038 C86.2955137,103.789017 86.616863,103.295373 86.9141712,102.792914 C87.0688356,102.537277 87.2186918,102.279236 87.3549247,102.017188 C87.697911,101.395325 88.0096438,100.759839 88.291726,100.110729 C88.3317945,99.9985377 88.3886918,99.9079829 88.430363,99.808613 L96.3422877,109.238332 Z M70.252089,109.721558 C69.2407603,109.934723 68.2158082,110.070154 67.1836438,110.124647 L67.1555959,110.124647 C66.807,110.142277 66.4592055,110.166318 66.1082055,110.166318 C65.7580068,110.166318 65.4102123,110.142277 65.0616164,110.124647 L65.0335685,110.124647 C64.0038082,110.070154 62.9804589,109.935524 61.9723356,109.723161 L61.7872192,109.686298 C61.3945479,109.600551 61.0066849,109.494771 60.6236301,109.384182 C60.4625548,109.337702 60.2998767,109.296031 60.1412055,109.245545 C59.8655342,109.159798 59.5938699,109.058024 59.3230068,108.961058 C59.0521438,108.864092 58.7941027,108.769531 58.5344589,108.661346 C58.3733836,108.593229 58.2147123,108.520305 58.0560411,108.440969 C57.6946233,108.278291 57.3356096,108.112408 56.985411,107.929695 L56.8083082,107.832729 C55.9003562,107.347099 55.0308699,106.790949 54.2086644,106.17149 C53.7502808,105.830106 53.3263562,105.452661 52.9104452,105.080024 C52.4176027,104.640873 51.9471986,104.17688 51.5024384,103.689647 C51.326137,103.500524 51.1362123,103.319414 50.968726,103.12388 C50.353274,102.399442 49.7923151,101.630928 49.2898562,100.82475 C49.2145274,100.706147 49.1504178,100.580332 49.0686781,100.456921 C48.6006781,99.6739829 48.1879726,98.8581884 47.8345685,98.0175514 C47.8041164,97.9422226 47.7688562,97.8676952 47.7400068,97.7971747 C47.3497397,96.8323253 47.0356027,95.8394281 46.8016027,94.8264966 C46.8016027,94.7864281 46.7703493,94.755976 46.7599315,94.7159075 C46.4393836,93.284661 46.2783082,91.822161 46.2791096,90.3548527 C46.2726986,79.4009281 55.1470685,70.515339 66.1009932,70.5089281 C77.0549178,70.5025171 85.9397055,79.376887 85.9469178,90.3308116 C85.9477192,91.8141473 85.7818356,93.293476 85.453274,94.7399486 C85.4420548,94.777613 85.4204178,94.8104692 85.4116027,94.8481336 C85.1776027,95.8602637 84.8642671,96.8523596 84.4748014,97.8164075 C84.4443493,97.893339 84.409089,97.9702705 84.3754315,98.0367842 C84.0236301,98.872613 83.6125274,99.6827979 83.1461301,100.460928 C83.0732055,100.584339 83.0074932,100.714161 82.9257534,100.838373 C82.4232945,101.642949 81.8623356,102.410661 81.2484863,103.134298 C81.0834041,103.328229 80.8958836,103.504531 80.7219863,103.694455 C80.2700137,104.185695 79.794,104.653695 79.2955479,105.097654 C78.8772329,105.470291 78.4605205,105.846935 78.0045411,106.185914 C77.5485616,106.525695 77.1406644,106.812586 76.6959041,107.096271 L76.6694589,107.112298 C76.2703767,107.365531 75.8624795,107.598729 75.4481712,107.819106 C75.3664315,107.863182 75.2870959,107.909661 75.2053562,107.951332 C74.8727877,108.126031 74.544226,108.282298 74.1940274,108.434558 C74.017726,108.513894 73.8438288,108.594832 73.6651233,108.667757 C73.4183014,108.771134 73.1674726,108.861688 72.9158425,108.952243 C72.6650137,109.041997 72.3540822,109.158997 72.0671918,109.247147 C71.9157329,109.296031 71.7610685,109.337702 71.6072055,109.381777 C71.2169384,109.491565 70.8242671,109.602154 70.4283904,109.686298 L70.252089,109.721558 Z M52.7645959,123.41136 L48.3017671,113.119366 C48.0260959,112.483079 47.4675411,112.013476 46.7927877,111.852401 L35.8837397,109.245545 L43.7956644,99.8158253 C43.8373356,99.9127911 43.8926301,100.000942 43.9343014,100.097908 C44.2203904,100.758236 44.5313219,101.387312 44.8751096,102.009976 C45.0161507,102.270421 45.1660068,102.526058 45.315863,102.779291 C45.6187808,103.283353 45.9385274,103.776997 46.2767055,104.261024 C46.5131096,104.597599 46.7599315,104.921353 47.0131644,105.252318 C47.3080685,105.62736 47.612589,105.992784 47.9315342,106.354202 C48.2512808,106.71562 48.6239178,107.114702 48.9917466,107.480127 C49.2626096,107.75099 49.543089,108.013839 49.8291781,108.271079 C50.0671849,108.491455 50.2811507,108.723051 50.5303767,108.93301 C50.7788014,109.142168 51.0128014,109.283209 51.2508082,109.468325 C51.3589932,109.551668 51.4511507,109.648634 51.5617397,109.730373 C51.7596781,109.880229 51.969637,110.010051 52.1723836,110.153497 C52.489726,110.373873 52.8022603,110.61188 53.1308219,110.814627 C53.7566918,111.215312 54.4017945,111.581538 55.0565137,111.91651 C55.3081438,112.043928 55.5637808,112.160928 55.8194178,112.280332 C56.4068219,112.556805 56.9982329,112.807634 57.5928493,113.03362 C57.7651438,113.097729 57.9350342,113.170654 58.1065274,113.229955 C58.9415548,113.523257 59.7918082,113.770079 60.6540822,113.968017 L60.6789247,113.975229 L52.7645959,123.41136 Z M130.02226,0.000400684932 L2.20376712,0.000400684932 C0.986486301,0.000400684932 0,0.986886986 0,2.20416781 L0,90.3548527 C0,91.5721336 0.986486301,92.5586199 2.20376712,92.5586199 L41.9973904,92.5586199 C42.0631027,93.2926747 42.1712877,94.0155103 42.3011096,94.7311336 L30.2132466,109.13736 C29.4311096,110.069353 29.5513151,111.458928 30.4833082,112.241866 C30.7461575,112.463045 31.057089,112.619312 31.3904589,112.698647 L44.6964041,115.87688 L50.1377055,128.437551 C50.6217329,129.554661 51.9191507,130.068339 53.0354589,129.584312 C53.3503973,129.44888 53.6284726,129.240524 53.8488493,128.977675 L65.9166781,114.596291 L66.1130137,114.596291 L66.3093493,114.596291 L78.3771781,128.977675 C79.1585137,129.910469 80.5488904,130.033079 81.4816849,129.251743 C81.7437329,129.031366 81.952089,128.75249 82.0883219,128.437551 L87.5296233,115.87688 L100.835568,112.698647 C102.019192,112.416565 102.750842,111.228134 102.46876,110.04451 C102.389425,109.710339 102.233158,109.400209 102.012781,109.13736 L89.9249178,94.7311336 C90.0547397,94.0155103 90.1629247,93.2926747 90.228637,92.5586199 L130.02226,92.5586199 C131.239541,92.5586199 132.226027,91.5721336 132.226027,90.3548527 L132.226027,2.20416781 C132.226027,0.986886986 131.239541,0.000400684932 130.02226,0.000400684932 Z" id="Fill-1" fill="#A8A9A8"></path>
                        <path d="M11.0188356,8.81546918 C9.80155479,8.81546918 8.81506849,9.80195548 8.81506849,11.0192363 L8.81506849,19.8343048 L13.2226027,19.8343048 L13.2226027,13.2230034 L19.8339041,13.2230034 L19.8339041,8.81546918 L11.0188356,8.81546918 Z" id="Fill-3" fill="#A8A9A8"></path>
                        <path d="M121.207192,8.81546918 L112.392123,8.81546918 L112.392123,13.2230034 L119.003425,13.2230034 L119.003425,19.8343048 L123.410959,19.8343048 L123.410959,11.0192363 C123.410959,9.80195548 122.424473,8.81546918 121.207192,8.81546918" id="Fill-5" fill="#A8A9A8"></path>
                        <path d="M119.003425,72.7247158 L119.003425,79.3360171 L112.392123,79.3360171 L112.392123,83.7435514 L121.207192,83.7435514 C122.424473,83.7435514 123.410959,82.7570651 123.410959,81.5397842 L123.410959,72.7247158 L119.003425,72.7247158 Z" id="Fill-7" fill="#A8A9A8"></path>
                        <path d="M13.2226027,79.3360171 L13.2226027,72.7247158 L8.81506849,72.7247158 L8.81506849,81.5397842 C8.81506849,82.7570651 9.80155479,83.7435514 11.0188356,83.7435514 L19.8339041,83.7435514 L19.8339041,79.3360171 L13.2226027,79.3360171 Z" id="Fill-9" fill="#A8A9A8"></path>
                        <path d="M66.1130137,101.373688 C60.027411,101.373688 55.0941781,96.4404555 55.0941781,90.3548527 C55.1013904,84.2724555 60.0306164,79.3432295 66.1130137,79.3360171 C72.1986164,79.3360171 77.1318493,84.26925 77.1318493,90.3548527 C77.1318493,96.4404555 72.1986164,101.373688 66.1130137,101.373688 M66.1130137,74.9284829 C57.5928493,74.9284829 50.6866438,81.8346884 50.6866438,90.3548527 C50.6962603,98.8702089 57.5976575,105.771606 66.1130137,105.781223 C74.6331781,105.781223 81.5393836,98.8742158 81.5393836,90.3548527 C81.5393836,81.8346884 74.6331781,74.9284829 66.1130137,74.9284829" id="Fill-11" fill="#A8A9A8"></path>
                        <path d="M53.9753055,37.7242459 L39.7758329,23.6513897 C38.3710315,22.2586089 36.1031548,22.2690267 34.7111753,23.6738281 C33.3183945,25.0794308 33.328011,27.3473075 34.7328123,28.7400884 L46.388737,40.2910336 L34.2503877,52.5383692 C32.8584082,53.9431705 32.8680247,56.2102459 34.2736274,57.6030267 C35.6784288,58.9958075 37.9463055,58.9853897 39.3382849,57.5805884 L53.9977438,42.7889034 C55.3905247,41.3841021 55.3801068,39.1170267 53.9753055,37.7242459" id="Fill-13" fill="#F73435"></path>
                        <path d="M78.0164014,37.7242459 L63.8169288,23.6513897 C62.4121274,22.2586089 60.1442507,22.2690267 58.7522712,23.6738281 C57.3594904,25.0794308 57.3691068,27.3473075 58.7739082,28.7400884 L70.4298329,40.2910336 L58.2914836,52.5383692 C56.8995041,53.9431705 56.9091205,56.2102459 58.3147233,57.6030267 C59.7195247,58.9958075 61.9874014,58.9853897 63.3793808,57.5805884 L78.0388397,42.7889034 C79.4316205,41.3841021 79.4212027,39.1170267 78.0164014,37.7242459" id="Fill-15" fill="#F73435"></path>
                        <path d="M102.858867,37.7242459 L88.6593945,23.6513897 C87.2545932,22.2586089 84.9867164,22.2690267 83.594737,23.6738281 C82.2019562,25.0794308 82.2115726,27.3473075 83.616374,28.7400884 L95.2722986,40.2910336 L83.1339493,52.5383692 C81.7419699,53.9431705 81.7515863,56.2102459 83.157189,57.6030267 C84.5619904,58.9958075 86.8298671,58.9853897 88.2218466,57.5805884 L102.881305,42.7889034 C104.274086,41.3841021 104.263668,39.1170267 102.858867,37.7242459" id="Fill-17" fill="#F73435"></path>
                    </g>
                </g>
            </g>
        </g>
    </g>
</svg>
