<?xml version="1.0" encoding="UTF-8"?>
<svg xmlns="http://www.w3.org/2000/svg" xmlns:xlink="http://www.w3.org/1999/xlink" width="859px" height="258px" viewBox="0 0 859 258" version="1.1">
    <!-- Generator: Sketch 48.2 (47327) - http://www.bohemiancoding.com/sketch -->
    
    
    <defs>
        <polygon id="path-1" points="0 0.1131 213.573652 0.1131 213.573652 214 0 214"/>
    </defs>
    <g id="Page-1" stroke="none" stroke-width="1" fill="none" fill-rule="evenodd">
        <g>
            <path d="M330.0942,37.4244 L352.3852,37.3244 L352.4712,56.5624 L330.8262,56.6594 L331.1432,127.4324 L305.9432,127.5454 L305.6262,56.7724 L292.2192,56.8324 L292.1332,37.5944 L305.5402,37.5344 L305.5222,33.6864 C305.4782,23.8544 308.3762,16.0394 314.2222,10.2394 C320.0642,4.4424 328.3172,1.5194 338.9792,1.4714 C342.7472,1.4554 346.3302,1.8414 349.7262,2.6254 C353.1222,3.4114 355.9552,4.5504 358.2222,6.0354 L351.6802,24.1824 C348.7642,22.1644 345.3672,21.1644 341.4902,21.1814 C333.8432,21.2164 330.0402,25.4004 330.0772,33.7374 L330.0942,37.4244 Z" id="Fill-1" fill="#272727"/>
            <polygon id="Fill-3" fill="#272727" points="370.5518 1.6656 395.7518 1.5526 396.3148 127.1406 371.1148 127.2526"/>
            <path d="M506.8989,39.7369 L507.2889,126.6429 L483.3809,126.7499 L483.3349,116.4119 C480.0109,120.1979 476.0379,123.0959 471.4199,125.1069 C466.7969,127.1209 461.7919,128.1379 456.4109,128.1629 C444.9939,128.2139 435.9329,124.9719 429.2279,118.4299 C422.5199,111.8929 419.1389,102.1599 419.0809,89.2369 L418.8599,40.1319 L444.0589,40.0179 L444.2629,85.4089 C444.3249,99.4109 450.2269,106.3819 461.9649,106.3299 C467.9959,106.3019 472.8339,104.3189 476.4789,100.3689 C480.1199,96.4219 481.9249,90.5709 481.8899,82.8169 L481.6979,39.8499 L506.8989,39.7369 Z" id="Fill-5" fill="#272727"/>
            <path d="M531.3726,25.1221 C528.5706,22.3951 527.1606,19.0001 527.1426,14.9401 C527.1236,10.8861 528.5036,7.4781 531.2806,4.7241 C534.0586,1.9701 537.6676,0.5811 542.1126,0.5611 C546.5546,0.5411 550.1786,1.8401 552.9806,4.4611 C555.7816,7.0801 557.1916,10.3641 557.2086,14.3131 C557.2276,18.5891 555.8496,22.1341 553.0726,24.9421 C550.2946,27.7501 546.6826,29.1671 542.2406,29.1871 C537.7966,29.2071 534.1746,27.8511 531.3726,25.1221" id="Fill-7" fill="#272727"/>
            <polygon id="Fill-9" fill="#272727" points="530.3223 39.6319 555.5213 39.5189 555.9103 126.4249 530.7123 126.5379"/>
            <path d="M636.7236,100.1338 C632.5446,104.5168 627.2766,106.7208 620.9226,106.7488 C614.4616,106.7788 609.1206,104.6218 604.9026,100.2768 C600.6816,95.9348 598.5556,90.1038 598.5226,82.7798 C598.4906,75.4558 600.5636,69.6038 604.7456,65.2238 C608.9246,60.8438 614.2456,58.6398 620.7066,58.6108 C627.0606,58.5828 632.3486,60.7388 636.5666,65.0818 C640.7876,69.4238 642.9136,75.2568 642.9466,82.5808 C642.9786,89.9048 640.9056,95.7548 636.7236,100.1338 Z M642.0926,0.1128 L642.3086,48.3358 C636.0296,41.3658 627.3456,37.9028 616.2526,37.9518 C608.0676,37.9888 600.6736,39.8558 594.0676,43.5448 C587.4606,47.2368 582.2846,52.4818 578.5466,59.2828 C574.8086,66.0848 572.9596,73.9568 572.9996,82.8948 C573.0396,91.8348 574.9596,99.6838 578.7586,106.4518 C582.5566,113.2198 587.7806,118.4208 594.4186,122.0528 C601.0576,125.6858 608.4686,127.4808 616.6536,127.4448 C628.4986,127.3908 637.5276,123.5818 643.7416,116.0148 L643.7866,126.0308 L667.8556,125.9238 L667.2916,0.0008 L642.0926,0.1128 Z" id="Fill-11" fill="#272727"/>
            <path d="M350.6392,242.4766 C355.5252,239.2266 359.1912,234.5246 361.6422,228.3736 L361.5712,212.5436 L332.8172,212.6726 C324.5242,212.7096 318.5272,214.2456 314.8262,217.2756 C311.1242,220.3096 309.2852,224.4656 309.3082,229.7406 C309.3332,235.2316 311.3972,239.5586 315.5062,242.7156 C319.6112,245.8756 325.3812,247.4376 332.8112,247.4046 C339.8102,247.3726 345.7532,245.7306 350.6392,242.4766 M361.0862,176.2786 C366.7072,181.5846 369.5452,189.4086 369.5922,199.7456 L369.8312,253.2146 L362.0772,253.2496 L362.0092,238.2266 C359.3382,243.1926 355.4262,247.0596 350.2692,249.8306 C345.1122,252.5996 338.9242,253.9996 331.7102,254.0316 C322.3422,254.0736 314.9262,251.9016 309.4692,247.5086 C304.0102,243.1196 301.2662,237.3166 301.2342,230.0986 C301.2022,223.0986 303.6812,217.4076 308.6692,213.0236 C313.6562,208.6406 321.6432,206.4206 332.6282,206.3726 L361.5432,206.2426 L361.5132,199.4606 C361.4772,191.5996 359.3232,185.6326 355.0522,181.5566 C350.7772,177.4856 344.5492,175.4636 336.3672,175.5006 C330.7662,175.5256 325.4112,176.5196 320.3062,178.4826 C315.1992,180.4426 310.8762,183.0486 307.3372,186.2926 L303.2732,180.4966 C307.4552,176.7096 312.5032,173.7516 318.4172,171.6256 C324.3302,169.4996 330.5192,168.4206 336.9812,168.3916 C347.4252,168.3446 355.4612,170.9736 361.0862,176.2786" id="Fill-13" fill="#272727"/>
            <path d="M444.9194,247.5474 C442.8814,249.4964 440.3304,250.9894 437.2684,252.0244 C434.2034,253.0604 430.9994,253.5864 427.6614,253.6014 C420.3384,253.6344 414.6754,251.6414 410.6744,247.6194 C406.6714,243.6014 404.6544,237.9824 404.6224,230.7674 L404.3754,175.6824 L388.8674,175.7524 L388.8364,168.8054 L404.3434,168.7354 L404.2614,150.3214 L412.3384,150.2854 L412.4214,168.6994 L439.2344,168.5794 L439.2654,175.5264 L412.4524,175.6464 L412.6954,229.9234 C412.7204,235.4134 414.0554,239.5844 416.7094,242.4234 C419.3594,245.2664 423.2714,246.6744 428.4384,246.6514 C433.7134,246.6274 438.0704,245.0484 441.5024,241.9104 L444.9194,247.5474 Z" id="Fill-15" fill="#272727"/>
            <path d="M506.9512,247.2696 C504.9132,249.2186 502.3622,250.7116 499.2982,251.7456 C496.2332,252.7826 493.0292,253.3086 489.6942,253.3236 C482.3692,253.3566 476.7052,251.3636 472.7032,247.3416 C468.7012,243.3226 466.6832,237.7046 466.6512,230.4896 L466.4042,175.4046 L450.8972,175.4736 L450.8662,168.5266 L466.3732,168.4576 L466.2902,150.0436 L474.3692,150.0076 L474.4522,168.4216 L501.2662,168.3016 L501.2972,175.2486 L474.4832,175.3686 L474.7262,229.6456 C474.7512,235.1356 476.0862,239.3066 478.7382,242.1456 C481.3892,244.9886 485.3012,246.3966 490.4702,246.3736 C495.7452,246.3496 500.0992,244.7696 503.5322,241.6326 L506.9512,247.2696 Z" id="Fill-17" fill="#272727"/>
            <path d="M571.1362,241.4883 C576.0222,238.2383 579.6882,233.5363 582.1402,227.3853 L582.0702,211.5553 L553.3152,211.6843 C545.0212,211.7213 539.0262,213.2573 535.3242,216.2873 C531.6222,219.3213 529.7822,223.4773 529.8052,228.7523 C529.8302,234.2433 531.8962,238.5703 536.0032,241.7273 C540.1102,244.8873 545.8782,246.4493 553.3092,246.4163 C560.3082,246.3843 566.2502,244.7423 571.1362,241.4883 M581.5832,175.2903 C587.2062,180.5963 590.0422,188.4203 590.0892,198.7573 L590.3282,252.2263 L582.5742,252.2613 L582.5062,237.2383 C579.8362,242.2043 575.9232,246.0713 570.7662,248.8423 C565.6102,251.6113 559.4212,253.0113 552.2092,253.0433 C542.8392,253.0853 535.4232,250.9133 529.9662,246.5203 C524.5072,242.1313 521.7632,236.3283 521.7312,229.1103 C521.6992,222.1103 524.1792,216.4193 529.1662,212.0353 C534.1532,207.6523 542.1412,205.4323 553.1252,205.3843 L582.0412,205.2543 L582.0112,198.4723 C581.9762,190.6113 579.8222,184.6443 575.5492,180.5683 C571.2752,176.4973 565.0462,174.4753 556.8642,174.5123 C551.2642,174.5373 545.9102,175.5313 540.8032,177.4943 C535.6962,179.4543 531.3742,182.0603 527.8362,185.3043 L523.7702,179.5083 C527.9522,175.7213 533.0022,172.7633 538.9162,170.6373 C544.8272,168.5113 551.0172,167.4323 557.4782,167.4033 C567.9222,167.3563 575.9592,169.9853 581.5832,175.2903" id="Fill-19" fill="#272727"/>
            <path d="M635.2104,247.1783 C628.7334,243.5483 623.6484,238.4833 619.9574,231.9833 C616.2654,225.4833 614.4044,218.1413 614.3674,209.9563 C614.3304,201.6653 616.1264,194.2543 619.7584,187.7213 C623.3914,181.1893 628.4314,176.1063 634.8764,172.4693 C641.3224,168.8333 648.6364,166.9943 656.8214,166.9583 C663.6064,166.9283 669.7754,168.2203 675.3344,170.8333 C680.8924,173.4483 685.4044,177.2773 688.8774,182.3213 L682.9174,186.7123 C679.8844,182.5243 676.1274,179.3903 671.6474,177.3103 C667.1684,175.2313 662.2374,174.2023 656.8544,174.2263 C650.2844,174.2563 644.3954,175.7633 639.1864,178.7473 C633.9754,181.7343 629.9014,185.9263 626.9644,191.3243 C624.0254,196.7243 622.5744,202.9203 622.6064,209.9193 C622.6374,216.9223 624.1444,223.1053 627.1314,228.4753 C630.1164,233.8493 634.2274,238.0053 639.4654,240.9423 C644.7004,243.8813 650.6034,245.3343 657.1724,245.3043 C662.5564,245.2803 667.4774,244.2073 671.9384,242.0883 C676.3984,239.9683 680.1274,236.8013 683.1224,232.5893 L689.1214,236.9233 C685.6944,242.0013 681.2164,245.8703 675.6824,248.5313 C670.1484,251.1983 663.9894,252.5423 657.2054,252.5733 C649.0204,252.6093 641.6904,250.8143 635.2104,247.1783" id="Fill-21" fill="#272727"/>
            <polygon id="Fill-23" fill="#272727" points="741.8096 206.4781 719.9296 226.6061 720.0416 251.6451 711.9626 251.6821 711.4256 131.8191 719.5046 131.7831 719.8846 216.5931 773.6166 167.0811 783.9546 167.0341 747.7636 201.2821 787.8856 251.3411 777.8726 251.3861"/>
            <path d="M806.2944,248.835 C800.1464,246.819 795.3404,244.255 791.8824,241.148 L795.5684,234.668 C799.0254,237.56 803.4784,239.963 808.9274,241.877 C814.3734,243.792 820.0584,244.737 825.9814,244.71 C834.4884,244.672 840.7574,243.243 844.7824,240.424 C848.8094,237.608 850.8104,233.721 850.7874,228.768 C850.7724,225.212 849.6544,222.418 847.4404,220.382 C845.2224,218.346 842.4954,216.851 839.2624,215.896 C836.0264,214.94 831.5524,213.937 825.8384,212.886 C819.1554,211.731 813.7684,210.463 809.6694,209.081 C805.5674,207.702 802.0604,205.456 799.1394,202.344 C796.2174,199.234 794.7444,194.933 794.7204,189.439 C794.6904,182.764 797.4354,177.231 802.9654,172.845 C808.4894,168.459 816.3684,166.243 826.5994,166.197 C831.9834,166.173 837.3184,166.904 842.6034,168.387 C847.8844,169.873 852.2014,171.844 855.5534,174.306 L851.8674,180.783 C848.4064,178.324 844.4704,176.455 840.0474,175.183 C835.6254,173.912 831.0984,173.283 826.4694,173.304 C818.6084,173.339 812.6914,174.822 808.7204,177.748 C804.7474,180.672 802.7744,184.506 802.7954,189.241 C802.8124,193.012 803.9554,195.942 806.2264,198.032 C808.4974,200.121 811.2764,201.671 814.5664,202.68 C817.8554,203.689 822.4644,204.772 828.3934,205.928 C834.9654,207.084 840.2764,208.326 844.3224,209.653 C848.3684,210.982 851.7944,213.147 854.6084,216.148 C857.4234,219.152 858.8424,223.294 858.8654,228.569 C858.8974,235.569 856.0154,241.182 850.2164,245.409 C844.4204,249.634 836.2454,251.771 825.6914,251.817 C818.9074,251.848 812.4424,250.854 806.2944,248.835" id="Fill-25" fill="#272727"/>
            <path d="M240.9575,1.9112 L196.9405,2.1082 C192.5845,2.1282 189.0705,5.6732 189.0905,10.0292 C189.1095,14.3852 192.6555,17.9012 197.0115,17.8812 L233.1425,17.7192 L233.3125,55.6842 C233.3325,60.0392 236.8775,63.5542 241.2335,63.5342 C245.5895,63.5152 249.1035,59.9692 249.0835,55.6142 L248.8785,9.7612 C248.8585,5.4052 245.3135,1.8912 240.9575,1.9112" id="Fill-27" fill="#FE3435"/>
            <g id="Group-31" transform="translate(0.000000, 43.190000)">
                
                <g id="Clip-30"/>
                <path d="M92.9863,76.4521 L137.0033,76.2551 C142.2323,76.2311 146.5043,80.4661 146.5283,85.6951 L146.7333,131.5451 C146.7573,136.7751 142.5223,141.0491 137.2933,141.0731 C132.0643,141.0961 127.7923,136.8601 127.7683,131.6301 L127.6053,95.2631 L93.0713,95.4181 C87.8423,95.4411 83.5693,91.2061 83.5453,85.9771 C83.5223,80.7481 87.7573,76.4751 92.9863,76.4521 M136.7893,28.5691 L180.8053,28.3721 C186.0343,28.3481 190.3083,32.5831 190.3313,37.8121 L190.5373,83.6631 C190.5603,88.8921 186.3253,93.1661 181.0963,93.1901 C175.8673,93.2131 171.5943,88.9771 171.5713,83.7481 L171.4083,47.3811 L136.8743,47.5351 C131.6453,47.5591 127.3723,43.3231 127.3493,38.0941 C127.3263,32.8651 131.5603,28.5931 136.7893,28.5691 M0.0003,36.0711 L0.0043,36.9301 L0.6413,178.9981 L0.7983,214.0001 L35.8003,213.8431 L178.7273,213.2021 C197.9793,213.1161 213.6593,197.2941 213.5733,178.0431 L212.9323,35.1161 L212.7763,0.1131 L34.8463,0.9101 C15.5943,0.9971 -0.0857,16.8191 0.0003,36.0711" id="Fill-29" fill="#FE3435" mask="url(#mask-2)"/>
            </g>
        </g>
    </g>
</svg>
