<?xml version="1.0" encoding="utf-8"?>
<!-- Generator: Adobe Illustrator 25.2.0, SVG Export Plug-In . SVG Version: 6.00 Build 0)  -->
<svg version="1.1" id="Capa_1" xmlns="http://www.w3.org/2000/svg" xmlns:xlink="http://www.w3.org/1999/xlink" x="0px" y="0px"
   viewBox="0 0 18 18" style="enable-background:new 0 0 18 18;" xml:space="preserve">
<style type="text/css">
  .st0{fill:#40404F;}
</style>
<g id="XMLID_822_">
  <path id="XMLID_823_" class="st0" d="M17.3,3.7c-0.7-0.8-1.9-1.1-4.1-1.1H4.8C2.5,2.7,1.3,3,0.6,3.8C0,4.6,0,5.8,0,7.4v3.1
    c0,3.2,0.7,4.8,4.8,4.8h8.3c2,0,3.1-0.3,3.8-1c0.7-0.7,1-1.8,1-3.8V7.4C18,5.7,18,4.5,17.3,3.7z M11.6,9.4l-3.8,2
    c-0.1,0-0.2,0.1-0.3,0.1c-0.1,0-0.2,0-0.3-0.1c-0.2-0.1-0.3-0.3-0.3-0.5V6.9c0-0.2,0.1-0.4,0.3-0.5c0.2-0.1,0.4-0.1,0.6,0l3.8,2
    c0.2,0.1,0.3,0.3,0.3,0.5C11.9,9.1,11.7,9.3,11.6,9.4z"/>
</g>
</svg>
