<?xml version="1.0" encoding="utf-8"?>
<!-- Generator: Adobe Illustrator 25.2.0, SVG Export Plug-In . SVG Version: 6.00 Build 0)  -->
<svg version="1.1" id="Capa_1" xmlns="http://www.w3.org/2000/svg" xmlns:xlink="http://www.w3.org/1999/xlink" x="0px" y="0px"
   viewBox="0 0 18 18" style="enable-background:new 0 0 18 18;" xml:space="preserve">
<style type="text/css">
  .st0{fill:#40404F;}
</style>
<g>
  <path class="st0" d="M18,18L18,18L18,18l0-6.6c0-3.2-0.7-5.7-4.5-5.7c-1.8,0-3,1-3.5,1.9H9.9V6H6.4v12h3.7v-6
    c0-1.6,0.3-3.1,2.2-3.1c1.9,0,1.9,1.8,1.9,3.2V18L18,18z"/>
  <path class="st0" d="M0.3,6H4v12H0.3L0.3,6z"/>
  <path class="st0" d="M2.1,0C1,0,0,1,0,2.2s1,2.2,2.2,2.2s2.2-1,2.2-2.2C4.3,1,3.3,0,2.1,0z"/>
</g>
</svg>
