<?xml version="1.0" encoding="UTF-8" standalone="no"?>
<svg
   xmlns:dc="http://purl.org/dc/elements/1.1/"
   xmlns:cc="http://creativecommons.org/ns#"
   xmlns:rdf="http://www.w3.org/1999/02/22-rdf-syntax-ns#"
   xmlns:svg="http://www.w3.org/2000/svg"
   xmlns="http://www.w3.org/2000/svg"
   xmlns:xlink="http://www.w3.org/1999/xlink"
   xmlns:sodipodi="http://sodipodi.sourceforge.net/DTD/sodipodi-0.dtd"
   xmlns:inkscape="http://www.inkscape.org/namespaces/inkscape"
   width="2483px"
   height="1276px"
   viewBox="0 0 2483 1276"
   version="1.1"
   id="svg568"
   sodipodi:docname="asserts.svg"
   inkscape:version="0.92.3 (2405546, 2018-03-11)"
   inkscape:export-filename="C:\Users\mnorena\Documents\Workspace\asserts.png"
   inkscape:export-xdpi="50.044918"
   inkscape:export-ydpi="50.044918">
  <metadata
     id="metadata572">
    <rdf:RDF>
      <cc:Work
         rdf:about="">
        <dc:format>image/svg+xml</dc:format>
        <dc:type
           rdf:resource="http://purl.org/dc/dcmitype/StillImage" />
      </cc:Work>
    </rdf:RDF>
  </metadata>
  <sodipodi:namedview
     pagecolor="#ffffff"
     bordercolor="#666666"
     borderopacity="1"
     objecttolerance="10"
     gridtolerance="10"
     guidetolerance="10"
     inkscape:pageopacity="0"
     inkscape:pageshadow="2"
     inkscape:window-width="1366"
     inkscape:window-height="705"
     id="namedview570"
     showgrid="false"
     inkscape:zoom="0.42163009"
     inkscape:cx="349.21278"
     inkscape:cy="697.43494"
     inkscape:window-x="-8"
     inkscape:window-y="-8"
     inkscape:window-maximized="1"
     inkscape:current-layer="svg568" />
  <!-- Generator: Sketch 51 (57462) - http://www.bohemiancoding.com/sketch -->
  <title
     id="title292">asserts</title>
  <desc
     id="desc294">Created with Sketch.</desc>
  <defs
     id="defs298">
    <rect
       id="path-1"
       x="0.020952381"
       y="0.255238095"
       width="238.647619"
       height="176.114286" />
    <polyline
       id="path-3"
       points="470 1126 149 1126 149 968" />
  </defs>
  <g
     id="Page-1"
     stroke="none"
     stroke-width="1"
     fill="none"
     fill-rule="evenodd">
    <g
       id="asserts"
       transform="translate(-1.000000, -12.000000)">
      <g
         id="iconos-16"
         transform="translate(503.000000, 1043.000000)">
        <g
           id="Group"
           transform="translate(0.800000, 0.600000)">
          <path
             d="M151.08,63.12 L135.84,63.12 C127.92,63.12 123.96,53.64 129.6,48 L140.4,37.2 C142.44,35.16 142.44,31.68 140.4,29.64 L126.72,15.96 C124.68,13.92 121.2,13.92 119.16,15.96 L108.36,26.76 C102.84,32.28 93.24,28.44 93.24,20.52 L93.24,5.4 C93.24,2.4 90.84,0 87.84,0 L68.52,0 C65.52,0 63.12,2.4 63.12,5.4 L63.12,20.64 C63.12,28.56 53.64,32.52 48,26.88 L37.2,16.08 C35.16,14.04 31.68,14.04 29.64,16.08 L15.96,29.76 C13.92,31.8 13.92,35.28 15.96,37.32 L26.76,48.12 C32.28,53.64 28.44,63.24 20.52,63.24 L5.4,63.24 C2.4,63.24 0,65.64 0,68.64 L0,87.96 C0,90.96 2.4,93.36 5.4,93.36 L20.64,93.36 C28.56,93.36 32.52,102.84 26.88,108.48 L16.08,119.28 C14.04,121.32 14.04,124.8 16.08,126.84 L29.76,140.4 C31.8,142.44 35.28,142.44 37.32,140.4 L48.12,129.6 C53.64,124.08 63.24,127.92 63.24,135.84 L63.24,151.08 C63.24,154.08 65.64,156.48 68.64,156.48 L87.96,156.48 C90.96,156.48 93.36,154.08 93.36,151.08 L93.36,135.84 C93.36,127.92 102.84,123.96 108.48,129.6 L119.28,140.4 C121.32,142.44 124.8,142.44 126.84,140.4 L140.52,126.72 C142.56,124.68 142.56,121.2 140.52,119.16 L129.72,108.36 C124.2,102.84 128.04,93.24 135.96,93.24 L151.2,93.24 C154.2,93.24 156.6,90.84 156.6,87.84 L156.6,68.52 C156.36,65.52 153.96,63.12 151.08,63.12 Z M78.24,102.24 C64.92,102.24 54.12,91.44 54.12,78.12 C54.12,64.8 64.92,54 78.24,54 C91.56,54 102.36,64.8 102.36,78.12 C102.36,91.44 91.44,102.24 78.24,102.24 Z"
             id="Shape"
             stroke="#A7A7A7"
             stroke-width="7.2" />
          <rect
             id="Rectangle-path"
             fill="#FFFFFF"
             fill-rule="nonzero"
             x="120.36"
             y="56.04"
             width="54"
             height="68.4" />
          <path
             d="M164.44,83.4 L143.2,62.4 C141.04,60.36 137.68,60.36 135.64,62.4 C133.6,64.56 133.6,67.92 135.64,69.96 L153.04,87.24 L134.92,105.6 C132.88,107.76 132.88,111.12 134.92,113.16 C137.08,115.2 140.44,115.2 142.48,113.16 L164.44,90.96 C166.6,88.92 166.48,85.56 164.44,83.4 Z"
             id="path302"
             fill="#F73435"
             fill-rule="nonzero" />
        </g>
      </g>
      <g
         id="06Seguimiento_personalizado"
         transform="translate(2068.000000, 23.000000)">
        <g
           id="Clipped"
           transform="translate(0.571429, 0.161905)">
          <mask
             id="mask-2"
             fill="white">
            <use
               xlink:href="#path-1"
               id="use306" />
          </mask>
          <g
             id="SVGID_1_" />
          <g
             id="g320"
             mask="url(#mask-2)"
             fill="#A7A7A7"
             fill-rule="nonzero"
             stroke="#FFFFFF"
             stroke-width="1.3">
            <g
               transform="translate(23.247619, 15.038095)"
               id="g318">
              <path
                 d="M88.8228571,73.6571429 L37.2647619,73.6571429 C16.7180952,73.6571429 0.51047619,89.992381 0.51047619,110.411429 L0.51047619,184.047619 L10.9752381,184.047619 L10.9752381,110.411429 C10.9752381,95.7352381 22.5885714,84.1219048 37.2647619,84.1219048 L44.1561905,84.1219048 L58.832381,123.045714 C59.3428571,124.577143 61.512381,126.23619 63.5542857,126.23619 C65.5961905,126.23619 67.7657143,124.704762 69.2971429,123.045714 L83.9733333,84.1219048 L89.7161905,84.1219048 C90.2266667,84.1219048 91.247619,84.1219048 91.7580952,83.6114286 L88.8228571,73.6571429 Z M64.192381,106.327619 L55.7695238,84.2495238 L72.6152381,84.2495238 L64.192381,106.327619 Z"
                 id="path310" />
              <path
                 d="M35.4780952,83.7390476 C35.9885714,84.2495238 37.0095238,84.2495238 37.52,84.2495238 L43.2628571,84.2495238 L57.9390476,123.173333 C59.4704762,124.704762 61.64,126.36381 63.6819048,126.36381 C65.7238095,126.36381 67.8933333,124.832381 68.4038095,123.173333 L83.08,84.2495238 L89.9714286,84.2495238 C104.647619,84.2495238 116.260952,95.8628571 116.260952,110.539048 L116.260952,184.047619 L126.725714,184.047619 L126.725714,110.411429 C126.725714,89.8647619 110.390476,73.6571429 89.9714286,73.6571429 L38.4133333,73.6571429 L35.4780952,83.7390476 Z M54.8761905,84.2495238 L71.7219048,84.2495238 L63.2990476,106.327619 L54.8761905,84.2495238 Z"
                 id="path312" />
              <path
                 d="M89.8438095,289.205714 L68.9142857,289.205714 L68.9142857,189.28 L58.4495238,189.28 L58.4495238,289.205714 L37.392381,289.205714 L37.392381,115.771429 L26.8,115.771429 L26.8,294.565714 C26.8,297.75619 28.8419048,299.798095 32.032381,299.798095 L63.5542857,299.798095 L95.0761905,299.798095 C98.2666667,299.798095 100.308571,297.75619 100.308571,294.565714 L100.308571,115.771429 L89.8438095,115.771429 L89.8438095,289.205714 Z"
                 id="path314" />
              <path
                 d="M58.3219048,68.4247619 L68.7866667,68.4247619 C83.4628571,68.4247619 95.0761905,56.8114286 95.0761905,42.1352381 L95.0761905,26.3104762 C95.0761905,11.6342857 83.4628571,0.020952381 68.7866667,0.020952381 L58.3219048,0.020952381 C43.6457143,0.020952381 32.032381,11.6342857 32.032381,26.3104762 L32.032381,42.1352381 C32.032381,56.9390476 43.6457143,68.4247619 58.3219048,68.4247619 Z M42.6247619,26.4380952 C42.6247619,17.5047619 49.5161905,10.6133333 58.4495238,10.6133333 L68.9142857,10.6133333 C77.847619,10.6133333 84.7390476,17.5047619 84.7390476,26.4380952 L84.7390476,42.2628571 C84.7390476,51.1961905 77.847619,58.087619 68.9142857,58.087619 L58.4495238,58.087619 C49.5161905,58.087619 42.6247619,51.1961905 42.6247619,42.2628571 L42.6247619,26.4380952 Z"
                 id="path316" />
            </g>
          </g>
        </g>
        <rect
           id="rect323"
           fill="#FFFFFF"
           fill-rule="nonzero"
           x="88.0114286"
           y="55.9314286"
           width="156.971429"
           height="131.447619" />
        <g
           id="g331"
           transform="translate(76.142857, 55.038095)"
           fill="#A7A7A7"
           fill-rule="nonzero">
          <path
             d="M165.394286,105.92381 L3.57333333,105.92381 C1.65904762,105.92381 0,107.455238 0,109.497143 C0,119.19619 7.91238095,127.108571 17.6114286,127.108571 L151.228571,127.108571 C160.927619,127.108571 168.84,119.19619 168.84,109.497143 C168.84,107.455238 167.308571,105.92381 165.394286,105.92381 Z M151.35619,119.961905 L17.6114286,119.961905 C13.1447619,119.961905 9.18857143,117.154286 7.65714286,112.942857 L161.182857,112.942857 C159.779048,117.154286 155.822857,119.961905 151.35619,119.961905 Z"
             id="path325" />
          <path
             d="M21.1847619,0.382857143 C15.3142857,0.382857143 10.592381,5.1047619 10.592381,10.9752381 L10.592381,109.497143 L17.6114286,109.497143 L17.6114286,10.9752381 C17.6114286,9.06095238 19.1428571,7.40190476 21.1847619,7.40190476 L136.297143,7.40190476 L136.297143,0.382857143 L21.1847619,0.382857143 Z"
             id="path327" />
          <path
             d="M147.782857,0.382857143 L128.767619,0.382857143 L128.767619,7.40190476 L147.782857,7.40190476 C149.697143,7.40190476 151.35619,8.93333333 151.35619,10.9752381 L151.35619,109.497143 L158.375238,109.497143 L158.375238,10.9752381 C158.375238,5.1047619 153.653333,0.382857143 147.782857,0.382857143 Z"
             id="path329" />
        </g>
        <path
           d="M1.23047619,178.445714 L95.6685714,178.445714"
           id="path333"
           stroke="#A7A7A7"
           stroke-width="6" />
        <path
           d="M158.074286,115.657143 L137.4,136.586667 C135.358095,138.628571 135.358095,141.946667 137.4,143.988571 C139.441905,146.030476 142.76,146.030476 144.801905,143.988571 L161.775238,126.887619 L179.769524,144.754286 C181.811429,146.79619 185.129524,146.79619 187.171429,144.754286 C189.213333,142.712381 189.213333,139.394286 187.171429,137.352381 L165.47619,115.784762 C163.434286,113.615238 160.11619,113.615238 158.074286,115.657143 Z"
           id="path335"
           fill="#F73435"
           fill-rule="nonzero" />
        <path
           d="M158.074286,80.3066667 L137.4,101.23619 C135.358095,103.278095 135.358095,106.59619 137.4,108.638095 C139.441905,110.68 142.76,110.68 144.801905,108.638095 L161.775238,91.5371429 L179.769524,109.40381 C181.811429,111.445714 185.129524,111.445714 187.171429,109.40381 C189.213333,107.361905 189.213333,104.04381 187.171429,102.001905 L165.47619,80.4342857 C163.434286,78.2647619 160.11619,78.2647619 158.074286,80.3066667 Z"
           id="path337"
           fill="#F73435"
           fill-rule="nonzero" />
      </g>
      <g
         id="06Commands"
         transform="translate(1068.000000, 33.000000)">
        <g
           id="g348"
           transform="translate(0.800000, 0.600000)"
           fill="#ACACAC"
           fill-rule="nonzero">
          <path
             d="M182.04,0.84 L3,0.84 C1.32,0.84 0,2.16 0,3.84 L0,165.12 C0,166.8 1.32,168.12 3,168.12 L182.04,168.12 C183.72,168.12 185.04,166.8 185.04,165.12 L185.04,91.2 C185.04,89.52 183.72,88.2 182.04,88.2 C180.36,88.2 179.04,89.52 179.04,91.2 L179.04,162.12 L6,162.12 L6,30.36 L179.16,30.36 L179.16,121.8 C179.16,123.48 180.48,124.8 182.16,124.8 C183.84,124.8 185.16,123.48 185.16,121.8 L185.16,3.72 C185.04,2.16 183.72,0.84 182.04,0.84 Z M6,6.72 L115.2,6.72 L115.2,24.48 L6,24.48 L6,6.72 Z M121.08,24.36 L121.08,6.72 L179.16,6.72 L179.16,24.48 L121.08,24.48 L121.08,24.36 Z"
             id="path340" />
          <path
             d="M150.24,12.36 C148.56,12.36 147.12,13.8 147.12,15.48 C147.12,17.16 148.56,18.6 150.24,18.6 C151.92,18.6 153.36,17.16 153.36,15.48 C153.36,13.8 151.92,12.36 150.24,12.36 Z"
             id="path342" />
          <path
             d="M134.04,12.36 C132.36,12.36 130.92,13.8 130.92,15.48 C130.92,17.16 132.36,18.6 134.04,18.6 C135.72,18.6 137.16,17.16 137.16,15.48 C137.16,13.8 135.84,12.36 134.04,12.36 Z"
             id="path344" />
          <path
             d="M166.32,12.36 C164.64,12.36 163.2,13.8 163.2,15.48 C163.2,17.16 164.64,18.6 166.32,18.6 C168,18.6 169.44,17.16 169.44,15.48 C169.44,13.8 168.12,12.36 166.32,12.36 Z"
             id="path346" />
        </g>
        <path
           d="M85.16,88.44 L58.28,61.8 C55.64,59.16 51.32,59.16 48.68,61.8 C46.04,64.44 46.04,68.76 48.68,71.4 L70.64,93.24 L47.72,116.4 C45.08,119.04 45.08,123.36 47.72,126 C50.36,128.64 54.68,128.64 57.32,126 L85.04,98.04 C87.8,95.4 87.8,91.08 85.16,88.44 Z"
           id="path350"
           stroke="#FFFFFF"
           stroke-width="1.2"
           fill="#F73435"
           fill-rule="nonzero" />
        <path
           d="M97.16,125.04 L143.96,125.04"
           id="path352"
           stroke="#F73435"
           stroke-width="13.2"
           stroke-linecap="round"
           stroke-linejoin="round" />
      </g>
      <g
         id="iconos-03"
         transform="translate(49.000000, 23.000000)"
         fill-rule="nonzero">
        <path
           d="M25.72,49.96 L34.36,72.64 C34.72,73.6 35.92,74.44 37.12,74.44 C38.32,74.44 39.52,73.48 40.48,72.64 L49.12,49.96 L52.48,49.96 C52.84,49.96 53.44,49.96 53.68,49.6 L104.68,26.92 L104.68,35.8 L66.64,53.32 L69.04,58.84 L109,40.36 C110.2,39.76 110.8,38.8 110.8,37.6 L110.8,22.24 C110.8,21.28 110.2,20.08 109.6,19.84 C108.64,19.24 107.44,19.24 106.48,19.48 L51.88,43.72 L21.76,43.72 C9.76,43.72 0.28,53.2 0.28,65.2 L0.28,108.16 L6.4,108.16 L6.4,65.2 C6.4,56.56 13.12,49.84 21.76,49.84 L25.72,49.84 L25.72,49.96 Z M37.48,62.92 L32.56,50.08 L42.4,50.08 L37.48,62.92 Z"
           id="path355"
           fill="#A7A7A7" />
        <path
           d="M52.48,169.72 L40.24,169.72 L40.24,111.4 L34.12,111.4 L34.12,169.72 L21.76,169.72 L21.76,68.44 L15.64,68.44 L15.64,172.84 C15.64,174.64 16.84,175.96 18.76,175.96 L37.24,175.96 L55.72,175.96 C57.52,175.96 58.84,174.76 58.84,172.84 L58.84,68.44 L52.72,68.44 L52.72,169.72 L52.48,169.72 Z"
           id="path357"
           fill="#A7A7A7" />
        <rect
           id="rect359"
           fill="#A7A7A7"
           x="34.12"
           y="80.68"
           width="6.12"
           height="6.12" />
        <rect
           id="rect361"
           fill="#A7A7A7"
           x="34.12"
           y="92.92"
           width="6.12"
           height="6.12" />
        <path
           d="M34.12,40.72 L40.24,40.72 C48.88,40.72 55.6,34 55.6,25.36 L55.6,16.12 C55.6,7.48 48.88,0.76 40.24,0.76 L34.12,0.76 C25.48,0.76 18.76,7.48 18.76,16.12 L18.76,25.36 C18.76,34 25.48,40.72 34.12,40.72 Z M24.88,16.24 C24.88,11.08 28.84,7 34.12,7 L40.24,7 C45.4,7 49.48,10.96 49.48,16.24 L49.48,25.48 C49.48,30.64 45.52,34.72 40.24,34.72 L34.12,34.72 C28.96,34.72 24.88,30.76 24.88,25.48 L24.88,16.24 Z"
           id="path363"
           fill="#A7A7A7" />
        <rect
           id="rect365"
           fill="#A7A7A7"
           x="67.84"
           y="163.6"
           width="6.12"
           height="6.12" />
        <rect
           id="rect367"
           fill="#A7A7A7"
           x="80.08"
           y="163.6"
           width="6.12"
           height="6.12" />
        <rect
           id="rect369"
           fill="#A7A7A7"
           x="67.84"
           y="114.4"
           width="6.12"
           height="6.12" />
        <rect
           id="rect371"
           fill="#A7A7A7"
           x="80.08"
           y="65.32"
           width="6.12"
           height="6.12" />
        <rect
           id="rect373"
           fill="#A7A7A7"
           x="92.44"
           y="65.32"
           width="6.12"
           height="6.12" />
        <path
           d="M149.44,30.4 L128.2,9.4 C126.04,7.36 122.68,7.36 120.64,9.4 C118.6,11.56 118.6,14.92 120.64,16.96 L138.04,34.24 L119.92,52.6 C117.88,54.76 117.88,58.12 119.92,60.16 C122.08,62.2 125.44,62.2 127.48,60.16 L149.44,37.96 C151.6,35.92 151.48,32.56 149.44,30.4 Z"
           id="path375"
           fill="#F73435" />
        <path
           d="M185.44,30.4 L164.2,9.4 C162.04,7.36 158.68,7.36 156.64,9.4 C154.6,11.56 154.6,14.92 156.64,16.96 L174.04,34.24 L155.92,52.6 C153.88,54.76 153.88,58.12 155.92,60.16 C158.08,62.2 161.44,62.2 163.48,60.16 L185.44,37.96 C187.6,35.92 187.48,32.56 185.44,30.4 Z"
           id="path377"
           fill="#F73435" />
        <path
           d="M118.24,118 L97,97 C94.84,94.96 91.48,94.96 89.44,97 C87.4,99.16 87.4,102.52 89.44,104.56 L106.84,121.84 L88.72,140.2 C86.68,142.36 86.68,145.72 88.72,147.76 C90.88,149.8 94.24,149.8 96.28,147.76 L118.24,125.56 C120.4,123.52 120.28,120.16 118.24,118 Z"
           id="path379"
           fill="#F73435" />
        <path
           d="M153.64,118 L132.4,97 C130.24,94.96 126.88,94.96 124.84,97 C122.8,99.16 122.8,102.52 124.84,104.56 L142.24,121.84 L124.12,140.2 C122.08,142.36 122.08,145.72 124.12,147.76 C126.28,149.8 129.64,149.8 131.68,147.76 L153.64,125.56 C155.8,123.52 155.68,120.16 153.64,118 Z"
           id="path381"
           fill="#F73435" />
        <path
           d="M189.04,118 L167.8,97 C165.64,94.96 162.28,94.96 160.24,97 C158.2,99.16 158.2,102.52 160.24,104.56 L177.64,121.84 L159.52,140.2 C157.48,142.36 157.48,145.72 159.52,147.76 C161.68,149.8 165.04,149.8 167.08,147.76 L189.04,125.56 C191.2,123.52 191.08,120.16 189.04,118 Z"
           id="path383"
           fill="#F73435" />
      </g>
      <g
         id="03Rules"
         transform="translate(66.000000, 708.000000)"
         fill-rule="nonzero">
        <path
           d="M177.103504,15 L165.432763,15 C164.411573,15 163.536267,15.8749164 163.536267,16.8956522 C163.536267,17.916388 164.411573,18.7913043 165.432763,18.7913043 L175.207009,18.7913043 L175.207009,229.062876 L3.79299104,229.062876 L3.79299104,18.9371237 L13.5672372,18.9371237 C14.5884271,18.9371237 15.4637327,18.0622074 15.4637327,17.0414716 C15.4637327,16.0207358 14.5884271,15.1458194 13.5672372,15.1458194 L1.89649552,15.1458194 C0.875305623,15.1458194 0,16.0207358 0,17.0414716 L0,231.104348 C0,232.125084 0.875305623,233 1.89649552,233 L177.103504,233 C178.124694,233 179,232.125084 179,231.104348 L179,17.0414716 C179,15.8749164 178.124694,15 177.103504,15 Z"
           id="path386"
           stroke="#A7A7A7"
           stroke-width="2.4"
           fill="#A7A7A7" />
        <path
           d="M150.160377,15 L138.839623,15 C137.849057,15 137,15.9230769 137,17 C137,18.0769231 137.849057,19 138.839623,19 L150.160377,19 C151.150943,19 152,18.0769231 152,17 C152,15.9230769 151.150943,15 150.160377,15 Z"
           id="path388"
           stroke="#A7A7A7"
           stroke-width="2.4"
           fill="#A7A7A7" />
        <path
           d="M122.160377,15 L110.839623,15 C109.849057,15 109,15.9230769 109,17 C109,18.0769231 109.849057,19 110.839623,19 L122.160377,19 C123.150943,19 124,18.0769231 124,17 C124,15.9230769 123.150943,15 122.160377,15 Z"
           id="path390"
           stroke="#A7A7A7"
           stroke-width="2.4"
           fill="#A7A7A7" />
        <path
           d="M95.1603774,15 L83.8396226,15 C82.8490566,15 82,15.9230769 82,17 C82,18.0769231 82.8490566,19 83.8396226,19 L95.1603774,19 C96.1509434,19 97,18.0769231 97,17 C97,15.9230769 96.1509434,15 95.1603774,15 Z"
           id="path392"
           stroke="#A7A7A7"
           stroke-width="2.4"
           fill="#A7A7A7" />
        <path
           d="M68.1603774,15 L56.8396226,15 C55.8490566,15 55,15.9230769 55,17 C55,18.0769231 55.8490566,19 56.8396226,19 L68.1603774,19 C69.1509434,19 70,18.0769231 70,17 C70,15.9230769 69.2924528,15 68.1603774,15 Z"
           id="path394"
           stroke="#A7A7A7"
           stroke-width="2.4"
           fill="#A7A7A7" />
        <path
           d="M41.1603774,15 L29.8396226,15 C28.8490566,15 28,15.9230769 28,17 C28,18.0769231 28.8490566,19 29.8396226,19 L41.1603774,19 C42.1509434,19 43,18.0769231 43,17 C43,15.9230769 42.2924528,15 41.1603774,15 Z"
           id="path396"
           stroke="#A7A7A7"
           stroke-width="2.4"
           fill="#A7A7A7" />
        <path
           d="M22,0 C18.7,0 16,2.625 16,5.83333333 L16,29.1666667 C16,32.375 18.7,35 22,35 C25.3,35 28,32.375 28,29.1666667 L28,5.83333333 C28,2.625 25.3,0 22,0 Z M23.95,29.1666667 C23.95,30.1875 23.05,31.0625 22,31.0625 C20.95,31.0625 20.05,30.1875 20.05,29.1666667 L20.05,5.83333333 C20.05,4.8125 20.95,3.9375 22,3.9375 C23.05,3.9375 23.95,4.8125 23.95,5.83333333 L23.95,29.1666667 Z"
           id="path398"
           stroke="#A7A7A7"
           stroke-width="2.4"
           fill="#A7A7A7" />
        <path
           d="M49,0 C45.7,0 43,2.625 43,5.83333333 L43,29.1666667 C43,32.375 45.7,35 49,35 C52.3,35 55,32.375 55,29.1666667 L55,5.83333333 C55,2.625 52.3,0 49,0 Z M50.95,29.1666667 C50.95,30.1875 50.05,31.0625 49,31.0625 C47.95,31.0625 47.05,30.1875 47.05,29.1666667 L47.05,5.83333333 C47.05,4.8125 47.95,3.9375 49,3.9375 C50.05,3.9375 50.95,4.8125 50.95,5.83333333 L50.95,29.1666667 Z"
           id="path400"
           stroke="#A7A7A7"
           stroke-width="2.4"
           fill="#A7A7A7" />
        <path
           d="M76,0 C72.7,0 70,2.625 70,5.83333333 L70,29.1666667 C70,32.375 72.7,35 76,35 C79.3,35 82,32.375 82,29.1666667 L82,5.83333333 C82,2.625 79.3,0 76,0 Z M77.95,29.1666667 C77.95,30.1875 77.05,31.0625 76,31.0625 C74.95,31.0625 74.05,30.1875 74.05,29.1666667 L74.05,5.83333333 C74.05,4.8125 74.95,3.9375 76,3.9375 C77.05,3.9375 77.95,4.8125 77.95,5.83333333 L77.95,29.1666667 Z"
           id="path402"
           stroke="#A7A7A7"
           stroke-width="2.4"
           fill="#A7A7A7" />
        <path
           d="M104,0 C100.7,0 98,2.625 98,5.83333333 L98,29.1666667 C98,32.375 100.7,35 104,35 C107.3,35 110,32.375 110,29.1666667 L110,5.83333333 C110,2.625 107.45,0 104,0 Z M106.1,29.1666667 C106.1,30.1875 105.2,31.0625 104.15,31.0625 C103.1,31.0625 102.2,30.1875 102.2,29.1666667 L102.2,5.83333333 C102.2,4.8125 103.1,3.9375 104.15,3.9375 C105.2,3.9375 106.1,4.8125 106.1,5.83333333 L106.1,29.1666667 Z"
           id="path404"
           stroke="#A7A7A7"
           stroke-width="2.4"
           fill="#A7A7A7" />
        <path
           d="M131,0 C127.7,0 125,2.625 125,5.83333333 L125,29.1666667 C125,32.375 127.7,35 131,35 C134.3,35 137,32.375 137,29.1666667 L137,5.83333333 C137,2.625 134.3,0 131,0 Z M133.1,29.1666667 C133.1,30.1875 132.2,31.0625 131.15,31.0625 C130.1,31.0625 129.2,30.1875 129.2,29.1666667 L129.2,5.83333333 C129.2,4.8125 130.1,3.9375 131.15,3.9375 C132.2,3.9375 133.1,4.8125 133.1,5.83333333 L133.1,29.1666667 Z"
           id="path406"
           stroke="#A7A7A7"
           stroke-width="2.4"
           fill="#A7A7A7" />
        <path
           d="M158,0 C154.7,0 152,2.625 152,5.83333333 L152,29.1666667 C152,32.375 154.7,35 158,35 C161.3,35 164,32.375 164,29.1666667 L164,5.83333333 C164,2.625 161.3,0 158,0 Z M160.1,29.1666667 C160.1,30.1875 159.2,31.0625 158.15,31.0625 C157.1,31.0625 156.2,30.1875 156.2,29.1666667 L156.2,5.83333333 C156.2,4.8125 157.1,3.9375 158.15,3.9375 C159.2,3.9375 160.1,4.8125 160.1,5.83333333 L160.1,29.1666667 Z"
           id="path408"
           stroke="#A7A7A7"
           stroke-width="2.4"
           fill="#A7A7A7" />
        <path
           d="M39.4507373,86.539185 L31.4390003,78.5642633 C30.6831761,77.8119122 29.3226924,77.8119122 28.5668682,78.5642633 C27.8110439,79.3166144 27.8110439,80.6708464 28.5668682,81.4231975 L36.5786052,89.3981191 C37.0320997,89.8495298 37.4855943,90 37.9390888,90 C38.3925834,90 38.9972428,89.8495298 39.2995725,89.3981191 C40.2065616,88.645768 40.2065616,87.2915361 39.4507373,86.539185 Z"
           id="path410"
           stroke="#F73435"
           stroke-width="2.4"
           fill="#F73435" />
        <path
           d="M53.4662921,70.5607477 C52.7546816,69.8130841 51.4737828,69.8130841 50.7621723,70.5607477 L35.5337079,86.5607477 C34.8220974,87.3084112 34.8220974,88.6542056 35.5337079,89.4018692 C35.9606742,89.8504673 36.3876404,90 36.8146067,90 C37.241573,90 37.8108614,89.8504673 38.0955056,89.4018692 L53.4662921,73.4018692 C54.1779026,72.6542056 54.1779026,71.3084112 53.4662921,70.5607477 Z"
           id="path412"
           stroke="#F73435"
           stroke-width="2.4"
           fill="#F73435" />
        <path
           d="M39.4507373,136.539185 L31.4390003,128.564263 C30.6831761,127.811912 29.3226924,127.811912 28.5668682,128.564263 C27.8110439,129.316614 27.8110439,130.670846 28.5668682,131.423197 L36.5786052,139.398119 C37.0320997,139.84953 37.4855943,140 37.9390888,140 C38.3925834,140 38.9972428,139.84953 39.2995725,139.398119 C40.2065616,138.645768 40.2065616,137.291536 39.4507373,136.539185 Z"
           id="path414"
           stroke="#F73435"
           stroke-width="2.4"
           fill="#F73435" />
        <path
           d="M53.4824162,120.560748 C52.7701844,119.813084 51.4881671,119.813084 50.7759352,120.560748 L35.5341739,136.560748 C34.821942,137.308411 34.821942,138.654206 35.5341739,139.401869 C35.961513,139.850467 36.3888521,140 36.8161912,140 C37.2435303,140 37.8133158,139.850467 38.0982085,139.401869 L53.3399698,123.401869 C54.194648,122.654206 54.194648,121.308411 53.4824162,120.560748 Z"
           id="path416"
           stroke="#F73435"
           stroke-width="2.4"
           fill="#F73435" />
        <path
           d="M150.096429,66 L71.9035714,66 C70.8785714,66 70,66.9230769 70,68 C70,69.0769231 70.8785714,70 71.9035714,70 L150.096429,70 C151.121429,70 152,69.0769231 152,68 C152,66.7692308 151.121429,66 150.096429,66 Z"
           id="path418"
           stroke="#A7A7A7"
           stroke-width="2.4"
           fill="#A7A7A7" />
        <path
           d="M150.096429,78 L71.9035714,78 C70.8785714,78 70,78.9230769 70,80 C70,81.0769231 70.8785714,82 71.9035714,82 L150.096429,82 C151.121429,82 152,81.0769231 152,80 C152,78.9230769 151.121429,78 150.096429,78 Z"
           id="path420"
           stroke="#A7A7A7"
           stroke-width="2.4"
           fill="#A7A7A7" />
        <path
           d="M111.09215,89 L71.9078498,89 C70.8805461,89 70,89.9230769 70,91 C70,92.0769231 70.8805461,93 71.9078498,93 L111.09215,93 C112.119454,93 113,92.0769231 113,91 C113,89.9230769 112.119454,89 111.09215,89 Z"
           id="path422"
           stroke="#A7A7A7"
           stroke-width="2.4"
           fill="#A7A7A7" />
        <path
           d="M150.096429,117 L71.9035714,117 C70.8785714,117 70,117.923077 70,119 C70,120.076923 70.8785714,121 71.9035714,121 L150.096429,121 C151.121429,121 152,120.076923 152,119 C152,117.923077 151.121429,117 150.096429,117 Z"
           id="path424"
           stroke="#A7A7A7"
           stroke-width="2.4"
           fill="#A7A7A7" />
        <path
           d="M150.096429,128 L71.9035714,128 C70.8785714,128 70,128.923077 70,130 C70,131.076923 70.8785714,132 71.9035714,132 L150.096429,132 C151.121429,132 152,131.076923 152,130 C152,128.923077 151.121429,128 150.096429,128 Z"
           id="path426"
           stroke="#A7A7A7"
           stroke-width="2.4"
           fill="#A7A7A7" />
        <path
           d="M111.09215,140 L71.9078498,140 C70.8805461,140 70,140.923077 70,142 C70,143.076923 70.8805461,144 71.9078498,144 L111.09215,144 C112.119454,144 113,143.076923 113,142 C113,140.923077 112.119454,140 111.09215,140 Z"
           id="path428"
           stroke="#A7A7A7"
           stroke-width="2.4"
           fill="#A7A7A7" />
        <path
           d="M39.4507373,187.539185 L31.4390003,179.564263 C30.6831761,178.811912 29.3226924,178.811912 28.5668682,179.564263 C27.8110439,180.316614 27.8110439,181.670846 28.5668682,182.423197 L36.5786052,190.398119 C37.0320997,190.84953 37.4855943,191 37.9390888,191 C38.3925834,191 38.9972428,190.84953 39.2995725,190.398119 C40.2065616,189.645768 40.2065616,188.291536 39.4507373,187.539185 Z"
           id="path430"
           stroke="#F73435"
           stroke-width="2.4"
           fill="#F73435" />
        <path
           d="M53.4824162,171.560748 C52.7701844,170.813084 51.4881671,170.813084 50.7759352,171.560748 L35.5341739,187.560748 C34.821942,188.308411 34.821942,189.654206 35.5341739,190.401869 C35.961513,190.850467 36.3888521,191 36.8161912,191 C37.2435303,191 37.8133158,190.850467 38.0982085,190.401869 L53.3399698,174.401869 C54.194648,173.654206 54.194648,172.308411 53.4824162,171.560748 Z"
           id="path432"
           stroke="#F73435"
           stroke-width="2.4"
           fill="#F73435" />
        <path
           d="M150.096429,167 L71.9035714,167 C70.8785714,167 70,167.923077 70,169 C70,170.076923 70.8785714,171 71.9035714,171 L150.096429,171 C151.121429,171 152,170.076923 152,169 C152,167.923077 151.121429,167 150.096429,167 Z"
           id="path434"
           stroke="#A7A7A7"
           stroke-width="2.4"
           fill="#A7A7A7" />
        <path
           d="M150.096429,179 L71.9035714,179 C70.8785714,179 70,179.923077 70,181 C70,182.076923 70.8785714,183 71.9035714,183 L150.096429,183 C151.121429,183 152,182.076923 152,181 C152,179.923077 151.121429,179 150.096429,179 Z"
           id="path436"
           stroke="#A7A7A7"
           stroke-width="2.4"
           fill="#A7A7A7" />
        <path
           d="M111.09215,191 L71.9078498,191 C70.8805461,191 70,191.923077 70,193 C70,194.076923 70.8805461,195 71.9078498,195 L111.09215,195 C112.119454,195 113,194.076923 113,193 C113,191.923077 112.119454,191 111.09215,191 Z"
           id="path438"
           stroke="#A7A7A7"
           stroke-width="2.4"
           fill="#A7A7A7" />
        <rect
           id="rect440"
           fill="#FFFFFF"
           x="136"
           y="188"
           width="66"
           height="63" />
        <g
           id="g449"
           transform="translate(126.000000, 162.000000)">
          <ellipse
             id="Oval"
             stroke="#A7A7A7"
             stroke-width="6.816"
             fill="#FFFFFF"
             cx="49.6455882"
             cy="49.5"
             rx="49.2088235"
             ry="49.4753623" />
          <g
             transform="translate(21.838235, 29.739130)"
             fill="#F73435"
             id="g447"
             stroke="#F73435"
             stroke-width="3.408">
            <path
               d="M23.1485294,32.9347826 L7.57058824,17.2724638 C6.11470588,15.8086957 3.63970588,15.8086957 2.03823529,17.2724638 C0.582352941,18.7362319 0.582352941,21.2246377 2.03823529,22.8347826 L17.6161765,38.4971014 C18.3441176,39.2289855 19.3632353,39.6681159 20.3823529,39.6681159 C21.4014706,39.6681159 22.4205882,39.2289855 23.1485294,38.4971014 C24.75,37.0333333 24.75,34.5449275 23.1485294,32.9347826 Z"
               id="path443" />
            <path
               d="M54.45,1.61014493 C52.9941176,0.146376812 50.5191176,0.146376812 48.9176471,1.61014493 L17.6161765,33.0811594 C16.1602941,34.5449275 16.1602941,37.0333333 17.6161765,38.6434783 C18.3441176,39.3753623 19.3632353,39.8144928 20.3823529,39.8144928 C21.4014706,39.8144928 22.4205882,39.3753623 23.1485294,38.6434783 L54.45,7.17246377 C55.9058824,5.56231884 55.9058824,3.07391304 54.45,1.61014493 Z"
               id="path445" />
          </g>
        </g>
      </g>
      <g
         id="g460"
         transform="translate(534.000000, 707.000000)"
         fill="#A7A7A7"
         fill-rule="nonzero">
        <path
           d="M61.6806283,52.1649049 L25.8926702,52.1649049 C11.3795812,52.1649049 0,63.7082452 0,78.0549683 L0,130 L7.42146597,130 L7.42146597,78.2198732 C7.42146597,67.8308668 15.5026178,59.7505285 25.8926702,59.7505285 L30.6753927,59.7505285 L41.065445,87.1247357 C41.395288,88.2790698 42.8795812,89.2684989 44.3638743,89.2684989 C45.8481675,89.2684989 47.3324607,88.1141649 48.486911,87.1247357 L58.8769634,59.7505285 L63,59.7505285 L61.6806283,52.1649049 Z M62.6701571,52 L62.1753927,52.1649049 L61.6806283,52.1649049 L62.6701571,52 Z M44.8586387,75.2515856 L38.921466,59.7505285 L50.7958115,59.7505285 L44.8586387,75.2515856 Z"
           id="path452" />
        <path
           d="M26,59.5856237 L30.1230366,59.5856237 L40.513089,86.9598309 C41.6675393,88.1141649 43.1518325,89.1035941 44.6361257,89.1035941 C46.1204188,89.1035941 47.604712,87.94926 47.934555,86.9598309 L58.3246073,59.5856237 L63.1073298,59.5856237 C73.4973822,59.5856237 81.578534,67.6659619 81.578534,78.0549683 L81.578534,130 L89,130 L89,78.2198732 C89,63.7082452 77.4554974,52.3298097 63.1073298,52.3298097 L27.3193717,52.3298097 L26,59.5856237 Z M27.3193717,52.1649049 L26.8246073,52.1649049 L26.3298429,52 L27.3193717,52.1649049 Z M38.2041885,59.5856237 L50.078534,59.5856237 L44.1413613,75.0866808 L38.2041885,59.5856237 Z"
           id="path454" />
        <path
           d="M62.7133758,204.566709 L47.8089172,204.566709 L47.8089172,134.033037 L40.3566879,134.033037 L40.3566879,204.566709 L25.4522293,204.566709 L25.4522293,82 L18,82 L18,208.365947 C18,210.513342 19.4904459,212 21.6433121,212 L44,212 L66.3566879,212 C68.5095541,212 70,210.513342 70,208.365947 L70,82 L62.5477707,82 L62.5477707,204.566709 L62.7133758,204.566709 Z"
           id="path456" />
        <path
           d="M40.7374987,48 L48.2649672,48 C58.8034232,48 67,39.9452055 67,29.5890411 L67,18.4109589 C67,8.05479452 58.8034232,0 48.2649672,0 L40.7374987,0 C30.1990428,0 22.002466,8.05479452 22.002466,18.4109589 L22.002466,29.4246575 C21.8351889,39.7808219 30.1990428,48 40.7374987,48 Z M29.3626574,18.4109589 C29.3626574,12.1643836 34.2136927,7.39726027 40.5702217,7.39726027 L48.0976902,7.39726027 C54.4542191,7.39726027 59.3052544,12.1643836 59.3052544,18.4109589 L59.3052544,29.4246575 C59.3052544,35.6712329 54.4542191,40.4383562 48.0976902,40.4383562 L40.5702217,40.4383562 C34.2136927,40.4383562 29.3626574,35.6712329 29.3626574,29.4246575 L29.3626574,18.4109589 Z"
           id="path458" />
      </g>
      <text
         id="1.-Busca-vulnerabili"
         font-size="55"
         font-weight="bold"
         line-spacing="63"
         style="font-weight:bold;font-size:55px;font-family:Montserrat-Bold, Montserrat">
        <tspan
           x="639.46997"
           y="53"
           id="tspan462"
           style="fill:#f73435" />
      </text>
      <text
         id="2.-Genera-exploit"
         font-size="55"
         font-weight="bold"
         line-spacing="63"
         style="font-weight:bold;font-size:55px;font-family:Montserrat-Bold, Montserrat">
        <tspan
           x="212"
           y="497"
           id="tspan469"
           style="fill:#f73435" />
      </text>
      <text
         id="4.-Remediar"
         font-size="55"
         font-weight="bold"
         line-spacing="63"
         style="font-weight:bold;font-size:55px;font-family:Montserrat-Bold, Montserrat">
        <tspan
           x="2128.6001"
           y="529"
           id="tspan476"
           style="fill:#f73435" />
      </text>
      <text
         id="3.-Confirmar"
         font-size="55"
         font-weight="bold"
         line-spacing="63"
         style="font-weight:bold;font-size:55px;font-family:Montserrat-Bold, Montserrat">
        <tspan
           x="1226"
           y="529"
           id="tspan481"
           style="fill:#f73435" />
      </text>
      <text
         id="0.-Entrega-a-pruebas"
         font-size="55"
         font-weight="bold"
         line-spacing="63"
         style="font-weight:bold;font-size:55px;font-family:Montserrat-Bold, Montserrat">
        <tspan
           x="1628.5275"
           y="90"
           id="tspan486"
           style="fill:#f73435" />
      </text>
      <text
         id="5.-Verificar-cierre"
         font-size="55"
         font-weight="bold"
         line-spacing="63"
         style="font-weight:bold;font-size:55px;font-family:Montserrat-Bold, Montserrat">
        <tspan
           x="1457"
           y="814.81525"
           font-weight="normal"
           id="tspan493"
           style="font-weight:normal;font-family:Montserrat-Regular, Montserrat;fill:#4a4c4d" />
      </text>
      <text
         id="6.-Verificar-continu"
         font-size="55"
         font-weight="bold"
         line-spacing="63"
         style="font-weight:bold;font-size:55px;font-family:Montserrat-Bold, Montserrat">
        <tspan
           x="1403"
           y="1290.8153"
           font-weight="normal"
           id="tspan498"
           style="font-weight:normal;font-family:Montserrat-Regular, Montserrat;fill:#4a4c4d" />
      </text>
      <text
         id="V1"
         font-family="Montserrat-Bold, Montserrat"
         font-size="45"
         font-weight="bold"
         line-spacing="63"
         letter-spacing="4.82727289"
         fill="#A8A9A8">
        <tspan
           x="1163.39273"
           y="131"
           id="tspan501">V1</tspan>
      </text>
      <g
         id="Group-10"
         transform="translate(2103.000000, 741.000000)">
        <g
           id="06Commands-Copy">
          <g
             id="g512"
             transform="translate(0.924064, 0.691765)"
             fill="#ACACAC"
             fill-rule="nonzero">
            <path
               d="M210.270802,0.968470588 L3.46524064,0.968470588 C1.52470588,0.968470588 0,2.49035294 0,4.42729412 L0,190.373647 C0,192.310588 1.52470588,193.832471 3.46524064,193.832471 L210.270802,193.832471 C212.211337,193.832471 213.736043,192.310588 213.736043,190.373647 L213.736043,105.148235 C213.736043,103.211294 212.211337,101.689412 210.270802,101.689412 C208.330267,101.689412 206.805561,103.211294 206.805561,105.148235 L206.805561,186.914824 L6.93048128,186.914824 L6.93048128,35.0032941 L206.944171,35.0032941 L206.944171,140.428235 C206.944171,142.365176 208.468877,143.887059 210.409412,143.887059 C212.349947,143.887059 213.874652,142.365176 213.874652,140.428235 L213.874652,4.28894118 C213.736043,2.49035294 212.211337,0.968470588 210.270802,0.968470588 Z M6.93048128,7.74776471 L133.065241,7.74776471 L133.065241,28.224 L6.93048128,28.224 L6.93048128,7.74776471 Z M139.857112,28.0856471 L139.857112,7.74776471 L206.944171,7.74776471 L206.944171,28.224 L139.857112,28.224 L139.857112,28.0856471 Z"
               id="path504" />
            <path
               d="M173.539251,14.2503529 C171.598717,14.2503529 169.935401,15.9105882 169.935401,17.8475294 C169.935401,19.7844706 171.598717,21.4447059 173.539251,21.4447059 C175.479786,21.4447059 177.143102,19.7844706 177.143102,17.8475294 C177.143102,15.9105882 175.479786,14.2503529 173.539251,14.2503529 Z"
               id="path506" />
            <path
               d="M154.826952,14.2503529 C152.886417,14.2503529 151.223102,15.9105882 151.223102,17.8475294 C151.223102,19.7844706 152.886417,21.4447059 154.826952,21.4447059 C156.767487,21.4447059 158.430802,19.7844706 158.430802,17.8475294 C158.430802,15.9105882 156.906096,14.2503529 154.826952,14.2503529 Z"
               id="path508" />
            <path
               d="M192.112941,14.2503529 C190.172406,14.2503529 188.509091,15.9105882 188.509091,17.8475294 C188.509091,19.7844706 190.172406,21.4447059 192.112941,21.4447059 C194.053476,21.4447059 195.716791,19.7844706 195.716791,17.8475294 C195.716791,15.9105882 194.192086,14.2503529 192.112941,14.2503529 Z"
               id="path510" />
          </g>
          <path
             d="M98.366631,101.966118 L67.3180749,71.2517647 C64.2686631,68.208 59.2787166,68.208 56.2293048,71.2517647 C53.179893,74.2955294 53.179893,79.2762353 56.2293048,82.32 L81.5948663,107.500235 L55.1204278,134.202353 C52.071016,137.246118 52.071016,142.226824 55.1204278,145.270588 C58.1698396,148.314353 63.1597861,148.314353 66.2091979,145.270588 L98.2280214,113.034353 C101.416043,109.990588 101.416043,105.009882 98.366631,101.966118 Z"
             id="path514"
             stroke="#FFFFFF"
             stroke-width="1.2"
             fill="#F73435"
             fill-rule="nonzero" />
          <path
             d="M112.227594,144.163765 L166.285348,144.163765"
             id="path516"
             stroke="#F73435"
             stroke-width="13.2"
             stroke-linecap="round"
             stroke-linejoin="round" />
        </g>
        <text
           id="V2"
           font-family="Montserrat-Bold, Montserrat"
           font-size="45"
           font-weight="bold"
           line-spacing="63"
           letter-spacing="4.82727289"
           fill="#A8A9A8">
          <tspan
             x="110.612727"
             y="113"
             id="tspan519">V2</tspan>
        </text>
      </g>
      <text
         id="SECURITY-TESTER"
         font-family="Montserrat-ExtraBold, Montserrat"
         font-size="55"
         font-weight="600"
         line-spacing="63"
         fill="#4A4C4D">
        <tspan
           x="0"
           y="282"
           id="tspan523">SECURITY</tspan>
        <tspan
           x="34.3475"
           y="345"
           id="tspan525">TESTER</tspan>
      </text>
      <text
         id="CLIENTE-FABRICA-DESA"
         font-size="35"
         font-weight="600"
         line-spacing="43"
         style="font-weight:600;font-size:35px;font-family:Montserrat-ExtraBold, Montserrat;fill:#4a4c4d">
        <tspan
           x="683"
           y="738"
           id="tspan528" />
      </text>
      <text
         id="INTEGRACIÓN-CONTINUA"
         font-size="35"
         font-weight="600"
         line-spacing="43"
         style="font-weight:600;font-size:35px;font-family:Montserrat-ExtraBold, Montserrat;fill:#4a4c4d">
        <tspan
           x="692"
           y="1077"
           id="tspan539" />
      </text>
      <text
         id="ToE-(app,-inf)"
         font-family="Montserrat-ExtraBold, Montserrat"
         font-size="55"
         font-weight="600"
         line-spacing="63"
         fill="#4A4C4D">
        <tspan
           x="1118.23"
           y="297"
           id="tspan548">ToE</tspan>
        <tspan
           x="1042"
           y="360"
           id="tspan550">(app, inf)</tspan>
      </text>
      <text
         id="DESARROLLADOR"
         font-size="55"
         font-weight="600"
         line-spacing="63"
         style="font-weight:600;font-size:55px;font-family:Montserrat-ExtraBold, Montserrat;fill:#4a4c4d"
         x="99.61338"
         y="-4.7434945">
        <tspan
           x="2052.6133"
           y="309.2565"
           id="tspan553">DEVELOPER</tspan>
      </text>
      <path
         id="Path-2"
         d="M949.455931,229.25 L940.783176,224.371576 L941.763699,222.628424 L953.763699,229.378424 L955.313166,230.25 L953.763699,231.121576 L941.763699,237.871576 L940.783176,236.128424 L949.455931,231.25 L941.273437,231.25 L344,231.25 L344,229.25 L941.273437,229.25 L949.455931,229.25 Z"
         fill="#979797"
         fill-rule="nonzero" />
      <path
         id="Path-2-Copy-4"
         d="M466.537205,820.833333 L457.86445,815.954909 L458.844973,814.211758 L470.844973,820.961758 L472.394441,821.833333 L470.844973,822.704909 L458.844973,829.454909 L457.86445,827.711758 L466.537205,822.833333 L458.354712,822.833333 L256,822.833333 L256,820.833333 L458.354712,820.833333 L466.537205,820.833333 Z"
         fill="#979797"
         fill-rule="nonzero" />
      <path
         id="Path-2-Copy-2"
         d="M146.25,660.455931 L151.128424,651.783176 L152.871576,652.763699 L146.121576,664.763699 L145.25,666.313166 L144.378424,664.763699 L137.628424,652.763699 L139.371576,651.783176 L144.25,660.455931 L144.25,652.273437 L144.25,409.211719 L146.25,409.211719 L146.25,652.273437 L146.25,660.455931 Z"
         fill="#979797"
         fill-rule="nonzero" />
      <path
         id="Path-2-Copy-3"
         d="M2221.25,673.932493 L2226.12842,665.259739 L2227.87158,666.240261 L2221.12158,678.240261 L2220.25,679.789729 L2219.37842,678.240261 L2212.62842,666.240261 L2214.37158,665.259739 L2219.25,673.932493 L2219.25,665.75 L2219.25,417 L2221.25,417 L2221.25,665.75 L2221.25,673.932493 Z"
         fill="#979797"
         fill-rule="nonzero" />
      <path
         id="Path-2-Copy"
         d="M1976.45593,231.25 L1967.78318,226.371576 L1968.7637,224.628424 L1980.7637,231.378424 L1982.31317,232.25 L1980.7637,233.121576 L1968.7637,239.871576 L1967.78318,238.128424 L1976.45593,233.25 L1968.27344,233.25 L1371,233.25 L1371,231.25 L1968.27344,231.25 L1976.45593,231.25 Z"
         fill="#979797"
         fill-rule="nonzero" />
      <path
         id="Path-3"
         d="M2071.93249,856.78125 L2063.25974,851.902826 L2064.24026,850.159674 L2076.24026,856.909674 L2077.78973,857.78125 L2076.24026,858.652826 L2064.24026,865.402826 L2063.25974,863.659674 L2071.93249,858.78125 L2063.75,858.78125 L1172,858.78125 L1171,858.78125 L1171,857.78125 L1171,458.25 L1171,450.067507 L1166.12158,458.740261 L1164.37842,457.759739 L1171.12842,445.759739 L1172,444.210271 L1172.87158,445.759739 L1179.62158,457.759739 L1177.87842,458.740261 L1173,450.067507 L1173,458.25 L1173,856.78125 L2063.75,856.78125 L2071.93249,856.78125 Z"
         fill="#979797"
         fill-rule="nonzero" />
      <path
         id="Path-3-Copy"
         d="M466.932493,1125 L458.259739,1120.12158 L459.240261,1118.37842 L471.240261,1125.12842 L472.789729,1126 L471.240261,1126.87158 L459.240261,1133.62158 L458.259739,1131.87842 L466.932493,1127 L458.75,1127 L149,1127 L148,1127 L148,1126 L148,968 L150,968 L150,1125 L458.75,1125 L466.932493,1125 Z"
         fill="#979797"
         fill-rule="nonzero" />
      <path
         d="M588.647339,661.932661 L567.407339,640.932661 C565.247339,638.892661 561.887339,638.892661 559.847339,640.932661 C557.807339,643.092661 557.807339,646.452661 559.847339,648.492661 L577.247339,665.772661 L559.127339,684.132661 C557.087339,686.292661 557.087339,689.652661 559.127339,691.692661 C561.287339,693.732661 564.647339,693.732661 566.687339,691.692661 L588.647339,669.492661 C590.807339,667.452661 590.687339,664.092661 588.647339,661.932661 Z"
         id="path563"
         fill="#F73435"
         fill-rule="nonzero"
         transform="translate(573.910000, 666.312661) rotate(-90.000000) translate(-573.910000, -666.312661) " />
      <path
         id="Path-4"
         d="M2230.88281,985.192507 L2226.00439,993.865261 L2224.26124,992.884739 L2231.01124,980.884739 L2231.88281,979.335271 L2232.75439,980.884739 L2239.50439,992.884739 L2237.76124,993.865261 L2232.88281,985.192507 L2232.88281,993.375 L2232.88281,1149.95312 L2232.88281,1150.95312 L2231.88281,1150.95312 L1181.5,1150.95312 L1181.5,1148.95312 L2230.88281,1148.95312 L2230.88281,993.375 L2230.88281,985.192507 Z"
         fill="#979797"
         fill-rule="nonzero" />
    </g>
    <flowRoot
       xml:space="preserve"
       id="flowRoot586"
       style="font-style:normal;font-weight:600;font-size:40px;line-height:1.25;font-family:Montserrat-ExtraBold, Montserrat;letter-spacing:0px;word-spacing:0px;fill:#000000;fill-opacity:1;stroke:none;-inkscape-font-specification:'Montserrat-ExtraBold, Montserrat Semi-Bold';font-stretch:normal;font-variant:normal;"><flowRegion
         id="flowRegion588"
         style="-inkscape-font-specification:'Montserrat-ExtraBold, Montserrat Semi-Bold';font-family:Montserrat-ExtraBold, Montserrat;font-weight:600;font-style:normal;font-stretch:normal;font-variant:normal;"><rect
           id="rect590"
           width="448.26022"
           height="170.76579"
           x="557.3606"
           y="322.55762"
           style="-inkscape-font-specification:'Montserrat-ExtraBold, Montserrat Semi-Bold';font-family:Montserrat-ExtraBold, Montserrat;font-weight:600;font-style:normal;font-stretch:normal;font-variant:normal;" /></flowRegion><flowPara
         id="flowPara592"> </flowPara><flowPara
         id="flowPara596" /></flowRoot>  </g>
  <text
     xml:space="preserve"
     style="font-style:normal;font-variant:normal;font-weight:600;font-stretch:normal;font-size:40px;line-height:1.25;font-family:Montserrat-ExtraBold, Montserrat;-inkscape-font-specification:'Montserrat-ExtraBold, Montserrat Semi-Bold';text-align:start;letter-spacing:0px;word-spacing:0px;text-anchor:start;fill:#000000;fill-opacity:1;stroke:none;"
     x="384.10355"
     y="60.036201"
     id="text5323"><tspan
       sodipodi:role="line"
       x="625.42334"
       y="60.036201"
       id="tspan5311"><tspan
         x="617.63525"
         y="60.036201"
         style="font-style:normal;font-variant:normal;font-weight:bold;font-stretch:normal;font-size:55px;font-family:Montserrat-Bold, Montserrat;-inkscape-font-specification:'Montserrat-Bold, Montserrat Bold';fill:#f73435;fill-opacity:1;text-anchor:start;text-align:start;"
         id="tspan5307">1. </tspan><tspan
         dx="0"
         x="669.19775"
         y="60.036201"
         style="font-style:normal;font-variant:normal;font-weight:bold;font-stretch:normal;font-size:55px;font-family:Montserrat-Bold, Montserrat;-inkscape-font-specification:'Montserrat-Bold, Montserrat Bold';fill:#f73435;fill-opacity:1;text-anchor:start;text-align:start;"
         id="tspan5309" /></tspan><tspan
       sodipodi:role="line"
       x="408.0015"
       y="128.78619"
       id="tspan5317"><tspan
         x="400.80423"
         y="128.78619"
         style="font-style:normal;font-variant:normal;font-weight:normal;font-stretch:normal;font-size:55px;font-family:Montserrat-Regular, Montserrat;-inkscape-font-specification:'Montserrat-Regular, Montserrat';fill:#4a4c4d;fill-opacity:1;text-anchor:start;text-align:start;"
         id="tspan5313">Searches for new </tspan><tspan
         dx="0"
         x="884.84717"
         y="128.78619"
         style="font-style:normal;font-variant:normal;font-weight:normal;font-stretch:normal;font-size:55px;font-family:Montserrat-Regular, Montserrat;-inkscape-font-specification:'Montserrat-Regular, Montserrat';fill:#4a4c4d;fill-opacity:1;text-anchor:start;text-align:start;"
         id="tspan5315" /></tspan><tspan
       sodipodi:role="line"
       x="443.02103"
       y="197.53619"
       id="tspan5321"><tspan
         x="443.02103"
         y="197.53619"
         style="font-style:normal;font-variant:normal;font-weight:normal;font-stretch:normal;font-size:55px;font-family:Montserrat-Regular, Montserrat;-inkscape-font-specification:'Montserrat-Regular, Montserrat';fill:#4a4c4d;fill-opacity:1;text-anchor:start;text-align:start;"
         id="tspan5319">vulnerabilities</tspan></tspan></text>
  <text
     xml:space="preserve"
     style="font-style:normal;font-variant:normal;font-weight:600;font-stretch:normal;font-size:40px;line-height:1.25;font-family:Montserrat-ExtraBold, Montserrat;-inkscape-font-specification:'Montserrat-ExtraBold, Montserrat Semi-Bold';letter-spacing:0px;word-spacing:0px;fill:#000000;fill-opacity:1;stroke:none"
     x="189.73988"
     y="472.72137"
     id="text5339"><tspan
       sodipodi:role="line"
       x="189.73988"
       y="472.72137"
       id="tspan5329"><tspan
         x="189.73988"
         y="472.72137"
         style="font-style:normal;font-variant:normal;font-weight:bold;font-stretch:normal;font-size:55px;font-family:Montserrat-Bold, Montserrat;-inkscape-font-specification:'Montserrat-Bold, Montserrat Bold';text-align:start;text-anchor:start;fill:#f73435;fill-opacity:1"
         id="tspan5325">2.</tspan><tspan
         dx="0"
         x="237.11293"
         y="472.72137"
         style="font-style:normal;font-variant:normal;font-weight:bold;font-stretch:normal;font-size:55px;font-family:Montserrat-Bold, Montserrat;-inkscape-font-specification:'Montserrat-Bold, Montserrat Bold';text-align:start;text-anchor:start;fill:#f73435;fill-opacity:1"
         id="tspan5327" /></tspan><tspan
       sodipodi:role="line"
       x="189.73988"
       y="541.47137"
       id="tspan5333"><tspan
         x="189.73988"
         y="541.47137"
         style="font-style:normal;font-variant:normal;font-weight:normal;font-stretch:normal;font-size:55px;font-family:Montserrat-Regular, Montserrat;-inkscape-font-specification:'Montserrat-Regular, Montserrat';text-align:start;text-anchor:start;fill:#4a4c4d;fill-opacity:1"
         id="tspan5331">Generates </tspan></tspan><tspan
       sodipodi:role="line"
       x="189.73988"
       y="610.22137"
       id="tspan5337"><tspan
         x="189.73988"
         y="610.22137"
         style="font-style:normal;font-variant:normal;font-weight:normal;font-stretch:normal;font-size:55px;font-family:Montserrat-Regular, Montserrat;-inkscape-font-specification:'Montserrat-Regular, Montserrat';text-align:start;text-anchor:start;fill:#4a4c4d;fill-opacity:1"
         id="tspan5335">Exploits</tspan></tspan></text>
  <text
     xml:space="preserve"
     style="font-style:normal;font-variant:normal;font-weight:600;font-stretch:normal;font-size:40px;line-height:1.25;font-family:Montserrat-ExtraBold, Montserrat;-inkscape-font-specification:'Montserrat-ExtraBold, Montserrat Semi-Bold';letter-spacing:0px;word-spacing:0px;fill:#000000;fill-opacity:1;stroke:none"
     x="664.0899"
     y="712.71191"
     id="text5407"><tspan
       sodipodi:role="line"
       x="664.0899"
       y="712.71191"
       id="tspan5383"><tspan
         x="664.0899"
         y="712.71191"
         style="font-style:normal;font-variant:normal;font-weight:600;font-stretch:normal;font-size:35px;font-family:Montserrat-ExtraBold, Montserrat;-inkscape-font-specification:'Montserrat-ExtraBold, Montserrat Semi-Bold';fill:#4a4c4d;fill-opacity:1"
         id="tspan5379">CUSTOMER</tspan><tspan
         dx="0"
         x="871.21881"
         y="712.71191"
         style="font-style:normal;font-variant:normal;font-weight:600;font-stretch:normal;font-size:35px;font-family:Montserrat-ExtraBold, Montserrat;-inkscape-font-specification:'Montserrat-ExtraBold, Montserrat Semi-Bold';fill:#4a4c4d;fill-opacity:1"
         id="tspan5381" /></tspan><tspan
       sodipodi:role="line"
       x="664.0899"
       y="762.71191"
       id="tspan5389"><tspan
         x="664.0899"
         y="762.71191"
         style="font-style:normal;font-variant:normal;font-weight:600;font-stretch:normal;font-size:35px;font-family:Montserrat-ExtraBold, Montserrat;-inkscape-font-specification:'Montserrat-ExtraBold, Montserrat Semi-Bold';fill:#4a4c4d;fill-opacity:1"
         id="tspan5385">FACTORY</tspan><tspan
         dx="0"
         x="834.85162"
         y="762.71191"
         style="font-style:normal;font-variant:normal;font-weight:600;font-stretch:normal;font-size:35px;font-family:Montserrat-ExtraBold, Montserrat;-inkscape-font-specification:'Montserrat-ExtraBold, Montserrat Semi-Bold';fill:#4a4c4d;fill-opacity:1"
         id="tspan5387" /></tspan><tspan
       sodipodi:role="line"
       x="664.0899"
       y="812.71191"
       id="tspan5395"><tspan
         x="664.0899"
         y="812.71191"
         style="font-style:normal;font-variant:normal;font-weight:600;font-stretch:normal;font-size:35px;font-family:Montserrat-ExtraBold, Montserrat;-inkscape-font-specification:'Montserrat-ExtraBold, Montserrat Semi-Bold';fill:#4a4c4d;fill-opacity:1"
         id="tspan5391">DEVELOPER</tspan><tspan
         dx="0"
         x="888.58209"
         y="812.71191"
         style="font-style:normal;font-variant:normal;font-weight:600;font-stretch:normal;font-size:35px;font-family:Montserrat-ExtraBold, Montserrat;-inkscape-font-specification:'Montserrat-ExtraBold, Montserrat Semi-Bold';fill:#4a4c4d;fill-opacity:1"
         id="tspan5393" /></tspan><tspan
       sodipodi:role="line"
       x="664.0899"
       y="862.71191"
       id="tspan5401"><tspan
         x="664.0899"
         y="862.71191"
         style="font-style:normal;font-variant:normal;font-weight:600;font-stretch:normal;font-size:35px;font-family:Montserrat-ExtraBold, Montserrat;-inkscape-font-specification:'Montserrat-ExtraBold, Montserrat Semi-Bold';fill:#4a4c4d;fill-opacity:1"
         id="tspan5397">TESTER</tspan><tspan
         dx="0"
         x="800.33014"
         y="862.71191"
         style="font-style:normal;font-variant:normal;font-weight:600;font-stretch:normal;font-size:35px;font-family:Montserrat-ExtraBold, Montserrat;-inkscape-font-specification:'Montserrat-ExtraBold, Montserrat Semi-Bold';fill:#4a4c4d;fill-opacity:1"
         id="tspan5399" /></tspan><tspan
       sodipodi:role="line"
       x="664.0899"
       y="912.71191"
       id="tspan5405"><tspan
         x="664.0899"
         y="912.71191"
         style="font-style:normal;font-variant:normal;font-weight:600;font-stretch:normal;font-size:35px;font-family:Montserrat-ExtraBold, Montserrat;-inkscape-font-specification:'Montserrat-ExtraBold, Montserrat Semi-Bold';fill:#4a4c4d;fill-opacity:1"
         id="tspan5403">TEAM MEMBER</tspan></tspan></text>
  <text
     xml:space="preserve"
     style="font-style:normal;font-variant:normal;font-weight:600;font-stretch:normal;font-size:40px;line-height:1.25;font-family:Montserrat-ExtraBold, Montserrat;-inkscape-font-specification:'Montserrat-ExtraBold, Montserrat Semi-Bold';letter-spacing:0px;word-spacing:0px;fill:#000000;fill-opacity:1;stroke:none"
     x="683.06329"
     y="1056.6155"
     id="text5365"><tspan
       sodipodi:role="line"
       x="683.06329"
       y="1056.6155"
       id="tspan5345"><tspan
         x="683.06329"
         y="1056.6155"
         style="font-style:normal;font-variant:normal;font-weight:600;font-stretch:normal;font-size:35px;font-family:Montserrat-ExtraBold, Montserrat;-inkscape-font-specification:'Montserrat-ExtraBold, Montserrat Semi-Bold';fill:#4a4c4d;fill-opacity:1"
         id="tspan5341">CONTINUOUS INTEGRATION </tspan><tspan
         dx="0"
         x="1203.7566"
         y="1056.6155"
         style="font-style:normal;font-variant:normal;font-weight:600;font-stretch:normal;font-size:35px;font-family:Montserrat-ExtraBold, Montserrat;-inkscape-font-specification:'Montserrat-ExtraBold, Montserrat Semi-Bold';fill:#4a4c4d;fill-opacity:1"
         id="tspan5343" /></tspan><tspan
       sodipodi:role="line"
       x="683.06329"
       y="1106.6155"
       id="tspan5351"><tspan
         x="683.06329"
         y="1106.6155"
         style="font-style:normal;font-variant:normal;font-weight:600;font-stretch:normal;font-size:35px;font-family:Montserrat-ExtraBold, Montserrat;-inkscape-font-specification:'Montserrat-ExtraBold, Montserrat Semi-Bold';fill:#4a4c4d;fill-opacity:1"
         id="tspan5347">CONTINUOUS DEPLOYMENT </tspan><tspan
         dx="0"
         x="1207.7898"
         y="1106.6155"
         style="font-style:normal;font-variant:normal;font-weight:600;font-stretch:normal;font-size:35px;font-family:Montserrat-ExtraBold, Montserrat;-inkscape-font-specification:'Montserrat-ExtraBold, Montserrat Semi-Bold';fill:#4a4c4d;fill-opacity:1"
         id="tspan5349" /></tspan><tspan
       sodipodi:role="line"
       x="683.06329"
       y="1156.6155"
       id="tspan5357"><tspan
         x="683.06329"
         y="1156.6155"
         style="font-style:normal;font-variant:normal;font-weight:600;font-stretch:normal;font-size:35px;font-family:Montserrat-ExtraBold, Montserrat;-inkscape-font-specification:'Montserrat-ExtraBold, Montserrat Semi-Bold';fill:#4a4c4d;fill-opacity:1"
         id="tspan5353">DEVOPS</tspan><tspan
         dx="0"
         x="836.73517"
         y="1156.6155"
         style="font-style:normal;font-variant:normal;font-weight:600;font-stretch:normal;font-size:35px;font-family:Montserrat-ExtraBold, Montserrat;-inkscape-font-specification:'Montserrat-ExtraBold, Montserrat Semi-Bold';fill:#4a4c4d;fill-opacity:1"
         id="tspan5355" /></tspan><tspan
       sodipodi:role="line"
       x="683.06329"
       y="1206.6155"
       id="tspan5363"><tspan
         x="683.06329"
         y="1206.6155"
         style="font-style:normal;font-variant:normal;font-weight:600;font-stretch:normal;font-size:35px;font-family:Montserrat-ExtraBold, Montserrat;-inkscape-font-specification:'Montserrat-ExtraBold, Montserrat Semi-Bold';fill:#4a4c4d;fill-opacity:1"
         id="tspan5359">(Jenkins, etc)</tspan><tspan
         dx="0"
         x="919.51837"
         y="1206.6155"
         style="font-style:normal;font-variant:normal;font-weight:600;font-stretch:normal;font-size:35px;font-family:Montserrat-ExtraBold, Montserrat;-inkscape-font-specification:'Montserrat-ExtraBold, Montserrat Semi-Bold';fill:#4a4c4d;fill-opacity:1"
         id="tspan5361" /></tspan></text>
  <text
     xml:space="preserve"
     style="font-style:normal;font-weight:normal;font-size:40px;line-height:1.25;font-family:sans-serif;letter-spacing:0px;word-spacing:0px;fill:#4a4c4d;fill-opacity:1;stroke:none"
     x="1195.3613"
     y="603.16797"
     id="text5269"><tspan
       sodipodi:role="line"
       x="1195.3613"
       y="603.16797"
       id="tspan5263"><tspan
         x="1195.3613"
         y="603.16797"
         style="font-style:normal;font-variant:normal;font-weight:bold;font-stretch:normal;font-size:55px;font-family:Montserrat-Bold, Montserrat;-inkscape-font-specification:'Montserrat-Bold, Montserrat Bold';fill:#f73435;fill-opacity:1"
         id="tspan5259">3.</tspan><tspan
         dx="0"
         x="1242.3047"
         y="603.16797"
         style="font-style:normal;font-variant:normal;font-weight:bold;font-stretch:normal;font-size:55px;font-family:Montserrat-Bold, Montserrat;-inkscape-font-specification:'Montserrat-Bold, Montserrat Bold';fill:#f73435;fill-opacity:1"
         id="tspan5261" /></tspan><tspan
       sodipodi:role="line"
       x="1195.3613"
       y="671.91797"
       id="tspan5267"><tspan
         x="1195.3613"
         y="671.91797"
         style="font-style:normal;font-variant:normal;font-weight:normal;font-stretch:normal;font-size:55px;font-family:Montserrat-Regular, Montserrat;-inkscape-font-specification:'Montserrat-Regular, Montserrat';fill:#4a4c4d;fill-opacity:1"
         id="tspan5265">Validates</tspan></tspan></text>
  <text
     xml:space="preserve"
     style="font-style:normal;font-weight:normal;font-size:40px;line-height:1.25;font-family:sans-serif;text-align:start;letter-spacing:0px;word-spacing:0px;text-anchor:start;fill:#000000;fill-opacity:1;stroke:none;"
     x="1347.3499"
     y="60.036289"
     id="text5305"><tspan
       sodipodi:role="line"
       x="1664.3574"
       y="60.036289"
       id="tspan5293"><tspan
         x="1664.3574"
         y="60.036289"
         style="font-style:normal;font-variant:normal;font-weight:bold;font-stretch:normal;font-size:55px;font-family:Montserrat-Bold, Montserrat;-inkscape-font-specification:'Montserrat-Bold, Montserrat Bold';text-align:start;text-anchor:start;fill:#f73435;fill-opacity:1;"
         id="tspan5289">0.</tspan><tspan
         dx="0"
         x="1715.3828"
         y="60.036289"
         style="font-style:normal;font-variant:normal;font-weight:bold;font-stretch:normal;font-size:55px;font-family:Montserrat-Bold, Montserrat;-inkscape-font-specification:'Montserrat-Bold, Montserrat Bold';text-align:start;text-anchor:start;fill:#f73435;fill-opacity:1;"
         id="tspan5291" /></tspan><tspan
       sodipodi:role="line"
       x="1530.5098"
       y="128.78627"
       id="tspan5299"><tspan
         x="1516.1152"
         y="128.78627"
         style="font-style:normal;font-variant:normal;font-weight:normal;font-stretch:normal;font-size:55px;font-family:Montserrat-Regular, Montserrat;-inkscape-font-specification:'Montserrat-Regular, Montserrat';text-align:start;text-anchor:start;fill:#4a4c4d;fill-opacity:1;"
         id="tspan5295">Delivers App </tspan><tspan
         dx="0"
         x="1878.0195"
         y="128.78627"
         style="font-style:normal;font-variant:normal;font-weight:normal;font-stretch:normal;font-size:55px;font-family:Montserrat-Regular, Montserrat;-inkscape-font-specification:'Montserrat-Regular, Montserrat';text-align:start;text-anchor:start;fill:#4a4c4d;fill-opacity:1;"
         id="tspan5297" /></tspan><tspan
       sodipodi:role="line"
       x="1562.5752"
       y="197.53627"
       id="tspan5303"><tspan
         x="1562.5752"
         y="197.53627"
         style="font-style:normal;font-variant:normal;font-weight:normal;font-stretch:normal;font-size:55px;font-family:Montserrat-Regular, Montserrat;-inkscape-font-specification:'Montserrat-Regular, Montserrat';text-align:start;text-anchor:start;fill:#4a4c4d;fill-opacity:1;"
         id="tspan5301">to testers</tspan></tspan></text>
  <text
     xml:space="preserve"
     style="font-style:normal;font-weight:normal;font-size:40px;line-height:1.25;font-family:sans-serif;text-align:start;letter-spacing:0px;word-spacing:0px;text-anchor:start;fill:#000000;fill-opacity:1;stroke:none;"
     x="1334.2991"
     y="482.20837"
     id="text5287"><tspan
       sodipodi:role="line"
       x="2142.8494"
       y="482.20837"
       id="tspan5275"><tspan
         x="2142.8494"
         y="482.20837"
         style="font-style:normal;font-variant:normal;font-weight:bold;font-stretch:normal;font-size:55px;font-family:Montserrat-Bold, Montserrat;-inkscape-font-specification:'Montserrat-Bold, Montserrat Bold';text-align:start;text-anchor:start;fill:#f73435;fill-opacity:1;"
         id="tspan5271">4.</tspan><tspan
         dx="0"
         x="2196.238"
         y="482.20837"
         style="font-style:normal;font-variant:normal;font-weight:bold;font-stretch:normal;font-size:55px;font-family:Montserrat-Bold, Montserrat;-inkscape-font-specification:'Montserrat-Bold, Montserrat Bold';text-align:start;text-anchor:start;fill:#f73435;fill-opacity:1;"
         id="tspan5273" /></tspan><tspan
       sodipodi:role="line"
       x="1803.6111"
       y="550.95831"
       id="tspan5281"><tspan
         x="1803.6111"
         y="550.95831"
         style="font-style:normal;font-variant:normal;font-weight:normal;font-stretch:normal;font-size:55px;font-family:Montserrat-Regular, Montserrat;-inkscape-font-specification:'Montserrat-Regular, Montserrat';text-align:start;text-anchor:start;fill:#4a4c4d;fill-opacity:1;"
         id="tspan5277">Fixes reported</tspan><tspan
         dx="0"
         x="2196.238"
         y="550.95831"
         style="font-style:normal;font-variant:normal;font-weight:normal;font-stretch:normal;font-size:55px;font-family:Montserrat-Regular, Montserrat;-inkscape-font-specification:'Montserrat-Regular, Montserrat';text-align:start;text-anchor:start;fill:#4a4c4d;fill-opacity:1;"
         id="tspan5279" /></tspan><tspan
       sodipodi:role="line"
       x="1811.0232"
       y="619.70831"
       id="tspan5285"><tspan
         x="1811.0232"
         y="619.70831"
         style="font-style:normal;font-variant:normal;font-weight:normal;font-stretch:normal;font-size:55px;font-family:Montserrat-Regular, Montserrat;-inkscape-font-specification:'Montserrat-Regular, Montserrat';text-align:start;text-anchor:start;fill:#4a4c4d;fill-opacity:1;"
         id="tspan5283">vulnerabilities</tspan></tspan></text>
  <text
     xml:space="preserve"
     style="font-style:normal;font-weight:normal;font-size:40px;line-height:1.25;font-family:sans-serif;text-align:start;letter-spacing:0px;word-spacing:0px;text-anchor:start;fill:#000000;fill-opacity:1;stroke:none;"
     x="1591.1167"
     y="762.07404"
     id="text5257"><tspan
       sodipodi:role="line"
       x="1649.6885"
       y="762.07404"
       id="tspan5249"
       style="font-size:55px;text-align:start;text-anchor:start;"><tspan
         x="1649.6885"
         y="762.07404"
         style="font-style:normal;font-variant:normal;font-weight:bold;font-stretch:normal;font-size:55px;font-family:Montserrat-Regular, Montserrat;-inkscape-font-specification:'Montserrat-Regular, Montserrat Bold';text-align:start;text-anchor:start;fill:#f73435;fill-opacity:1;"
         id="tspan5245"
         dx="0 0 0">5.</tspan></tspan><tspan
       sodipodi:role="line"
       x="1790.4111"
       y="0"
       id="tspan5255"
       style="font-size:55px;text-align:start;text-anchor:start;"><tspan
         x="1359.542"
         y="830.82404"
         style="font-style:normal;font-variant:normal;font-weight:normal;font-stretch:normal;font-size:55px;font-family:Montserrat-Regular, Montserrat;-inkscape-font-specification:'Montserrat-Regular, Montserrat';text-align:start;text-anchor:start;fill:#4a4c4d;fill-opacity:1;"
         id="tspan5251">Checks finding </tspan><tspan
         x="1790.4111"
         y="830.82404"
         style="font-style:normal;font-variant:normal;font-weight:normal;font-stretch:normal;font-size:55px;font-family:Montserrat-Regular, Montserrat;-inkscape-font-specification:'Montserrat-Regular, Montserrat';text-align:start;text-anchor:start;fill:#4a4c4d;fill-opacity:1;"
         id="tspan5253">closing</tspan></tspan></text>
  <text
     xml:space="preserve"
     style="font-style:normal;font-weight:normal;font-size:40px;line-height:1.25;font-family:sans-serif;text-align:start;letter-spacing:0px;word-spacing:0px;text-anchor:start;fill:#000000;fill-opacity:1;stroke:none;"
     x="1450.1046"
     y="1186.618"
     id="text5377"><tspan
       sodipodi:role="line"
       x="1741.9758"
       y="1186.618"
       id="tspan5371"><tspan
         x="1741.9758"
         y="1186.618"
         style="font-style:normal;font-variant:normal;font-weight:bold;font-stretch:normal;font-size:55px;font-family:Montserrat-Bold, Montserrat;-inkscape-font-specification:'Montserrat-Bold, Montserrat Bold';fill:#f73435;fill-opacity:1;text-anchor:start;text-align:start;"
         id="tspan5367">6.</tspan><tspan
         dx="0"
         x="1791.927"
         y="1186.618"
         style="font-style:normal;font-variant:normal;font-weight:bold;font-stretch:normal;font-size:55px;font-family:Montserrat-Bold, Montserrat;-inkscape-font-specification:'Montserrat-Bold, Montserrat Bold';fill:#f73435;fill-opacity:1;text-anchor:start;text-align:start;"
         id="tspan5369" /></tspan><tspan
       sodipodi:role="line"
       x="1472.7229"
       y="1255.3679"
       id="tspan5375"><tspan
         x="1472.7229"
         y="1255.3679"
         style="font-style:normal;font-variant:normal;font-weight:normal;font-stretch:normal;font-size:55px;font-family:Montserrat-Regular, Montserrat;-inkscape-font-specification:'Montserrat-Regular, Montserrat';fill:#4a4c4d;fill-opacity:1;text-anchor:start;text-align:start;"
         id="tspan5373">Continuous checking</tspan></tspan></text>
</svg>
