<?xml version="1.0" encoding="UTF-8"?>
<svg width="13px" height="21px" viewBox="0 0 13 21" version="1.1" xmlns="http://www.w3.org/2000/svg" xmlns:xlink="http://www.w3.org/1999/xlink">
    <!-- Generator: Sketch 51.1 (57501) - http://www.bohemiancoding.com/sketch -->
    <title>flecha2</title>
    <desc>Created with Sketch.</desc>
    <defs>
        <path d="M1.247,1.427 L1.179,1.496 C0.457,2.254 0.473,3.453 1.219,4.195 L7.493,10.412 L0.959,17.005 C0.223,17.747 0.215,18.939 0.933,19.692 L0.998,19.757 C1.756,20.48 2.958,20.467 3.698,19.719 L11.589,11.756 C12.339,11 12.335,9.78 11.578,9.03 L3.934,1.454 C3.558,1.082 3.067,0.896 2.577,0.896 C2.098,0.896 1.619,1.073 1.247,1.427 Z" id="path-1"></path>
    </defs>
    <g id="Page-1" stroke="none" stroke-width="1" fill="none" fill-rule="evenodd">
        <g id="flecha2">
            <mask id="mask-2" fill="white">
                <use xlink:href="#path-1"></use>
            </mask>
            <g id="Clip-2"></g>
            <polygon id="Fill-1" fill="#F73435" mask="url(#mask-2)" points="-11.0924 10.7167 2.3296 24.1387 16.0326 10.4357 2.6106 -2.9863"></polygon>
        </g>
    </g>
</svg>
