<?xml version="1.0" encoding="utf-8"?>
<!-- Generator: Adobe Illustrator 22.1.0, SVG Export Plug-In . SVG Version: 6.00 Build 0)  -->
<svg version="1.1" id="Layer_1" xmlns="http://www.w3.org/2000/svg" xmlns:xlink="http://www.w3.org/1999/xlink" x="0px" y="0px"
   viewBox="0 0 291 291" style="enable-background:new 0 0 291 291;" xml:space="preserve">
<style type="text/css">
  .st0{fill:#FFFFFF;}
  .st1{fill:#ACACAC;stroke:#FFFFFF;stroke-width:1.5;}
  .st2{fill:#ACACAC;stroke:#FFFFFF;stroke-width:1.8175;stroke-linecap:round;stroke-linejoin:round;}
  .st3{fill:#F73435;}
</style>
<title>11Extracci贸n_informaci贸n</title>
<desc>Created with Sketch.</desc>
<g id="Page-1">
  <g id="_x31_1Extracci贸n_x5F_informaci贸n-" transform="translate(-5.000000, -4.000000)">
    <g id="Group">

        <image style="overflow:visible;opacity:0.15;enable-background:new    ;" width="300" height="300" id="Bitmap" xlink:href="157EBFE8A0FC67DA.png"  transform="matrix(0.9967 0 0 0.9967 0.7687 0.1021)">
      </image>
      <path id="Shape" class="st0" d="M71.4,32.6c-21.2,0-38.5,17.3-38.5,38.5V72v156.2v38.5h38.5h157.1c21.2,0,38.5-17.3,38.5-38.5
        V71.1V32.6H71.4z"/>
    </g>
    <path id="Shape_1_" class="st1" d="M178,112.2h-17.3V90.6c0-7.3-5.6-12.9-12.9-12.9h-34.5c-7.3,0-12.9,5.6-12.9,12.9v21.6H83.1
      c-2.6,0-4.3,1.7-4.3,4.3v95c0,2.6,1.7,4.3,4.3,4.3h95c2.6,0,4.3-1.7,4.3-4.3v-95C182.4,114,180.6,112.2,178,112.2z M109,90.6
      c0-2.6,1.7-4.3,4.3-4.3h34.5c2.6,0,4.3,1.7,4.3,4.3v21.6H109V90.6z M173.7,207.2H87.4v-86.3h86.3V207.2z"/>
    <path id="Shape_2_" class="st2" d="M143.5,172.7h-8.6v-18.1c5.2-1.7,8.6-6.5,8.6-12.1c0-7.3-5.6-12.9-12.9-12.9
      c-7.3,0-12.9,5.6-12.9,12.9c0,5.6,3.5,10.4,8.6,12.1v18.1h-8.6v8.6h25.9v-8.6H143.5z M130.6,138.1c2.6,0,4.3,1.7,4.3,4.3
      c0,2.6-1.7,4.3-4.3,4.3c-2.6,0-4.3-1.7-4.3-4.3C126.2,139.9,128,138.1,130.6,138.1z"/>
    <rect id="Rectangle-path" x="100.3" y="189.9" class="st2" width="8.6" height="8.6"/>
    <rect id="Rectangle-path_1_" x="117.6" y="189.9" class="st2" width="8.6" height="8.6"/>
    <rect id="Rectangle-path_2_" x="134.9" y="189.9" class="st2" width="8.6" height="8.6"/>
    <rect id="Rectangle-path_3_" x="152.1" y="189.9" class="st2" width="8.6" height="8.6"/>
    <rect id="Rectangle-path_4_" x="168.3" y="131.7" class="st0" width="20" height="56"/>
    <path id="Shape_3_" class="st3" d="M215.1,160.8l18.3,18.5c1.7,1.7,4.5,1.7,6.3,0c1.7-1.7,1.7-4.5,0-6.3l-15.1-15.3l14.5-14.4
      c1.7-1.7,1.7-4.5,0-6.3c-1.7-1.7-4.5-1.7-6.3,0l-17.7,17.5C213.4,156.3,213.3,159.1,215.1,160.8z"/>
    <path id="Shape_4_" class="st3" d="M185.6,160.8l18.3,18.5c1.7,1.7,4.5,1.7,6.3,0c1.7-1.7,1.7-4.5,0-6.3l-15.1-15.3l14.5-14.4
      c1.7-1.7,1.7-4.5,0-6.3c-1.7-1.7-4.5-1.7-6.3,0l-17.7,17.5C183.9,156.3,183.8,159.1,185.6,160.8z"/>
    <path id="Shape_5_" class="st3" d="M156.1,160.8l18.3,18.5c1.7,1.7,4.5,1.7,6.3,0c1.7-1.7,1.7-4.5,0-6.3l-15.1-15.3l14.5-14.4
      c1.7-1.7,1.7-4.5,0-6.3c-1.7-1.7-4.5-1.7-6.3,0l-17.7,17.5C154.4,156.3,154.3,159.1,156.1,160.8z"/>
  </g>
</g>
</svg>
