<?xml version="1.0" encoding="UTF-8"?>
<svg width="212px" height="212px" viewBox="0 0 212 212" version="1.1" xmlns="http://www.w3.org/2000/svg" xmlns:xlink="http://www.w3.org/1999/xlink">
    <!-- Generator: Sketch 48.2 (47327) - http://www.bohemiancoding.com/sketch -->
    <title>flui02</title>
    <desc>Created with Sketch.</desc>
    <defs>
        <path d="M26.6297825,0 C11.9829709,0 0,11.9835853 0,26.6303369 L0,27.2845178 L0,135.369663 L0,162 L26.6297825,162 L135.370217,162 C150.016366,162 162,150.016415 162,135.369663 L162,26.6303369 L162,0 L26.6297825,0 Z" id="path-1"></path>
        <filter x="-23.1%" y="-23.1%" width="146.3%" height="146.3%" filterUnits="objectBoundingBox" id="filter-2">
            <feOffset dx="0" dy="0" in="SourceAlpha" result="shadowOffsetOuter1"></feOffset>
            <feGaussianBlur stdDeviation="12.5" in="shadowOffsetOuter1" result="shadowBlurOuter1"></feGaussianBlur>
            <feColorMatrix values="0 0 0 0 0   0 0 0 0 0   0 0 0 0 0  0 0 0 0.2325351 0" type="matrix" in="shadowBlurOuter1"></feColorMatrix>
        </filter>
        <polygon id="path-3" points="0 0.306621926 19.3837701 0.306621926 19.3837701 32.3020392 0 32.3020392"></polygon>
    </defs>
    <g id="Page-1" stroke="none" stroke-width="1" fill="none" fill-rule="evenodd">
        <g id="flui02" transform="translate(25.000000, 25.000000)">
            <g id="Group-4-Copy">
                <g id="Page-1">
                    <g id="Fill-2">
                        <use fill="black" fill-opacity="1" filter="url(#filter-2)" xlink:href="#path-1"></use>
                        <use fill="#FFFFFF" fill-rule="evenodd" xlink:href="#path-1"></use>
                    </g>
                </g>
            </g>
            <g id="Page-1" transform="translate(30.000000, 33.000000)">
                <path d="M100.634458,52.7808824 L88.0220877,40.2827941 C86.7743342,39.0463971 84.7601836,39.0554779 83.5236082,40.3030515 C82.2863342,41.5513235 82.2947178,43.5651838 83.5431699,44.8015809 L93.8954712,55.0608824 L83.1149096,65.9369853 C81.8776356,67.1852574 81.8867178,69.1984191 83.1351699,70.4348162 C84.3829233,71.6719118 86.397074,71.6628309 87.6336493,70.4152574 L100.654718,57.2787132 C101.891992,56.0311397 101.882211,54.0179779 100.634458,52.7808824" id="Fill-1" fill="#F73435"></path>
                <g id="Group-5" transform="translate(0.000000, 39.054779)">
                    <mask id="mask-4" fill="white">
                        <use xlink:href="#path-3"></use>
                    </mask>
                    <g id="Clip-4"></g>
                    <path d="M0.942172603,13.7261029 L13.5545425,1.22801471 C14.8022959,-0.00838235294 16.8157479,0.000698529412 18.0530219,1.24827206 C19.2902959,2.49654412 19.2812137,4.51040441 18.0334603,5.74680147 L7.6811589,16.0061029 L18.4617205,26.8822059 C19.6989945,28.1304779 19.6899123,30.1436397 18.4414603,31.3800368 C17.1937068,32.6171324 15.1795562,32.6080515 13.9429808,31.3604779 L0.921912329,18.2239338 C-0.315361644,16.9763603 -0.306279452,14.9631985 0.942172603,13.7261029" id="Fill-3" fill="#F73435" mask="url(#mask-4)"></path>
                </g>
                <path d="M40.830111,90.4919706 C38.1082479,87.5302059 36.7487137,83.9306838 36.7487137,79.6968971 C36.7487137,75.3785882 38.1082479,71.8028162 40.830111,68.9653897 C43.5505767,66.1300588 47.044426,64.7106471 51.3102616,64.7106471 C55.5747,64.7106471 59.0685493,66.1300588 61.7904123,68.9653897 C64.5101795,71.8028162 65.8718096,75.3785882 65.8718096,79.6968971 C65.8718096,83.9306838 64.5101795,87.5302059 61.7904123,90.4919706 C59.0685493,93.4572279 55.5747,94.9367132 51.3102616,94.9367132 C47.044426,94.9367132 43.5505767,93.4572279 40.830111,90.4919706 Z M36.417563,0.000279411765 L66.2029603,0.000279411765 L61.2384945,54.8662721 L41.3820288,54.8662721 L36.417563,0.000279411765 Z" id="Stroke-6" stroke="#A8A9A8" stroke-width="4" stroke-linecap="round" stroke-linejoin="round"></path>
            </g>
        </g>
    </g>
</svg>
