<?xml version="1.0" encoding="UTF-8"?>
<svg width="212px" height="212px" viewBox="0 0 212 212" version="1.1" xmlns="http://www.w3.org/2000/svg" xmlns:xlink="http://www.w3.org/1999/xlink">
    <!-- Generator: Sketch 48.2 (47327) - http://www.bohemiancoding.com/sketch -->
    <title>flui04</title>
    <desc>Created with Sketch.</desc>
    <defs>
        <path d="M26.6297825,0 C11.9829709,0 0,11.9835853 0,26.6303369 L0,27.2845178 L0,135.369663 L0,162 L26.6297825,162 L135.370217,162 C150.016366,162 162,150.016415 162,135.369663 L162,26.6303369 L162,0 L26.6297825,0 Z" id="path-1"></path>
        <filter x="-23.1%" y="-23.1%" width="146.3%" height="146.3%" filterUnits="objectBoundingBox" id="filter-2">
            <feOffset dx="0" dy="0" in="SourceAlpha" result="shadowOffsetOuter1"></feOffset>
            <feGaussianBlur stdDeviation="12.5" in="shadowOffsetOuter1" result="shadowBlurOuter1"></feGaussianBlur>
            <feColorMatrix values="0 0 0 0 0   0 0 0 0 0   0 0 0 0 0  0 0 0 0.2325351 0" type="matrix" in="shadowBlurOuter1"></feColorMatrix>
        </filter>
        <polygon id="path-3" points="0.524539877 0.522683453 113.995804 0.522683453 113.995804 96.9092806 0.524539877 96.9092806"></polygon>
    </defs>
    <g id="Page-1" stroke="none" stroke-width="1" fill="none" fill-rule="evenodd">
        <g id="flui04" transform="translate(25.000000, 25.000000)">
            <g id="Group-4-Copy-3">
                <g id="Page-1">
                    <g id="Fill-2">
                        <use fill="black" fill-opacity="1" filter="url(#filter-2)" xlink:href="#path-1"></use>
                        <use fill="#FFFFFF" fill-rule="evenodd" xlink:href="#path-1"></use>
                    </g>
                </g>
            </g>
            <g id="Page-1" transform="translate(29.000000, 26.000000)">
                <mask id="mask-4" fill="white">
                    <use xlink:href="#path-3"></use>
                </mask>
                <g id="Clip-2"></g>
                <path d="M6.56234356,90.8855108 L66.9368834,90.8855108 L66.9368834,30.6443237 L6.56234356,30.6443237 L6.56234356,90.8855108 Z M21.6558037,9.55973381 C21.6558037,7.75232374 22.8629448,6.54715108 24.6743558,6.54715108 L48.8241718,6.54715108 C50.6355828,6.54715108 51.8427239,7.75232374 51.8427239,9.55973381 L51.8427239,24.6198561 L21.6558037,24.6198561 L21.6558037,9.55973381 Z M69.9554356,24.6198561 L57.8805276,24.6198561 L57.8805276,9.55973381 C57.8805276,4.43897122 53.9562699,0.522683453 48.8241718,0.522683453 L24.6743558,0.522683453 C19.5422577,0.522683453 15.618,4.43897122 15.618,9.55973381 L15.618,24.6198561 L3.54309202,24.6198561 C1.73168098,24.6198561 0.524539877,25.8243309 0.524539877,27.631741 L0.524539877,93.8973957 C0.524539877,95.7048058 1.73168098,96.9092806 3.54309202,96.9092806 L69.9554356,96.9092806 C71.7668466,96.9092806 72.9739877,95.7048058 72.9739877,93.8973957 L72.9739877,27.631741 C72.9739877,25.8243309 71.7668466,24.6198561 69.9554356,24.6198561 Z" id="Fill-1" fill="#AEAEAE" mask="url(#mask-4)"></path>
                <path d="M6.56234356,90.8855108 L66.9368834,90.8855108 L66.9368834,30.6443237 L6.56234356,30.6443237 L6.56234356,90.8855108 Z M21.6558037,9.55973381 C21.6558037,7.75232374 22.8629448,6.54715108 24.6743558,6.54715108 L48.8241718,6.54715108 C50.6355828,6.54715108 51.8427239,7.75232374 51.8427239,9.55973381 L51.8427239,24.6198561 L21.6558037,24.6198561 L21.6558037,9.55973381 Z M69.9554356,24.6198561 L57.8805276,24.6198561 L57.8805276,9.55973381 C57.8805276,4.43897122 53.9562699,0.522683453 48.8241718,0.522683453 L24.6743558,0.522683453 C19.5422577,0.522683453 15.618,4.43897122 15.618,9.55973381 L15.618,24.6198561 L3.54309202,24.6198561 C1.73168098,24.6198561 0.524539877,25.8243309 0.524539877,27.631741 L0.524539877,93.8973957 C0.524539877,95.7048058 1.73168098,96.9092806 3.54309202,96.9092806 L69.9554356,96.9092806 C71.7668466,96.9092806 72.9739877,95.7048058 72.9739877,93.8973957 L72.9739877,27.631741 C72.9739877,25.8243309 71.7668466,24.6198561 69.9554356,24.6198561 Z" id="Stroke-3" stroke="#FFFFFF" stroke-width="2" mask="url(#mask-4)"></path>
                <path d="M36.7492638,42.6918633 C38.5606748,42.6918633 39.767816,43.897036 39.767816,45.7037482 C39.767816,47.5111583 38.5606748,48.7163309 36.7492638,48.7163309 C34.9378528,48.7163309 33.7307117,47.5111583 33.7307117,45.7037482 C33.7307117,43.897036 34.9378528,42.6918633 36.7492638,42.6918633 Z M45.8056196,66.7883381 L39.767816,66.7883381 L39.767816,54.1378633 C43.390638,52.9333885 45.8056196,49.620036 45.8056196,45.7037482 C45.8056196,40.5836835 41.881362,36.6680935 36.7492638,36.6680935 C31.6171656,36.6680935 27.692908,40.5836835 27.692908,45.7037482 C27.692908,49.620036 30.1078896,52.9333885 33.7307117,54.1378633 L33.7307117,66.7883381 L27.692908,66.7883381 L27.692908,72.8128058 L45.8056196,72.8128058 L45.8056196,66.7883381 Z" id="Fill-4" fill="#AEAEAE" mask="url(#mask-4)"></path>
                <path d="M36.7492638,42.6918633 C38.5606748,42.6918633 39.767816,43.897036 39.767816,45.7037482 C39.767816,47.5111583 38.5606748,48.7163309 36.7492638,48.7163309 C34.9378528,48.7163309 33.7307117,47.5111583 33.7307117,45.7037482 C33.7307117,43.897036 34.9378528,42.6918633 36.7492638,42.6918633 Z M45.8056196,66.7883381 L39.767816,66.7883381 L39.767816,54.1378633 C43.390638,52.9333885 45.8056196,49.620036 45.8056196,45.7037482 C45.8056196,40.5836835 41.881362,36.6680935 36.7492638,36.6680935 C31.6171656,36.6680935 27.692908,40.5836835 27.692908,45.7037482 C27.692908,49.620036 30.1078896,52.9333885 33.7307117,54.1378633 L33.7307117,66.7883381 L27.692908,66.7883381 L27.692908,72.8128058 L45.8056196,72.8128058 L45.8056196,66.7883381 Z" id="Stroke-5" stroke="#FFFFFF" stroke-width="1.2726" stroke-linecap="round" stroke-linejoin="round" mask="url(#mask-4)"></path>
                <polygon id="Fill-6" fill="#AEAEAE" mask="url(#mask-4)" points="15.618 84.8610432 21.6551043 84.8610432 21.6551043 78.8372734 15.618 78.8372734"></polygon>
                <polygon id="Stroke-7" stroke="#FFFFFF" stroke-width="1.2726" stroke-linecap="round" stroke-linejoin="round" mask="url(#mask-4)" points="15.618 84.8610432 21.6551043 84.8610432 21.6551043 78.8372734 15.618 78.8372734"></polygon>
                <polygon id="Fill-8" fill="#AEAEAE" mask="url(#mask-4)" points="27.692908 84.8610432 33.7307117 84.8610432 33.7307117 78.8372734 27.692908 78.8372734"></polygon>
                <polygon id="Stroke-9" stroke="#FFFFFF" stroke-width="1.2726" stroke-linecap="round" stroke-linejoin="round" mask="url(#mask-4)" points="27.692908 84.8610432 33.7307117 84.8610432 33.7307117 78.8372734 27.692908 78.8372734"></polygon>
                <polygon id="Fill-10" fill="#AEAEAE" mask="url(#mask-4)" points="39.767816 84.8610432 45.8056196 84.8610432 45.8056196 78.8372734 39.767816 78.8372734"></polygon>
                <polygon id="Stroke-11" stroke="#FFFFFF" stroke-width="1.2726" stroke-linecap="round" stroke-linejoin="round" mask="url(#mask-4)" points="39.767816 84.8610432 45.8056196 84.8610432 45.8056196 78.8372734 39.767816 78.8372734"></polygon>
                <polygon id="Fill-12" fill="#AEAEAE" mask="url(#mask-4)" points="51.8427239 84.8610432 57.8805276 84.8610432 57.8805276 78.8372734 51.8427239 78.8372734"></polygon>
                <polygon id="Stroke-13" stroke="#FFFFFF" stroke-width="1.2726" stroke-linecap="round" stroke-linejoin="round" mask="url(#mask-4)" points="51.8427239 84.8610432 57.8805276 84.8610432 57.8805276 78.8372734 51.8427239 78.8372734"></polygon>
                <polygon id="Fill-14" fill="#FFFFFF" mask="url(#mask-4)" points="63.1664908 77.2643381 77.1542209 77.2643381 77.1542209 38.1852014 63.1664908 38.1852014"></polygon>
                <path d="M71.806362,54.1483309 L59.4139325,41.8935324 C58.187908,40.6806835 56.2093436,40.6897554 54.9938098,41.9137698 C53.7782761,43.1370863 53.7866687,45.1119784 55.0133926,46.3241295 L65.1852699,56.383518 L54.592362,67.0486331 C53.3768282,68.2719496 53.3859202,70.2461439 54.6119448,71.4596906 C55.8386687,72.6718417 57.8172331,72.6627698 59.0320675,71.4394532 L71.8266442,58.5586906 C73.0421779,57.3346763 73.0323865,55.3611799 71.806362,54.1483309" id="Fill-15" fill="#F73435" mask="url(#mask-4)"></path>
                <path d="M92.4382638,54.1483309 L80.0458344,41.8935324 C78.8198098,40.6806835 76.8412454,40.6897554 75.6257117,41.9137698 C74.4101779,43.1370863 74.4185706,45.1119784 75.6445951,46.3241295 L85.8171718,56.383518 L75.2242638,67.0486331 C74.0087301,68.2719496 74.0178221,70.2461439 75.2438466,71.4596906 C76.4698712,72.6718417 78.449135,72.6627698 79.6639693,71.4394532 L92.458546,58.5586906 C93.6740798,57.3346763 93.6642883,55.3611799 92.4382638,54.1483309" id="Fill-16" fill="#F73435" mask="url(#mask-4)"></path>
                <path d="M113.070166,54.1483309 L100.677736,41.8935324 C99.4517117,40.6806835 97.4731472,40.6897554 96.2576135,41.9137698 C95.0420798,43.1370863 95.0504724,45.1119784 96.2764969,46.3241295 L106.449074,56.383518 L95.8561656,67.0486331 C94.6406319,68.2719496 94.6497239,70.2461439 95.8757485,71.4596906 C97.101773,72.6718417 99.0810368,72.6627698 100.295871,71.4394532 L113.090448,58.5586906 C114.305982,57.3346763 114.29619,55.3611799 113.070166,54.1483309" id="Fill-17" fill="#F73435" mask="url(#mask-4)"></path>
            </g>
        </g>
    </g>
</svg>
