<?xml version="1.0" encoding="UTF-8"?>
<svg width="212px" height="212px" viewBox="0 0 212 212" version="1.1" xmlns="http://www.w3.org/2000/svg" xmlns:xlink="http://www.w3.org/1999/xlink">
    <!-- Generator: Sketch 48.2 (47327) - http://www.bohemiancoding.com/sketch -->
    <title>flui05</title>
    <desc>Created with Sketch.</desc>
    <defs>
        <path d="M26.6297825,0 C11.9829709,0 0,11.9835853 0,26.6303369 L0,27.2845178 L0,135.369663 L0,162 L26.6297825,162 L135.370217,162 C150.016366,162 162,150.016415 162,135.369663 L162,26.6303369 L162,0 L26.6297825,0 Z" id="path-1"></path>
        <filter x="-23.1%" y="-23.1%" width="146.3%" height="146.3%" filterUnits="objectBoundingBox" id="filter-2">
            <feOffset dx="0" dy="0" in="SourceAlpha" result="shadowOffsetOuter1"></feOffset>
            <feGaussianBlur stdDeviation="12.5" in="shadowOffsetOuter1" result="shadowBlurOuter1"></feGaussianBlur>
            <feColorMatrix values="0 0 0 0 0   0 0 0 0 0   0 0 0 0 0  0 0 0 0.2325351 0" type="matrix" in="shadowBlurOuter1"></feColorMatrix>
        </filter>
        <polygon id="path-3" points="0 0.423541245 64.2993679 0.423541245 64.2993679 52.1970329 0 52.1970329"></polygon>
        <polygon id="path-5" points="0 101.88263 110.720057 101.88263 110.720057 0 0 0"></polygon>
    </defs>
    <g id="Page-1" stroke="none" stroke-width="1" fill="none" fill-rule="evenodd">
        <g id="flui05" transform="translate(25.000000, 25.000000)">
            <g id="Group-4-Copy-4">
                <g id="Page-1">
                    <g id="Fill-2">
                        <use fill="black" fill-opacity="1" filter="url(#filter-2)" xlink:href="#path-1"></use>
                        <use fill="#FFFFFF" fill-rule="evenodd" xlink:href="#path-1"></use>
                    </g>
                </g>
            </g>
            <g id="Group-6" transform="translate(31.000000, 30.000000)">
                <g id="Page-1">
                    <g id="Group-3" transform="translate(0.000000, 10.362082)">
                        <mask id="mask-4" fill="white">
                            <use xlink:href="#path-3"></use>
                        </mask>
                        <g id="Clip-2"></g>
                        <path d="M21.6118396,25.7434027 L18.7537642,18.2366219 L24.4699151,18.2366219 L21.6118396,25.7434027 Z M14.824783,18.2366219 L19.8253679,31.4637863 C20.0040849,31.9996356 20.7189528,32.5361836 21.4331226,32.5361836 C22.1472925,32.5361836 22.8621604,31.9996356 23.3976132,31.4637863 L28.3988962,18.2366219 L30.3633868,18.2366219 C30.5421038,18.2366219 30.8995377,18.2366219 31.0782547,18.0577726 L60.7271226,4.83060822 L60.7271226,10.0144438 L38.5794811,20.2025671 L40.0085189,23.4197589 L63.2277642,12.6950877 C63.941934,12.3380877 64.2993679,11.8015397 64.2993679,11.0868411 L64.2993679,2.14996438 C64.2993679,1.61341644 63.941934,0.898019178 63.5851981,0.719868493 C63.0490472,0.362169863 62.3348774,0.362169863 61.7987264,0.541019178 L30.0066509,14.6617315 L12.5028585,14.6617315 C5.53708491,14.6617315 -0.000349056604,20.2025671 -0.000349056604,27.1734986 L-0.000349056604,52.1970329 L3.57189623,52.1970329 L3.57189623,27.1734986 C3.57189623,22.169211 7.50157547,18.2366219 12.5028585,18.2366219 L14.824783,18.2366219 Z" id="Fill-1" fill="#A8A9A8" mask="url(#mask-4)"></path>
                    </g>
                    <path d="M30.363666,98.308089 L23.2191755,98.308089 L23.2191755,64.3469795 L19.6469302,64.3469795 L19.6469302,98.308089 L12.5024396,98.308089 L12.5024396,39.3227466 L8.93019434,39.3227466 L8.93019434,100.095185 C8.93019434,101.167582 9.64506226,101.882281 10.716666,101.882281 L21.4334019,101.882281 L32.1494396,101.882281 C33.2217415,101.882281 33.9359113,101.167582 33.9359113,100.095185 L33.9359113,39.3227466 L30.363666,39.3227466 L30.363666,98.308089 Z" id="Fill-4" fill="#A8A9A8"></path>
                    <mask id="mask-6" fill="white">
                        <use xlink:href="#path-5"></use>
                    </mask>
                    <g id="Clip-7"></g>
                    <polygon id="Fill-6" fill="#A8A9A8" mask="url(#mask-6)" points="19.647 50.0470685 23.2192453 50.0470685 23.2192453 46.4728767 19.647 46.4728767"></polygon>
                    <polygon id="Fill-8" fill="#A8A9A8" mask="url(#mask-6)" points="19.647 57.1975479 23.2192453 57.1975479 23.2192453 53.6226575 19.647 53.6226575"></polygon>
                    <path d="M14.2887717,8.93666712 C14.2887717,5.89832466 16.6106962,3.57468082 19.6467906,3.57468082 L23.2190358,3.57468082 C26.2558283,3.57468082 28.5777528,5.89832466 28.5777528,8.93666712 L28.5777528,14.2993521 C28.5777528,17.3376945 26.2558283,19.662037 23.2190358,19.662037 L19.6467906,19.662037 C16.6106962,19.662037 14.2887717,17.3376945 14.2887717,14.2993521 L14.2887717,8.93666712 Z M19.6467906,23.2362288 L23.2190358,23.2362288 C28.2203189,23.2362288 32.1493,19.3043384 32.1493,14.2993521 L32.1493,8.93666712 C32.1493,3.93237945 28.2203189,-0.000209589041 23.2190358,-0.000209589041 L19.6467906,-0.000209589041 C14.6462057,-0.000209589041 10.7165264,3.93237945 10.7165264,8.93666712 L10.7165264,14.2993521 C10.7165264,19.3043384 14.6462057,23.2362288 19.6467906,23.2362288 Z" id="Fill-9" fill="#A8A9A8" mask="url(#mask-6)"></path>
                    <polygon id="Fill-10" fill="#A8A9A8" mask="url(#mask-6)" points="39.294 98.3077397 42.8662453 98.3077397 42.8662453 94.7328493 39.294 94.7328493"></polygon>
                    <polygon id="Fill-11" fill="#A8A9A8" mask="url(#mask-6)" points="46.4384906 98.3077397 50.0107358 98.3077397 50.0107358 94.7328493 46.4384906 94.7328493"></polygon>
                    <polygon id="Fill-12" fill="#A8A9A8" mask="url(#mask-6)" points="39.294 69.7093151 42.8662453 69.7093151 42.8662453 66.1344247 39.294 66.1344247"></polygon>
                    <polygon id="Fill-13" fill="#A8A9A8" mask="url(#mask-6)" points="46.4384906 41.1101918 50.0107358 41.1101918 50.0107358 37.5353014 46.4384906 37.5353014"></polygon>
                    <polygon id="Fill-14" fill="#A8A9A8" mask="url(#mask-6)" points="53.5829811 41.1101918 57.1552264 41.1101918 57.1552264 37.5353014 53.5829811 37.5353014"></polygon>
                    <path d="M86.7584377,17.2356247 L74.3885698,4.96698082 C73.1647774,3.75276164 71.1898151,3.76184384 69.9764943,4.9872411 C68.7631736,6.21193973 68.7715509,8.18906301 69.9953434,9.40258356 L80.1494,19.473337 L69.5757774,30.1505014 C68.3624566,31.3752 68.3715321,33.3516247 69.5953245,34.5665425 C70.819117,35.780063 72.7947774,35.7709808 74.0074,34.5462822 L86.778683,21.6509671 C87.9920038,20.4255699 87.9822302,18.4498438 86.7584377,17.2356247" id="Fill-15" fill="#F73435" mask="url(#mask-6)"></path>
                    <path d="M107.701834,17.2356247 L95.331966,4.96698082 C94.1081736,3.75276164 92.1332113,3.76184384 90.9198906,4.9872411 C89.7065698,6.21193973 89.7149472,8.18906301 90.9387396,9.40258356 L101.092796,19.473337 L90.5191736,30.1505014 C89.3058528,31.3752 89.3149283,33.3516247 90.5387208,34.5665425 C91.7625132,35.780063 93.7381736,35.7709808 94.9507962,34.5462822 L107.722079,21.6509671 C108.9354,20.4255699 108.925626,18.4498438 107.701834,17.2356247" id="Fill-16" fill="#F73435" mask="url(#mask-6)"></path>
                    <path d="M68.6074943,68.2356247 L56.2376264,55.9669808 C55.013834,54.7527616 53.0388717,54.7618438 51.8255509,55.9872411 C50.6122302,57.2119397 50.6206075,59.189063 51.8450981,60.4025836 L61.9984566,70.473337 L51.424834,81.1505014 C50.2115132,82.3752 50.2205887,84.3516247 51.4443811,85.5665425 C52.6688717,86.780063 54.643834,86.7709808 55.8564566,85.5462822 L68.6277396,72.6509671 C69.8410604,71.4255699 69.8312868,69.4498438 68.6074943,68.2356247" id="Fill-17" fill="#F73435" mask="url(#mask-6)"></path>
                    <path d="M89.201834,68.2356247 L76.831966,55.9669808 C75.6081736,54.7527616 73.6332113,54.7618438 72.4198906,55.9872411 C71.2065698,57.2119397 71.2149472,59.189063 72.4387396,60.4025836 L82.5927962,70.473337 L72.0191736,81.1505014 C70.8058528,82.3752 70.8149283,84.3516247 72.0387208,85.5665425 C73.2625132,86.780063 75.2381736,86.7709808 76.4507962,85.5462822 L89.2220792,72.6509671 C90.4354,71.4255699 90.4256264,69.4498438 89.201834,68.2356247" id="Fill-18" fill="#F73435" mask="url(#mask-6)"></path>
                    <path d="M109.796174,68.2356247 L97.4263057,55.9669808 C96.2025132,54.7527616 94.2275509,54.7618438 93.0142302,55.9872411 C91.8009094,57.2119397 91.8092868,59.189063 93.0330792,60.4025836 L103.187136,70.473337 L92.6135132,81.1505014 C91.4001925,82.3752 91.4092679,84.3516247 92.6330604,85.5665425 C93.8568528,86.780063 95.8325132,86.7709808 97.0451358,85.5462822 L109.816419,72.6509671 C111.02974,71.4255699 111.019966,69.4498438 109.796174,68.2356247" id="Fill-19" fill="#F73435" mask="url(#mask-6)"></path>
                </g>
            </g>
        </g>
    </g>
</svg>
