<?xml version="1.0" encoding="UTF-8"?>
<svg width="212px" height="212px" viewBox="0 0 212 212" version="1.1" xmlns="http://www.w3.org/2000/svg" xmlns:xlink="http://www.w3.org/1999/xlink">
    <!-- Generator: Sketch 48.2 (47327) - http://www.bohemiancoding.com/sketch -->
    <title>flui01</title>
    <desc>Created with Sketch.</desc>
    <defs>
        <path d="M26.6297825,0 C11.9829709,0 0,11.9835853 0,26.6303369 L0,27.2845178 L0,135.369663 L0,162 L26.6297825,162 L135.370217,162 C150.016366,162 162,150.016415 162,135.369663 L162,26.6303369 L162,0 L26.6297825,0 Z" id="path-1"></path>
        <filter x="-23.1%" y="-23.1%" width="146.3%" height="146.3%" filterUnits="objectBoundingBox" id="filter-2">
            <feOffset dx="0" dy="0" in="SourceAlpha" result="shadowOffsetOuter1"></feOffset>
            <feGaussianBlur stdDeviation="12.5" in="shadowOffsetOuter1" result="shadowBlurOuter1"></feGaussianBlur>
            <feColorMatrix values="0 0 0 0 0   0 0 0 0 0   0 0 0 0 0  0 0 0 0.2325351 0" type="matrix" in="shadowBlurOuter1"></feColorMatrix>
        </filter>
        <polygon id="path-3" points="0 106.183206 108.954873 106.183206 108.954873 0.590902647 0 0.590902647"></polygon>
    </defs>
    <g id="Page-1" stroke="none" stroke-width="1" fill="none" fill-rule="evenodd">
        <g id="flui01" transform="translate(25.000000, 25.000000)">
            <g id="Group-4">
                <g id="Page-1">
                    <g id="Fill-2">
                        <use fill="black" fill-opacity="1" filter="url(#filter-2)" xlink:href="#path-1"></use>
                        <use fill="#FFFFFF" fill-rule="evenodd" xlink:href="#path-1"></use>
                    </g>
                </g>
            </g>
            <g id="Page-1" transform="translate(34.000000, 28.000000)">
                <polygon id="Fill-1" fill="#A8A9A8" points="0 76 0 107 75 107 75 103.555633 3.40902817 103.555633 3.40902817 79.444367 71.5909718 79.444367 71.5909718 93.2225321 75 93.2225321 75 76"></polygon>
                <polygon id="Fill-2" fill="#A8A9A8" points="0 1 0 32.4994332 3.40902817 32.4994332 3.40902817 36 6.81805635 36 6.81805635 32.4994332 68.1819437 32.4994332 68.1819437 36 71.5909718 36 71.5909718 32.4994332 75 32.4994332 75 28.9995749 3.40902817 28.9995749 3.40902817 4.50056678 75 4.50056678 75 1"></polygon>
                <g id="Group-26">
                    <path d="M42.8717134,15.9189311 C42.8717134,18.7362336 40.5639682,21.028136 37.7271911,21.028136 C34.8911083,21.028136 32.5826688,18.7362336 32.5826688,15.9189311 C32.5826688,13.1023181 34.8911083,10.8097262 37.7271911,10.8097262 C40.5639682,10.8097262 42.8717134,13.1023181 42.8717134,15.9189311 M29.1529873,15.9189311 C29.1529873,20.6144352 32.9992293,24.4349621 37.7271911,24.4349621 C42.4551529,24.4349621 46.3013949,20.6144352 46.3013949,15.9189311 C46.3013949,11.223427 42.4551529,7.40290007 37.7271911,7.40290007 C32.9992293,7.40290007 29.1529873,11.223427 29.1529873,15.9189311" id="Fill-3" fill="#A8A9A8"></path>
                    <mask id="mask-4" fill="white">
                        <use xlink:href="#path-3"></use>
                    </mask>
                    <g id="Clip-6"></g>
                    <polygon id="Fill-5" fill="#A8A9A8" mask="url(#mask-4)" points="49.7310764 17.6215857 53.160758 17.6215857 53.160758 14.2161386 49.7310764 14.2161386"></polygon>
                    <polygon id="Fill-7" fill="#A8A9A8" mask="url(#mask-4)" points="56.5911338 17.6215857 60.0208153 17.6215857 60.0208153 14.2161386 56.5911338 14.2161386"></polygon>
                    <polygon id="Fill-8" fill="#A8A9A8" mask="url(#mask-4)" points="15.4335669 17.6215857 18.8632484 17.6215857 18.8632484 14.2161386 15.4335669 14.2161386"></polygon>
                    <polygon id="Fill-9" fill="#A8A9A8" mask="url(#mask-4)" points="22.2936242 17.6215857 25.7233057 17.6215857 25.7233057 14.2161386 22.2936242 14.2161386"></polygon>
                    <path d="M42.8717134,53.3869854 C42.8717134,56.2042879 40.5639682,58.4961903 37.7271911,58.4961903 C34.8911083,58.4961903 32.5826688,56.2042879 32.5826688,53.3869854 C32.5826688,50.5703725 34.8911083,48.2777805 37.7271911,48.2777805 C40.5639682,48.2777805 42.8717134,50.5703725 42.8717134,53.3869854 M29.1529873,53.3869854 C29.1529873,58.083179 32.9992293,61.9030165 37.7271911,61.9030165 C42.4551529,61.9030165 46.3013949,58.083179 46.3013949,53.3869854 C46.3013949,48.6914813 42.4551529,44.8716439 37.7271911,44.8716439 C32.9992293,44.8716439 29.1529873,48.6914813 29.1529873,53.3869854" id="Fill-10" fill="#A8A9A8" mask="url(#mask-4)"></path>
                    <polygon id="Fill-11" fill="#A8A9A8" mask="url(#mask-4)" points="49.7310764 55.0904674 53.160758 55.0904674 53.160758 51.6843308 49.7310764 51.6843308"></polygon>
                    <polygon id="Fill-12" fill="#A8A9A8" mask="url(#mask-4)" points="56.5911338 55.0904674 60.0208153 55.0904674 60.0208153 51.6843308 56.5911338 51.6843308"></polygon>
                    <polygon id="Fill-13" fill="#A8A9A8" mask="url(#mask-4)" points="15.4335669 55.0904674 18.8632484 55.0904674 18.8632484 51.6843308 15.4335669 51.6843308"></polygon>
                    <polygon id="Fill-14" fill="#A8A9A8" mask="url(#mask-4)" points="22.2936242 55.0904674 25.7233057 55.0904674 25.7233057 51.6843308 22.2936242 51.6843308"></polygon>
                    <path d="M42.8717134,90.8550398 C42.8717134,93.6723422 40.5639682,95.9642447 37.7271911,95.9642447 C34.8911083,95.9642447 32.5826688,93.6723422 32.5826688,90.8550398 C32.5826688,88.0384268 34.8911083,85.7458348 37.7271911,85.7458348 C40.5639682,85.7458348 42.8717134,88.0384268 42.8717134,90.8550398 M29.1529873,90.8550398 C29.1529873,95.5512334 32.9992293,99.3710708 37.7271911,99.3710708 C42.4551529,99.3710708 46.3013949,95.5512334 46.3013949,90.8550398 C46.3013949,86.1595356 42.4551529,82.3396982 37.7271911,82.3396982 C32.9992293,82.3396982 29.1529873,86.1595356 29.1529873,90.8550398" id="Fill-15" fill="#A8A9A8" mask="url(#mask-4)"></path>
                    <polygon id="Fill-16" fill="#A8A9A8" mask="url(#mask-4)" points="49.7310764 92.5579702 53.160758 92.5579702 53.160758 89.1518335 49.7310764 89.1518335"></polygon>
                    <polygon id="Fill-17" fill="#A8A9A8" mask="url(#mask-4)" points="56.5911338 92.5579702 60.0208153 92.5579702 60.0208153 89.1518335 56.5911338 89.1518335"></polygon>
                    <polygon id="Fill-18" fill="#A8A9A8" mask="url(#mask-4)" points="15.4335669 92.5579702 18.8632484 92.5579702 18.8632484 89.1518335 15.4335669 89.1518335"></polygon>
                    <polygon id="Fill-19" fill="#A8A9A8" mask="url(#mask-4)" points="22.2936242 92.5579702 25.7233057 92.5579702 25.7233057 89.1518335 22.2936242 89.1518335"></polygon>
                    <polyline id="Fill-20" fill="#A8A9A8" mask="url(#mask-4)" points="71.7383847 65.3091531 3.42940382 65.3091531 3.42940382 41.4655073 72.0244229 41.4655073 72.0244229 38.0593707 -0.000277707006 38.0593707 -0.000277707006 68.7146002 3.42940382 68.7146002 3.42940382 72.1214263 6.85977962 72.1214263 6.85977962 68.7146002 68.5947414 68.7146002 68.5947414 72.1214263 72.0244229 72.1214263 72.0244229 68.7146002 72.0244229 67.0122214 72.0244229 65.6070176"></polyline>
                    <path d="M74.1151401,6.3392753 L66.3997452,15.9192069 L74.1151401,25.4991385 L76.7936242,23.3713374 L72.1621656,17.6215857 L80.5989045,17.6215857 C83.4356815,17.6215857 85.744121,19.9141777 85.744121,22.7307906 L85.744121,31.2468217 L89.1731083,31.2468217 L89.1731083,22.7307906 C89.1731083,18.035976 85.3268662,14.2161386 80.5989045,14.2161386 L72.1621656,14.2161386 L76.7936242,8.46776594 L74.1151401,6.3392753 Z" id="Fill-21" fill="#F73435" mask="url(#mask-4)"></path>
                    <path d="M77.8122535,86.1187861 L79.9561516,88.7788823 L85.7435656,84.1805978 L85.7435656,90.8549708 C85.7435656,93.6722733 83.4358204,95.9641757 80.5990433,95.9641757 L72.0248395,95.9641757 L72.0248395,99.3710018 L80.5990433,99.3710018 C85.3270051,99.3710018 89.1732471,95.5511644 89.1732471,90.8549708 L89.1732471,84.1805978 L94.9613554,88.7788823 L97.1045592,86.1187861 L87.4584064,78.4549787 L77.8122535,86.1187861 Z" id="Fill-22" fill="#F73435" mask="url(#mask-4)"></path>
                    <path d="M105.524983,57.2903215 C105.524983,60.5364938 103.708779,63.4558424 100.785218,64.9072427 L98.6656197,65.9594218 L98.6656197,70.4184269 C98.6656197,71.3561488 97.8970656,72.1214952 96.950779,72.1214952 L95.2359382,72.1214952 L95.2359382,65.309222 L91.8062567,65.309222 L91.8062567,72.1214952 L88.3758809,72.1214952 L88.3758809,65.309222 L84.9461994,65.309222 L84.9461994,72.1214952 L83.2313586,72.1214952 C82.285072,72.1214952 81.5165178,71.3561488 81.5165178,70.4184269 L81.5165178,65.9594218 L79.3969191,64.9072427 C76.4733586,63.4558424 74.6571548,60.5364938 74.6571548,57.2903215 L74.6571548,53.3870544 C74.6571548,44.936526 81.5803904,38.0587501 90.0914159,38.0587501 C98.6017471,38.0587501 105.524983,44.936526 105.524983,53.3870544 L105.524983,57.2903215 Z M74.6571548,65.6070866 C75.576365,66.5386029 76.6399828,67.346009 77.8625879,67.9520806 L78.0868363,68.0644694 L78.0868363,70.4184269 C78.0868363,73.2350399 80.3952758,75.5269424 83.2313586,75.5269424 L96.950779,75.5269424 C99.7868618,75.5269424 102.095301,73.2350399 102.095301,70.4184269 L102.095301,68.0644694 L102.31955,67.9541492 C106.412951,65.9208097 108.954664,61.8348248 108.954664,57.2903215 L108.954664,53.3870544 C108.954664,43.0576348 100.491543,34.653303 90.0914159,34.653303 C79.6905943,34.653303 71.2274732,43.0576348 71.2274732,53.3870544 L71.2274732,57.2903215 C71.2274732,60.3337804 72.3882885,63.1559093 74.3704223,65.309222 L74.6571548,65.6070866 Z" id="Fill-23" fill="#F73435" mask="url(#mask-4)"></path>
                    <path d="M83.231428,53.3869854 C82.2851414,53.3869854 81.5165873,52.6230179 81.5165873,51.6839171 C81.5165873,50.7455058 82.2851414,49.9815383 83.231428,49.9815383 C84.1784089,49.9815383 84.9462688,50.7455058 84.9462688,51.6839171 C84.9462688,52.6230179 84.1784089,53.3869854 83.231428,53.3869854 M83.231428,46.5747122 C80.3953452,46.5747122 78.0869057,48.8666147 78.0869057,51.6839171 C78.0869057,54.5005301 80.3953452,56.793122 83.231428,56.793122 C86.0675108,56.793122 88.3759503,54.5005301 88.3759503,51.6839171 C88.3759503,48.8666147 86.0675108,46.5747122 83.231428,46.5747122" id="Fill-24" fill="#F73435" mask="url(#mask-4)"></path>
                    <path d="M96.9507096,53.3869854 C96.0037287,53.3869854 95.2358688,52.6230179 95.2358688,51.6839171 C95.2358688,50.7455058 96.0037287,49.9815383 96.9507096,49.9815383 C97.8969962,49.9815383 98.6655503,50.7455058 98.6655503,51.6839171 C98.6655503,52.6230179 97.8969962,53.3869854 96.9507096,53.3869854 M96.9507096,46.5747122 C94.1146268,46.5747122 91.8061873,48.8666147 91.8061873,51.6839171 C91.8061873,54.5005301 94.1146268,56.793122 96.9507096,56.793122 C99.7867924,56.793122 102.095232,54.5005301 102.095232,51.6839171 C102.095232,48.8666147 99.7867924,46.5747122 96.9507096,46.5747122" id="Fill-25" fill="#F73435" mask="url(#mask-4)"></path>
                </g>
            </g>
        </g>
    </g>
</svg>
