<?xml version="1.0" encoding="UTF-8"?>
<svg width="212px" height="212px" viewBox="0 0 212 212" version="1.1" xmlns="http://www.w3.org/2000/svg" xmlns:xlink="http://www.w3.org/1999/xlink">
    <!-- Generator: Sketch 48.2 (47327) - http://www.bohemiancoding.com/sketch -->
    <title>flui03</title>
    <desc>Created with Sketch.</desc>
    <defs>
        <path d="M26.6297825,0 C11.9829709,0 0,11.9835853 0,26.6303369 L0,27.2845178 L0,135.369663 L0,162 L26.6297825,162 L135.370217,162 C150.016366,162 162,150.016415 162,135.369663 L162,26.6303369 L162,0 L26.6297825,0 Z" id="path-1"></path>
        <filter x="-23.1%" y="-23.1%" width="146.3%" height="146.3%" filterUnits="objectBoundingBox" id="filter-2">
            <feOffset dx="0" dy="0" in="SourceAlpha" result="shadowOffsetOuter1"></feOffset>
            <feGaussianBlur stdDeviation="12.5" in="shadowOffsetOuter1" result="shadowBlurOuter1"></feGaussianBlur>
            <feColorMatrix values="0 0 0 0 0   0 0 0 0 0   0 0 0 0 0  0 0 0 0.2325351 0" type="matrix" in="shadowBlurOuter1"></feColorMatrix>
        </filter>
    </defs>
    <g id="Page-1" stroke="none" stroke-width="1" fill="none" fill-rule="evenodd">
        <g id="flui03" transform="translate(25.000000, 25.000000)">
            <g id="Group-4-Copy-2">
                <g id="Page-1">
                    <g id="Fill-2">
                        <use fill="black" fill-opacity="1" filter="url(#filter-2)" xlink:href="#path-1"></use>
                        <use fill="#FFFFFF" fill-rule="evenodd" xlink:href="#path-1"></use>
                    </g>
                </g>
            </g>
            <g id="Page-1" transform="translate(21.000000, 37.000000)">
                <polyline id="Stroke-1" stroke="#A8A9A8" stroke-width="4.2" stroke-linecap="round" stroke-linejoin="round" points="48.1494382 0.696829358 48.1494382 75.5944807 124.780758 75.5944807"></polyline>
                <path d="M112.473455,14.6731596 L112.400421,30.7719119 C112.393399,32.3651229 111.087921,33.6501505 109.483287,33.6424807 C107.878652,33.6355083 106.583708,32.3393248 106.59073,30.7461138 L106.650421,17.5318752 L92.6658708,17.4698202 C91.0619382,17.4621505 89.7669944,16.165967 89.7740169,14.5720587 C89.7817416,12.9788477 91.0879213,11.6945174 92.6918539,11.7007927 L109.581601,11.7767927 C111.186236,11.7830679 112.480478,13.0806459 112.473455,14.6731596" id="Fill-3" fill="#F73435"></path>
                <path d="M99.7735253,27.2828147 L99.7004916,43.381567 C99.6934691,44.9740807 98.3879916,46.2598055 96.7833567,46.2521358 C95.1787219,46.2451633 93.8837781,44.9482826 93.8908006,43.3557688 L93.9504916,30.1415303 L79.965941,30.078778 C78.3613062,30.0718055 77.0670646,28.7749248 77.0740871,27.1817138 C77.0818118,25.5885028 78.3872893,24.3041725 79.9919242,24.3104477 L96.8816713,24.3857505 C98.4863062,24.3927229 99.7805478,25.6896037 99.7735253,27.2828147" id="Fill-5" fill="#F73435"></path>
                <path d="M87.0734551,39.8925394 L87.0004213,55.9912917 C86.9933989,57.5838055 85.6879213,58.8695303 84.0832865,58.8618606 C82.4786517,58.8548881 81.1837079,57.5580073 81.1907303,55.9654936 L81.2504213,42.751255 L67.2658708,42.6885028 C65.6619382,42.6815303 64.3669944,41.3846495 64.3747191,39.7914385 C64.3817416,38.1982275 65.6879213,36.9132 67.2918539,36.9201725 L84.1816011,36.9954752 C85.786236,37.0024477 87.0804775,38.2993284 87.0734551,39.8925394" id="Fill-7" fill="#F73435"></path>
                <path d="M30.5234551,56.5406532 C28.3893258,58.7286165 25.3485955,60.1726165 21.3998596,60.871956 L21.3998596,66.7009468 L13.9426966,66.7009468 L13.9426966,61.1355156 C11.298736,60.9946716 8.76853933,60.5923596 6.35421348,59.9271853 C3.93848315,59.262011 1.9377809,58.439956 0.351404494,57.4589284 L4.37106742,48.4267817 C6.13300562,49.4426716 8.10702247,50.2570569 10.2938202,50.8685431 C12.4792135,51.4814239 14.5782303,51.7882128 16.5873596,51.7882128 C18.3148876,51.7882128 19.5494382,51.6222679 20.2896067,51.2889835 C21.0297753,50.9570936 21.3998596,50.457167 21.3998596,49.7926899 C21.3998596,49.0229284 20.915309,48.4456073 19.9455056,48.0593321 C18.9757022,47.6744514 17.3808989,47.2547083 15.159691,46.7994055 C12.3036517,46.2046532 9.92373596,45.5652771 8.01994382,44.8826716 C6.11544944,44.2000661 4.45814607,43.079589 3.04803371,41.5226349 C1.63792135,39.9656807 0.932865169,37.8551119 0.932865169,35.1951119 C0.932865169,32.1146716 2.05154494,29.4714055 4.29171348,27.266011 C6.52977528,25.0599193 9.74676966,23.6598459 13.9426966,23.0643963 L13.9426966,17.3406899 L21.3998596,17.3406899 L21.3998596,22.9598092 C25.6308989,23.3453872 29.2095506,24.3605798 32.1365169,26.0046899 L28.3816011,34.9845431 C24.7495787,33.1654239 21.3113764,32.2541211 18.0683989,32.2541211 C14.8591292,32.2541211 13.2551966,33.0238826 13.2551966,34.5641028 C13.2551966,35.2990018 13.7313202,35.851222 14.6835674,36.2186716 C15.6358146,36.5861211 17.2039326,36.9800661 19.3907303,37.3998092 C22.2109551,37.9255339 24.5908708,38.5286532 26.5304775,39.2112587 C28.4686798,39.8938642 30.1533708,41.0059743 31.5810393,42.5461945 C33.0094101,44.0871119 33.7228933,46.187222 33.7228933,48.847222 C33.7228933,51.7882128 32.6561798,54.3526899 30.5234551,56.5406532 Z" id="Stroke-9" stroke="#A8A9A8" stroke-width="4" stroke-linecap="round" stroke-linejoin="round"></path>
            </g>
        </g>
    </g>
</svg>
