<?xml version="1.0" encoding="UTF-8"?>
<svg width="306px" height="306px" viewBox="0 0 306 306" version="1.1" xmlns="http://www.w3.org/2000/svg" xmlns:xlink="http://www.w3.org/1999/xlink">
    <!-- Generator: Sketch 48.2 (47327) - http://www.bohemiancoding.com/sketch -->
    <title>Comparative</title>
    <desc>Created with Sketch.</desc>
    <defs>
        <path d="M38.4652414,0 C17.3087357,0 0,17.3096232 0,38.4660422 L0,39.4109702 L0,195.533958 L0,234 L38.4652414,234 L195.534759,234 C216.690306,234 234,216.690377 234,195.533958 L234,38.4660422 L234,0 L38.4652414,0 Z" id="path-1"></path>
        <filter x="-23.1%" y="-23.1%" width="146.2%" height="146.2%" filterUnits="objectBoundingBox" id="filter-2">
            <feOffset dx="0" dy="0" in="SourceAlpha" result="shadowOffsetOuter1"></feOffset>
            <feGaussianBlur stdDeviation="18" in="shadowOffsetOuter1" result="shadowBlurOuter1"></feGaussianBlur>
            <feColorMatrix values="0 0 0 0 0   0 0 0 0 0   0 0 0 0 0  0 0 0 0.2325351 0" type="matrix" in="shadowBlurOuter1"></feColorMatrix>
        </filter>
    </defs>
    <g id="Page-1" stroke="none" stroke-width="1" fill="none" fill-rule="evenodd">
        <g id="Comparative" transform="translate(36.000000, 36.000000)">
            <g id="Group-11">
                <g id="Page-1-Copy-2">
                    <g id="Fill-2">
                        <use fill="black" fill-opacity="1" filter="url(#filter-2)" xlink:href="#path-1"></use>
                        <use fill="#FFFFFF" fill-rule="evenodd" xlink:href="#path-1"></use>
                    </g>
                </g>
                <g id="Group-4" transform="translate(46.479452, 49.684932)">
                    <g id="Page-1">
                        <path d="M112.015399,93.9831349 L101.685742,104.405751 C100.663995,105.437114 100.671208,107.100758 101.702571,108.123306 C102.733934,109.145053 104.398379,109.138642 105.420927,108.107279 L113.89942,99.5518541 L122.889187,108.460683 C123.92055,109.483231 125.584995,109.476018 126.606742,108.443854 C127.62929,107.412491 127.621276,105.748847 126.589913,104.726299 L115.732954,93.9663062 C114.701591,92.9445596 113.037947,92.9517719 112.015399,93.9831349" id="Fill-1" fill="#F73435"></path>
                        <path d="M82.8023425,20.3350007 C81.7902123,20.3350007 80.8966849,19.6057541 80.723589,18.5727884 C80.5336644,17.4220212 81.3093904,16.342576 82.4569521,16.1486445 L128.053295,8.5388363 C129.204062,8.35692534 130.287514,9.12063082 130.481445,10.2713979 C130.67137,11.4181582 129.895644,12.5016103 128.748884,12.6955418 L83.1525411,20.30535 C83.0387466,20.326987 82.9201438,20.3350007 82.8023425,20.3350007" id="Fill-3" fill="#A8A9A8"></path>
                        <path d="M82.8023425,20.3350007 C81.7902123,20.3350007 80.8966849,19.6057541 80.723589,18.5727884 C80.5336644,17.4220212 81.3093904,16.342576 82.4569521,16.1486445 L128.053295,8.5388363 C129.204062,8.35692534 130.287514,9.12063082 130.481445,10.2713979 C130.67137,11.4181582 129.895644,12.5016103 128.748884,12.6955418 L83.1525411,20.30535 C83.0387466,20.326987 82.9201438,20.3350007 82.8023425,20.3350007 Z" id="Stroke-5" stroke="#A8A9A8" stroke-width="0.6"></path>
                        <path d="M11.3276836,32.2620288 C10.3155534,32.2620288 9.42202603,31.5327822 9.24893014,30.4998164 C9.05980685,29.3530562 9.83553288,28.2696041 10.9822932,28.0756726 L56.9328411,20.406563 C58.0964301,20.1998096 59.1670603,20.9923644 59.3609918,22.139926 C59.5509164,23.2858849 58.7751904,24.369337 57.6284301,24.5640699 L11.6778822,32.2323781 C11.5592795,32.2540151 11.4454849,32.2620288 11.3276836,32.2620288" id="Fill-7" fill="#A8A9A8"></path>
                        <path d="M11.3276836,32.2620288 C10.3155534,32.2620288 9.42202603,31.5327822 9.24893014,30.4998164 C9.05980685,29.3530562 9.83553288,28.2696041 10.9822932,28.0756726 L56.9328411,20.406563 C58.0964301,20.1998096 59.1670603,20.9923644 59.3609918,22.139926 C59.5509164,23.2858849 58.7751904,24.369337 57.6284301,24.5640699 L11.6778822,32.2323781 C11.5592795,32.2540151 11.4454849,32.2620288 11.3276836,32.2620288 Z" id="Stroke-9" stroke="#A8A9A8" stroke-width="0.6"></path>
                        <path d="M91.7782459,62.2762151 C92.8408623,73.2966534 102.154383,81.9402288 113.444883,81.9402288 C124.73939,81.9402288 134.048102,73.2966534 135.114725,62.2762151 L91.7782459,62.2762151 Z M113.444883,86.1562356 C99.1179925,86.1562356 87.4612664,74.4947014 87.4612664,60.1686123 C87.4612664,59.0042219 88.4052801,58.0602082 89.5688692,58.0602082 L137.324102,58.0602082 C138.487691,58.0602082 139.432506,59.0042219 139.432506,60.1686123 C139.432506,74.4987082 127.774979,86.1562356 113.444883,86.1562356 Z" id="Fill-11" fill="#A8A9A8"></path>
                        <path d="M91.7782459,62.2762151 C92.8408623,73.2966534 102.154383,81.9402288 113.444883,81.9402288 C124.73939,81.9402288 134.048102,73.2966534 135.114725,62.2762151 L91.7782459,62.2762151 Z M113.444883,86.1562356 C99.1179925,86.1562356 87.4612664,74.4947014 87.4612664,60.1686123 C87.4612664,59.0042219 88.4052801,58.0602082 89.5688692,58.0602082 L137.324102,58.0602082 C138.487691,58.0602082 139.432506,59.0042219 139.432506,60.1686123 C139.432506,74.4987082 127.774979,86.1562356 113.444883,86.1562356 Z" id="Stroke-13" stroke="#A8A9A8" stroke-width="0.6"></path>
                        <path d="M89.5690295,62.2762151 C89.2404678,62.2762151 88.9070979,62.1960781 88.5953651,62.0358041 C87.5623993,61.4964822 87.1657212,60.2231055 87.7010363,59.1901397 L111.57705,13.4423384 C112.306297,12.0503589 114.586995,12.0503589 115.316242,13.4423384 L139.196262,59.1901397 C139.731577,60.2231055 139.335701,61.4964822 138.302735,62.0358041 C137.273776,62.5711192 135.996392,62.1712356 135.456269,61.1422767 L113.44905,18.9774 L91.4410295,61.1422767 C91.0619815,61.8627082 90.3279267,62.2762151 89.5690295,62.2762151" id="Fill-15" fill="#A8A9A8"></path>
                        <path d="M89.5690295,62.2762151 C89.2404678,62.2762151 88.9070979,62.1960781 88.5953651,62.0358041 C87.5623993,61.4964822 87.1657212,60.2231055 87.7010363,59.1901397 L111.57705,13.4423384 C112.306297,12.0503589 114.586995,12.0503589 115.316242,13.4423384 L139.196262,59.1901397 C139.731577,60.2231055 139.335701,61.4964822 138.302735,62.0358041 C137.273776,62.5711192 135.996392,62.1712356 135.456269,61.1422767 L113.44905,18.9774 L91.4410295,61.1422767 C91.0619815,61.8627082 90.3279267,62.2762151 89.5690295,62.2762151 Z" id="Stroke-17" stroke="#A8A9A8" stroke-width="0.6"></path>
                        <path d="M4.61989726,75.9151295 C5.6825137,86.9355678 14.9960342,95.5791432 26.2905411,95.5791432 C37.5810411,95.5791432 46.8945616,86.9355678 47.9563767,75.9151295 L4.61989726,75.9151295 Z M26.2905411,99.79515 C11.9604452,99.79515 0.302917808,88.1336158 0.302917808,73.8075267 C0.302917808,72.6431363 1.24693151,71.6991226 2.41052055,71.6991226 L50.1657534,71.6991226 C51.3293425,71.6991226 52.2741575,72.6431363 52.2741575,73.8075267 C52.2741575,88.1336158 40.6166301,99.79515 26.2905411,99.79515 Z" id="Fill-19" fill="#A8A9A8"></path>
                        <path d="M4.61989726,75.9151295 C5.6825137,86.9355678 14.9960342,95.5791432 26.2905411,95.5791432 C37.5810411,95.5791432 46.8945616,86.9355678 47.9563767,75.9151295 L4.61989726,75.9151295 Z M26.2905411,99.79515 C11.9604452,99.79515 0.302917808,88.1336158 0.302917808,73.8075267 C0.302917808,72.6431363 1.24693151,71.6991226 2.41052055,71.6991226 L50.1657534,71.6991226 C51.3293425,71.6991226 52.2741575,72.6431363 52.2741575,73.8075267 C52.2741575,88.1336158 40.6166301,99.79515 26.2905411,99.79515 Z" id="Stroke-21" stroke="#A8A9A8" stroke-width="0.6"></path>
                        <path d="M50.1659137,75.9151295 C49.4070164,75.9151295 48.6729616,75.5016226 48.2939137,74.7811911 L26.2858932,32.6163144 L4.27867397,74.7811911 C3.73855068,75.8141568 2.46597534,76.2060267 1.43220822,75.6747185 C0.399242466,75.1353966 0.00336575342,73.8620199 0.538680822,72.8290541 L24.4187014,27.0804514 C25.1479479,25.6892733 27.4286466,25.6892733 28.1578932,27.0804514 L52.0339068,72.8290541 C52.5692219,73.8620199 52.1725438,75.1353966 51.1395781,75.6747185 C50.8278452,75.8349925 50.4944753,75.9151295 50.1659137,75.9151295" id="Fill-23" fill="#A8A9A8"></path>
                        <path d="M50.1659137,75.9151295 C49.4070164,75.9151295 48.6729616,75.5016226 48.2939137,74.7811911 L26.2858932,32.6163144 L4.27867397,74.7811911 C3.73855068,75.8141568 2.46597534,76.2060267 1.43220822,75.6747185 C0.399242466,75.1353966 0.00336575342,73.8620199 0.538680822,72.8290541 L24.4187014,27.0804514 C25.1479479,25.6892733 27.4286466,25.6892733 28.1578932,27.0804514 L52.0339068,72.8290541 C52.5692219,73.8620199 52.1725438,75.1353966 51.1395781,75.6747185 C50.8278452,75.8349925 50.4944753,75.9151295 50.1659137,75.9151295 Z" id="Stroke-25" stroke="#A8A9A8" stroke-width="0.6"></path>
                        <path d="M69.8675918,9.63470959 C63.9358521,9.63470959 59.1124068,14.4581548 59.1124068,20.3858877 C59.1124068,26.3128192 63.9358521,31.1402712 69.8675918,31.1402712 C75.7993315,31.1402712 80.6227767,26.3128192 80.6227767,20.3858877 C80.6227767,14.4581548 75.7993315,9.63470959 69.8675918,9.63470959 M69.8675918,35.3522712 C61.6126808,35.3522712 54.8964,28.6359904 54.8964,20.3818808 C54.8964,12.1309767 61.6126808,5.41469589 69.8675918,5.41469589 C78.1225027,5.41469589 84.8387836,12.1309767 84.8387836,20.3818808 C84.8387836,28.6407986 78.1225027,35.3522712 69.8675918,35.3522712" id="Fill-27" fill="#A8A9A8"></path>
                        <path d="M69.8675918,9.63470959 C63.9358521,9.63470959 59.1124068,14.4581548 59.1124068,20.3858877 C59.1124068,26.3128192 63.9358521,31.1402712 69.8675918,31.1402712 C75.7993315,31.1402712 80.6227767,26.3128192 80.6227767,20.3858877 C80.6227767,14.4581548 75.7993315,9.63470959 69.8675918,9.63470959 Z M69.8675918,35.3522712 C61.6126808,35.3522712 54.8964,28.6359904 54.8964,20.3818808 C54.8964,12.1309767 61.6126808,5.41469589 69.8675918,5.41469589 C78.1225027,5.41469589 84.8387836,12.1309767 84.8387836,20.3818808 C84.8387836,28.6407986 78.1225027,35.3522712 69.8675918,35.3522712 Z" id="Stroke-29" stroke="#A8A9A8" stroke-width="0.6"></path>
                        <path d="M69.8675918,130.658388 C68.7040027,130.658388 67.7591877,129.714374 67.7591877,128.550785 L67.7591877,33.2446685 C67.7591877,32.0810795 68.7040027,31.1370658 69.8675918,31.1370658 C71.0311808,31.1370658 71.9751945,32.0810795 71.9751945,33.2446685 L71.9751945,128.550785 C71.9751945,129.714374 71.0311808,130.658388 69.8675918,130.658388" id="Fill-31" fill="#A8A9A8"></path>
                        <path d="M69.8675918,130.658388 C68.7040027,130.658388 67.7591877,129.714374 67.7591877,128.550785 L67.7591877,33.2446685 C67.7591877,32.0810795 68.7040027,31.1370658 69.8675918,31.1370658 C71.0311808,31.1370658 71.9751945,32.0810795 71.9751945,33.2446685 L71.9751945,128.550785 C71.9751945,129.714374 71.0311808,130.658388 69.8675918,130.658388 Z" id="Stroke-33" stroke="#A8A9A8" stroke-width="0.6"></path>
                        <path d="M69.8675918,9.63470959 C68.7040027,9.63470959 67.7591877,8.69069589 67.7591877,7.52710685 L67.7591877,2.40795616 C67.7591877,1.24516849 68.7040027,0.300353425 69.8675918,0.300353425 C71.0311808,0.300353425 71.9751945,1.24516849 71.9751945,2.40795616 L71.9751945,7.52710685 C71.9751945,8.69069589 71.0311808,9.63470959 69.8675918,9.63470959" id="Fill-35" fill="#A8A9A8"></path>
                        <path d="M69.8675918,9.63470959 C68.7040027,9.63470959 67.7591877,8.69069589 67.7591877,7.52710685 L67.7591877,2.40795616 C67.7591877,1.24516849 68.7040027,0.300353425 69.8675918,0.300353425 C71.0311808,0.300353425 71.9751945,1.24516849 71.9751945,2.40795616 L71.9751945,7.52710685 C71.9751945,8.69069589 71.0311808,9.63470959 69.8675918,9.63470959 Z" id="Stroke-37" stroke="#A8A9A8" stroke-width="0.6"></path>
                        <path d="M97.6766486,130.658388 L42.0583747,130.658388 C40.8947856,130.658388 39.9507719,129.714374 39.9507719,128.550785 C39.9507719,127.386395 40.8947856,126.442381 42.0583747,126.442381 L97.6766486,126.442381 C98.8402377,126.442381 99.7842514,127.386395 99.7842514,128.550785 C99.7842514,129.714374 98.8442445,130.658388 97.6766486,130.658388" id="Fill-39" fill="#A8A9A8"></path>
                        <path d="M97.6766486,130.658388 L42.0583747,130.658388 C40.8947856,130.658388 39.9507719,129.714374 39.9507719,128.550785 C39.9507719,127.386395 40.8947856,126.442381 42.0583747,126.442381 L97.6766486,126.442381 C98.8402377,126.442381 99.7842514,127.386395 99.7842514,128.550785 C99.7842514,129.714374 98.8442445,130.658388 97.6766486,130.658388 Z" id="Stroke-41" stroke="#A8A9A8" stroke-width="0.6"></path>
                    </g>
                </g>
            </g>
        </g>
    </g>
</svg>
