<?xml version="1.0" encoding="UTF-8"?>
<svg width="287px" height="165px" viewBox="0 0 287 165" version="1.1" xmlns="http://www.w3.org/2000/svg" xmlns:xlink="http://www.w3.org/1999/xlink">
    <!-- Generator: Sketch 51.1 (57501) - http://www.bohemiancoding.com/sketch -->
    <title>contacto</title>
    <desc>Created with Sketch.</desc>
    <defs>
        <path d="M0.873,3.015 L0.821,3.178 C0.149,5.426 1.405,7.805 3.65,8.511 L22.448,14.435 L16.222,34.188 C15.509,36.455 16.767,38.87 19.033,39.584 C21.277,40.291 23.669,39.064 24.408,36.838 L24.446,36.719 L31.946,12.918 C32.66,10.653 31.404,8.238 29.136,7.523 L6.235,0.304 C5.806,0.169 5.37,0.105 4.943,0.104 C3.148,0.104 1.48,1.236 0.873,3.015 Z" id="path-1"></path>
    </defs>
    <g id="Page-1" stroke="none" stroke-width="1" fill="none" fill-rule="evenodd">
        <g id="contacto" transform="translate(2.000000, 1.000000)">
            <g id="Group-17" transform="translate(0.000000, 0.310000)">
                <path d="M178.922,65.3896 L212.834,16.8976 L237.588,83.7926 L178.922,65.3896 Z M110.596,136.9606 L142.403,86.0256 L157.363,89.8736 C157.828,89.9916 158.297,90.0526 158.756,90.0526 C160.557,90.0526 162.278,89.1806 163.341,87.6646 L172.194,74.9986 L229.495,92.9736 L110.596,136.9606 Z M98.479,135.2486 L73.734,68.3646 L131.042,83.1046 L98.479,135.2486 Z M199.543,16.3926 L156.396,78.0756 L83.492,59.3256 L199.543,16.3926 Z M250.085,85.3566 L221.558,8.2476 C220.521,5.4456 218.456,3.2156 215.741,1.9676 C213.027,0.7196 209.99,0.6026 207.189,1.6396 L68.088,53.1006 C65.286,54.1366 63.056,56.2016 61.808,58.9156 C60.56,61.6296 60.443,64.6676 61.48,67.4686 L90.006,144.5776 C91.042,147.3796 93.109,149.6096 95.822,150.8586 C97.312,151.5426 98.898,151.8866 100.489,151.8866 C101.799,151.8866 103.111,151.6546 104.376,151.1866 L243.478,99.7256 C249.26,97.5856 252.224,91.1396 250.085,85.3566 Z" id="Fill-1" fill="#A8A9A8"></path>
                <path d="M178.922,65.3896 L212.834,16.8976 L237.588,83.7926 L178.922,65.3896 Z M110.596,136.9606 L142.403,86.0256 L157.363,89.8736 C157.828,89.9916 158.297,90.0526 158.756,90.0526 C160.557,90.0526 162.278,89.1806 163.341,87.6646 L172.194,74.9986 L229.495,92.9736 L110.596,136.9606 Z M98.479,135.2486 L73.734,68.3646 L131.042,83.1046 L98.479,135.2486 Z M199.543,16.3926 L156.396,78.0756 L83.492,59.3256 L199.543,16.3926 Z M250.085,85.3566 L221.558,8.2476 C220.521,5.4456 218.456,3.2156 215.741,1.9676 C213.027,0.7196 209.99,0.6026 207.189,1.6396 L68.088,53.1006 C65.286,54.1366 63.056,56.2016 61.808,58.9156 C60.56,61.6296 60.443,64.6676 61.48,67.4686 L90.006,144.5776 C91.042,147.3796 93.109,149.6096 95.822,150.8586 C97.312,151.5426 98.898,151.8866 100.489,151.8866 C101.799,151.8866 103.111,151.6546 104.376,151.1866 L243.478,99.7256 C249.26,97.5856 252.224,91.1396 250.085,85.3566 Z" id="Stroke-3" stroke="#EFEFEF" stroke-width="4"></path>
                <path d="M65.9611,146.1094 C64.8901,143.2134 61.6721,141.7344 58.7771,142.8054 L37.7051,150.6014 C34.8091,151.6734 33.3291,154.8894 34.4001,157.7864 C35.2351,160.0434 37.3721,161.4384 39.6461,161.4384 C40.2891,161.4384 40.9451,161.3264 41.5851,161.0894 L62.6561,153.2944 C65.5541,152.2234 67.0331,149.0054 65.9611,146.1094" id="Fill-5" fill="#A8A9A8"></path>
                <path d="M65.9611,146.1094 C64.8901,143.2134 61.6721,141.7344 58.7771,142.8054 L37.7051,150.6014 C34.8091,151.6734 33.3291,154.8894 34.4001,157.7864 C35.2351,160.0434 37.3721,161.4384 39.6461,161.4384 C40.2891,161.4384 40.9451,161.3264 41.5851,161.0894 L62.6561,153.2944 C65.5541,152.2234 67.0331,149.0054 65.9611,146.1094 Z" id="Stroke-7" stroke="#EFEFEF" stroke-width="4"></path>
                <path d="M37.4415,94.1982 C36.3695,91.3012 33.1525,89.8232 30.2565,90.8932 L17.2495,95.7062 C14.3525,96.7782 12.8745,99.9942 13.9455,102.8902 C14.7795,105.1472 16.9175,106.5432 19.1895,106.5432 C19.8345,106.5432 20.4905,106.4302 21.1295,106.1942 L34.1365,101.3822 C37.0335,100.3112 38.5125,97.0942 37.4415,94.1982" id="Fill-9" fill="#A8A9A8"></path>
                <path d="M37.4415,94.1982 C36.3695,91.3012 33.1525,89.8232 30.2565,90.8932 L17.2495,95.7062 C14.3525,96.7782 12.8745,99.9942 13.9455,102.8902 C14.7795,105.1472 16.9175,106.5432 19.1895,106.5432 C19.8345,106.5432 20.4905,106.4302 21.1295,106.1942 L34.1365,101.3822 C37.0335,100.3112 38.5125,97.0942 37.4415,94.1982 Z" id="Stroke-11" stroke="#EFEFEF" stroke-width="4"></path>
                <path d="M21.3165,136.5566 C20.2445,133.6606 17.0275,132.1806 14.1315,133.2516 L4.4665,136.8276 C1.5705,137.9006 0.0905,141.1166 1.1625,144.0126 C1.9975,146.2686 4.1335,147.6646 6.4075,147.6646 C7.0515,147.6646 7.7075,147.5526 8.3465,147.3166 L18.0115,143.7406 C20.9095,142.6686 22.3875,139.4526 21.3165,136.5566" id="Fill-13" fill="#A8A9A8"></path>
                <path d="M21.3165,136.5566 C20.2445,133.6606 17.0275,132.1806 14.1315,133.2516 L4.4665,136.8276 C1.5705,137.9006 0.0905,141.1166 1.1625,144.0126 C1.9975,146.2686 4.1335,147.6646 6.4075,147.6646 C7.0515,147.6646 7.7075,147.5526 8.3465,147.3166 L18.0115,143.7406 C20.9095,142.6686 22.3875,139.4526 21.3165,136.5566 Z" id="Stroke-15" stroke="#EFEFEF" stroke-width="4"></path>
            </g>
            <g id="Group-20" transform="translate(252.000000, 18.310000)">
                <mask id="mask-2" fill="white">
                    <use xlink:href="#path-1"></use>
                </mask>
                <g id="Clip-19"></g>
                <polygon id="Fill-18" fill="#F73435" mask="url(#mask-2)" points="-14.1084 34.0293 26.2276 46.9403 39.4096 5.7583 -0.9264 -7.1527"></polygon>
            </g>
        </g>
    </g>
</svg>
