<?xml version="1.0" encoding="UTF-8"?>
<svg width="131px" height="39px" viewBox="0 0 131 39" version="1.1" xmlns="http://www.w3.org/2000/svg" xmlns:xlink="http://www.w3.org/1999/xlink">
    <!-- Generator: sketchtool 50.2 (55047) - http://www.bohemiancoding.com/sketch -->
    <title>91143614-97DC-4A9E-90B7-B537B60ECDA7</title>
    <desc>Created with sketchtool.</desc>
    <defs></defs>
    <g id="Page-2" stroke="none" stroke-width="1" fill="none" fill-rule="evenodd">
        <g id="01" transform="translate(-29.000000, -19.000000)">
            <g id="Page-1" transform="translate(29.000000, 19.000000)">
                <g id="Group-32">
                    <path d="M50.3681443,5.71835233 L53.7636338,5.70323605 L53.7767338,8.61130581 L50.4794943,8.6259686 L50.5279338,19.3242128 L46.6893292,19.3412942 L46.641042,8.64305 L44.5988129,8.65211977 L44.5855606,5.74405 L46.6277897,5.73498023 L46.6253524,5.15330581 C46.6186501,3.66707326 47.0599373,2.48573605 47.9504327,1.60899186 C48.8403187,0.732701163 50.0974617,0.290852326 51.7215571,0.283596512 C52.2955199,0.281177907 52.8413024,0.339526744 53.3586001,0.458038372 C53.8758978,0.576852326 54.3072838,0.749026744 54.6527583,0.973503488 L53.6562443,3.71665465 C53.2120629,3.41160814 52.6946129,3.26044535 52.1040466,3.26301512 C50.9392129,3.26830581 50.3599187,3.90077093 50.3655548,5.16101512 L50.3681443,5.71835233 Z" id="Fill-2" fill="#FFFFFF"></path>
                    <polygon id="Fill-4" fill="#FFFFFF" points="56.5307956 0.312952326 60.3694002 0.29587093 60.4553119 19.2801035 56.6165549 19.2970337"></polygon>
                    <path d="M77.300023,6.06791628 L77.35943,19.2048698 L73.71763,19.2210442 L73.7107753,17.6583233 C73.2042928,18.2306256 72.5991033,18.6686953 71.8956637,18.9726837 C71.1914626,19.2771256 70.4292253,19.4308581 69.6094091,19.4346372 C67.8703079,19.4423465 66.4900858,18.9522767 65.4687428,17.9633698 C64.4469428,16.9752186 63.9317777,15.5039512 63.9230951,13.5504744 L63.8895835,6.12762558 L67.7278835,6.11039302 L67.7588056,12.9718233 C67.7685544,15.0884047 68.6674277,16.1421605 70.4554253,16.1343 C71.3741009,16.1300674 72.1110521,15.8303116 72.6661265,15.2332186 C73.2208963,14.6365791 73.495844,13.7521256 73.4905126,12.5800093 L73.461266,6.08499767 L77.300023,6.06791628 Z" id="Fill-6" fill="#FFFFFF"></path>
                    <path d="M81.0279936,3.85871744 C80.6011773,3.44649651 80.3863983,2.93329884 80.3836564,2.31957791 C80.3809145,1.70676395 80.5909715,1.19160116 81.0139797,0.775298837 C81.4371401,0.358996512 81.9868831,0.149031395 82.6639703,0.14600814 C83.3406006,0.142984884 83.8927808,0.339345349 84.3192924,0.735543023 C84.7461087,1.13143837 84.9607355,1.62785698 84.9634773,2.22479884 C84.9663715,2.87117093 84.7564669,3.40704302 84.3333064,3.83150814 C83.9104506,4.25597326 83.3602506,4.47017093 82.683468,4.47319419 C82.0065331,4.47621744 81.4548099,4.2712407 81.0279936,3.85871744" id="Fill-8" fill="#FFFFFF"></path>
                    <polygon id="Fill-10" fill="#FFFFFF" points="80.868067 6.05204419 84.706367 6.03496279 84.765774 19.1719163 80.9273216 19.1889977"></polygon>
                    <path d="M97.0757221,15.1976953 C96.4390012,15.8602419 95.63655,16.1934047 94.6686733,16.1976372 C93.6844977,16.2021721 92.8709267,15.876114 92.2285698,15.2193116 C91.5854512,14.5629628 91.2617593,13.6815326 91.2567326,12.5744163 C91.2517058,11.4673 91.5674767,10.5826953 92.2045023,9.92060233 C92.8410709,9.2585093 93.6515953,8.92534651 94.6357709,8.92096279 C95.6036477,8.91673023 96.4091453,9.24263721 97.051807,9.89913721 C97.6946209,10.555486 98.0184651,11.4372186 98.0234919,12.5443349 C98.0285186,13.6514512 97.7127477,14.5357535 97.0757221,15.1976953 Z M97.8935581,0.0782418605 L97.9264605,7.36776512 C96.9700081,6.31416047 95.6470605,5.79068372 93.9573128,5.7980907 C92.7106802,5.80368372 91.5842326,6.08590465 90.5779698,6.64354419 C89.571707,7.20163721 88.7832698,7.99448605 88.2138767,9.02254419 C87.6444837,10.0507535 87.3628337,11.240707 87.3689267,12.5918 C87.3750198,13.9431953 87.6673326,15.1296721 88.2460174,16.1527419 C88.8247023,17.1758116 89.6202988,17.9620093 90.6315884,18.5110326 C91.6428779,19.060207 92.7716105,19.3315442 94.0185477,19.3261023 C95.8226919,19.3179395 97.1981919,18.7421605 98.144743,17.5983116 L98.1514453,19.1123581 L101.817922,19.0961837 L101.731858,0.0613116279 L97.8935581,0.0782418605 Z" id="Fill-12" fill="#FFFFFF"></path>
                    <path d="M53.4976734,36.7146151 C54.2419362,36.223336 54.8005141,35.5125686 55.1737117,34.5827663 L55.1628966,32.1898593 L50.7829269,32.2093593 C49.5196908,32.2149523 48.6063466,32.4471384 48.0424373,32.9051616 C47.478528,33.3637895 47.1984013,33.9920221 47.2020571,34.7894058 C47.2057129,35.6194407 47.5202652,36.2735221 48.1460187,36.750743 C48.7713152,37.2284174 49.6502338,37.4645337 50.7821652,37.4595453 C51.8481397,37.4547081 52.7534106,37.2064988 53.4976734,36.7146151 M55.0888664,26.7079407 C55.9452408,27.5100105 56.3775408,28.6927081 56.3845478,30.2552779 L56.4211059,38.3378012 L55.2399734,38.3430919 L55.2296152,36.0721733 C54.8227536,36.8228477 54.2268559,37.4073942 53.4414652,37.8262663 C52.6557699,38.244836 51.7131792,38.456464 50.6143024,38.4613012 C49.1871641,38.46765 48.0576699,38.1393244 47.2264292,37.4752663 C46.3947315,36.8118128 45.9769024,35.9346151 45.972028,34.8435221 C45.9671536,33.7853826 46.3446164,32.9251151 47.1045687,32.2624174 C47.8643687,31.5998709 49.0808408,31.2642895 50.753985,31.2570337 L55.1586315,31.2373826 L55.1539094,30.2121965 C55.148578,29.0239058 54.8204687,28.1219174 54.1697338,27.5057779 C53.5186943,26.8903942 52.5700106,26.584743 51.3236827,26.590336 C50.4705071,26.5941151 49.6548036,26.7443709 48.8771815,27.0411035 C48.0992548,27.3373826 47.4407513,27.7313128 46.901671,28.2216849 L46.2826199,27.3455453 C46.9196455,26.7730919 47.688585,26.3259523 48.5894385,26.0045802 C49.4901397,25.6832081 50.4328827,25.5201035 51.4172106,25.5157198 C53.0079466,25.5086151 54.2321873,25.9060221 55.0888664,26.7079407" id="Fill-14" fill="#FFFFFF"></path>
                    <path d="M67.8589597,37.4811314 C67.5485201,37.7757477 67.1599376,38.0014337 66.6935166,38.1578872 C66.2266387,38.3144919 65.7385876,38.3940035 65.2301248,38.3962709 C64.1147969,38.4012593 63.2521771,38.0999919 62.6425701,37.4920151 C62.0328108,36.884643 61.7254178,36.0352593 61.7205434,34.9446198 L61.682919,26.6178174 L59.3206538,26.6283988 L59.3159317,25.5782709 L61.6783492,25.5676895 L61.6657062,22.7841779 L62.8961922,22.778736 L62.9086829,25.5622477 L66.9928364,25.5441081 L66.9977108,26.594236 L62.913405,26.6123756 L62.9504201,34.8170384 C62.9542283,35.6469221 63.1577352,36.2774221 63.5617027,36.7065733 C63.9653655,37.1363291 64.5614155,37.3491663 65.3484817,37.3456895 C66.1519992,37.3420616 66.8155294,37.1033756 67.3386155,36.6290267 L67.8589597,37.4811314 Z" id="Fill-16" fill="#FFFFFF"></path>
                    <path d="M77.3080658,37.4391384 C76.9976263,37.7337547 76.6090437,37.9594407 76.1421658,38.115743 C75.6752879,38.2724988 75.1872367,38.3520105 74.6792309,38.3542779 C73.5635984,38.3592663 72.7008263,38.0579988 72.0912193,37.4500221 C71.4816123,36.8424988 71.174067,35.9932663 71.1691926,34.9026267 L71.1315681,26.5758244 L68.7696077,26.5862547 L68.7648856,25.5361267 L71.126846,25.5256965 L71.1143553,22.7421849 L72.3449937,22.736743 L72.3574844,25.5202547 L76.4419426,25.5021151 L76.446817,26.552243 L72.3622065,26.5703826 L72.3992216,34.7750453 C72.4030298,35.6049291 72.6065367,36.2354291 73.0103519,36.6645802 C73.4143193,37.094336 74.010217,37.3071733 74.7975879,37.3036965 C75.6011053,37.3000686 76.2641786,37.0612314 76.7872647,36.5870337 L77.3080658,37.4391384 Z" id="Fill-18" fill="#FFFFFF"></path>
                    <path d="M87.0850071,36.565236 C87.8292699,36.073957 88.3878478,35.3631895 88.7613501,34.4333872 L88.750535,32.0404802 L84.3704129,32.0599802 C83.1070245,32.0655733 82.1938327,32.2977593 81.6299234,32.7557826 C81.0660141,33.2144105 80.785735,33.842643 80.7893908,34.6400267 C80.7930466,35.4700616 81.1077513,36.124143 81.7333524,36.601364 C82.3589536,37.0790384 83.2375676,37.3151547 84.369499,37.3101663 C85.435778,37.3053291 86.3407443,37.0571198 87.0850071,36.565236 M88.6762001,26.5585616 C89.5328792,27.3606314 89.9648745,28.5433291 89.9718815,30.1058988 L90.0084397,38.1884221 L88.8273071,38.1937128 L88.816949,35.9227942 C88.4102397,36.6734686 87.8141897,37.2580151 87.028799,37.6768872 C86.2432559,38.095457 85.3005129,38.3070849 84.2019408,38.3119221 C82.7744978,38.3182709 81.6450036,37.9899453 80.8137629,37.3258872 C79.9820652,36.6624337 79.5642362,35.785236 79.5593617,34.694143 C79.5544873,33.6360035 79.9322548,32.775736 80.6919024,32.1130384 C81.4517024,31.4504919 82.6683269,31.1149105 84.3413187,31.1076547 L88.7461176,31.0880035 L88.7415478,30.0628174 C88.7362164,28.8745267 88.4081071,27.9725384 87.7570676,27.3563988 C87.1063327,26.7410151 86.1573443,26.435364 84.9110164,26.440957 C84.0579931,26.444736 83.2422897,26.5949919 82.4645152,26.8917244 C81.6865885,27.1880035 81.0282373,27.5819337 80.4891571,28.0723058 L79.8699536,27.1961663 C80.5069792,26.6237128 81.276071,26.1765733 82.1769245,25.8552012 C83.0774734,25.5338291 84.0203687,25.3707244 85.0045443,25.3663407 C86.5952803,25.359236 87.8196734,25.756643 88.6762001,26.5585616" id="Fill-20" fill="#FFFFFF"></path>
                    <path d="M96.8451469,37.4253372 C95.8585341,36.8766163 95.0838062,36.1109767 94.5217248,35.1284186 C93.959491,34.1458605 93.6758608,33.0360233 93.6702248,31.7987558 C93.6645887,30.5454651 93.9380131,29.4251977 94.491412,28.4376512 C95.0448108,27.4502558 95.8125317,26.6818953 96.7941178,26.1321163 C97.7761608,25.5824884 98.8902701,25.3045 100.136903,25.2990581 C101.170584,25.2945233 102.110281,25.4898256 102.956906,25.884814 C103.803684,26.2801047 104.490977,26.858907 105.019852,27.6213721 L104.111991,28.2851279 C103.65014,27.6520581 103.077853,27.178314 102.395586,26.8638953 C101.713168,26.5496279 100.96205,26.3940814 100.142082,26.3977093 C99.1413027,26.4022442 98.2442573,26.6300465 97.4509457,27.0811163 C96.6570248,27.5326395 96.036298,28.166314 95.5892224,28.9822907 C95.1413852,29.7985698 94.9203608,30.7351744 94.9252352,31.7931628 C94.9299573,32.8517558 95.159512,33.7863953 95.6145085,34.5981395 C96.069048,35.4104884 96.6954108,36.0387209 97.4932922,36.482686 C98.2907166,36.9269535 99.1898945,37.146593 100.190521,37.1420581 C101.010642,37.1384302 101.760236,36.9762326 102.439761,36.6559186 C103.119133,36.3354535 103.687155,35.8567209 104.14337,35.2200233 L105.057171,35.8751628 C104.535152,36.6427674 103.853038,37.2276163 103.010068,37.6298605 C102.167098,38.0330116 101.228925,38.2361744 100.195396,38.2408605 C98.9487631,38.2463023 97.8320643,37.9749651 96.8451469,37.4253372" id="Fill-22" fill="#FFFFFF"></path>
                    <polygon id="Fill-24" fill="#FFFFFF" points="113.083008 31.2729814 109.749972 34.315586 109.767033 38.1005512 108.536547 38.1061442 108.454595 19.9873186 109.685234 19.9818767 109.74327 32.801993 117.928028 25.3176209 119.50277 25.3105163 113.989802 30.4875395 120.101409 38.0545977 118.576326 38.0614"></polygon>
                    <path d="M122.905617,37.6757686 C121.969119,37.3710244 121.237042,36.983443 120.7103,36.5137802 L121.271772,35.5342453 C121.798362,35.9714081 122.47682,36.3346523 123.30669,36.6239779 C124.136255,36.9134547 125.002226,37.0563035 125.90445,37.0522221 C127.200132,37.0464779 128.155365,36.8304663 128.768171,36.4043384 C129.381739,35.978664 129.686542,35.3910942 129.683039,34.6423849 C129.680754,34.10485 129.510454,33.6825012 129.173205,33.3747337 C128.835347,33.0669663 128.419955,32.8409779 127.927486,32.6966174 C127.434561,32.5521058 126.753056,32.4004895 125.88282,32.2416174 C124.864524,32.0670244 124.044098,31.87535 123.419715,31.666443 C122.794876,31.4579895 122.26067,31.1184779 121.815727,30.6480593 C121.370632,30.177943 121.146256,29.5277919 121.1426,28.6973035 C121.138031,27.6882919 121.556317,26.8519081 122.398525,26.1889081 C123.239819,25.5259081 124.440145,25.1909314 125.99874,25.1839779 C126.818708,25.18035 127.631213,25.29085 128.436406,25.5150244 C129.240838,25.7396523 129.898427,26.0375942 130.409022,26.409757 L129.847398,27.3888384 C129.320352,27.0171291 128.720798,26.7346058 128.047062,26.5423267 C127.373326,26.3501988 126.684053,26.2551174 125.978785,26.2582919 C124.781354,26.2635826 123.880043,26.487757 123.275311,26.9300593 C122.669969,27.3720593 122.369278,27.9516174 122.372629,28.6673733 C122.375219,29.2374081 122.549175,29.6803151 122.895258,29.9962453 C123.241038,30.3120244 123.664503,30.5463267 124.165502,30.69885 C124.666805,30.8513733 125.368721,31.0150826 126.272012,31.1898267 C127.272943,31.3645709 128.081945,31.5523151 128.698254,31.7529081 C129.314411,31.9538035 129.836431,32.2810709 130.265075,32.7347105 C130.693871,33.1888035 130.910021,33.8149198 130.913525,34.6123035 C130.918399,35.670443 130.479397,36.5189198 129.596061,37.1578849 C128.713182,37.7965477 127.467768,38.1195826 125.860276,38.126536 C124.826899,38.1312221 123.841962,37.9809663 122.905617,37.6757686" id="Fill-26" fill="#FFFFFF"></path>
                    <path d="M36.7903447,0.350077907 L30.0854295,0.379856977 C29.4218993,0.382880233 28.8866272,0.918752326 28.8896737,1.57721744 C28.8925679,2.23568256 29.4327144,2.76717093 30.0962447,2.76414767 L35.5999202,2.7396593 L35.6258156,8.47855465 C35.6288621,9.1368686 36.1688563,9.66820581 36.8323865,9.66518256 C37.4959167,9.66231047 38.0311888,9.12628721 38.0282947,8.46797326 L37.9969156,1.53670581 C37.9938691,0.878240698 37.4537226,0.347054651 36.7903447,0.350077907" id="Fill-28" fill="#FE3435"></path>
                    <path d="M14.2506217,18.1466244 L20.9553845,18.1168453 C21.751895,18.1132174 22.4027822,18.7533919 22.4062857,19.5438221 L22.4375124,26.474636 C22.4411683,27.2652174 21.7960694,27.9112872 20.9997113,27.9149151 C20.2030485,27.9183919 19.5524659,27.2780663 19.5488101,26.4874849 L19.523981,20.9901477 L14.2635694,21.0135779 C13.4669066,21.0170547 12.8160194,20.3768802 12.8125159,19.58645 C12.8088601,18.7960198 13.4541113,18.1501012 14.2506217,18.1466244 M20.9229392,10.9084965 L27.6275497,10.8787174 C28.4242124,10.8750895 29.0750997,11.515264 29.0787555,12.3056942 L29.1101345,19.2366593 C29.113638,20.0270895 28.4683869,20.6731593 27.6718764,20.6767872 C26.8753659,20.680264 26.2244787,20.0399384 26.2209752,19.2495081 L26.1962985,13.7521709 L20.9358869,13.77545 C20.1392241,13.7790779 19.4884892,13.1387523 19.4848334,12.3483221 C19.4813299,11.5578919 20.1262764,10.9121244 20.9229392,10.9084965 M0.0864752326,12.0425198 L0.0870845349,12.1723686 L0.183963605,33.647764 L0.207878721,38.938764 L5.53957872,38.9150314 L27.3111694,38.818136 C30.2435892,38.805136 32.6322066,36.4134384 32.6191066,33.5034035 L32.5214659,11.8981593 L32.4975508,6.60700814 L5.39426012,6.72748488 C2.46168802,6.74063605 0.0733752326,9.13233372 0.0864752326,12.0425198" id="Fill-30" fill="#FE3435"></path>
                </g>
            </g>
        </g>
    </g>
</svg>
