<?xml version="1.0" encoding="UTF-8"?>
<svg width="151px" height="151px" viewBox="0 0 151 151" version="1.1" xmlns="http://www.w3.org/2000/svg" xmlns:xlink="http://www.w3.org/1999/xlink">
    <!-- Generator: Sketch 51.1 (57501) - http://www.bohemiancoding.com/sketch -->
    <title>porposito1</title>
    <desc>Created with Sketch.</desc>
    <defs></defs>
    <g id="Page-1" stroke="none" stroke-width="1" fill="none" fill-rule="evenodd">
        <g id="porposito1">
            <path d="M74.9,134.4 C42,134.4 15.3,107.7 15.3,74.8 C15.3,41.9 42,15.2 74.9,15.2 C107.8,15.2 134.4,41.9 134.5,74.8 C134.4,107.8 107.8,134.4 74.9,134.4 M74.9,9 C38.5,9 9,38.5 9,74.9 C9,111.3 38.5,140.8 74.9,140.8 C111.3,140.8 140.7,111.3 140.8,74.9 C140.7,38.5 111.2,9 74.9,9" id="Fill-21" fill="#A7A7A7"></path>
            <polygon id="Fill-22" fill="#A7A7A7" points="72 25.1 78.3 25.1 78.3 0 72 0"></polygon>
            <polygon id="Fill-23" fill="#A7A7A7" points="72 150.1 78.3 150.1 78.3 125 72 125"></polygon>
            <polygon id="Fill-24" fill="#A7A7A7" points="0 78.3 25.1 78.3 25.1 72 0 72"></polygon>
            <polygon id="Fill-25" fill="#A7A7A7" points="125 78.3 150.101 78.3 150.101 72 125 72"></polygon>
            <path d="M114.44975,69.85 L100.55075,56.05 C99.14975,54.65 96.94975,54.65 95.55075,56.05 C94.14975,57.45 94.14975,59.65 95.55075,61.05 L106.94975,72.35 L95.05075,84.35 C93.64975,85.75 93.64975,87.95 95.05075,89.35 C96.44975,90.75 98.64975,90.75 100.05075,89.35 L114.44975,74.85 C115.84975,73.45 115.84975,71.15 114.44975,69.85" id="Fill-26" fill="#F73435"></path>
            <path d="M38.04925,69.85 L51.94925,56.05 C53.35025,54.65 55.54925,54.65 56.94925,56.05 C58.35025,57.45 58.35025,59.65 56.94925,61.05 L45.54925,72.35 L57.44925,84.35 C58.85025,85.75 58.85025,87.95 57.44925,89.35 C56.04925,90.75 53.85025,90.75 52.44925,89.35 L38.04925,74.85 C36.65025,73.45 36.65025,71.15 38.04925,69.85" id="Fill-27" fill="#F73435"></path>
            <path d="M85.601,58 L69,91.3" id="Stroke-28" stroke="#F73435" stroke-width="5.787" stroke-linecap="round" stroke-linejoin="round"></path>
        </g>
    </g>
</svg>
