<?xml version="1.0" encoding="UTF-8"?>
<svg width="164px" height="140px" viewBox="0 0 164 140" version="1.1" xmlns="http://www.w3.org/2000/svg" xmlns:xlink="http://www.w3.org/1999/xlink">
    <!-- Generator: Sketch 51.1 (57501) - http://www.bohemiancoding.com/sketch -->
    <title>porposito2</title>
    <desc>Created with Sketch.</desc>
    <defs></defs>
    <g id="Page-1" stroke="none" stroke-width="1" fill="none" fill-rule="evenodd">
        <g id="porposito2" transform="translate(1.000000, 1.000000)">
            <path d="M8.601,129.5 L94.901,129.5 L94.901,43.2 L8.601,43.2 L8.601,129.5 Z M30.2,12.9 C30.2,10.3 31.901,8.6 34.5,8.6 L69,8.6 C71.601,8.6 73.3,10.3 73.3,12.9 L73.3,34.5 L30.2,34.5 L30.2,12.9 Z M99.2,34.5 L81.901,34.5 L81.901,12.9 C81.901,5.6 76.3,0 69,0 L34.5,0 C27.2,0 21.601,5.6 21.601,12.9 L21.601,34.5 L4.3,34.5 C1.7,34.5 0,36.199 0,38.8 L0,133.8 C0,136.4 1.7,138.1 4.3,138.1 L99.3,138.1 C101.901,138.1 103.601,136.4 103.601,133.8 L103.601,38.8 C103.601,36.3 101.8,34.5 99.2,34.5 Z" id="Fill-1" fill="#ACACAC"></path>
            <path d="M8.601,129.5 L94.901,129.5 L94.901,43.2 L8.601,43.2 L8.601,129.5 Z M30.2,12.9 C30.2,10.3 31.901,8.6 34.5,8.6 L69,8.6 C71.601,8.6 73.3,10.3 73.3,12.9 L73.3,34.5 L30.2,34.5 L30.2,12.9 Z M99.2,34.5 L81.901,34.5 L81.901,12.9 C81.901,5.6 76.3,0 69,0 L34.5,0 C27.2,0 21.601,5.6 21.601,12.9 L21.601,34.5 L4.3,34.5 C1.7,34.5 0,36.199 0,38.8 L0,133.8 C0,136.4 1.7,138.1 4.3,138.1 L99.3,138.1 C101.901,138.1 103.601,136.4 103.601,133.8 L103.601,38.8 C103.601,36.3 101.8,34.5 99.2,34.5 Z" id="Stroke-3" stroke="#FFFFFF" stroke-width="1.5"></path>
            <path d="M51.899,60.5 C54.5,60.5 56.2,62.2 56.2,64.8 C56.2,67.4 54.5,69.1 51.899,69.1 C49.299,69.1 47.599,67.4 47.599,64.8 C47.5,62.3 49.299,60.5 51.899,60.5 Z M64.799,95.1 L56.2,95.1 L56.2,77 C61.399,75.3 64.799,70.5 64.799,64.9 C64.799,57.6 59.2,52 51.899,52 C44.599,52 39,57.6 39,64.9 C39,70.5 42.5,75.3 47.599,77 L47.599,95.1 L39,95.1 L39,103.7 L64.899,103.7 L64.899,95.1 L64.799,95.1 Z" id="Fill-4" fill="#ACACAC"></path>
            <path d="M51.899,60.5 C54.5,60.5 56.2,62.2 56.2,64.8 C56.2,67.4 54.5,69.1 51.899,69.1 C49.299,69.1 47.599,67.4 47.599,64.8 C47.5,62.3 49.299,60.5 51.899,60.5 Z M64.799,95.1 L56.2,95.1 L56.2,77 C61.399,75.3 64.799,70.5 64.799,64.9 C64.799,57.6 59.2,52 51.899,52 C44.599,52 39,57.6 39,64.9 C39,70.5 42.5,75.3 47.599,77 L47.599,95.1 L39,95.1 L39,103.7 L64.899,103.7 L64.899,95.1 L64.799,95.1 Z" id="Stroke-5" stroke="#FFFFFF" stroke-width="1.818" stroke-linecap="round" stroke-linejoin="round"></path>
            <polygon id="Fill-6" fill="#ACACAC" points="21 120.6 29.601 120.6 29.601 112 21 112"></polygon>
            <polygon id="Stroke-7" stroke="#FFFFFF" stroke-width="1.818" stroke-linecap="round" stroke-linejoin="round" points="21 120.6 29.601 120.6 29.601 112 21 112"></polygon>
            <polygon id="Fill-8" fill="#ACACAC" points="38 120.6 46.601 120.6 46.601 112 38 112"></polygon>
            <polygon id="Stroke-9" stroke="#FFFFFF" stroke-width="1.818" stroke-linecap="round" stroke-linejoin="round" points="38 120.6 46.601 120.6 46.601 112 38 112"></polygon>
            <polygon id="Fill-10" fill="#ACACAC" points="56 120.6 64.6 120.6 64.6 112 56 112"></polygon>
            <polygon id="Stroke-11" stroke="#FFFFFF" stroke-width="1.818" stroke-linecap="round" stroke-linejoin="round" points="56 120.6 64.6 120.6 64.6 112 56 112"></polygon>
            <polygon id="Fill-12" fill="#ACACAC" points="73 120.6 81.601 120.6 81.601 112 73 112"></polygon>
            <polygon id="Stroke-13" stroke="#FFFFFF" stroke-width="1.818" stroke-linecap="round" stroke-linejoin="round" points="73 120.6 81.601 120.6 81.601 112 73 112"></polygon>
            <polygon id="Fill-14" fill="#FFFFFF" points="89 110 109 110 109 54 89 54"></polygon>
            <path d="M101.87525,76.775 L84.17525,59.275 C82.37525,57.575 79.57525,57.575 77.87525,59.275 C76.17525,61.075 76.17525,63.875 77.87525,65.575 L92.37525,79.975 L77.27425,95.275 C75.57525,97.075 75.57525,99.875 77.27425,101.575 C79.07525,103.275 81.87525,103.275 83.57525,101.575 L101.87525,83.075 C103.67525,81.375 103.57525,78.575 101.87525,76.775" id="Fill-15" fill="#F73435"></path>
            <path d="M101.87525,76.775 L84.17525,59.275 C82.37525,57.575 79.57525,57.575 77.87525,59.275 C76.17525,61.075 76.17525,63.875 77.87525,65.575 L92.37525,79.975 L77.27425,95.275 C75.57525,97.075 75.57525,99.875 77.27425,101.575 C79.07525,103.275 81.87525,103.275 83.57525,101.575 L101.87525,83.075 C103.67525,81.375 103.57525,78.575 101.87525,76.775 Z" id="Stroke-16" stroke="#FFFFFF"></path>
            <path d="M130.87525,76.775 L113.17525,59.275 C111.37525,57.575 108.57525,57.575 106.87525,59.275 C105.17525,61.075 105.17525,63.875 106.87525,65.575 L121.37525,79.975 L106.27425,95.275 C104.57525,97.075 104.57525,99.875 106.27425,101.575 C108.07525,103.275 110.87525,103.275 112.57525,101.575 L130.87525,83.075 C132.67525,81.375 132.57525,78.575 130.87525,76.775" id="Fill-17" fill="#F73435"></path>
            <path d="M130.87525,76.775 L113.17525,59.275 C111.37525,57.575 108.57525,57.575 106.87525,59.275 C105.17525,61.075 105.17525,63.875 106.87525,65.575 L121.37525,79.975 L106.27425,95.275 C104.57525,97.075 104.57525,99.875 106.27425,101.575 C108.07525,103.275 110.87525,103.275 112.57525,101.575 L130.87525,83.075 C132.67525,81.375 132.57525,78.575 130.87525,76.775 Z" id="Stroke-18" stroke="#FFFFFF"></path>
            <path d="M160.87525,76.775 L143.17525,59.275 C141.37525,57.575 138.57525,57.575 136.87525,59.275 C135.17525,61.075 135.17525,63.875 136.87525,65.575 L151.37525,79.975 L136.27425,95.275 C134.57525,97.075 134.57525,99.875 136.27425,101.575 C138.07525,103.275 140.87525,103.275 142.57525,101.575 L160.87525,83.075 C162.67525,81.375 162.57525,78.575 160.87525,76.775" id="Fill-19" fill="#F73435"></path>
            <path d="M160.87525,76.775 L143.17525,59.275 C141.37525,57.575 138.57525,57.575 136.87525,59.275 C135.17525,61.075 135.17525,63.875 136.87525,65.575 L151.37525,79.975 L136.27425,95.275 C134.57525,97.075 134.57525,99.875 136.27425,101.575 C138.07525,103.275 140.87525,103.275 142.57525,101.575 L160.87525,83.075 C162.67525,81.375 162.57525,78.575 160.87525,76.775 Z" id="Stroke-20" stroke="#FFFFFF"></path>
        </g>
    </g>
</svg>
