<?xml version="1.0" encoding="UTF-8"?>
<svg width="127px" height="151px" viewBox="0 0 127 151" version="1.1" xmlns="http://www.w3.org/2000/svg" xmlns:xlink="http://www.w3.org/1999/xlink">
    <!-- Generator: Sketch 51.1 (57501) - http://www.bohemiancoding.com/sketch -->
    <title>porposito3</title>
    <desc>Created with Sketch.</desc>
    <defs>
        <polygon id="path-1" points="0 150.753 126.218 150.753 126.218 -2.84217094e-14 0 -2.84217094e-14"></polygon>
    </defs>
    <g id="Page-1" stroke="none" stroke-width="1" fill="none" fill-rule="evenodd">
        <g id="porposito3">
            <path d="M100.4122,9.6795 L93.8612,9.6795 C93.2882,9.6795 92.7972,10.1715 92.7972,10.7445 C92.7972,11.3175 93.2882,11.8085 93.8612,11.8085 L99.3482,11.8085 L99.3482,129.8915 L3.1292,129.8915 L3.1292,11.8905 L8.6152,11.8905 C9.1882,11.8905 9.6802,11.3995 9.6802,10.8255 C9.6802,10.2525 9.1882,9.7615 8.6152,9.7615 L2.0642,9.7615 C1.4912,9.7615 1.0002,10.2525 1.0002,10.8255 L1.0002,131.0385 C1.0002,131.6115 1.4912,132.1025 2.0642,132.1025 L100.4122,132.1025 C100.9852,132.1025 101.4762,131.6115 101.4762,131.0385 L101.4762,10.8255 C101.4762,10.1715 100.9852,9.6795 100.4122,9.6795" id="Fill-1" fill="#A7A7A7"></path>
            <path d="M100.4122,9.6795 L93.8612,9.6795 C93.2882,9.6795 92.7972,10.1715 92.7972,10.7445 C92.7972,11.3175 93.2882,11.8085 93.8612,11.8085 L99.3482,11.8085 L99.3482,129.8915 L3.1292,129.8915 L3.1292,11.8905 L8.6152,11.8905 C9.1882,11.8905 9.6802,11.3995 9.6802,10.8255 C9.6802,10.2525 9.1882,9.7615 8.6152,9.7615 L2.0642,9.7615 C1.4912,9.7615 1.0002,10.2525 1.0002,10.8255 L1.0002,131.0385 C1.0002,131.6115 1.4912,132.1025 2.0642,132.1025 L100.4122,132.1025 C100.9852,132.1025 101.4762,131.6115 101.4762,131.0385 L101.4762,10.8255 C101.4762,10.1715 100.9852,9.6795 100.4122,9.6795 Z" id="Stroke-3" stroke="#A7A7A7" stroke-width="2"></path>
            <path d="M85.0997,9.6795 L78.5477,9.6795 C77.9747,9.6795 77.4837,10.1715 77.4837,10.7445 C77.4837,11.3175 77.9747,11.8085 78.5477,11.8085 L85.0997,11.8085 C85.6727,11.8085 86.1637,11.3175 86.1637,10.7445 C86.1637,10.1715 85.6727,9.6795 85.0997,9.6795" id="Fill-5" fill="#A7A7A7"></path>
            <path d="M85.0997,9.6795 L78.5477,9.6795 C77.9747,9.6795 77.4837,10.1715 77.4837,10.7445 C77.4837,11.3175 77.9747,11.8085 78.5477,11.8085 L85.0997,11.8085 C85.6727,11.8085 86.1637,11.3175 86.1637,10.7445 C86.1637,10.1715 85.6727,9.6795 85.0997,9.6795 Z" id="Stroke-7" stroke="#A7A7A7" stroke-width="2"></path>
            <path d="M69.7862,9.6795 L63.2352,9.6795 C62.6622,9.6795 62.1712,10.1715 62.1712,10.7445 C62.1712,11.3175 62.6622,11.8085 63.2352,11.8085 L69.7862,11.8085 C70.3592,11.8085 70.8502,11.3175 70.8502,10.7445 C70.8502,10.1715 70.3592,9.6795 69.7862,9.6795" id="Fill-9" fill="#A7A7A7"></path>
            <path d="M69.7862,9.6795 L63.2352,9.6795 C62.6622,9.6795 62.1712,10.1715 62.1712,10.7445 C62.1712,11.3175 62.6622,11.8085 63.2352,11.8085 L69.7862,11.8085 C70.3592,11.8085 70.8502,11.3175 70.8502,10.7445 C70.8502,10.1715 70.3592,9.6795 69.7862,9.6795 Z" id="Stroke-11" stroke="#A7A7A7" stroke-width="2"></path>
            <path d="M54.4728,9.6795 L47.9218,9.6795 C47.3488,9.6795 46.8578,10.1715 46.8578,10.7445 C46.8578,11.3175 47.3488,11.8085 47.9218,11.8085 L54.4728,11.8085 C55.0458,11.8085 55.5368,11.3175 55.5368,10.7445 C55.5368,10.1715 55.0458,9.6795 54.4728,9.6795" id="Fill-13" fill="#A7A7A7"></path>
            <path d="M54.4728,9.6795 L47.9218,9.6795 C47.3488,9.6795 46.8578,10.1715 46.8578,10.7445 C46.8578,11.3175 47.3488,11.8085 47.9218,11.8085 L54.4728,11.8085 C55.0458,11.8085 55.5368,11.3175 55.5368,10.7445 C55.5368,10.1715 55.0458,9.6795 54.4728,9.6795 Z" id="Stroke-15" stroke="#A7A7A7" stroke-width="2"></path>
            <path d="M39.1603,9.6795 L32.6083,9.6795 C32.0353,9.6795 31.5443,10.1715 31.5443,10.7445 C31.5443,11.3175 32.0353,11.8085 32.6083,11.8085 L39.1603,11.8085 C39.7333,11.8085 40.2243,11.3175 40.2243,10.7445 C40.2243,10.1715 39.8153,9.6795 39.1603,9.6795" id="Fill-17" fill="#A7A7A7"></path>
            <path d="M39.1603,9.6795 L32.6083,9.6795 C32.0353,9.6795 31.5443,10.1715 31.5443,10.7445 C31.5443,11.3175 32.0353,11.8085 32.6083,11.8085 L39.1603,11.8085 C39.7333,11.8085 40.2243,11.3175 40.2243,10.7445 C40.2243,10.1715 39.8153,9.6795 39.1603,9.6795 Z" id="Stroke-19" stroke="#A7A7A7" stroke-width="2"></path>
            <path d="M23.8468,9.6795 L17.2958,9.6795 C16.7228,9.6795 16.2318,10.1715 16.2318,10.7445 C16.2318,11.3175 16.7228,11.8085 17.2958,11.8085 L23.8468,11.8085 C24.4198,11.8085 24.9108,11.3175 24.9108,10.7445 C24.9108,10.1715 24.5018,9.6795 23.8468,9.6795" id="Fill-21" fill="#A7A7A7"></path>
            <path d="M23.8468,9.6795 L17.2958,9.6795 C16.7228,9.6795 16.2318,10.1715 16.2318,10.7445 C16.2318,11.3175 16.7228,11.8085 17.2958,11.8085 L23.8468,11.8085 C24.4198,11.8085 24.9108,11.3175 24.9108,10.7445 C24.9108,10.1715 24.5018,9.6795 23.8468,9.6795 Z" id="Stroke-23" stroke="#A7A7A7" stroke-width="2"></path>
            <path d="M14.0206,17.3772 C14.0206,17.9502 13.5296,18.4412 12.9566,18.4412 C12.3826,18.4412 11.8906,17.9502 11.8906,17.3772 L11.8906,4.2752 C11.8906,3.7022 12.3826,3.2102 12.9566,3.2102 C13.5296,3.2102 14.0206,3.7022 14.0206,4.2752 L14.0206,17.3772 Z M12.9566,0.9992 C11.1546,0.9992 9.6796,2.4732 9.6796,4.2752 L9.6796,17.3772 C9.6796,19.1792 11.1546,20.6522 12.9566,20.6522 C14.7566,20.6522 16.2316,19.1792 16.2316,17.3772 L16.2316,4.2752 C16.2316,2.4732 14.7566,0.9992 12.9566,0.9992 Z" id="Fill-25" fill="#A7A7A7"></path>
            <path d="M14.0206,17.3772 C14.0206,17.9502 13.5296,18.4412 12.9566,18.4412 C12.3826,18.4412 11.8906,17.9502 11.8906,17.3772 L11.8906,4.2752 C11.8906,3.7022 12.3826,3.2102 12.9566,3.2102 C13.5296,3.2102 14.0206,3.7022 14.0206,4.2752 L14.0206,17.3772 Z M12.9566,0.9992 C11.1546,0.9992 9.6796,2.4732 9.6796,4.2752 L9.6796,17.3772 C9.6796,19.1792 11.1546,20.6522 12.9566,20.6522 C14.7566,20.6522 16.2316,19.1792 16.2316,17.3772 L16.2316,4.2752 C16.2316,2.4732 14.7566,0.9992 12.9566,0.9992 Z" id="Stroke-27" stroke="#A7A7A7" stroke-width="2"></path>
            <path d="M29.3331,17.3772 C29.3331,17.9502 28.8421,18.4412 28.2691,18.4412 C27.6951,18.4412 27.2041,17.9502 27.2041,17.3772 L27.2041,4.2752 C27.2041,3.7022 27.6951,3.2102 28.2691,3.2102 C28.8421,3.2102 29.3331,3.7022 29.3331,4.2752 L29.3331,17.3772 Z M28.2691,0.9992 C26.4671,0.9992 24.9931,2.4732 24.9931,4.2752 L24.9931,17.3772 C24.9931,19.1792 26.4671,20.6522 28.2691,20.6522 C30.0701,20.6522 31.5441,19.1792 31.5441,17.3772 L31.5441,4.2752 C31.5441,2.4732 30.0701,0.9992 28.2691,0.9992 Z" id="Fill-29" fill="#A7A7A7"></path>
            <path d="M29.3331,17.3772 C29.3331,17.9502 28.8421,18.4412 28.2691,18.4412 C27.6951,18.4412 27.2041,17.9502 27.2041,17.3772 L27.2041,4.2752 C27.2041,3.7022 27.6951,3.2102 28.2691,3.2102 C28.8421,3.2102 29.3331,3.7022 29.3331,4.2752 L29.3331,17.3772 Z M28.2691,0.9992 C26.4671,0.9992 24.9931,2.4732 24.9931,4.2752 L24.9931,17.3772 C24.9931,19.1792 26.4671,20.6522 28.2691,20.6522 C30.0701,20.6522 31.5441,19.1792 31.5441,17.3772 L31.5441,4.2752 C31.5441,2.4732 30.0701,0.9992 28.2691,0.9992 Z" id="Stroke-31" stroke="#A7A7A7" stroke-width="2"></path>
            <path d="M44.6466,17.3772 C44.6466,17.9502 44.1556,18.4412 43.5826,18.4412 C43.0086,18.4412 42.5176,17.9502 42.5176,17.3772 L42.5176,4.2752 C42.5176,3.7022 43.0086,3.2102 43.5826,3.2102 C44.1556,3.2102 44.6466,3.7022 44.6466,4.2752 L44.6466,17.3772 Z M43.5826,0.9992 C41.7806,0.9992 40.3066,2.4732 40.3066,4.2752 L40.3066,17.3772 C40.3066,19.1792 41.7806,20.6522 43.5826,20.6522 C45.3836,20.6522 46.8576,19.1792 46.8576,17.3772 L46.8576,4.2752 C46.8576,2.4732 45.3836,0.9992 43.5826,0.9992 Z" id="Fill-33" fill="#A7A7A7"></path>
            <path d="M44.6466,17.3772 C44.6466,17.9502 44.1556,18.4412 43.5826,18.4412 C43.0086,18.4412 42.5176,17.9502 42.5176,17.3772 L42.5176,4.2752 C42.5176,3.7022 43.0086,3.2102 43.5826,3.2102 C44.1556,3.2102 44.6466,3.7022 44.6466,4.2752 L44.6466,17.3772 Z M43.5826,0.9992 C41.7806,0.9992 40.3066,2.4732 40.3066,4.2752 L40.3066,17.3772 C40.3066,19.1792 41.7806,20.6522 43.5826,20.6522 C45.3836,20.6522 46.8576,19.1792 46.8576,17.3772 L46.8576,4.2752 C46.8576,2.4732 45.3836,0.9992 43.5826,0.9992 Z" id="Stroke-35" stroke="#A7A7A7" stroke-width="2"></path>
            <path d="M59.9601,17.3772 C59.9601,17.9502 59.4681,18.4412 58.8961,18.4412 C58.3221,18.4412 57.8301,17.9502 57.8301,17.3772 L57.8301,4.2752 C57.8301,3.7022 58.3221,3.2102 58.8961,3.2102 C59.4681,3.2102 59.9601,3.7022 59.9601,4.2752 L59.9601,17.3772 Z M58.8141,0.9992 C57.0121,0.9992 55.5371,2.4732 55.5371,4.2752 L55.5371,17.3772 C55.5371,19.1792 57.0121,20.6522 58.8141,20.6522 C60.6141,20.6522 62.0891,19.1792 62.0891,17.3772 L62.0891,4.2752 C62.0891,2.4732 60.6961,0.9992 58.8141,0.9992 Z" id="Fill-37" fill="#A7A7A7"></path>
            <path d="M59.9601,17.3772 C59.9601,17.9502 59.4681,18.4412 58.8961,18.4412 C58.3221,18.4412 57.8301,17.9502 57.8301,17.3772 L57.8301,4.2752 C57.8301,3.7022 58.3221,3.2102 58.8961,3.2102 C59.4681,3.2102 59.9601,3.7022 59.9601,4.2752 L59.9601,17.3772 Z M58.8141,0.9992 C57.0121,0.9992 55.5371,2.4732 55.5371,4.2752 L55.5371,17.3772 C55.5371,19.1792 57.0121,20.6522 58.8141,20.6522 C60.6141,20.6522 62.0891,19.1792 62.0891,17.3772 L62.0891,4.2752 C62.0891,2.4732 60.6961,0.9992 58.8141,0.9992 Z" id="Stroke-39" stroke="#A7A7A7" stroke-width="2"></path>
            <path d="M75.2726,17.3772 C75.2726,17.9502 74.7816,18.4412 74.2086,18.4412 C73.6346,18.4412 73.1436,17.9502 73.1436,17.3772 L73.1436,4.2752 C73.1436,3.7022 73.6346,3.2102 74.2086,3.2102 C74.7816,3.2102 75.2726,3.7022 75.2726,4.2752 L75.2726,17.3772 Z M74.1266,0.9992 C72.3256,0.9992 70.8506,2.4732 70.8506,4.2752 L70.8506,17.3772 C70.8506,19.1792 72.3256,20.6522 74.1266,20.6522 C75.9276,20.6522 77.4016,19.1792 77.4016,17.3772 L77.4016,4.2752 C77.4016,2.4732 75.9276,0.9992 74.1266,0.9992 Z" id="Fill-41" fill="#A7A7A7"></path>
            <path d="M75.2726,17.3772 C75.2726,17.9502 74.7816,18.4412 74.2086,18.4412 C73.6346,18.4412 73.1436,17.9502 73.1436,17.3772 L73.1436,4.2752 C73.1436,3.7022 73.6346,3.2102 74.2086,3.2102 C74.7816,3.2102 75.2726,3.7022 75.2726,4.2752 L75.2726,17.3772 Z M74.1266,0.9992 C72.3256,0.9992 70.8506,2.4732 70.8506,4.2752 L70.8506,17.3772 C70.8506,19.1792 72.3256,20.6522 74.1266,20.6522 C75.9276,20.6522 77.4016,19.1792 77.4016,17.3772 L77.4016,4.2752 C77.4016,2.4732 75.9276,0.9992 74.1266,0.9992 Z" id="Stroke-43" stroke="#A7A7A7" stroke-width="2"></path>
            <path d="M90.586,17.3772 C90.586,17.9502 90.095,18.4412 89.522,18.4412 C88.948,18.4412 88.457,17.9502 88.457,17.3772 L88.457,4.2752 C88.457,3.7022 88.948,3.2102 89.522,3.2102 C90.095,3.2102 90.586,3.7022 90.586,4.2752 L90.586,17.3772 Z M89.44,0.9992 C87.638,0.9992 86.164,2.4732 86.164,4.2752 L86.164,17.3772 C86.164,19.1792 87.638,20.6522 89.44,20.6522 C91.241,20.6522 92.715,19.1792 92.715,17.3772 L92.715,4.2752 C92.715,2.4732 91.241,0.9992 89.44,0.9992 Z" id="Fill-45" fill="#A7A7A7"></path>
            <path d="M90.586,17.3772 C90.586,17.9502 90.095,18.4412 89.522,18.4412 C88.948,18.4412 88.457,17.9502 88.457,17.3772 L88.457,4.2752 C88.457,3.7022 88.948,3.2102 89.522,3.2102 C90.095,3.2102 90.586,3.7022 90.586,4.2752 L90.586,17.3772 Z M89.44,0.9992 C87.638,0.9992 86.164,2.4732 86.164,4.2752 L86.164,17.3772 C86.164,19.1792 87.638,20.6522 89.44,20.6522 C91.241,20.6522 92.715,19.1792 92.715,17.3772 L92.715,4.2752 C92.715,2.4732 91.241,0.9992 89.44,0.9992 Z" id="Stroke-47" stroke="#A7A7A7" stroke-width="2"></path>
            <path d="M22.6798,49.2933 L18.3398,44.9533 C17.9308,44.5433 17.1938,44.5433 16.7838,44.9533 C16.3738,45.3623 16.3738,46.0993 16.7838,46.5093 L21.1238,50.8493 C21.3698,51.0953 21.6158,51.1763 21.8618,51.1763 C22.1068,51.1763 22.4348,51.0953 22.5978,50.8493 C23.0888,50.4393 23.0888,49.7023 22.6798,49.2933" id="Fill-49" fill="#F73435"></path>
            <path d="M22.6798,49.2933 L18.3398,44.9533 C17.9308,44.5433 17.1938,44.5433 16.7838,44.9533 C16.3738,45.3623 16.3738,46.0993 16.7838,46.5093 L21.1238,50.8493 C21.3698,51.0953 21.6158,51.1763 21.8618,51.1763 C22.1068,51.1763 22.4348,51.0953 22.5978,50.8493 C23.0888,50.4393 23.0888,49.7023 22.6798,49.2933 Z" id="Stroke-51" stroke="#F73435" stroke-width="2"></path>
            <path d="M32.0157,40.8587 C31.6057,40.4497 30.8697,40.4497 30.4587,40.8587 L21.6977,49.6207 C21.2877,50.0297 21.2877,50.7677 21.6977,51.1767 C21.9427,51.4217 22.1887,51.5047 22.4347,51.5047 C22.6797,51.5047 23.0077,51.4217 23.1707,51.1767 L32.0157,42.4147 C32.4247,42.0047 32.4247,41.2687 32.0157,40.8587" id="Fill-53" fill="#F73435"></path>
            <path d="M32.0157,40.8587 C31.6057,40.4497 30.8697,40.4497 30.4587,40.8587 L21.6977,49.6207 C21.2877,50.0297 21.2877,50.7677 21.6977,51.1767 C21.9427,51.4217 22.1887,51.5047 22.4347,51.5047 C22.6797,51.5047 23.0077,51.4217 23.1707,51.1767 L32.0157,42.4147 C32.4247,42.0047 32.4247,41.2687 32.0157,40.8587 Z" id="Stroke-55" stroke="#F73435" stroke-width="2"></path>
            <path d="M85.0997,38.177 L41.3707,38.177 C40.7977,38.177 40.3067,38.668 40.3067,39.241 C40.3067,39.815 40.7977,40.306 41.3707,40.306 L85.0997,40.306 C85.6727,40.306 86.1637,39.815 86.1637,39.241 C86.1637,38.586 85.6727,38.177 85.0997,38.177" id="Fill-57" fill="#A7A7A7"></path>
            <path d="M85.0997,38.177 L41.3707,38.177 C40.7977,38.177 40.3067,38.668 40.3067,39.241 C40.3067,39.815 40.7977,40.306 41.3707,40.306 L85.0997,40.306 C85.6727,40.306 86.1637,39.815 86.1637,39.241 C86.1637,38.586 85.6727,38.177 85.0997,38.177 Z" id="Stroke-59" stroke="#A7A7A7" stroke-width="2"></path>
            <path d="M85.0997,44.7278 L41.3707,44.7278 C40.7977,44.7278 40.3067,45.2188 40.3067,45.7918 C40.3067,46.3658 40.7977,46.8568 41.3707,46.8568 L85.0997,46.8568 C85.6727,46.8568 86.1637,46.3658 86.1637,45.7918 C86.1637,45.2188 85.6727,44.7278 85.0997,44.7278" id="Fill-61" fill="#A7A7A7"></path>
            <path d="M85.0997,44.7278 L41.3707,44.7278 C40.7977,44.7278 40.3067,45.2188 40.3067,45.7918 C40.3067,46.3658 40.7977,46.8568 41.3707,46.8568 L85.0997,46.8568 C85.6727,46.8568 86.1637,46.3658 86.1637,45.7918 C86.1637,45.2188 85.6727,44.7278 85.0997,44.7278 Z" id="Stroke-63" stroke="#A7A7A7" stroke-width="2"></path>
            <path d="M63.2355,51.2791 L41.3715,51.2791 C40.7985,51.2791 40.3065,51.7701 40.3065,52.3431 C40.3065,52.9171 40.7985,53.4081 41.3715,53.4081 L63.2355,53.4081 C63.8085,53.4081 64.2995,52.9171 64.2995,52.3431 C64.2995,51.7701 63.8085,51.2791 63.2355,51.2791" id="Fill-65" fill="#A7A7A7"></path>
            <path d="M63.2355,51.2791 L41.3715,51.2791 C40.7985,51.2791 40.3065,51.7701 40.3065,52.3431 C40.3065,52.9171 40.7985,53.4081 41.3715,53.4081 L63.2355,53.4081 C63.8085,53.4081 64.2995,52.9171 64.2995,52.3431 C64.2995,51.7701 63.8085,51.2791 63.2355,51.2791 Z" id="Stroke-67" stroke="#A7A7A7" stroke-width="2"></path>
            <path d="M85.0997,66.5921 L41.3707,66.5921 C40.7977,66.5921 40.3067,67.0831 40.3067,67.6561 C40.3067,68.2301 40.7977,68.7211 41.3707,68.7211 L85.0997,68.7211 C85.6727,68.7211 86.1637,68.2301 86.1637,67.6561 C86.1637,67.0831 85.6727,66.5921 85.0997,66.5921" id="Fill-69" fill="#A7A7A7"></path>
            <path d="M85.0997,66.5921 L41.3707,66.5921 C40.7977,66.5921 40.3067,67.0831 40.3067,67.6561 C40.3067,68.2301 40.7977,68.7211 41.3707,68.7211 L85.0997,68.7211 C85.6727,68.7211 86.1637,68.2301 86.1637,67.6561 C86.1637,67.0831 85.6727,66.5921 85.0997,66.5921 Z" id="Stroke-71" stroke="#A7A7A7" stroke-width="2"></path>
            <path d="M85.0997,73.1434 L41.3707,73.1434 C40.7977,73.1434 40.3067,73.6344 40.3067,74.2074 C40.3067,74.7814 40.7977,75.2724 41.3707,75.2724 L85.0997,75.2724 C85.6727,75.2724 86.1637,74.7814 86.1637,74.2074 C86.1637,73.6344 85.6727,73.1434 85.0997,73.1434" id="Fill-73" fill="#A7A7A7"></path>
            <path d="M85.0997,73.1434 L41.3707,73.1434 C40.7977,73.1434 40.3067,73.6344 40.3067,74.2074 C40.3067,74.7814 40.7977,75.2724 41.3707,75.2724 L85.0997,75.2724 C85.6727,75.2724 86.1637,74.7814 86.1637,74.2074 C86.1637,73.6344 85.6727,73.1434 85.0997,73.1434 Z" id="Stroke-75" stroke="#A7A7A7" stroke-width="2"></path>
            <path d="M63.2355,79.6941 L41.3715,79.6941 C40.7985,79.6941 40.3065,80.1861 40.3065,80.7591 C40.3065,81.3321 40.7985,81.8231 41.3715,81.8231 L63.2355,81.8231 C63.8085,81.8231 64.2995,81.3321 64.2995,80.7591 C64.2995,80.1861 63.8085,79.6941 63.2355,79.6941" id="Fill-77" fill="#A7A7A7"></path>
            <path d="M63.2355,79.6941 L41.3715,79.6941 C40.7985,79.6941 40.3065,80.1861 40.3065,80.7591 C40.3065,81.3321 40.7985,81.8231 41.3715,81.8231 L63.2355,81.8231 C63.8085,81.8231 64.2995,81.3321 64.2995,80.7591 C64.2995,80.1861 63.8085,79.6941 63.2355,79.6941 Z" id="Stroke-79" stroke="#A7A7A7" stroke-width="2"></path>
            <path d="M85.0997,95.0076 L41.3707,95.0076 C40.7977,95.0076 40.3067,95.4986 40.3067,96.0716 C40.3067,96.6456 40.7977,97.1366 41.3707,97.1366 L85.0997,97.1366 C85.6727,97.1366 86.1637,96.6456 86.1637,96.0716 C86.1637,95.4986 85.6727,95.0076 85.0997,95.0076" id="Fill-81" fill="#A7A7A7"></path>
            <path d="M85.0997,95.0076 L41.3707,95.0076 C40.7977,95.0076 40.3067,95.4986 40.3067,96.0716 C40.3067,96.6456 40.7977,97.1366 41.3707,97.1366 L85.0997,97.1366 C85.6727,97.1366 86.1637,96.6456 86.1637,96.0716 C86.1637,95.4986 85.6727,95.0076 85.0997,95.0076 Z" id="Stroke-83" stroke="#A7A7A7" stroke-width="2"></path>
            <path d="M85.0997,101.5584 L41.3707,101.5584 C40.7977,101.5584 40.3067,102.0504 40.3067,102.6224 C40.3067,103.1964 40.7977,103.6874 41.3707,103.6874 L85.0997,103.6874 C85.6727,103.6874 86.1637,103.1964 86.1637,102.6224 C86.1637,102.0504 85.6727,101.5584 85.0997,101.5584" id="Fill-85" fill="#A7A7A7"></path>
            <path d="M85.0997,101.5584 L41.3707,101.5584 C40.7977,101.5584 40.3067,102.0504 40.3067,102.6224 C40.3067,103.1964 40.7977,103.6874 41.3707,103.6874 L85.0997,103.6874 C85.6727,103.6874 86.1637,103.1964 86.1637,102.6224 C86.1637,102.0504 85.6727,101.5584 85.0997,101.5584 Z" id="Stroke-87" stroke="#A7A7A7" stroke-width="2"></path>
            <path d="M63.2355,108.1097 L41.3715,108.1097 C40.7985,108.1097 40.3065,108.6007 40.3065,109.1737 C40.3065,109.7477 40.7985,110.2387 41.3715,110.2387 L63.2355,110.2387 C63.8085,110.2387 64.2995,109.7477 64.2995,109.1737 C64.2995,108.6007 63.8085,108.1097 63.2355,108.1097" id="Fill-89" fill="#A7A7A7"></path>
            <path d="M63.2355,108.1097 L41.3715,108.1097 C40.7985,108.1097 40.3065,108.6007 40.3065,109.1737 C40.3065,109.7477 40.7985,110.2387 41.3715,110.2387 L63.2355,110.2387 C63.8085,110.2387 64.2995,109.7477 64.2995,109.1737 C64.2995,108.6007 63.8085,108.1097 63.2355,108.1097 Z" id="Stroke-91" stroke="#A7A7A7" stroke-width="2"></path>
            <mask id="mask-2" fill="white">
                <use xlink:href="#path-1"></use>
            </mask>
            <g id="Clip-94"></g>
            <polygon id="Fill-93" fill="#FFFFFF" mask="url(#mask-2)" points="77.32 141.848 114.17 141.848 114.17 106.636 77.32 106.636"></polygon>
            <path d="M100.5763,129.4007 L86.0823,115.0697 C84.6083,113.6777 82.3153,113.6777 80.9233,115.0697 C79.5313,116.5447 79.5313,118.8377 80.9233,120.2297 L92.7973,132.0207 L80.4313,144.5497 C79.0403,146.0237 79.0403,148.3167 80.4313,149.7087 C81.9053,151.1007 84.1983,151.1007 85.5913,149.7087 L100.5763,134.5597 C102.0503,133.1677 101.9693,130.8747 100.5763,129.4007" id="Fill-95" fill="#F73435" mask="url(#mask-2)"></path>
            <path d="M125.1427,129.4007 L110.6487,115.0697 C109.1747,113.6777 106.8817,113.6777 105.4897,115.0697 C104.0977,116.5447 104.0977,118.8377 105.4897,120.2297 L117.3637,132.0207 L104.9977,144.5497 C103.6067,146.0237 103.6067,148.3167 104.9977,149.7087 C106.4727,151.1007 108.7647,151.1007 110.1577,149.7087 L125.1427,134.5597 C126.6177,133.1677 126.5357,130.8747 125.1427,129.4007" id="Fill-96" fill="#F73435" mask="url(#mask-2)"></path>
            <path d="M22.6798,77.9544 L18.3398,73.6144 C17.9308,73.2044 17.1938,73.2044 16.7838,73.6144 C16.3738,74.0234 16.3738,74.7604 16.7838,75.1704 L21.1238,79.5104 C21.3698,79.7554 21.6158,79.8374 21.8618,79.8374 C22.1068,79.8374 22.4348,79.7554 22.5978,79.5104 C23.0888,79.1004 23.0888,78.3634 22.6798,77.9544" id="Fill-97" fill="#F73435" mask="url(#mask-2)"></path>
            <path d="M22.6798,77.9544 L18.3398,73.6144 C17.9308,73.2044 17.1938,73.2044 16.7838,73.6144 C16.3738,74.0234 16.3738,74.7604 16.7838,75.1704 L21.1238,79.5104 C21.3698,79.7554 21.6158,79.8374 21.8618,79.8374 C22.1068,79.8374 22.4348,79.7554 22.5978,79.5104 C23.0888,79.1004 23.0888,78.3634 22.6798,77.9544 Z" id="Stroke-98" stroke="#F73435" stroke-width="2" mask="url(#mask-2)"></path>
            <path d="M32.0157,68.701 C31.6057,68.291 30.8697,68.291 30.4587,68.701 L21.6977,77.463 C21.2877,77.872 21.2877,78.609 21.6977,79.019 C21.9427,79.264 22.1887,79.347 22.4347,79.347 C22.6797,79.347 23.0077,79.264 23.1707,79.019 L32.0157,70.257 C32.4247,69.847 32.4247,69.11 32.0157,68.701" id="Fill-99" fill="#F73435" mask="url(#mask-2)"></path>
            <path d="M32.0157,68.701 C31.6057,68.291 30.8697,68.291 30.4587,68.701 L21.6977,77.463 C21.2877,77.872 21.2877,78.609 21.6977,79.019 C21.9427,79.264 22.1887,79.347 22.4347,79.347 C22.6797,79.347 23.0077,79.264 23.1707,79.019 L32.0157,70.257 C32.4247,69.847 32.4247,69.11 32.0157,68.701 Z" id="Stroke-100" stroke="#F73435" stroke-width="2" mask="url(#mask-2)"></path>
            <path d="M22.6798,106.615 L18.3398,102.275 C17.9308,101.865 17.1938,101.865 16.7838,102.275 C16.3738,102.684 16.3738,103.422 16.7838,103.831 L21.1238,108.171 C21.3698,108.417 21.6158,108.498 21.8618,108.498 C22.1068,108.498 22.4348,108.417 22.5978,108.171 C23.0888,107.761 23.0888,107.025 22.6798,106.615" id="Fill-101" fill="#F73435" mask="url(#mask-2)"></path>
            <path d="M22.6798,106.615 L18.3398,102.275 C17.9308,101.865 17.1938,101.865 16.7838,102.275 C16.3738,102.684 16.3738,103.422 16.7838,103.831 L21.1238,108.171 C21.3698,108.417 21.6158,108.498 21.8618,108.498 C22.1068,108.498 22.4348,108.417 22.5978,108.171 C23.0888,107.761 23.0888,107.025 22.6798,106.615 Z" id="Stroke-102" stroke="#F73435" stroke-width="2" mask="url(#mask-2)"></path>
            <path d="M32.0157,97.3616 C31.6057,96.9526 30.8697,96.9526 30.4587,97.3616 L21.6977,106.1236 C21.2877,106.5326 21.2877,107.2706 21.6977,107.6796 C21.9427,107.9256 22.1887,108.0076 22.4347,108.0076 C22.6797,108.0076 23.0077,107.9256 23.1707,107.6796 L32.0157,98.9176 C32.4247,98.5076 32.4247,97.7716 32.0157,97.3616" id="Fill-103" fill="#F73435" mask="url(#mask-2)"></path>
            <path d="M32.0157,97.3616 C31.6057,96.9526 30.8697,96.9526 30.4587,97.3616 L21.6977,106.1236 C21.2877,106.5326 21.2877,107.2706 21.6977,107.6796 C21.9427,107.9256 22.1887,108.0076 22.4347,108.0076 C22.6797,108.0076 23.0077,107.9256 23.1707,107.6796 L32.0157,98.9176 C32.4247,98.5076 32.4247,97.7716 32.0157,97.3616 Z" id="Stroke-104" stroke="#F73435" stroke-width="2" mask="url(#mask-2)"></path>
        </g>
    </g>
</svg>
