<?xml version="1.0" encoding="utf-8"?>
<!-- Generator: Adobe Illustrator 25.2.3, SVG Export Plug-In . SVG Version: 6.00 Build 0)  -->
<svg version="1.1" xmlns="http://www.w3.org/2000/svg" xmlns:xlink="http://www.w3.org/1999/xlink" x="0px" y="0px"
	 viewBox="0 0 2695.42 1395.69" style="enable-background:new 0 0 2695.42 1395.69;" xml:space="preserve">
<style type="text/css">
	.st0{fill:#272727;}
	.st1{fill:#FF3435;}
	.st2{fill:#FFFFFF;}
</style>
<g id="bg">
</g>
<g id="Capa_1">
	<g>
		<g>
			<g>
				<path class="st0" d="M1086.44,107.15l60.36,0.01l-0.01,52.09l-58.61-0.01l-0.03,191.63l-68.23-0.01l0.03-191.63l-36.3-0.01
					l0.01-52.09l36.3,0.01l0-10.42c0-26.62,7.95-47.75,23.85-63.38c15.89-15.62,38.27-23.43,67.14-23.43
					c10.2,0,19.9,1.09,29.08,3.26c9.18,2.17,16.84,5.29,22.96,9.34l-17.94,49.05c-7.87-5.5-17.06-8.25-27.55-8.25
					c-20.71,0-31.05,11.28-31.06,33.85L1086.44,107.15z"/>
				<rect x="1196.41" y="10.84" class="st0" width="68.23" height="340.04"/>
				<path class="st0" d="M1565.12,115.62l-0.03,235.31l-64.73-0.01l0-27.99c-9.05,10.21-19.84,18-32.37,23.39
					c-12.54,5.39-26.11,8.09-40.68,8.09c-30.91,0-55.4-8.89-73.48-26.69c-18.08-17.78-27.11-44.18-27.11-79.17l0.02-132.96
					l68.23,0.01l-0.02,122.9c-0.01,37.91,15.89,56.86,47.67,56.87c16.33,0,29.45-5.31,39.37-15.96
					c9.91-10.64,14.87-26.46,14.87-47.46l0.02-116.34L1565.12,115.62z"/>
				<path class="st0" d="M1631.57,76.36c-7.55-7.42-11.33-16.63-11.33-27.62c0-10.98,3.78-20.19,11.33-27.61S1648.92,10,1660.96,10
					c12.03,0,21.82,3.56,29.38,10.7c7.55,7.12,11.33,16.04,11.33,26.73c0,11.58-3.78,21.16-11.33,28.73
					c-7.55,7.57-17.35,11.36-29.38,11.36C1648.91,87.5,1639.12,83.79,1631.57,76.36z"/>
				<rect x="1628.53" y="115.64" class="st0" width="68.23" height="235.31"/>
				<path class="st0" d="M1931.66,10.04l-0.02,130.57c-16.91-18.95-40.38-28.44-70.42-28.44c-22.16,0-42.21,4.96-60.14,14.86
					c-17.93,9.91-32.01,24.05-42.22,42.42c-10.21,18.37-15.31,39.66-15.31,63.86c0,24.21,5.09,45.48,15.3,63.86
					s24.28,32.52,42.21,42.44c17.93,9.92,37.97,14.87,60.13,14.87c32.07,0,56.57-10.19,73.49-30.61l0,27.12l65.17,0.01l0.05-340.95
					L1931.66,10.04z M1915.87,280.78c-11.37,11.81-25.66,17.72-42.87,17.71c-17.49,0-31.93-5.91-43.29-17.73
					c-11.37-11.81-17.06-27.62-17.05-47.45c0-19.83,5.69-35.65,17.07-47.46c11.37-11.81,25.81-17.71,43.3-17.71
					c17.2,0,31.49,5.91,42.86,17.72c11.37,11.81,17.06,27.63,17.05,47.46S1927.25,268.98,1915.87,280.78z"/>
			</g>
			<g>
				<path class="st0" d="M1154.54,534.1c15.82,15.07,23.74,37.23,23.74,66.45l-0.02,151.16l-21.92,0l0.01-42.47
					c-7.62,14-18.73,24.88-33.34,32.65c-14.62,7.76-32.13,11.64-52.52,11.63c-26.49,0-47.42-6.24-62.79-18.73
					c-15.38-12.48-23.06-28.92-23.05-49.32c0-19.79,7.08-35.85,21.24-48.17c14.16-12.33,36.76-18.49,67.82-18.49l81.74,0.01l0-19.17
					c0-22.22-6.01-39.12-18.03-50.7c-12.03-11.56-29.61-17.36-52.74-17.36c-15.83,0-30.98,2.74-45.44,8.22
					c-14.46,5.47-26.72,12.78-36.76,21.91l-11.41-16.44c11.87-10.65,26.18-18.95,42.93-24.88c16.74-5.93,34.25-8.9,52.52-8.9
					C1116.03,511.49,1138.71,519.03,1154.54,534.1z M1124.14,721.1c13.85-9.13,24.28-22.37,31.29-39.72l0.01-44.75l-81.29-0.01
					c-23.44,0-40.42,4.26-50.92,12.78c-10.5,8.53-15.76,20.25-15.76,35.16c0,15.52,5.78,27.78,17.35,36.76
					c11.56,8.99,27.86,13.48,48.86,13.48C1093.47,734.8,1110.29,730.23,1124.14,721.1z"/>
				<path class="st0" d="M1390.6,736.67c-5.79,5.48-13.02,9.67-21.69,12.55c-8.68,2.89-17.74,4.34-27.18,4.33
					c-20.7,0-36.68-5.71-47.94-17.13c-11.26-11.41-16.89-27.32-16.89-47.72l0.02-155.72l-43.84-0.01l0-19.64l43.84,0.01l0.01-52.06
					l22.83,0l-0.01,52.06l75.8,0.01l0,19.64l-75.8-0.01l-0.02,153.44c0,15.52,3.72,27.33,11.18,35.39
					c7.46,8.07,18.49,12.1,33.1,12.1c14.91,0,27.25-4.41,36.99-13.23L1390.6,736.67z"/>
				<path class="st0" d="M1565.96,736.69c-5.79,5.48-13.02,9.67-21.69,12.55c-8.68,2.89-17.74,4.34-27.17,4.33
					c-20.71,0-36.69-5.71-47.95-17.13c-11.26-11.41-16.89-27.32-16.89-47.72l0.02-155.72l-43.84-0.01l0-19.64l43.84,0.01l0.01-52.06
					l22.84,0l-0.01,52.06l75.8,0.01l0,19.64l-75.8-0.01l-0.02,153.44c0,15.52,3.72,27.33,11.18,35.39
					c7.46,8.07,18.5,12.1,33.11,12.1c14.91,0,27.24-4.41,36.99-13.23L1565.96,736.69z"/>
				<path class="st0" d="M1777.88,534.19c15.83,15.07,23.74,37.23,23.74,66.45l-0.02,151.16l-21.92,0l0.01-42.47
					c-7.61,14-18.73,24.88-33.34,32.65c-14.61,7.76-32.13,11.64-52.52,11.63c-26.49,0-47.42-6.24-62.79-18.73
					c-15.38-12.48-23.06-28.92-23.05-49.32c0-19.79,7.09-35.85,21.24-48.17c14.16-12.33,36.77-18.49,67.82-18.49l81.75,0.01l0-19.17
					c0-22.22-6.01-39.12-18.03-50.7c-12.03-11.56-29.61-17.36-52.74-17.36c-15.83,0-30.98,2.74-45.44,8.22
					c-14.46,5.47-26.71,12.78-36.76,21.91l-11.42-16.44c11.87-10.65,26.18-18.95,42.93-24.88c16.74-5.93,34.25-8.9,52.51-8.9
					C1739.36,511.59,1762.05,519.12,1777.88,534.19z M1747.48,721.19c13.85-9.13,24.28-22.37,31.29-39.72l0.01-44.75l-81.29-0.01
					c-23.45,0-40.42,4.26-50.92,12.78c-10.5,8.53-15.76,20.25-15.76,35.16c0,15.52,5.78,27.78,17.35,36.76
					c11.57,8.99,27.86,13.48,48.86,13.48C1716.81,734.89,1733.62,730.32,1747.48,721.19z"/>
				<path class="st0" d="M1928.54,738.11c-18.26-10.35-32.57-24.73-42.92-43.16c-10.35-18.42-15.52-39.2-15.51-62.34
					c0-23.44,5.17-44.37,15.53-62.78c10.36-18.42,24.67-32.72,42.93-42.92c18.27-10.19,38.97-15.29,62.11-15.29
					c19.18,0,36.6,3.74,52.28,11.2c15.68,7.46,28.38,18.35,38.13,32.65l-16.91,12.33c-8.52-11.88-19.1-20.79-31.73-26.72
					c-12.64-5.94-26.56-8.91-41.78-8.91c-18.57,0-35.24,4.18-50,12.55c-14.77,8.37-26.34,20.17-34.71,35.39
					c-8.38,15.23-12.56,32.72-12.57,52.51c0,19.8,4.18,37.29,12.55,52.52c8.37,15.23,19.93,27.03,34.7,35.4
					c14.76,8.38,31.43,12.56,50,12.56c15.22,0,29.15-2.97,41.78-8.9c12.64-5.93,23.22-14.84,31.74-26.71l16.9,12.33
					c-9.75,14.31-22.46,25.19-38.14,32.64c-15.68,7.47-33.11,11.19-52.29,11.18C1967.5,753.65,1946.81,748.48,1928.54,738.11z"/>
				<path class="st0" d="M2230.41,624.45l-62.12,56.61l-0.01,70.78l-22.84,0L2145.5,413l22.84,0l-0.04,239.75l152.54-139.26l29.22,0
					l-102.76,96.34l112.77,142.04l-28.31,0L2230.41,624.45z"/>
				<path class="st0" d="M2412.15,745.04c-17.35-5.78-30.91-13.09-40.64-21.92l10.51-18.27c9.73,8.22,22.29,15.07,37.67,20.55
					c15.37,5.49,31.43,8.23,48.17,8.23c24.05,0,41.79-3.95,53.2-11.87c11.42-7.91,17.13-18.87,17.13-32.87
					c0-10.05-3.12-17.96-9.35-23.75c-6.24-5.79-13.93-10.05-23.06-12.79c-9.14-2.74-21.77-5.64-37.91-8.68
					c-18.88-3.35-34.09-7.01-45.66-10.97c-11.58-3.95-21.46-10.35-29.68-19.18c-8.22-8.83-12.33-21.01-12.32-36.54
					c0-18.87,7.84-34.48,23.53-46.8c15.67-12.33,37.98-18.49,66.9-18.48c15.22,0,30.29,2.14,45.21,6.4
					c14.91,4.27,27.09,9.9,36.53,16.9l-10.51,18.26c-9.75-7-20.85-12.33-33.34-15.98c-12.49-3.65-25.27-5.49-38.36-5.49
					c-22.22,0-38.97,4.11-50.23,12.33c-11.27,8.22-16.9,19.03-16.9,32.41c0,10.66,3.19,18.96,9.58,24.89
					c6.39,5.94,14.23,10.35,23.52,13.25c9.29,2.89,22.3,6.02,39.05,9.36c18.56,3.35,33.56,6.94,44.98,10.74
					c11.42,3.81,21.08,9.98,28.99,18.5c7.92,8.53,11.87,20.26,11.87,35.17c0,19.79-8.22,35.62-24.67,47.49
					c-16.44,11.87-39.58,17.8-69.41,17.79C2447.77,753.72,2429.5,750.82,2412.15,745.04z"/>
			</g>
			<g>
				<g>
					<path class="st0" d="M252.17,924.58l-33.74,88.94h-8.01l-29.99-77.18l-30.16,77.18h-7.84l-33.73-88.94h8.18l29.65,79.4
						l30.33-79.4h7.33l30.16,79.23l29.99-79.23H252.17z"/>
					<path class="st0" d="M373.48,971.1h-76.5c0.22,6.93,1.98,13.09,5.28,18.49c3.29,5.4,7.75,9.57,13.38,12.52
						c5.62,2.96,11.95,4.43,19,4.43c5.79,0,11.16-1.05,16.1-3.15c4.94-2.1,9.06-5.2,12.35-9.29l4.94,5.62
						c-3.86,4.66-8.72,8.24-14.57,10.73c-5.85,2.5-12.18,3.75-19,3.75c-8.86,0-16.76-1.93-23.68-5.79
						c-6.93-3.86-12.35-9.2-16.27-16.02c-3.92-6.82-5.88-14.59-5.88-23.34c0-8.63,1.84-16.38,5.54-23.26
						c3.69-6.87,8.77-12.24,15.25-16.1c6.48-3.86,13.74-5.79,21.81-5.79c8.06,0,15.31,1.9,21.72,5.71
						c6.42,3.81,11.47,9.12,15.17,15.93c3.69,6.82,5.54,14.54,5.54,23.17L373.48,971.1z M314.36,935.57c-5,2.79-9,6.7-12.01,11.76
						c-3.01,5.06-4.75,10.76-5.2,17.12h68.15c-0.34-6.36-2.04-12.04-5.11-17.04c-3.07-5-7.1-8.92-12.1-11.76
						c-5-2.84-10.62-4.26-16.87-4.26C324.98,931.4,319.36,932.79,314.36,935.57z"/>
					<path class="st0" d="M571.63,933.61c6.47,6.48,9.71,15.79,9.71,27.94v51.97h-8.52v-51.28c0-10-2.53-17.6-7.58-22.83
						c-5.06-5.22-12.13-7.84-21.21-7.84c-10.45,0-18.69,3.13-24.71,9.37c-6.02,6.25-9.03,14.65-9.03,25.22v47.37h-8.52V887.1h8.52
						v56.06c3.07-6.13,7.61-10.87,13.63-14.22c6.02-3.35,13.12-5.03,21.3-5.03C556.35,923.9,565.16,927.14,571.63,933.61z"/>
					<path class="st0" d="M700.78,932.34c5.91,5.62,8.86,13.88,8.86,24.79v56.4h-8.18v-15.84c-2.84,5.22-6.98,9.28-12.44,12.18
						c-5.45,2.9-11.98,4.35-19.59,4.35c-9.88,0-17.69-2.33-23.43-6.99c-5.74-4.65-8.6-10.79-8.6-18.4c0-7.38,2.64-13.37,7.92-17.97
						c5.28-4.6,13.72-6.9,25.3-6.9h30.5v-7.16c0-8.29-2.25-14.59-6.73-18.91c-4.49-4.32-11.05-6.48-19.68-6.48
						c-5.91,0-11.56,1.02-16.95,3.07c-5.4,2.04-9.97,4.77-13.71,8.18l-4.26-6.14c4.43-3.97,9.77-7.07,16.02-9.28
						c6.24-2.21,12.78-3.32,19.59-3.32C686.41,923.9,694.87,926.71,700.78,932.34z M689.45,1002.11c5.17-3.41,9.06-8.35,11.67-14.82
						v-16.7h-30.33c-8.75,0-15.08,1.59-19,4.77c-3.92,3.18-5.88,7.55-5.88,13.12c0,5.79,2.16,10.37,6.48,13.71
						c4.32,3.35,10.39,5.03,18.23,5.03C678,1007.22,684.28,1005.52,689.45,1002.11z"/>
					<path class="st0" d="M785.97,1008.41c-6.82-3.86-12.15-9.23-16.02-16.1c-3.86-6.87-5.79-14.62-5.79-23.26
						c0-8.74,1.93-16.55,5.79-23.43c3.86-6.87,9.2-12.21,16.02-16.02c6.82-3.8,14.54-5.71,23.17-5.71c7.16,0,13.66,1.4,19.51,4.18
						c5.85,2.78,10.59,6.84,14.23,12.18l-6.3,4.6c-3.18-4.43-7.13-7.75-11.84-9.97c-4.71-2.22-9.91-3.32-15.59-3.32
						c-6.93,0-13.15,1.56-18.66,4.69c-5.51,3.13-9.83,7.53-12.95,13.21c-3.13,5.68-4.69,12.21-4.69,19.59
						c0,7.38,1.56,13.91,4.69,19.59c3.12,5.68,7.44,10.08,12.95,13.21c5.51,3.13,11.73,4.69,18.66,4.69
						c5.68,0,10.88-1.11,15.59-3.32c4.71-2.21,8.66-5.53,11.84-9.97l6.3,4.6c-3.64,5.34-8.38,9.4-14.23,12.18
						c-5.85,2.79-12.35,4.18-19.51,4.18C800.51,1014.21,792.78,1012.28,785.97,1008.41z"/>
					<path class="st0" d="M927.55,965.99l-23.17,21.13v26.41h-8.52V887.1h8.52v89.45l56.91-51.97h10.9l-38.34,35.95l42.08,52.99
						h-10.56L927.55,965.99z"/>
					<path class="st0" d="M1169.15,924.58l-45.66,101.04c-3.41,7.84-7.36,13.4-11.84,16.7c-4.49,3.29-9.8,4.94-15.93,4.94
						c-4.09,0-7.92-0.68-11.5-2.04c-3.58-1.37-6.62-3.35-9.12-5.96l4.26-6.48c4.54,4.66,10.05,6.98,16.53,6.98
						c4.32,0,8.01-1.19,11.08-3.58c3.07-2.38,5.91-6.47,8.52-12.26l4.77-10.73l-40.04-88.6h9.03l35.61,79.57l35.61-79.57H1169.15z"
						/>
					<path class="st0" d="M1226.14,1008.41c-6.76-3.86-12.07-9.23-15.93-16.1c-3.86-6.87-5.79-14.62-5.79-23.26
						c0-8.63,1.93-16.38,5.79-23.26c3.86-6.87,9.17-12.24,15.93-16.1c6.76-3.86,14.34-5.79,22.75-5.79c8.41,0,15.99,1.93,22.75,5.79
						c6.76,3.86,12.07,9.23,15.93,16.1c3.86,6.87,5.79,14.63,5.79,23.26c0,8.63-1.93,16.39-5.79,23.26
						c-3.86,6.87-9.17,12.24-15.93,16.1c-6.76,3.86-14.34,5.79-22.75,5.79C1240.48,1014.21,1232.9,1012.28,1226.14,1008.41z
						 M1267.21,1001.77c5.39-3.18,9.65-7.61,12.78-13.29c3.12-5.68,4.69-12.15,4.69-19.42c0-7.27-1.56-13.74-4.69-19.42
						c-3.12-5.68-7.38-10.11-12.78-13.29c-5.4-3.18-11.5-4.77-18.32-4.77s-12.92,1.59-18.32,4.77c-5.4,3.18-9.65,7.61-12.78,13.29
						c-3.13,5.68-4.69,12.15-4.69,19.42c0,7.27,1.56,13.74,4.69,19.42c3.12,5.68,7.38,10.11,12.78,13.29
						c5.39,3.18,11.5,4.77,18.32,4.77S1261.81,1004.95,1267.21,1001.77z"/>
					<path class="st0" d="M1426.6,924.58v88.94h-8.18v-19.08c-2.95,6.25-7.33,11.11-13.12,14.57c-5.79,3.47-12.61,5.2-20.45,5.2
						c-11.59,0-20.67-3.24-27.26-9.71c-6.59-6.48-9.88-15.79-9.88-27.94v-51.97h8.52v51.28c0,10,2.56,17.61,7.67,22.83
						c5.11,5.22,12.32,7.84,21.64,7.84c10,0,17.92-3.13,23.77-9.37c5.85-6.25,8.77-14.65,8.77-25.22v-47.37H1426.6z"/>
					<path class="st0" d="M1512.64,929.1c5.79-3.46,12.83-5.2,21.13-5.2v8.35l-2.04-0.17c-9.88,0-17.61,3.1-23.17,9.28
						c-5.57,6.2-8.35,14.8-8.35,25.81v46.34h-8.52v-88.94h8.18v19.42C1502.59,937.53,1506.85,932.57,1512.64,929.1z"/>
					<path class="st0" d="M1662.57,1010.97c-6.48-2.15-11.53-4.88-15.17-8.18l3.92-6.82c3.63,3.07,8.32,5.62,14.06,7.67
						c5.74,2.04,11.73,3.07,17.98,3.07c8.97,0,15.59-1.48,19.85-4.43c4.26-2.95,6.39-7.04,6.39-12.26c0-3.75-1.17-6.7-3.49-8.86
						c-2.33-2.16-5.2-3.75-8.6-4.77c-3.41-1.02-8.12-2.1-14.14-3.24c-7.05-1.25-12.72-2.61-17.04-4.09
						c-4.32-1.48-8.01-3.86-11.08-7.15c-3.07-3.3-4.6-7.84-4.6-13.63c0-7.04,2.92-12.87,8.77-17.46c5.85-4.6,14.17-6.9,24.96-6.9
						c5.68,0,11.3,0.8,16.87,2.39c5.56,1.59,10.11,3.69,13.63,6.3l-3.92,6.82c-3.64-2.61-7.78-4.6-12.44-5.96
						c-4.66-1.36-9.43-2.04-14.31-2.04c-8.29,0-14.54,1.54-18.74,4.6c-4.2,3.07-6.3,7.1-6.3,12.09c0,3.98,1.19,7.07,3.58,9.29
						c2.39,2.21,5.31,3.86,8.77,4.94c3.46,1.08,8.32,2.24,14.57,3.49c6.93,1.25,12.52,2.58,16.78,4c4.26,1.42,7.86,3.72,10.82,6.9
						c2.95,3.18,4.43,7.56,4.43,13.12c0,7.38-3.07,13.29-9.2,17.72c-6.13,4.43-14.77,6.65-25.9,6.65
						C1675.86,1014.21,1669.05,1013.12,1662.57,1010.97z"/>
					<path class="st0" d="M1782.95,1008.41c-6.76-3.86-12.07-9.23-15.93-16.1c-3.86-6.87-5.79-14.62-5.79-23.26
						c0-8.63,1.93-16.38,5.79-23.26c3.86-6.87,9.17-12.24,15.93-16.1c6.76-3.86,14.34-5.79,22.75-5.79c8.41,0,15.99,1.93,22.75,5.79
						c6.76,3.86,12.07,9.23,15.93,16.1c3.86,6.87,5.79,14.63,5.79,23.26c0,8.63-1.93,16.39-5.79,23.26
						c-3.86,6.87-9.17,12.24-15.93,16.1c-6.76,3.86-14.34,5.79-22.75,5.79C1797.29,1014.21,1789.71,1012.28,1782.95,1008.41z
						 M1824.01,1001.77c5.39-3.18,9.65-7.61,12.78-13.29c3.12-5.68,4.69-12.15,4.69-19.42c0-7.27-1.56-13.74-4.69-19.42
						c-3.12-5.68-7.38-10.11-12.78-13.29c-5.4-3.18-11.5-4.77-18.32-4.77s-12.92,1.59-18.32,4.77c-5.4,3.18-9.65,7.61-12.78,13.29
						c-3.13,5.68-4.69,12.15-4.69,19.42c0,7.27,1.56,13.74,4.69,19.42c3.12,5.68,7.38,10.11,12.78,13.29
						c5.39,3.18,11.5,4.77,18.32,4.77S1818.61,1004.95,1824.01,1001.77z"/>
					<path class="st0" d="M1915.59,911.64v12.95h28.45v7.33h-28.28v81.61h-8.52v-81.61h-16.36v-7.33h16.36v-13.63
						c0-7.5,2.16-13.46,6.47-17.89c4.32-4.43,10.39-6.64,18.23-6.64c3.41,0,6.67,0.48,9.8,1.45c3.12,0.97,5.71,2.41,7.75,4.35
						l-3.41,6.47c-3.64-3.29-8.24-4.94-13.8-4.94C1921.15,893.74,1915.59,899.71,1915.59,911.64z"/>
					<path class="st0" d="M2034.51,1007.9c-2.16,2.04-4.86,3.61-8.09,4.69c-3.24,1.08-6.62,1.62-10.14,1.62
						c-7.73,0-13.69-2.13-17.89-6.39c-4.2-4.26-6.3-10.2-6.3-17.8v-58.1h-16.36v-7.33h16.36v-19.42h8.52v19.42h28.28v7.33h-28.28
						v57.25c0,5.79,1.39,10.2,4.18,13.2c2.78,3.01,6.9,4.52,12.35,4.52c5.56,0,10.16-1.65,13.8-4.94L2034.51,1007.9z"/>
					<path class="st0" d="M2212.56,924.58l-33.74,88.94h-8.01l-29.99-77.18l-30.16,77.18h-7.84l-33.73-88.94h8.18l29.65,79.4
						l30.33-79.4h7.33l30.16,79.23l29.99-79.23H2212.56z"/>
					<path class="st0" d="M2313.94,932.34c5.91,5.62,8.86,13.88,8.86,24.79v56.4h-8.18v-15.84c-2.84,5.22-6.98,9.28-12.44,12.18
						c-5.45,2.9-11.98,4.35-19.59,4.35c-9.88,0-17.69-2.33-23.43-6.99c-5.74-4.65-8.6-10.79-8.6-18.4c0-7.38,2.64-13.37,7.92-17.97
						s13.72-6.9,25.3-6.9h30.5v-7.16c0-8.29-2.25-14.59-6.73-18.91c-4.49-4.32-11.05-6.48-19.68-6.48c-5.91,0-11.56,1.02-16.95,3.07
						c-5.4,2.04-9.97,4.77-13.71,8.18l-4.26-6.14c4.43-3.97,9.77-7.07,16.02-9.28c6.24-2.21,12.78-3.32,19.59-3.32
						C2299.57,923.9,2308.03,926.71,2313.94,932.34z M2302.61,1002.11c5.17-3.41,9.06-8.35,11.67-14.82v-16.7h-30.33
						c-8.75,0-15.08,1.59-19,4.77c-3.92,3.18-5.88,7.55-5.88,13.12c0,5.79,2.16,10.37,6.48,13.71c4.31,3.35,10.39,5.03,18.23,5.03
						C2291.17,1007.22,2297.44,1005.52,2302.61,1002.11z"/>
					<path class="st0" d="M2407.82,929.1c5.79-3.46,12.83-5.2,21.13-5.2v8.35l-2.04-0.17c-9.88,0-17.61,3.1-23.17,9.28
						c-5.57,6.2-8.35,14.8-8.35,25.81v46.34h-8.52v-88.94h8.18v19.42C2397.77,937.53,2402.03,932.57,2407.82,929.1z"/>
					<path class="st0" d="M2555.71,971.1h-76.5c0.22,6.93,1.98,13.09,5.28,18.49c3.29,5.4,7.75,9.57,13.38,12.52
						c5.62,2.96,11.95,4.43,19,4.43c5.79,0,11.16-1.05,16.1-3.15c4.94-2.1,9.06-5.2,12.35-9.29l4.94,5.62
						c-3.86,4.66-8.72,8.24-14.57,10.73c-5.85,2.5-12.18,3.75-19,3.75c-8.86,0-16.76-1.93-23.68-5.79
						c-6.93-3.86-12.35-9.2-16.27-16.02c-3.92-6.82-5.88-14.59-5.88-23.34c0-8.63,1.84-16.38,5.54-23.26
						c3.69-6.87,8.77-12.24,15.25-16.1c6.48-3.86,13.74-5.79,21.81-5.79c8.06,0,15.31,1.9,21.72,5.71
						c6.42,3.81,11.47,9.12,15.17,15.93c3.69,6.82,5.54,14.54,5.54,23.17L2555.71,971.1z M2496.59,935.57c-5,2.79-9,6.7-12.01,11.76
						c-3.01,5.06-4.75,10.76-5.2,17.12h68.15c-0.34-6.36-2.04-12.04-5.11-17.04c-3.07-5-7.1-8.92-12.1-11.76
						c-5-2.84-10.62-4.26-16.87-4.26S2501.59,932.79,2496.59,935.57z"/>
				</g>
			</g>
			<g>
				<path class="st1" d="M835.71,11.25H726.69c-9.21,0-16.68,7.47-16.68,16.68s7.47,16.68,16.68,16.68h92.34v88.75
					c0,9.21,7.47,16.68,16.68,16.68c9.21,0,16.68-7.47,16.68-16.68V27.93C852.39,18.72,844.92,11.25,835.71,11.25z"/>
				<path class="st1" d="M108.71,263.22v491.65h491.65c80.75,0,146.22-65.47,146.22-146.22V117H254.93
					C174.18,117,108.71,182.46,108.71,263.22z M547.96,189.71h109.01c9.21,0,16.68,7.47,16.68,16.68v105.42
					c0,9.21-7.47,16.68-16.68,16.68c-9.21,0-16.68-7.47-16.68-16.68v-88.75h-92.34c-9.21,0-16.68-7.46-16.68-16.68
					C531.29,197.18,538.75,189.71,547.96,189.71z M441.68,295.54h109.01c9.21,0,16.68,7.47,16.68,16.68v105.42
					c0,9.21-7.47,16.68-16.68,16.68c-9.21,0-16.68-7.47-16.68-16.68v-88.75h-92.34c-9.21,0-16.68-7.46-16.68-16.68
					C425,303,432.46,295.54,441.68,295.54z"/>
			</g>
		</g>
		<path class="st0" d="M2571.99,1385.78H123.43c-62.63,0-113.41-50.78-113.41-113.41v-10.09c0-62.63,50.78-113.41,113.41-113.41
			h2448.56c62.63,0,113.41,50.78,113.41,113.41v10.09C2685.4,1335,2634.63,1385.78,2571.99,1385.78z"/>
		<g>
			<g>
				<path class="st2" d="M172.18,1277.45h-30.57l-6.03,14.15h-11.7l27.51-61.14h11.18l27.6,61.14H178.3L172.18,1277.45z
					 M168.43,1268.54l-11.53-26.73l-11.44,26.73H168.43z"/>
				<path class="st2" d="M211.97,1290.47c-4.4-1.34-7.88-3.11-10.44-5.33l3.93-8.82c2.5,1.98,5.57,3.6,9.22,4.85
					c3.64,1.25,7.29,1.88,10.96,1.88c4.54,0,7.93-0.73,10.18-2.18c2.24-1.45,3.36-3.38,3.36-5.77c0-1.75-0.63-3.19-1.88-4.32
					c-1.25-1.14-2.84-2.02-4.76-2.66c-1.92-0.64-4.54-1.37-7.86-2.18c-4.66-1.11-8.43-2.21-11.31-3.32
					c-2.88-1.11-5.36-2.84-7.43-5.2c-2.07-2.36-3.1-5.55-3.1-9.56c0-3.38,0.92-6.45,2.75-9.22c1.83-2.76,4.6-4.96,8.3-6.59
					c3.7-1.63,8.22-2.45,13.58-2.45c3.73,0,7.39,0.47,11.01,1.4c3.61,0.93,6.73,2.27,9.35,4.02l-3.58,8.82
					c-2.68-1.57-5.47-2.77-8.39-3.58c-2.91-0.81-5.74-1.22-8.47-1.22c-4.48,0-7.82,0.76-10,2.27c-2.18,1.51-3.28,3.52-3.28,6.03
					c0,1.75,0.63,3.17,1.88,4.28c1.25,1.11,2.84,1.98,4.76,2.62c1.92,0.64,4.54,1.37,7.86,2.18c4.54,1.05,8.27,2.14,11.18,3.28
					c2.91,1.14,5.4,2.87,7.47,5.2c2.07,2.33,3.1,5.47,3.1,9.43c0,3.38-0.92,6.43-2.75,9.17c-1.83,2.74-4.62,4.92-8.34,6.55
					c-3.73,1.63-8.27,2.45-13.63,2.45C220.92,1292.48,216.37,1291.81,211.97,1290.47z"/>
				<path class="st2" d="M326.53,1291.6l-0.09-40.53l-20.09,33.54h-5.07l-20.09-33.02v40.01h-10.83v-61.14h9.35l24.28,40.53
					l23.85-40.53h9.35l0.09,61.14H326.53z"/>
			</g>
			<g>
				<path class="st2" d="M501.82,1230.46h11.36v61.14h-11.36V1230.46z"/>
				<path class="st2" d="M543.7,1290.47c-4.4-1.34-7.88-3.11-10.44-5.33l3.93-8.82c2.5,1.98,5.57,3.6,9.22,4.85
					c3.64,1.25,7.29,1.88,10.96,1.88c4.54,0,7.93-0.73,10.18-2.18c2.24-1.45,3.36-3.38,3.36-5.77c0-1.75-0.63-3.19-1.88-4.32
					c-1.25-1.14-2.84-2.02-4.76-2.66c-1.92-0.64-4.54-1.37-7.86-2.18c-4.66-1.11-8.43-2.21-11.31-3.32
					c-2.88-1.11-5.36-2.84-7.43-5.2c-2.07-2.36-3.1-5.55-3.1-9.56c0-3.38,0.92-6.45,2.75-9.22c1.83-2.76,4.6-4.96,8.3-6.59
					c3.7-1.63,8.22-2.45,13.58-2.45c3.73,0,7.39,0.47,11.01,1.4c3.61,0.93,6.73,2.27,9.35,4.02l-3.58,8.82
					c-2.68-1.57-5.47-2.77-8.39-3.58c-2.91-0.81-5.74-1.22-8.47-1.22c-4.48,0-7.82,0.76-10,2.27c-2.18,1.51-3.28,3.52-3.28,6.03
					c0,1.75,0.63,3.17,1.88,4.28c1.25,1.11,2.84,1.98,4.76,2.62c1.92,0.64,4.54,1.37,7.86,2.18c4.54,1.05,8.27,2.14,11.18,3.28
					c2.91,1.14,5.4,2.87,7.47,5.2c2.07,2.33,3.1,5.47,3.1,9.43c0,3.38-0.92,6.43-2.75,9.17c-1.83,2.74-4.62,4.92-8.34,6.55
					c-3.73,1.63-8.27,2.45-13.63,2.45C552.66,1292.48,548.1,1291.81,543.7,1290.47z"/>
				<path class="st2" d="M613.8,1288.42c-5.01-2.71-8.94-6.46-11.79-11.27c-2.85-4.8-4.28-10.18-4.28-16.12
					c0-5.94,1.43-11.31,4.28-16.12c2.85-4.8,6.78-8.56,11.79-11.27c5.01-2.71,10.63-4.06,16.86-4.06c6.23,0,11.85,1.35,16.86,4.06
					c5.01,2.71,8.94,6.45,11.79,11.22c2.85,4.78,4.28,10.16,4.28,16.16c0,6-1.43,11.39-4.28,16.16c-2.85,4.78-6.78,8.52-11.79,11.22
					c-5.01,2.71-10.63,4.06-16.86,4.06C624.43,1292.48,618.81,1291.12,613.8,1288.42z M641.66,1279.77c3.26-1.83,5.82-4.4,7.69-7.69
					c1.86-3.29,2.8-6.97,2.8-11.05c0-4.08-0.93-7.76-2.8-11.05c-1.86-3.29-4.43-5.85-7.69-7.69c-3.26-1.83-6.93-2.75-11.01-2.75
					c-4.08,0-7.75,0.92-11.01,2.75c-3.26,1.83-5.82,4.4-7.69,7.69c-1.86,3.29-2.8,6.97-2.8,11.05c0,4.08,0.93,7.76,2.8,11.05
					c1.86,3.29,4.43,5.85,7.69,7.69c3.26,1.83,6.93,2.75,11.01,2.75C634.73,1282.52,638.4,1281.6,641.66,1279.77z"/>
				<path class="st2" d="M681.4,1262.78h24.02v9.08H681.4V1262.78z"/>
				<path class="st2" d="M727.17,1230.46h11.36v61.14h-11.36V1230.46z"/>
				<path class="st2" d="M809.63,1282.08v9.52h-45.86v-61.14h44.63v9.52h-33.28v15.9h29.52v9.35h-29.52v16.86H809.63z"/>
				<path class="st2" d="M842.34,1288.42c-4.98-2.71-8.88-6.45-11.7-11.22c-2.83-4.77-4.24-10.16-4.24-16.16
					c0-6,1.43-11.38,4.28-16.16c2.85-4.77,6.77-8.52,11.75-11.22c4.98-2.71,10.55-4.06,16.73-4.06c5.01,0,9.58,0.87,13.71,2.62
					c4.13,1.75,7.63,4.28,10.48,7.6l-7.34,6.9c-4.43-4.77-9.87-7.16-16.33-7.16c-4.19,0-7.95,0.92-11.27,2.75
					c-3.32,1.83-5.91,4.38-7.77,7.64c-1.86,3.26-2.8,6.96-2.8,11.09c0,4.14,0.93,7.83,2.8,11.09c1.86,3.26,4.46,5.81,7.77,7.64
					c3.32,1.83,7.07,2.75,11.27,2.75c6.46,0,11.91-2.42,16.33-7.25l7.34,6.99c-2.85,3.32-6.36,5.85-10.52,7.6
					c-4.16,1.75-8.75,2.62-13.76,2.62C852.89,1292.48,847.32,1291.12,842.34,1288.42z"/>
				<path class="st2" d="M975.76,1282v9.61h-45.07v-7.6l24.28-23.06c2.74-2.62,4.59-4.91,5.55-6.86c0.96-1.95,1.44-3.89,1.44-5.81
					c0-2.85-0.96-5.04-2.88-6.55c-1.92-1.51-4.75-2.27-8.47-2.27c-6.23,0-11.01,2.13-14.33,6.38l-7.95-6.11
					c2.39-3.2,5.6-5.69,9.65-7.47c4.05-1.78,8.57-2.66,13.58-2.66c6.64,0,11.94,1.57,15.9,4.72c3.96,3.14,5.94,7.42,5.94,12.84
					c0,3.32-0.7,6.44-2.1,9.35c-1.4,2.91-4.08,6.23-8.04,9.96L946.94,1282H975.76z"/>
				<path class="st2" d="M1031.18,1237.45c4.63,5.24,6.94,12.75,6.94,22.54c0,6.87-1.25,12.74-3.76,17.6
					c-2.5,4.86-6.01,8.56-10.52,11.09c-4.51,2.53-9.74,3.8-15.68,3.8c-3.14,0-6.1-0.34-8.87-1c-2.77-0.67-5.17-1.64-7.21-2.93
					l4.19-8.56c3.03,1.98,6.9,2.97,11.62,2.97c5.88,0,10.48-1.8,13.8-5.42c3.32-3.61,4.98-8.82,4.98-15.64v-0.09
					c-1.81,2.1-4.1,3.68-6.9,4.76c-2.8,1.08-5.94,1.62-9.43,1.62c-4.02,0-7.63-0.77-10.83-2.31c-3.2-1.54-5.71-3.74-7.51-6.59
					c-1.81-2.85-2.71-6.14-2.71-9.87c0-3.96,0.99-7.44,2.97-10.44c1.98-3,4.66-5.31,8.04-6.94c3.38-1.63,7.16-2.45,11.36-2.45
					C1020.05,1229.59,1026.55,1232.21,1031.18,1237.45z M1021.49,1256.32c2.3-1.98,3.45-4.48,3.45-7.51c0-2.97-1.12-5.43-3.36-7.38
					c-2.24-1.95-5.34-2.93-9.3-2.93c-3.55,0-6.43,0.95-8.65,2.84c-2.21,1.89-3.32,4.41-3.32,7.56c0,3.2,1.1,5.74,3.32,7.6
					c2.21,1.86,5.18,2.8,8.91,2.8C1016.2,1259.29,1019.19,1258.3,1021.49,1256.32z"/>
				<path class="st2" d="M1075.25,1230.46v61.14h-11.36v-51.62h-12.93v-9.52H1075.25z"/>
				<path class="st2" d="M1150.63,1277.72h-10.83v13.89h-11.01v-13.89h-33.54v-7.86l30.13-39.39h12.14l-28.39,37.65h20v-12.32h10.66
					v12.32h10.83V1277.72z"/>
				<path class="st2" d="M1206.36,1230.46v7.6l-23.76,53.54h-12.14l22.97-51.54h-24.02v10.39h-10.57v-20H1206.36z"/>
				<path class="st2" d="M1218.67,1262.78h24.02v9.08h-24.02V1262.78z"/>
				<path class="st2" d="M1303.05,1282v9.61h-45.07v-7.6l24.28-23.06c2.74-2.62,4.59-4.91,5.55-6.86c0.96-1.95,1.44-3.89,1.44-5.81
					c0-2.85-0.96-5.04-2.88-6.55c-1.92-1.51-4.75-2.27-8.47-2.27c-6.23,0-11.01,2.13-14.33,6.38l-7.95-6.11
					c2.39-3.2,5.6-5.69,9.65-7.47c4.05-1.78,8.57-2.66,13.58-2.66c6.64,0,11.94,1.57,15.9,4.72c3.96,3.14,5.94,7.42,5.94,12.84
					c0,3.32-0.7,6.44-2.1,9.35c-1.4,2.91-4.08,6.23-8.04,9.96l-16.33,15.55H1303.05z"/>
				<path class="st2" d="M1330.48,1288.77c-3.84-2.47-6.87-6.08-9.08-10.83c-2.21-4.75-3.32-10.38-3.32-16.9
					c0-6.52,1.11-12.15,3.32-16.9c2.21-4.75,5.24-8.36,9.08-10.83c3.84-2.47,8.21-3.71,13.1-3.71c4.89,0,9.27,1.24,13.15,3.71
					c3.87,2.48,6.91,6.09,9.13,10.83c2.21,4.75,3.32,10.38,3.32,16.9c0,6.52-1.11,12.16-3.32,16.9c-2.21,4.75-5.26,8.36-9.13,10.83
					c-3.87,2.48-8.25,3.71-13.15,3.71C1338.69,1292.48,1334.32,1291.24,1330.48,1288.77z M1353.93,1277.19
					c2.53-3.61,3.8-9,3.8-16.16s-1.27-12.55-3.8-16.16c-2.53-3.61-5.98-5.42-10.35-5.42c-4.31,0-7.73,1.81-10.26,5.42
					c-2.53,3.61-3.8,9-3.8,16.16s1.27,12.55,3.8,16.16c2.53,3.61,5.95,5.42,10.26,5.42
					C1347.95,1282.61,1351.4,1280.8,1353.93,1277.19z"/>
				<path class="st2" d="M1406.3,1230.46v61.14h-11.36v-51.62h-12.93v-9.52H1406.3z"/>
				<path class="st2" d="M1474.21,1265.36c1.72,2.48,2.58,5.37,2.58,8.69c0,3.73-1.03,6.99-3.1,9.78c-2.07,2.8-4.99,4.94-8.78,6.42
					c-3.79,1.48-8.18,2.23-13.19,2.23c-5.01,0-9.39-0.74-13.15-2.23c-3.76-1.48-6.65-3.62-8.69-6.42c-2.04-2.79-3.06-6.06-3.06-9.78
					c0-3.32,0.84-6.22,2.53-8.69c1.69-2.47,4.11-4.44,7.25-5.9c-2.45-1.34-4.32-3.1-5.63-5.28c-1.31-2.18-1.97-4.7-1.97-7.56
					c0-3.44,0.95-6.43,2.84-9c1.89-2.56,4.56-4.54,7.99-5.94c3.44-1.4,7.4-2.1,11.88-2.1c4.54,0,8.53,0.7,11.97,2.1
					c3.44,1.4,6.11,3.38,8.04,5.94c1.92,2.56,2.88,5.56,2.88,9c0,2.85-0.67,5.36-2.01,7.51c-1.34,2.16-3.26,3.93-5.77,5.33
					C1470.03,1260.92,1472.49,1262.88,1474.21,1265.36z M1461.67,1280.95c2.45-1.75,3.67-4.16,3.67-7.25c0-3.03-1.22-5.42-3.67-7.16
					c-2.45-1.75-5.77-2.62-9.96-2.62c-4.19,0-7.48,0.87-9.87,2.62c-2.39,1.75-3.58,4.14-3.58,7.16c0,3.09,1.19,5.5,3.58,7.25
					c2.39,1.75,5.68,2.62,9.87,2.62C1455.91,1283.57,1459.23,1282.7,1461.67,1280.95z M1443.29,1240.77
					c-2.07,1.51-3.1,3.64-3.1,6.38c0,2.62,1.03,4.7,3.1,6.25c2.07,1.54,4.88,2.31,8.43,2.31c3.61,0,6.46-0.77,8.56-2.31
					c2.1-1.54,3.14-3.62,3.14-6.25c0-2.74-1.06-4.86-3.19-6.38c-2.13-1.51-4.96-2.27-8.52-2.27
					C1448.16,1238.5,1445.35,1239.25,1443.29,1240.77z"/>
			</g>
			<g>
				<path class="st2" d="M1632.65,1230.46h11.36v61.14h-11.36V1230.46z"/>
				<path class="st2" d="M1674.54,1290.47c-4.4-1.34-7.88-3.11-10.44-5.33l3.93-8.82c2.5,1.98,5.57,3.6,9.21,4.85
					c3.64,1.25,7.29,1.88,10.96,1.88c4.54,0,7.93-0.73,10.18-2.18c2.24-1.46,3.36-3.38,3.36-5.77c0-1.75-0.63-3.19-1.88-4.32
					c-1.25-1.14-2.84-2.02-4.76-2.66c-1.92-0.64-4.54-1.37-7.86-2.18c-4.66-1.11-8.43-2.21-11.31-3.32
					c-2.88-1.11-5.36-2.84-7.43-5.2c-2.07-2.36-3.1-5.55-3.1-9.56c0-3.38,0.92-6.45,2.75-9.22c1.83-2.76,4.6-4.96,8.3-6.59
					c3.7-1.63,8.22-2.45,13.58-2.45c3.73,0,7.39,0.47,11.01,1.4c3.61,0.93,6.73,2.27,9.35,4.02l-3.58,8.82
					c-2.68-1.57-5.47-2.77-8.39-3.58c-2.91-0.81-5.74-1.22-8.47-1.22c-4.48,0-7.82,0.76-10,2.27c-2.18,1.51-3.28,3.52-3.28,6.03
					c0,1.75,0.63,3.17,1.88,4.28c1.25,1.11,2.84,1.98,4.76,2.62c1.92,0.64,4.54,1.37,7.86,2.18c4.54,1.05,8.27,2.14,11.18,3.28
					c2.91,1.14,5.4,2.87,7.47,5.2c2.07,2.33,3.1,5.47,3.1,9.43c0,3.38-0.92,6.43-2.75,9.17c-1.83,2.74-4.62,4.92-8.34,6.55
					c-3.73,1.63-8.27,2.45-13.63,2.45C1683.49,1292.48,1678.93,1291.81,1674.54,1290.47z"/>
				<path class="st2" d="M1744.63,1288.42c-5.01-2.71-8.94-6.46-11.79-11.27c-2.85-4.8-4.28-10.18-4.28-16.12
					c0-5.94,1.43-11.31,4.28-16.12c2.85-4.8,6.78-8.56,11.79-11.27c5.01-2.71,10.63-4.06,16.86-4.06c6.23,0,11.85,1.35,16.86,4.06
					c5.01,2.71,8.94,6.45,11.79,11.22c2.85,4.78,4.28,10.16,4.28,16.16c0,6-1.43,11.39-4.28,16.16c-2.85,4.78-6.78,8.52-11.79,11.22
					c-5.01,2.71-10.63,4.06-16.86,4.06C1755.26,1292.48,1749.64,1291.12,1744.63,1288.42z M1772.49,1279.77
					c3.26-1.83,5.82-4.4,7.69-7.69c1.86-3.29,2.8-6.97,2.8-11.05c0-4.08-0.93-7.76-2.8-11.05c-1.86-3.29-4.43-5.85-7.69-7.69
					c-3.26-1.83-6.93-2.75-11.01-2.75c-4.08,0-7.75,0.92-11.01,2.75c-3.26,1.83-5.82,4.4-7.69,7.69c-1.86,3.29-2.8,6.97-2.8,11.05
					c0,4.08,0.93,7.76,2.8,11.05c1.86,3.29,4.43,5.85,7.69,7.69c3.26,1.83,6.93,2.75,11.01,2.75
					C1765.56,1282.52,1769.23,1281.6,1772.49,1279.77z"/>
				<path class="st2" d="M1812.24,1262.78h24.02v9.08h-24.02V1262.78z"/>
				<path class="st2" d="M1858.01,1230.46h11.36v61.14h-11.36V1230.46z"/>
				<path class="st2" d="M1940.46,1282.08v9.52h-45.86v-61.14h44.63v9.52h-33.28v15.9h29.52v9.35h-29.52v16.86H1940.46z"/>
				<path class="st2" d="M1973.17,1288.42c-4.98-2.71-8.88-6.45-11.7-11.22c-2.83-4.77-4.24-10.16-4.24-16.16
					c0-6,1.43-11.38,4.28-16.16c2.85-4.77,6.77-8.52,11.75-11.22c4.98-2.71,10.55-4.06,16.73-4.06c5.01,0,9.58,0.87,13.71,2.62
					c4.13,1.75,7.63,4.28,10.48,7.6l-7.34,6.9c-4.43-4.77-9.87-7.16-16.33-7.16c-4.19,0-7.95,0.92-11.27,2.75
					c-3.32,1.83-5.91,4.38-7.77,7.64c-1.86,3.26-2.8,6.96-2.8,11.09c0,4.14,0.93,7.83,2.8,11.09c1.86,3.26,4.46,5.81,7.77,7.64
					c3.32,1.83,7.07,2.75,11.27,2.75c6.46,0,11.91-2.42,16.33-7.25l7.34,6.99c-2.85,3.32-6.36,5.85-10.52,7.6
					c-4.16,1.75-8.75,2.62-13.76,2.62C1983.73,1292.48,1978.15,1291.12,1973.17,1288.42z"/>
				<path class="st2" d="M2101.27,1261.47c2.97,3.14,4.46,7.08,4.46,11.79c0,3.55-0.9,6.78-2.71,9.7c-1.81,2.91-4.53,5.23-8.17,6.94
					c-3.64,1.72-8.08,2.58-13.32,2.58c-4.37,0-8.58-0.63-12.62-1.88c-4.05-1.25-7.5-2.98-10.35-5.2l4.89-8.82
					c2.21,1.86,4.91,3.33,8.08,4.41c3.17,1.08,6.45,1.62,9.83,1.62c4.02,0,7.18-0.83,9.48-2.49c2.3-1.66,3.45-3.92,3.45-6.77
					c0-2.85-1.09-5.08-3.28-6.68c-2.18-1.6-5.52-2.4-10-2.4h-5.59v-7.77l13.89-16.51h-27.78v-9.52h41.66v7.6l-14.85,17.64
					C2093.99,1256.4,2098.3,1258.33,2101.27,1261.47z"/>
				<path class="st2" d="M2134.28,1288.77c-3.84-2.47-6.87-6.08-9.08-10.83c-2.21-4.75-3.32-10.38-3.32-16.9
					c0-6.52,1.11-12.15,3.32-16.9c2.21-4.75,5.24-8.36,9.08-10.83c3.84-2.47,8.21-3.71,13.1-3.71s9.27,1.24,13.15,3.71
					c3.87,2.48,6.91,6.09,9.13,10.83c2.21,4.75,3.32,10.38,3.32,16.9c0,6.52-1.11,12.16-3.32,16.9c-2.21,4.75-5.26,8.36-9.13,10.83
					c-3.87,2.48-8.25,3.71-13.15,3.71S2138.13,1291.24,2134.28,1288.77z M2157.73,1277.19c2.53-3.61,3.8-9,3.8-16.16
					c0-7.16-1.27-12.55-3.8-16.16c-2.53-3.61-5.98-5.42-10.35-5.42c-4.31,0-7.73,1.81-10.26,5.42c-2.53,3.61-3.8,9-3.8,16.16
					c0,7.16,1.27,12.55,3.8,16.16c2.53,3.61,5.95,5.42,10.26,5.42C2151.75,1282.61,2155.2,1280.8,2157.73,1277.19z"/>
				<path class="st2" d="M2210.1,1230.46v61.14h-11.36v-51.62h-12.93v-9.52H2210.1z"/>
				<path class="st2" d="M2252.11,1230.46v61.14h-11.36v-51.62h-12.93v-9.52H2252.11z"/>
				<path class="st2" d="M2294.13,1230.46v61.14h-11.36v-51.62h-12.93v-9.52H2294.13z"/>
				<path class="st2" d="M2315.96,1262.78h24.02v9.08h-24.02V1262.78z"/>
				<path class="st2" d="M2400.34,1282v9.61h-45.07v-7.6l24.28-23.06c2.74-2.62,4.59-4.91,5.55-6.86c0.96-1.95,1.44-3.89,1.44-5.81
					c0-2.85-0.96-5.04-2.88-6.55c-1.92-1.51-4.75-2.27-8.47-2.27c-6.23,0-11.01,2.13-14.33,6.38l-7.95-6.11
					c2.39-3.2,5.6-5.69,9.65-7.47c4.05-1.78,8.57-2.66,13.58-2.66c6.64,0,11.94,1.57,15.9,4.72c3.96,3.14,5.94,7.42,5.94,12.84
					c0,3.32-0.7,6.44-2.1,9.35c-1.4,2.91-4.08,6.23-8.04,9.96l-16.33,15.55H2400.34z"/>
				<path class="st2" d="M2427.77,1288.77c-3.84-2.47-6.87-6.08-9.08-10.83c-2.21-4.75-3.32-10.38-3.32-16.9
					c0-6.52,1.11-12.15,3.32-16.9c2.21-4.75,5.24-8.36,9.08-10.83c3.84-2.47,8.21-3.71,13.1-3.71c4.89,0,9.27,1.24,13.15,3.71
					c3.87,2.48,6.91,6.09,9.13,10.83c2.21,4.75,3.32,10.38,3.32,16.9c0,6.52-1.11,12.16-3.32,16.9c-2.21,4.75-5.26,8.36-9.13,10.83
					c-3.87,2.48-8.25,3.71-13.15,3.71C2435.98,1292.48,2431.61,1291.24,2427.77,1288.77z M2451.22,1277.19
					c2.53-3.61,3.8-9,3.8-16.16c0-7.16-1.27-12.55-3.8-16.16c-2.53-3.61-5.98-5.42-10.35-5.42c-4.31,0-7.73,1.81-10.26,5.42
					c-2.53,3.61-3.8,9-3.8,16.16c0,7.16,1.27,12.55,3.8,16.16c2.53,3.61,5.95,5.42,10.26,5.42
					C2445.24,1282.61,2448.69,1280.8,2451.22,1277.19z"/>
				<path class="st2" d="M2503.59,1230.46v61.14h-11.36v-51.62h-12.93v-9.52H2503.59z"/>
				<path class="st2" d="M2564.6,1237.45c4.63,5.24,6.94,12.75,6.94,22.54c0,6.87-1.25,12.74-3.76,17.6
					c-2.5,4.86-6.01,8.56-10.52,11.09c-4.51,2.53-9.74,3.8-15.68,3.8c-3.14,0-6.1-0.34-8.87-1c-2.77-0.67-5.17-1.64-7.21-2.93
					l4.19-8.56c3.03,1.98,6.9,2.97,11.62,2.97c5.88,0,10.48-1.8,13.8-5.42c3.32-3.61,4.98-8.82,4.98-15.64v-0.09
					c-1.81,2.1-4.1,3.68-6.9,4.76c-2.8,1.08-5.94,1.62-9.43,1.62c-4.02,0-7.63-0.77-10.83-2.31c-3.2-1.54-5.71-3.74-7.51-6.59
					c-1.81-2.85-2.71-6.14-2.71-9.87c0-3.96,0.99-7.44,2.97-10.44c1.98-3,4.66-5.31,8.04-6.94c3.38-1.63,7.16-2.45,11.36-2.45
					C2553.46,1229.59,2559.97,1232.21,2564.6,1237.45z M2554.9,1256.32c2.3-1.98,3.45-4.48,3.45-7.51c0-2.97-1.12-5.43-3.36-7.38
					c-2.24-1.95-5.34-2.93-9.3-2.93c-3.55,0-6.43,0.95-8.65,2.84c-2.21,1.89-3.32,4.41-3.32,7.56c0,3.2,1.1,5.74,3.32,7.6
					c2.21,1.86,5.18,2.8,8.91,2.8C2549.62,1259.29,2552.6,1258.3,2554.9,1256.32z"/>
			</g>
			<path class="st1" d="M439.77,1257.86l-23.27-23.27c-1.97-1.97-5.15-1.97-7.12,0c-1.97,1.97-1.97,5.15,0,7.12l19.71,19.71
				l-18.95,18.95c-1.97,1.97-1.97,5.15,0,7.12c1.97,1.97,5.15,1.97,7.12,0l22.51-22.51
				C441.74,1263.01,441.74,1259.82,439.77,1257.86z"/>
			<path class="st1" d="M1563.56,1257.86l-23.27-23.27c-1.97-1.97-5.15-1.97-7.12,0c-1.97,1.97-1.97,5.15,0,7.12l19.71,19.71
				l-18.95,18.95c-1.97,1.97-1.97,5.15,0,7.12c1.97,1.97,5.15,1.97,7.12,0l22.51-22.51
				C1565.53,1263.01,1565.53,1259.82,1563.56,1257.86z"/>
		</g>
	</g>
</g>
</svg>
