<?xml version="1.0" encoding="utf-8"?>
<!-- Generator: Adobe Illustrator 25.2.0, SVG Export Plug-In . SVG Version: 6.00 Build 0)  -->
<svg version="1.1" xmlns="http://www.w3.org/2000/svg" xmlns:xlink="http://www.w3.org/1999/xlink" x="0px" y="0px"
	 viewBox="0 0 1421 1211" style="enable-background:new 0 0 1421 1211;" xml:space="preserve">
<style type="text/css">
	.st0{fill:#FFFFFF;}
	.st1{fill:#FF3435;}
	.st2{fill:#F9F9F9;}
	.st3{fill:#272727;}
</style>
<g id="bg">
</g>
<g id="Capa_1">
	<g>
		<g>
			<g>
				<path class="st0" d="M571.4,77l33.8,0l0,29.2l-32.8,0l0,107.3l-38.2,0l0-107.3l-20.3,0l0-29.2l20.3,0l0-5.8
					c0-14.9,4.4-26.7,13.4-35.5c8.9-8.7,21.4-13.1,37.6-13.1c5.7,0,11.1,0.6,16.3,1.8c5.1,1.2,9.4,3,12.9,5.2l-10,27.5
					c-4.4-3.1-9.5-4.6-15.4-4.6c-11.6,0-17.4,6.3-17.4,19L571.4,77z"/>
				<rect x="633" y="23.1" class="st0" width="38.2" height="190.4"/>
				<path class="st0" d="M839.4,81.7l0,131.8l-36.2,0l0-15.7c-5.1,5.7-11.1,10.1-18.1,13.1c-7,3-14.6,4.5-22.8,4.5
					c-17.3,0-31-5-41.1-14.9c-10.1-10-15.2-24.7-15.2-44.3l0-74.4l38.2,0l0,68.8c0,21.2,8.9,31.8,26.7,31.8c9.1,0,16.5-3,22-8.9
					c5.5-6,8.3-14.8,8.3-26.6l0-65.1L839.4,81.7z"/>
				<path class="st0" d="M876.6,59.7c-4.2-4.2-6.3-9.3-6.3-15.5c0-6.1,2.1-11.3,6.3-15.5s9.7-6.2,16.4-6.2c6.7,0,12.2,2,16.4,6
					c4.2,4,6.3,9,6.3,15c0,6.5-2.1,11.8-6.3,16.1c-4.2,4.2-9.7,6.4-16.4,6.4C886.3,66,880.9,63.9,876.6,59.7z"/>
				<rect x="874.9" y="81.7" class="st0" width="38.2" height="131.8"/>
				<path class="st0" d="M1044.7,22.6l0,73.1c-9.5-10.6-22.6-15.9-39.4-15.9c-12.4,0-23.6,2.8-33.7,8.3c-10,5.6-17.9,13.5-23.6,23.8
					c-5.7,10.3-8.6,22.2-8.6,35.8c0,13.6,2.9,25.5,8.6,35.8s13.6,18.2,23.6,23.8c10,5.6,21.3,8.3,33.7,8.3c18,0,31.7-5.7,41.1-17.1
					l0,15.2l36.5,0l0-190.9L1044.7,22.6z M1035.8,174.2c-6.4,6.6-14.4,9.9-24,9.9c-9.8,0-17.9-3.3-24.2-9.9
					c-6.4-6.6-9.6-15.5-9.5-26.6c0-11.1,3.2-20,9.6-26.6c6.4-6.6,14.4-9.9,24.2-9.9c9.6,0,17.6,3.3,24,9.9
					c6.4,6.6,9.6,15.5,9.5,26.6C1045.4,158.7,1042.2,167.6,1035.8,174.2z"/>
			</g>
			<g>
				<path class="st0" d="M609.5,316c8.9,8.4,13.3,20.8,13.3,37.2l0,84.6l-12.3,0l0-23.8c-4.3,7.8-10.5,13.9-18.7,18.3
					c-8.2,4.3-18,6.5-29.4,6.5c-14.8,0-26.6-3.5-35.2-10.5c-8.6-7-12.9-16.2-12.9-27.6c0-11.1,4-20.1,11.9-27
					c7.9-6.9,20.6-10.4,38-10.4l45.8,0l0-10.7c0-12.4-3.4-21.9-10.1-28.4c-6.7-6.5-16.6-9.7-29.5-9.7c-8.9,0-17.3,1.5-25.4,4.6
					c-8.1,3.1-15,7.2-20.6,12.3l-6.4-9.2c6.6-6,14.7-10.6,24-13.9c9.4-3.3,19.2-5,29.4-5C588,303.4,600.7,307.6,609.5,316z
					 M592.5,420.7c7.8-5.1,13.6-12.5,17.5-22.2l0-25.1l-45.5,0c-13.1,0-22.6,2.4-28.5,7.2c-5.9,4.8-8.8,11.3-8.8,19.7
					c0,8.7,3.2,15.6,9.7,20.6c6.5,5,15.6,7.5,27.4,7.5C575.3,428.4,584.8,425.8,592.5,420.7z"/>
				<path class="st0" d="M741.7,429.5c-3.2,3.1-7.3,5.4-12.1,7c-4.9,1.6-9.9,2.4-15.2,2.4c-11.6,0-20.5-3.2-26.8-9.6
					c-6.3-6.4-9.5-15.3-9.5-26.7l0-87.2l-24.5,0l0-11l24.5,0l0-29.1l12.8,0l0,29.1l42.4,0l0,11l-42.4,0l0,85.9
					c0,8.7,2.1,15.3,6.3,19.8c4.2,4.5,10.4,6.8,18.5,6.8c8.3,0,15.3-2.5,20.7-7.4L741.7,429.5z"/>
				<path class="st0" d="M839.9,429.5c-3.2,3.1-7.3,5.4-12.1,7c-4.9,1.6-9.9,2.4-15.2,2.4c-11.6,0-20.5-3.2-26.8-9.6
					c-6.3-6.4-9.5-15.3-9.5-26.7l0-87.2l-24.5,0l0-11l24.5,0l0-29.1l12.8,0l0,29.1l42.4,0l0,11l-42.4,0l0,85.9
					c0,8.7,2.1,15.3,6.3,19.8c4.2,4.5,10.4,6.8,18.5,6.8c8.3,0,15.3-2.5,20.7-7.4L839.9,429.5z"/>
				<path class="st0" d="M958.6,316.1c8.9,8.4,13.3,20.8,13.3,37.2l0,84.6l-12.3,0l0-23.8c-4.3,7.8-10.5,13.9-18.7,18.3
					c-8.2,4.3-18,6.5-29.4,6.5c-14.8,0-26.6-3.5-35.2-10.5c-8.6-7-12.9-16.2-12.9-27.6c0-11.1,4-20.1,11.9-27
					c7.9-6.9,20.6-10.4,38-10.4l45.8,0l0-10.7c0-12.4-3.4-21.9-10.1-28.4c-6.7-6.5-16.6-9.7-29.5-9.7c-8.9,0-17.3,1.5-25.4,4.6
					c-8.1,3.1-15,7.2-20.6,12.3l-6.4-9.2c6.6-6,14.7-10.6,24-13.9c9.4-3.3,19.2-5,29.4-5C937,303.4,949.7,307.6,958.6,316.1z
					 M941.5,420.8c7.8-5.1,13.6-12.5,17.5-22.2l0-25.1l-45.5,0c-13.1,0-22.6,2.4-28.5,7.2c-5.9,4.8-8.8,11.3-8.8,19.7
					c0,8.7,3.2,15.6,9.7,20.6c6.5,5,15.6,7.5,27.4,7.5C924.4,428.5,933.8,425.9,941.5,420.8z"/>
				<path class="st0" d="M1042.9,430.3c-10.2-5.8-18.2-13.8-24-24.2c-5.8-10.3-8.7-21.9-8.7-34.9c0-13.1,2.9-24.8,8.7-35.2
					s13.8-18.3,24-24c10.2-5.7,21.8-8.6,34.8-8.6c10.7,0,20.5,2.1,29.3,6.3c8.8,4.2,15.9,10.3,21.4,18.3l-9.5,6.9
					c-4.8-6.7-10.7-11.6-17.8-15c-7.1-3.3-14.9-5-23.4-5c-10.4,0-19.7,2.3-28,7c-8.3,4.7-14.7,11.3-19.4,19.8
					c-4.7,8.5-7,18.3-7,29.4c0,11.1,2.3,20.9,7,29.4c4.7,8.5,11.2,15.1,19.4,19.8c8.3,4.7,17.6,7,28,7c8.5,0,16.3-1.7,23.4-5
					c7.1-3.3,13-8.3,17.8-15l9.5,6.9c-5.5,8-12.6,14.1-21.4,18.3c-8.8,4.2-18.5,6.3-29.3,6.3C1064.7,439,1053.1,436.1,1042.9,430.3z
					"/>
				<path class="st0" d="M1211.9,366.6l-34.8,31.7l0,39.6l-12.8,0l0-189.7l12.8,0l0,134.2l85.4-78l16.4,0l-57.5,53.9l63.1,79.5
					l-15.8,0L1211.9,366.6z"/>
				<path class="st0" d="M1313.7,434.1c-9.7-3.2-17.3-7.3-22.8-12.3l5.9-10.2c5.5,4.6,12.5,8.4,21.1,11.5c8.6,3.1,17.6,4.6,27,4.6
					c13.5,0,23.4-2.2,29.8-6.6c6.4-4.4,9.6-10.6,9.6-18.4c0-5.6-1.7-10.1-5.2-13.3c-3.5-3.2-7.8-5.6-12.9-7.2
					c-5.1-1.5-12.2-3.2-21.2-4.9c-10.6-1.9-19.1-3.9-25.6-6.1c-6.5-2.2-12-5.8-16.6-10.7c-4.6-4.9-6.9-11.8-6.9-20.5
					c0-10.6,4.4-19.3,13.2-26.2c8.8-6.9,21.3-10.4,37.5-10.3c8.5,0,17,1.2,25.3,3.6c8.3,2.4,15.2,5.5,20.5,9.5l-5.9,10.2
					c-5.5-3.9-11.7-6.9-18.7-8.9c-7-2-14.2-3.1-21.5-3.1c-12.4,0-21.8,2.3-28.1,6.9c-6.3,4.6-9.5,10.7-9.5,18.1
					c0,6,1.8,10.6,5.4,13.9c3.6,3.3,8,5.8,13.2,7.4c5.2,1.6,12.5,3.4,21.9,5.2c10.4,1.9,18.8,3.9,25.2,6c6.4,2.1,11.8,5.6,16.2,10.4
					c4.4,4.8,6.6,11.3,6.6,19.7c0,11.1-4.6,19.9-13.8,26.6c-9.2,6.6-22.2,10-38.9,10C1333.6,439,1323.4,437.4,1313.7,434.1z"/>
			</g>
			<g>
				<g>
					<path class="st0" d="M104.3,534.7l-18.9,49.8h-4.5l-16.8-43.2l-16.9,43.2h-4.4L24,534.7h4.6l16.6,44.5l17-44.5h4.1L83.1,579
						l16.8-44.4H104.3z"/>
					<path class="st0" d="M172.2,560.7h-42.8c0.1,3.9,1.1,7.3,3,10.4c1.8,3,4.3,5.4,7.5,7c3.1,1.7,6.7,2.5,10.6,2.5
						c3.2,0,6.2-0.6,9-1.8c2.8-1.2,5.1-2.9,6.9-5.2l2.8,3.1c-2.2,2.6-4.9,4.6-8.2,6c-3.3,1.4-6.8,2.1-10.6,2.1
						c-5,0-9.4-1.1-13.3-3.2c-3.9-2.2-6.9-5.2-9.1-9c-2.2-3.8-3.3-8.2-3.3-13.1c0-4.8,1-9.2,3.1-13c2.1-3.8,4.9-6.9,8.5-9
						c3.6-2.2,7.7-3.2,12.2-3.2c4.5,0,8.6,1.1,12.2,3.2c3.6,2.1,6.4,5.1,8.5,8.9c2.1,3.8,3.1,8.1,3.1,13L172.2,560.7z M139.1,540.8
						c-2.8,1.6-5,3.8-6.7,6.6c-1.7,2.8-2.7,6-2.9,9.6h38.2c-0.2-3.6-1.1-6.7-2.9-9.5c-1.7-2.8-4-5-6.8-6.6c-2.8-1.6-5.9-2.4-9.4-2.4
						S141.9,539.3,139.1,540.8z"/>
					<path class="st0" d="M283.2,539.7c3.6,3.6,5.4,8.8,5.4,15.6v29.1h-4.8v-28.7c0-5.6-1.4-9.9-4.2-12.8c-2.8-2.9-6.8-4.4-11.9-4.4
						c-5.9,0-10.5,1.8-13.8,5.2c-3.4,3.5-5.1,8.2-5.1,14.1v26.5H244v-70.8h4.8v31.4c1.7-3.4,4.3-6.1,7.6-8c3.4-1.9,7.3-2.8,11.9-2.8
						C274.6,534.3,279.5,536.1,283.2,539.7z"/>
					<path class="st0" d="M355.5,539c3.3,3.1,5,7.8,5,13.9v31.6h-4.6v-8.9c-1.6,2.9-3.9,5.2-7,6.8c-3.1,1.6-6.7,2.4-11,2.4
						c-5.5,0-9.9-1.3-13.1-3.9c-3.2-2.6-4.8-6-4.8-10.3c0-4.1,1.5-7.5,4.4-10.1s7.7-3.9,14.2-3.9h17.1v-4c0-4.6-1.3-8.2-3.8-10.6
						c-2.5-2.4-6.2-3.6-11-3.6c-3.3,0-6.5,0.6-9.5,1.7c-3,1.1-5.6,2.7-7.7,4.6l-2.4-3.4c2.5-2.2,5.5-4,9-5.2c3.5-1.2,7.2-1.9,11-1.9
						C347.4,534.3,352.2,535.9,355.5,539z M349.1,578.1c2.9-1.9,5.1-4.7,6.5-8.3v-9.3h-17c-4.9,0-8.4,0.9-10.6,2.7
						c-2.2,1.8-3.3,4.2-3.3,7.3c0,3.2,1.2,5.8,3.6,7.7c2.4,1.9,5.8,2.8,10.2,2.8C342.7,580.9,346.2,580,349.1,578.1z"/>
					<path class="st0" d="M403.2,581.6c-3.8-2.2-6.8-5.2-9-9c-2.2-3.8-3.2-8.2-3.2-13c0-4.9,1.1-9.3,3.2-13.1c2.2-3.8,5.2-6.8,9-9
						c3.8-2.1,8.1-3.2,13-3.2c4,0,7.6,0.8,10.9,2.3c3.3,1.6,5.9,3.8,8,6.8l-3.5,2.6c-1.8-2.5-4-4.3-6.6-5.6
						c-2.6-1.2-5.5-1.9-8.7-1.9c-3.9,0-7.4,0.9-10.4,2.6c-3.1,1.8-5.5,4.2-7.3,7.4c-1.8,3.2-2.6,6.8-2.6,11s0.9,7.8,2.6,11
						c1.7,3.2,4.2,5.6,7.3,7.4c3.1,1.8,6.6,2.6,10.4,2.6c3.2,0,6.1-0.6,8.7-1.9c2.6-1.2,4.8-3.1,6.6-5.6l3.5,2.6c-2,3-4.7,5.3-8,6.8
						c-3.3,1.6-6.9,2.3-10.9,2.3C411.3,584.8,407,583.8,403.2,581.6z"/>
					<path class="st0" d="M482.4,557.9l-13,11.8v14.8h-4.8v-70.8h4.8v50.1l31.9-29.1h6.1L486,554.8l23.6,29.7h-5.9L482.4,557.9z"/>
					<path class="st0" d="M617.7,534.7l-25.6,56.6c-1.9,4.4-4.1,7.5-6.6,9.3c-2.5,1.8-5.5,2.8-8.9,2.8c-2.3,0-4.4-0.4-6.4-1.1
						c-2-0.8-3.7-1.9-5.1-3.3l2.4-3.6c2.5,2.6,5.6,3.9,9.3,3.9c2.4,0,4.5-0.7,6.2-2c1.7-1.3,3.3-3.6,4.8-6.9l2.7-6l-22.4-49.6h5.1
						l19.9,44.6l19.9-44.6H617.7z"/>
					<path class="st0" d="M649.6,581.6c-3.8-2.2-6.8-5.2-8.9-9c-2.2-3.8-3.2-8.2-3.2-13c0-4.8,1.1-9.2,3.2-13c2.2-3.8,5.1-6.9,8.9-9
						c3.8-2.2,8-3.2,12.7-3.2c4.7,0,9,1.1,12.7,3.2c3.8,2.2,6.8,5.2,8.9,9c2.2,3.8,3.2,8.2,3.2,13c0,4.8-1.1,9.2-3.2,13
						c-2.2,3.8-5.1,6.9-8.9,9c-3.8,2.2-8,3.2-12.7,3.2C657.7,584.8,653.4,583.8,649.6,581.6z M672.6,577.9c3-1.8,5.4-4.3,7.2-7.4
						c1.7-3.2,2.6-6.8,2.6-10.9c0-4.1-0.9-7.7-2.6-10.9c-1.7-3.2-4.1-5.7-7.2-7.4c-3-1.8-6.4-2.7-10.3-2.7s-7.2,0.9-10.3,2.7
						c-3,1.8-5.4,4.3-7.2,7.4c-1.8,3.2-2.6,6.8-2.6,10.9c0,4.1,0.9,7.7,2.6,10.9c1.7,3.2,4.1,5.7,7.2,7.4c3,1.8,6.4,2.7,10.3,2.7
						S669.6,579.7,672.6,577.9z"/>
					<path class="st0" d="M761.9,534.7v49.8h-4.6v-10.7c-1.7,3.5-4.1,6.2-7.3,8.2c-3.2,1.9-7.1,2.9-11.4,2.9
						c-6.5,0-11.6-1.8-15.3-5.4c-3.7-3.6-5.5-8.8-5.5-15.6v-29.1h4.8v28.7c0,5.6,1.4,9.9,4.3,12.8c2.9,2.9,6.9,4.4,12.1,4.4
						c5.6,0,10-1.8,13.3-5.2c3.3-3.5,4.9-8.2,4.9-14.1v-26.5H761.9z"/>
					<path class="st0" d="M810,537.2c3.2-1.9,7.2-2.9,11.8-2.9v4.7l-1.1-0.1c-5.5,0-9.9,1.7-13,5.2c-3.1,3.5-4.7,8.3-4.7,14.5v25.9
						h-4.8v-49.8h4.6v10.9C804.4,541.9,806.8,539.1,810,537.2z"/>
					<path class="st0" d="M894,583c-3.6-1.2-6.5-2.7-8.5-4.6l2.2-3.8c2,1.7,4.7,3.1,7.9,4.3c3.2,1.1,6.6,1.7,10.1,1.7
						c5,0,8.7-0.8,11.1-2.5c2.4-1.7,3.6-3.9,3.6-6.9c0-2.1-0.7-3.8-2-5c-1.3-1.2-2.9-2.1-4.8-2.7s-4.5-1.2-7.9-1.8
						c-3.9-0.7-7.1-1.5-9.5-2.3c-2.4-0.8-4.5-2.2-6.2-4c-1.7-1.8-2.6-4.4-2.6-7.6c0-3.9,1.6-7.2,4.9-9.8c3.3-2.6,7.9-3.9,14-3.9
						c3.2,0,6.3,0.4,9.4,1.3c3.1,0.9,5.7,2.1,7.6,3.5l-2.2,3.8c-2-1.5-4.4-2.6-7-3.3c-2.6-0.8-5.3-1.1-8-1.1
						c-4.6,0-8.1,0.9-10.5,2.6c-2.4,1.7-3.5,4-3.5,6.8c0,2.2,0.7,4,2,5.2c1.3,1.2,3,2.2,4.9,2.8c1.9,0.6,4.7,1.3,8.2,2
						c3.9,0.7,7,1.4,9.4,2.2c2.4,0.8,4.4,2.1,6.1,3.9c1.7,1.8,2.5,4.2,2.5,7.3c0,4.1-1.7,7.4-5.2,9.9c-3.4,2.5-8.3,3.7-14.5,3.7
						C901.4,584.8,897.6,584.2,894,583z"/>
					<path class="st0" d="M961.4,581.6c-3.8-2.2-6.8-5.2-8.9-9c-2.2-3.8-3.2-8.2-3.2-13c0-4.8,1.1-9.2,3.2-13c2.2-3.8,5.1-6.9,8.9-9
						c3.8-2.2,8-3.2,12.7-3.2c4.7,0,9,1.1,12.7,3.2c3.8,2.2,6.8,5.2,8.9,9c2.2,3.8,3.2,8.2,3.2,13c0,4.8-1.1,9.2-3.2,13
						c-2.2,3.8-5.1,6.9-8.9,9c-3.8,2.2-8,3.2-12.7,3.2C969.4,584.8,965.2,583.8,961.4,581.6z M984.4,577.9c3-1.8,5.4-4.3,7.2-7.4
						c1.7-3.2,2.6-6.8,2.6-10.9c0-4.1-0.9-7.7-2.6-10.9c-1.7-3.2-4.1-5.7-7.2-7.4c-3-1.8-6.4-2.7-10.3-2.7s-7.2,0.9-10.3,2.7
						c-3,1.8-5.4,4.3-7.2,7.4c-1.8,3.2-2.6,6.8-2.6,10.9c0,4.1,0.9,7.7,2.6,10.9c1.7,3.2,4.1,5.7,7.2,7.4c3,1.8,6.4,2.7,10.3,2.7
						S981.4,579.7,984.4,577.9z"/>
					<path class="st0" d="M1035.7,527.4v7.2h15.9v4.1h-15.8v45.7h-4.8v-45.7h-9.2v-4.1h9.2V527c0-4.2,1.2-7.5,3.6-10
						c2.4-2.5,5.8-3.7,10.2-3.7c1.9,0,3.7,0.3,5.5,0.8c1.7,0.5,3.2,1.4,4.3,2.4l-1.9,3.6c-2-1.8-4.6-2.8-7.7-2.8
						C1038.8,517.4,1035.7,520.7,1035.7,527.4z"/>
					<path class="st0" d="M1102.2,581.3c-1.2,1.1-2.7,2-4.5,2.6c-1.8,0.6-3.7,0.9-5.7,0.9c-4.3,0-7.7-1.2-10-3.6
						c-2.4-2.4-3.5-5.7-3.5-10v-32.5h-9.2v-4.1h9.2v-10.9h4.8v10.9h15.8v4.1h-15.8v32.1c0,3.2,0.8,5.7,2.3,7.4
						c1.6,1.7,3.9,2.5,6.9,2.5c3.1,0,5.7-0.9,7.7-2.8L1102.2,581.3z"/>
					<path class="st0" d="M1201.9,534.7l-18.9,49.8h-4.5l-16.8-43.2l-16.9,43.2h-4.4l-18.9-49.8h4.6l16.6,44.5l17-44.5h4.1
						l16.9,44.4l16.8-44.4H1201.9z"/>
					<path class="st0" d="M1258.7,539c3.3,3.1,5,7.8,5,13.9v31.6h-4.6v-8.9c-1.6,2.9-3.9,5.2-7,6.8c-3.1,1.6-6.7,2.4-11,2.4
						c-5.5,0-9.9-1.3-13.1-3.9c-3.2-2.6-4.8-6-4.8-10.3c0-4.1,1.5-7.5,4.4-10.1c3-2.6,7.7-3.9,14.2-3.9h17.1v-4
						c0-4.6-1.3-8.2-3.8-10.6c-2.5-2.4-6.2-3.6-11-3.6c-3.3,0-6.5,0.6-9.5,1.7c-3,1.1-5.6,2.7-7.7,4.6l-2.4-3.4c2.5-2.2,5.5-4,9-5.2
						c3.5-1.2,7.2-1.9,11-1.9C1250.7,534.3,1255.4,535.9,1258.7,539z M1252.4,578.1c2.9-1.9,5.1-4.7,6.5-8.3v-9.3h-17
						c-4.9,0-8.4,0.9-10.6,2.7c-2.2,1.8-3.3,4.2-3.3,7.3c0,3.2,1.2,5.8,3.6,7.7c2.4,1.9,5.8,2.8,10.2,2.8
						C1245.9,580.9,1249.5,580,1252.4,578.1z"/>
					<path class="st0" d="M1311.3,537.2c3.2-1.9,7.2-2.9,11.8-2.9v4.7l-1.1-0.1c-5.5,0-9.9,1.7-13,5.2c-3.1,3.5-4.7,8.3-4.7,14.5
						v25.9h-4.8v-49.8h4.6v10.9C1305.6,541.9,1308,539.1,1311.3,537.2z"/>
					<path class="st0" d="M1394.1,560.7h-42.8c0.1,3.9,1.1,7.3,3,10.4c1.8,3,4.3,5.4,7.5,7c3.1,1.7,6.7,2.5,10.6,2.5
						c3.2,0,6.2-0.6,9-1.8c2.8-1.2,5.1-2.9,6.9-5.2l2.8,3.1c-2.2,2.6-4.9,4.6-8.2,6c-3.3,1.4-6.8,2.1-10.6,2.1
						c-5,0-9.4-1.1-13.3-3.2c-3.9-2.2-6.9-5.2-9.1-9c-2.2-3.8-3.3-8.2-3.3-13.1c0-4.8,1-9.2,3.1-13c2.1-3.8,4.9-6.9,8.5-9
						c3.6-2.2,7.7-3.2,12.2-3.2c4.5,0,8.6,1.1,12.2,3.2c3.6,2.1,6.4,5.1,8.5,8.9c2.1,3.8,3.1,8.1,3.1,13L1394.1,560.7z M1361,540.8
						c-2.8,1.6-5,3.8-6.7,6.6c-1.7,2.8-2.7,6-2.9,9.6h38.2c-0.2-3.6-1.1-6.7-2.9-9.5c-1.7-2.8-4-5-6.8-6.6c-2.8-1.6-5.9-2.4-9.4-2.4
						S1363.8,539.3,1361,540.8z"/>
				</g>
			</g>
			<g>
				<path class="st1" d="M431,23.3h-61c-5.2,0-9.3,4.2-9.3,9.3s4.2,9.3,9.3,9.3h51.7v49.7c0,5.2,4.2,9.3,9.3,9.3
					c5.2,0,9.3-4.2,9.3-9.3v-59C440.4,27.5,436.2,23.3,431,23.3z"/>
				<path class="st1" d="M24,164.4v275.3h275.3c45.2,0,81.9-36.7,81.9-81.9V82.5H105.8C60.6,82.5,24,119.1,24,164.4z M269.9,123.2
					h61c5.2,0,9.3,4.2,9.3,9.3v59c0,5.2-4.2,9.3-9.3,9.3c-5.2,0-9.3-4.2-9.3-9.3v-49.7h-51.7c-5.2,0-9.3-4.2-9.3-9.3
					C260.6,127.4,264.8,123.2,269.9,123.2z M210.4,182.5h61c5.2,0,9.3,4.2,9.3,9.3v59c0,5.2-4.2,9.3-9.3,9.3c-5.2,0-9.3-4.2-9.3-9.3
					v-49.7h-51.7c-5.2,0-9.3-4.2-9.3-9.3C201.1,186.6,205.2,182.5,210.4,182.5z"/>
			</g>
		</g>
		<g>
			<g>
				<path class="st2" d="M1034.3,1016.7H386.7c-36.6,0-66.3-29.7-66.3-66.3v0c0-36.6,29.7-66.3,66.3-66.3h647.6
					c36.6,0,66.3,29.7,66.3,66.3v0C1100.6,987,1070.9,1016.7,1034.3,1016.7z"/>
				<g>
					<g>
						<path class="st3" d="M385.8,930h7.6v40.7h-7.6V930z"/>
						<path class="st3" d="M413.7,970c-2.9-0.9-5.2-2.1-7-3.5l2.6-5.9c1.7,1.3,3.7,2.4,6.1,3.2c2.4,0.8,4.9,1.3,7.3,1.3
							c3,0,5.3-0.5,6.8-1.5c1.5-1,2.2-2.2,2.2-3.8c0-1.2-0.4-2.1-1.3-2.9c-0.8-0.8-1.9-1.3-3.2-1.8c-1.3-0.4-3-0.9-5.2-1.5
							c-3.1-0.7-5.6-1.5-7.5-2.2c-1.9-0.7-3.6-1.9-4.9-3.5c-1.4-1.6-2.1-3.7-2.1-6.4c0-2.2,0.6-4.3,1.8-6.1c1.2-1.8,3.1-3.3,5.5-4.4
							c2.5-1.1,5.5-1.6,9-1.6c2.5,0,4.9,0.3,7.3,0.9c2.4,0.6,4.5,1.5,6.2,2.7l-2.4,5.9c-1.8-1-3.6-1.8-5.6-2.4
							c-1.9-0.5-3.8-0.8-5.6-0.8c-3,0-5.2,0.5-6.7,1.5c-1.5,1-2.2,2.3-2.2,4c0,1.2,0.4,2.1,1.3,2.9c0.8,0.7,1.9,1.3,3.2,1.7
							c1.3,0.4,3,0.9,5.2,1.5c3,0.7,5.5,1.4,7.4,2.2c1.9,0.8,3.6,1.9,5,3.5c1.4,1.6,2.1,3.6,2.1,6.3c0,2.2-0.6,4.3-1.8,6.1
							c-1.2,1.8-3.1,3.3-5.6,4.4c-2.5,1.1-5.5,1.6-9.1,1.6C419.7,971.3,416.6,970.9,413.7,970z"/>
						<path class="st3" d="M460.4,968.6c-3.3-1.8-6-4.3-7.9-7.5c-1.9-3.2-2.9-6.8-2.9-10.7c0-4,0.9-7.5,2.9-10.7
							c1.9-3.2,4.5-5.7,7.9-7.5c3.3-1.8,7.1-2.7,11.2-2.7c4.1,0,7.9,0.9,11.2,2.7c3.3,1.8,6,4.3,7.9,7.5c1.9,3.2,2.9,6.8,2.9,10.8
							c0,4-1,7.6-2.9,10.8c-1.9,3.2-4.5,5.7-7.9,7.5c-3.3,1.8-7.1,2.7-11.2,2.7C467.5,971.3,463.7,970.4,460.4,968.6z M479,962.8
							c2.2-1.2,3.9-2.9,5.1-5.1c1.2-2.2,1.9-4.6,1.9-7.4c0-2.7-0.6-5.2-1.9-7.4c-1.2-2.2-2.9-3.9-5.1-5.1c-2.2-1.2-4.6-1.8-7.3-1.8
							c-2.7,0-5.2,0.6-7.3,1.8c-2.2,1.2-3.9,2.9-5.1,5.1c-1.2,2.2-1.9,4.6-1.9,7.4c0,2.7,0.6,5.2,1.9,7.4c1.2,2.2,2.9,3.9,5.1,5.1
							c2.2,1.2,4.6,1.8,7.3,1.8C474.3,964.7,476.8,964.1,479,962.8z"/>
						<path class="st3" d="M505.4,951.5h16v6.1h-16V951.5z"/>
						<path class="st3" d="M535.9,930h7.6v40.7h-7.6V930z"/>
						<path class="st3" d="M590.8,964.4v6.3h-30.5V930H590v6.3h-22.2v10.6h19.7v6.2h-19.7v11.2H590.8z"/>
						<path class="st3" d="M612.6,968.6c-3.3-1.8-5.9-4.3-7.8-7.5c-1.9-3.2-2.8-6.8-2.8-10.8c0-4,0.9-7.6,2.9-10.8
							c1.9-3.2,4.5-5.7,7.8-7.5c3.3-1.8,7-2.7,11.1-2.7c3.3,0,6.4,0.6,9.1,1.7c2.8,1.2,5.1,2.9,7,5.1l-4.9,4.6
							c-2.9-3.2-6.6-4.8-10.9-4.8c-2.8,0-5.3,0.6-7.5,1.8c-2.2,1.2-3.9,2.9-5.2,5.1c-1.2,2.2-1.9,4.6-1.9,7.4c0,2.8,0.6,5.2,1.9,7.4
							c1.2,2.2,3,3.9,5.2,5.1c2.2,1.2,4.7,1.8,7.5,1.8c4.3,0,7.9-1.6,10.9-4.8l4.9,4.7c-1.9,2.2-4.2,3.9-7,5.1
							c-2.8,1.2-5.8,1.7-9.2,1.7C619.6,971.3,615.9,970.4,612.6,968.6z"/>
						<path class="st3" d="M701.5,964.3v6.4h-30v-5.1l16.2-15.4c1.8-1.7,3.1-3.3,3.7-4.6c0.6-1.3,1-2.6,1-3.9c0-1.9-0.6-3.4-1.9-4.4
							c-1.3-1-3.2-1.5-5.6-1.5c-4.2,0-7.3,1.4-9.5,4.2l-5.3-4.1c1.6-2.1,3.7-3.8,6.4-5c2.7-1.2,5.7-1.8,9-1.8c4.4,0,8,1,10.6,3.1
							c2.6,2.1,4,4.9,4,8.6c0,2.2-0.5,4.3-1.4,6.2c-0.9,1.9-2.7,4.2-5.4,6.6l-10.9,10.4H701.5z"/>
						<path class="st3" d="M738.4,934.6c3.1,3.5,4.6,8.5,4.6,15c0,4.6-0.8,8.5-2.5,11.7c-1.7,3.2-4,5.7-7,7.4
							c-3,1.7-6.5,2.5-10.4,2.5c-2.1,0-4.1-0.2-5.9-0.7c-1.8-0.4-3.4-1.1-4.8-1.9l2.8-5.7c2,1.3,4.6,2,7.7,2c3.9,0,7-1.2,9.2-3.6
							c2.2-2.4,3.3-5.9,3.3-10.4v-0.1c-1.2,1.4-2.7,2.5-4.6,3.2c-1.9,0.7-4,1.1-6.3,1.1c-2.7,0-5.1-0.5-7.2-1.5
							c-2.1-1-3.8-2.5-5-4.4c-1.2-1.9-1.8-4.1-1.8-6.6c0-2.6,0.7-5,2-7c1.3-2,3.1-3.5,5.4-4.6c2.2-1.1,4.8-1.6,7.6-1.6
							C731,929.4,735.3,931.2,738.4,934.6z M731.9,947.2c1.5-1.3,2.3-3,2.3-5c0-2-0.7-3.6-2.2-4.9c-1.5-1.3-3.6-1.9-6.2-1.9
							c-2.4,0-4.3,0.6-5.8,1.9c-1.5,1.3-2.2,2.9-2.2,5c0,2.1,0.7,3.8,2.2,5.1c1.5,1.2,3.5,1.9,5.9,1.9
							C728.4,949.2,730.4,948.5,731.9,947.2z"/>
						<path class="st3" d="M767.8,930v40.7h-7.6v-34.4h-8.6V930H767.8z"/>
						<path class="st3" d="M818,961.5h-7.2v9.3h-7.3v-9.3h-22.3v-5.2l20.1-26.2h8.1l-18.9,25.1h13.3v-8.2h7.1v8.2h7.2V961.5z"/>
						<path class="st3" d="M855.1,930v5.1l-15.8,35.7h-8.1l15.3-34.3h-16v6.9h-7V930H855.1z"/>
						<path class="st3" d="M863.3,951.5h16v6.1h-16V951.5z"/>
						<path class="st3" d="M919.5,964.3v6.4h-30v-5.1l16.2-15.4c1.8-1.7,3.1-3.3,3.7-4.6c0.6-1.3,1-2.6,1-3.9c0-1.9-0.6-3.4-1.9-4.4
							c-1.3-1-3.2-1.5-5.6-1.5c-4.2,0-7.3,1.4-9.5,4.2l-5.3-4.1c1.6-2.1,3.7-3.8,6.4-5c2.7-1.2,5.7-1.8,9-1.8c4.4,0,8,1,10.6,3.1
							c2.6,2.1,4,4.9,4,8.6c0,2.2-0.5,4.3-1.4,6.2c-0.9,1.9-2.7,4.2-5.4,6.6l-10.9,10.4H919.5z"/>
						<path class="st3" d="M937.8,968.8c-2.6-1.6-4.6-4.1-6.1-7.2c-1.5-3.2-2.2-6.9-2.2-11.3c0-4.3,0.7-8.1,2.2-11.3
							c1.5-3.2,3.5-5.6,6.1-7.2c2.6-1.6,5.5-2.5,8.7-2.5c3.3,0,6.2,0.8,8.8,2.5c2.6,1.6,4.6,4.1,6.1,7.2c1.5,3.2,2.2,6.9,2.2,11.3
							c0,4.3-0.7,8.1-2.2,11.3c-1.5,3.2-3.5,5.6-6.1,7.2c-2.6,1.6-5.5,2.5-8.8,2.5C943.2,971.3,940.3,970.5,937.8,968.8z
							 M953.4,961.1c1.7-2.4,2.5-6,2.5-10.8c0-4.8-0.8-8.4-2.5-10.8c-1.7-2.4-4-3.6-6.9-3.6c-2.9,0-5.1,1.2-6.8,3.6
							c-1.7,2.4-2.5,6-2.5,10.8c0,4.8,0.8,8.4,2.5,10.8c1.7,2.4,4,3.6,6.8,3.6C949.4,964.7,951.7,963.5,953.4,961.1z"/>
						<path class="st3" d="M988.3,930v40.7h-7.6v-34.4h-8.6V930H988.3z"/>
						<path class="st3" d="M1033.5,953.2c1.1,1.6,1.7,3.6,1.7,5.8c0,2.5-0.7,4.7-2.1,6.5c-1.4,1.9-3.3,3.3-5.8,4.3
							c-2.5,1-5.4,1.5-8.8,1.5c-3.3,0-6.3-0.5-8.8-1.5c-2.5-1-4.4-2.4-5.8-4.3c-1.4-1.9-2-4-2-6.5c0-2.2,0.6-4.1,1.7-5.8
							c1.1-1.6,2.7-3,4.8-3.9c-1.6-0.9-2.9-2.1-3.8-3.5c-0.9-1.5-1.3-3.1-1.3-5c0-2.3,0.6-4.3,1.9-6c1.3-1.7,3-3,5.3-4
							c2.3-0.9,4.9-1.4,7.9-1.4c3,0,5.7,0.5,8,1.4c2.3,0.9,4.1,2.2,5.4,4c1.3,1.7,1.9,3.7,1.9,6c0,1.9-0.4,3.6-1.3,5
							c-0.9,1.4-2.2,2.6-3.8,3.5C1030.7,950.3,1032.3,951.6,1033.5,953.2z M1025.1,963.6c1.6-1.2,2.4-2.8,2.4-4.8
							c0-2-0.8-3.6-2.4-4.8c-1.6-1.2-3.8-1.7-6.6-1.7s-5,0.6-6.6,1.7c-1.6,1.2-2.4,2.8-2.4,4.8c0,2.1,0.8,3.7,2.4,4.8
							c1.6,1.2,3.8,1.7,6.6,1.7S1023.5,964.8,1025.1,963.6z M1012.9,936.9c-1.4,1-2.1,2.4-2.1,4.2c0,1.7,0.7,3.1,2.1,4.2
							c1.4,1,3.2,1.5,5.6,1.5c2.4,0,4.3-0.5,5.7-1.5c1.4-1,2.1-2.4,2.1-4.2c0-1.8-0.7-3.2-2.1-4.2c-1.4-1-3.3-1.5-5.7-1.5
							C1016.1,935.3,1014.3,935.8,1012.9,936.9z"/>
					</g>
				</g>
			</g>
			<g>
				<path class="st2" d="M1034.3,1188.5H386.7c-36.6,0-66.3-29.7-66.3-66.3v0c0-36.6,29.7-66.3,66.3-66.3h647.6
					c36.6,0,66.3,29.7,66.3,66.3v0C1100.6,1158.8,1070.9,1188.5,1034.3,1188.5z"/>
				<g>
					<g>
						<path class="st3" d="M394.5,1101.6h7.6v41.2h-7.6V1101.6z"/>
						<path class="st3" d="M422.7,1141.9c-3-0.9-5.3-2.1-7-3.6l2.6-5.9c1.7,1.3,3.8,2.4,6.2,3.3c2.4,0.8,4.9,1.3,7.4,1.3
							c3.1,0,5.3-0.5,6.8-1.5c1.5-1,2.3-2.3,2.3-3.9c0-1.2-0.4-2.1-1.3-2.9c-0.8-0.8-1.9-1.4-3.2-1.8c-1.3-0.4-3.1-0.9-5.3-1.5
							c-3.1-0.7-5.7-1.5-7.6-2.2c-1.9-0.7-3.6-1.9-5-3.5c-1.4-1.6-2.1-3.7-2.1-6.4c0-2.3,0.6-4.3,1.9-6.2c1.2-1.9,3.1-3.3,5.6-4.4
							c2.5-1.1,5.5-1.6,9.1-1.6c2.5,0,5,0.3,7.4,0.9c2.4,0.6,4.5,1.5,6.3,2.7l-2.4,5.9c-1.8-1.1-3.7-1.9-5.6-2.4
							c-2-0.5-3.9-0.8-5.7-0.8c-3,0-5.3,0.5-6.7,1.5c-1.5,1-2.2,2.4-2.2,4.1c0,1.2,0.4,2.1,1.3,2.9c0.8,0.7,1.9,1.3,3.2,1.8
							c1.3,0.4,3.1,0.9,5.3,1.5c3.1,0.7,5.6,1.4,7.5,2.2c2,0.8,3.6,1.9,5,3.5c1.4,1.6,2.1,3.7,2.1,6.3c0,2.3-0.6,4.3-1.9,6.2
							c-1.2,1.8-3.1,3.3-5.6,4.4c-2.5,1.1-5.6,1.6-9.2,1.6C428.8,1143.3,425.7,1142.8,422.7,1141.9z"/>
						<path class="st3" d="M469.9,1140.6c-3.4-1.8-6-4.4-7.9-7.6c-1.9-3.2-2.9-6.8-2.9-10.8c0-4,1-7.6,2.9-10.8
							c1.9-3.2,4.6-5.8,7.9-7.6c3.4-1.8,7.2-2.7,11.3-2.7c4.2,0,8,0.9,11.3,2.7c3.4,1.8,6,4.3,7.9,7.6c1.9,3.2,2.9,6.8,2.9,10.9
							c0,4-1,7.7-2.9,10.9c-1.9,3.2-4.6,5.7-7.9,7.6c-3.4,1.8-7.2,2.7-11.3,2.7C477.1,1143.3,473.3,1142.4,469.9,1140.6z
							 M488.7,1134.7c2.2-1.2,3.9-3,5.2-5.2c1.3-2.2,1.9-4.7,1.9-7.4c0-2.7-0.6-5.2-1.9-7.4c-1.3-2.2-3-3.9-5.2-5.2
							c-2.2-1.2-4.7-1.9-7.4-1.9c-2.7,0-5.2,0.6-7.4,1.9c-2.2,1.2-3.9,3-5.2,5.2c-1.3,2.2-1.9,4.7-1.9,7.4c0,2.7,0.6,5.2,1.9,7.4
							c1.3,2.2,3,3.9,5.2,5.2c2.2,1.2,4.7,1.9,7.4,1.9C484,1136.6,486.5,1136,488.7,1134.7z"/>
						<path class="st3" d="M515.4,1123.3h16.2v6.1h-16.2V1123.3z"/>
						<path class="st3" d="M546.2,1101.6h7.6v41.2h-7.6V1101.6z"/>
						<path class="st3" d="M601.7,1136.3v6.4h-30.9v-41.2h30v6.4h-22.4v10.7h19.9v6.3h-19.9v11.3H601.7z"/>
						<path class="st3" d="M623.7,1140.6c-3.4-1.8-6-4.3-7.9-7.6c-1.9-3.2-2.9-6.8-2.9-10.9c0-4,1-7.7,2.9-10.9
							c1.9-3.2,4.6-5.7,7.9-7.6c3.4-1.8,7.1-2.7,11.3-2.7c3.4,0,6.4,0.6,9.2,1.8c2.8,1.2,5.1,2.9,7.1,5.1l-4.9,4.6
							c-3-3.2-6.6-4.8-11-4.8c-2.8,0-5.3,0.6-7.6,1.9s-4,2.9-5.2,5.1c-1.3,2.2-1.9,4.7-1.9,7.5c0,2.8,0.6,5.3,1.9,7.5
							c1.3,2.2,3,3.9,5.2,5.1s4.8,1.9,7.6,1.9c4.4,0,8-1.6,11-4.9l4.9,4.7c-1.9,2.2-4.3,3.9-7.1,5.1c-2.8,1.2-5.9,1.8-9.3,1.8
							C630.8,1143.3,627.1,1142.4,623.7,1140.6z"/>
						<path class="st3" d="M709.9,1122.4c2,2.1,3,4.8,3,7.9c0,2.4-0.6,4.6-1.8,6.5c-1.2,2-3,3.5-5.5,4.7c-2.4,1.2-5.4,1.7-9,1.7
							c-2.9,0-5.8-0.4-8.5-1.3c-2.7-0.8-5-2-7-3.5l3.3-5.9c1.5,1.3,3.3,2.2,5.4,3c2.1,0.7,4.3,1.1,6.6,1.1c2.7,0,4.8-0.6,6.4-1.7
							c1.5-1.1,2.3-2.6,2.3-4.6c0-1.9-0.7-3.4-2.2-4.5c-1.5-1.1-3.7-1.6-6.7-1.6h-3.8v-5.2l9.3-11.1h-18.7v-6.4h28v5.1l-10,11.9
							C705,1119,707.9,1120.3,709.9,1122.4z"/>
						<path class="st3" d="M732.2,1140.8c-2.6-1.7-4.6-4.1-6.1-7.3c-1.5-3.2-2.2-7-2.2-11.4c0-4.4,0.7-8.2,2.2-11.4
							c1.5-3.2,3.5-5.6,6.1-7.3c2.6-1.7,5.5-2.5,8.8-2.5c3.3,0,6.2,0.8,8.8,2.5c2.6,1.7,4.7,4.1,6.1,7.3c1.5,3.2,2.2,7,2.2,11.4
							c0,4.4-0.7,8.2-2.2,11.4c-1.5,3.2-3.5,5.6-6.1,7.3c-2.6,1.7-5.6,2.5-8.8,2.5C737.7,1143.3,734.8,1142.5,732.2,1140.8z
							 M748,1133c1.7-2.4,2.6-6.1,2.6-10.9c0-4.8-0.9-8.4-2.6-10.9c-1.7-2.4-4-3.6-7-3.6c-2.9,0-5.2,1.2-6.9,3.6
							c-1.7,2.4-2.6,6.1-2.6,10.9c0,4.8,0.9,8.4,2.6,10.9c1.7,2.4,4,3.6,6.9,3.6C743.9,1136.7,746.2,1135.4,748,1133z"/>
						<path class="st3" d="M783.2,1101.6v41.2h-7.6V1108h-8.7v-6.4H783.2z"/>
						<path class="st3" d="M811.5,1101.6v41.2h-7.6V1108h-8.7v-6.4H811.5z"/>
						<path class="st3" d="M839.8,1101.6v41.2h-7.6V1108h-8.7v-6.4H839.8z"/>
						<path class="st3" d="M854.4,1123.3h16.2v6.1h-16.2V1123.3z"/>
						<path class="st3" d="M911.2,1136.2v6.5h-30.3v-5.1l16.3-15.5c1.8-1.8,3.1-3.3,3.7-4.6c0.6-1.3,1-2.6,1-3.9
							c0-1.9-0.6-3.4-1.9-4.4c-1.3-1-3.2-1.5-5.7-1.5c-4.2,0-7.4,1.4-9.6,4.3l-5.3-4.1c1.6-2.2,3.8-3.8,6.5-5
							c2.7-1.2,5.8-1.8,9.1-1.8c4.5,0,8,1.1,10.7,3.2c2.7,2.1,4,5,4,8.6c0,2.2-0.5,4.3-1.4,6.3c-0.9,2-2.7,4.2-5.4,6.7l-11,10.5
							H911.2z"/>
						<path class="st3" d="M929.7,1140.8c-2.6-1.7-4.6-4.1-6.1-7.3c-1.5-3.2-2.2-7-2.2-11.4c0-4.4,0.7-8.2,2.2-11.4
							c1.5-3.2,3.5-5.6,6.1-7.3c2.6-1.7,5.5-2.5,8.8-2.5c3.3,0,6.2,0.8,8.8,2.5c2.6,1.7,4.7,4.1,6.1,7.3c1.5,3.2,2.2,7,2.2,11.4
							c0,4.4-0.7,8.2-2.2,11.4c-1.5,3.2-3.5,5.6-6.1,7.3c-2.6,1.7-5.6,2.5-8.8,2.5C935.2,1143.3,932.3,1142.5,929.7,1140.8z
							 M945.5,1133c1.7-2.4,2.6-6.1,2.6-10.9c0-4.8-0.9-8.4-2.6-10.9c-1.7-2.4-4-3.6-7-3.6c-2.9,0-5.2,1.2-6.9,3.6
							c-1.7,2.4-2.6,6.1-2.6,10.9c0,4.8,0.9,8.4,2.6,10.9c1.7,2.4,4,3.6,6.9,3.6C941.5,1136.7,943.8,1135.4,945.5,1133z"/>
						<path class="st3" d="M980.7,1101.6v41.2h-7.6V1108h-8.7v-6.4H980.7z"/>
						<path class="st3" d="M1021.8,1106.3c3.1,3.5,4.7,8.6,4.7,15.2c0,4.6-0.8,8.6-2.5,11.8c-1.7,3.3-4,5.8-7.1,7.5
							c-3,1.7-6.6,2.6-10.6,2.6c-2.1,0-4.1-0.2-6-0.7c-1.9-0.5-3.5-1.1-4.9-2l2.8-5.8c2,1.3,4.6,2,7.8,2c4,0,7.1-1.2,9.3-3.6
							c2.2-2.4,3.4-5.9,3.4-10.5v-0.1c-1.2,1.4-2.8,2.5-4.6,3.2c-1.9,0.7-4,1.1-6.3,1.1c-2.7,0-5.1-0.5-7.3-1.6
							c-2.2-1-3.8-2.5-5.1-4.4c-1.2-1.9-1.8-4.1-1.8-6.6c0-2.7,0.7-5,2-7c1.3-2,3.1-3.6,5.4-4.7c2.3-1.1,4.8-1.6,7.6-1.6
							C1014.3,1101,1018.7,1102.7,1021.8,1106.3z M1015.3,1119c1.5-1.3,2.3-3,2.3-5.1c0-2-0.8-3.7-2.3-5c-1.5-1.3-3.6-2-6.3-2
							c-2.4,0-4.3,0.6-5.8,1.9c-1.5,1.3-2.2,3-2.2,5.1c0,2.2,0.7,3.9,2.2,5.1c1.5,1.3,3.5,1.9,6,1.9
							C1011.7,1121,1013.7,1120.3,1015.3,1119z"/>
					</g>
				</g>
			</g>
			<g>
				<path class="st2" d="M1213.4,844.9H207.6c-36.6,0-66.3-29.7-66.3-66.3v0c0-36.6,29.7-66.3,66.3-66.3h1005.8
					c36.6,0,66.3,29.7,66.3,66.3v0C1279.7,815.2,1250,844.9,1213.4,844.9z"/>
				<g>
					<path class="st3" d="M250.6,788.4h-20.2l-4,9.4h-7.7l18.2-40.4h7.4l18.3,40.4h-7.9L250.6,788.4z M248.2,782.5l-7.6-17.7
						l-7.6,17.7H248.2z"/>
					<path class="st3" d="M279.7,763.6h-13.4v-6.4h34.3v6.4h-13.4v34.1h-7.5V763.6z"/>
					<path class="st3" d="M320.8,763.6h-13.4v-6.4h34.3v6.4h-13.4v34.1h-7.5V763.6z"/>
					<path class="st3" d="M377.4,788.4h-20.2l-4,9.4h-7.7l18.2-40.4h7.4l18.3,40.4h-7.9L377.4,788.4z M374.9,782.5l-7.6-17.7
						l-7.6,17.7H374.9z"/>
					<path class="st3" d="M407.3,795.6c-3.3-1.8-5.9-4.3-7.7-7.4c-1.9-3.2-2.8-6.7-2.8-10.7c0-4,0.9-7.5,2.8-10.7
						c1.9-3.2,4.5-5.6,7.8-7.4c3.3-1.8,7-2.7,11.1-2.7c3.3,0,6.3,0.6,9.1,1.7c2.7,1.2,5,2.8,6.9,5l-4.9,4.6
						c-2.9-3.2-6.5-4.7-10.8-4.7c-2.8,0-5.3,0.6-7.5,1.8c-2.2,1.2-3.9,2.9-5.1,5.1c-1.2,2.2-1.8,4.6-1.8,7.3c0,2.7,0.6,5.2,1.8,7.3
						c1.2,2.2,2.9,3.8,5.1,5.1c2.2,1.2,4.7,1.8,7.5,1.8c4.3,0,7.9-1.6,10.8-4.8l4.9,4.6c-1.9,2.2-4.2,3.9-7,5
						c-2.8,1.2-5.8,1.7-9.1,1.7C414.2,798.3,410.5,797.4,407.3,795.6z"/>
					<path class="st3" d="M461.3,780.8l-6.4,6.6v10.3h-7.5v-40.4h7.5V778l20-20.7h8.4l-17,18.1l18,22.4h-8.8L461.3,780.8z"/>
					<path class="st3" d="M520.5,797c-2.9-0.9-5.2-2.1-6.9-3.5l2.6-5.8c1.7,1.3,3.7,2.4,6.1,3.2c2.4,0.8,4.8,1.2,7.3,1.2
						c3,0,5.2-0.5,6.7-1.4c1.5-1,2.2-2.2,2.2-3.8c0-1.2-0.4-2.1-1.2-2.9c-0.8-0.8-1.9-1.3-3.1-1.8c-1.3-0.4-3-0.9-5.2-1.4
						c-3.1-0.7-5.6-1.5-7.5-2.2c-1.9-0.7-3.5-1.9-4.9-3.4c-1.4-1.6-2.1-3.7-2.1-6.3c0-2.2,0.6-4.3,1.8-6.1c1.2-1.8,3-3.3,5.5-4.4
						c2.4-1.1,5.4-1.6,9-1.6c2.5,0,4.9,0.3,7.3,0.9c2.4,0.6,4.4,1.5,6.2,2.7l-2.4,5.8c-1.8-1-3.6-1.8-5.5-2.4
						c-1.9-0.5-3.8-0.8-5.6-0.8c-3,0-5.2,0.5-6.6,1.5c-1.4,1-2.2,2.3-2.2,4c0,1.2,0.4,2.1,1.2,2.8c0.8,0.7,1.9,1.3,3.1,1.7
						c1.3,0.4,3,0.9,5.2,1.4c3,0.7,5.5,1.4,7.4,2.2c1.9,0.8,3.6,1.9,4.9,3.4c1.4,1.5,2.1,3.6,2.1,6.2c0,2.2-0.6,4.3-1.8,6.1
						c-1.2,1.8-3.1,3.3-5.5,4.3c-2.5,1.1-5.5,1.6-9,1.6C526.4,798.3,523.4,797.9,520.5,797z"/>
					<path class="st3" d="M563.5,793.6c-3.1-3.1-4.7-7.6-4.7-13.5v-22.8h7.5v22.5c0,7.9,3.4,11.9,10.3,11.9c6.8,0,10.2-4,10.2-11.9
						v-22.5h7.4v22.8c0,5.9-1.6,10.4-4.7,13.5c-3.1,3.1-7.4,4.7-13,4.7C570.9,798.3,566.6,796.7,563.5,793.6z"/>
					<path class="st3" d="M637,797.7l-8.3-11.8c-0.3,0-0.9,0.1-1.6,0.1H618v11.8h-7.5v-40.4h16.6c3.5,0,6.6,0.6,9.2,1.7
						c2.6,1.2,4.6,2.8,6,5c1.4,2.2,2.1,4.7,2.1,7.7c0,3-0.7,5.7-2.2,7.9c-1.5,2.2-3.6,3.8-6.4,4.9l9.3,13.3H637z M634.2,765.7
						c-1.7-1.4-4.2-2.1-7.5-2.1H618v16.1h8.8c3.3,0,5.8-0.7,7.5-2.1c1.7-1.4,2.5-3.4,2.5-6C636.8,769.1,635.9,767.1,634.2,765.7z"/>
					<path class="st3" d="M666,763.6v12.3h19.5v6.4H666v15.5h-7.5v-40.4H688v6.3H666z"/>
					<path class="st3" d="M725.6,788.4h-20.2l-4,9.4h-7.7l18.2-40.4h7.4l18.3,40.4h-7.9L725.6,788.4z M723.1,782.5l-7.6-17.7
						l-7.6,17.7H723.1z"/>
					<path class="st3" d="M755.5,795.6c-3.3-1.8-5.9-4.3-7.7-7.4c-1.9-3.2-2.8-6.7-2.8-10.7c0-4,0.9-7.5,2.8-10.7
						c1.9-3.2,4.5-5.6,7.8-7.4c3.3-1.8,7-2.7,11.1-2.7c3.3,0,6.3,0.6,9.1,1.7c2.7,1.2,5,2.8,6.9,5l-4.9,4.6
						c-2.9-3.2-6.5-4.7-10.8-4.7c-2.8,0-5.3,0.6-7.5,1.8c-2.2,1.2-3.9,2.9-5.1,5.1c-1.2,2.2-1.8,4.6-1.8,7.3c0,2.7,0.6,5.2,1.8,7.3
						c1.2,2.2,2.9,3.8,5.1,5.1c2.2,1.2,4.7,1.8,7.5,1.8c4.3,0,7.9-1.6,10.8-4.8l4.9,4.6c-1.9,2.2-4.2,3.9-7,5
						c-2.8,1.2-5.8,1.7-9.1,1.7C762.5,798.3,758.8,797.4,755.5,795.6z"/>
					<path class="st3" d="M825.9,791.4v6.3h-30.3v-40.4h29.5v6.3h-22v10.5h19.5v6.2h-19.5v11.2H825.9z"/>
					<path class="st3" d="M899,797.7l-0.1-26.8l-13.3,22.2h-3.4L869,771.3v26.5h-7.2v-40.4h6.2l16.1,26.8l15.8-26.8h6.2l0.1,40.4
						H899z"/>
					<path class="st3" d="M949,788.4h-20.2l-4,9.4h-7.7l18.2-40.4h7.4l18.3,40.4h-7.9L949,788.4z M946.5,782.5l-7.6-17.7l-7.6,17.7
						H946.5z"/>
					<path class="st3" d="M1007.8,757.3v40.4h-6.2l-22.3-27.4v27.4h-7.5v-40.4h6.2l22.3,27.4v-27.4H1007.8z"/>
					<path class="st3" d="M1050.6,788.4h-20.2l-4,9.4h-7.7l18.2-40.4h7.4l18.3,40.4h-7.9L1050.6,788.4z M1048.2,782.5l-7.6-17.7
						l-7.6,17.7H1048.2z"/>
					<path class="st3" d="M1100.5,777h7.1v16.1c-2.1,1.7-4.5,2.9-7.3,3.8s-5.6,1.3-8.6,1.3c-4.1,0-7.8-0.9-11.2-2.7
						c-3.3-1.8-5.9-4.3-7.8-7.4c-1.9-3.2-2.8-6.7-2.8-10.7c0-4,0.9-7.5,2.8-10.7c1.9-3.2,4.5-5.6,7.8-7.4c3.3-1.8,7.1-2.7,11.2-2.7
						c3.4,0,6.5,0.6,9.2,1.7c2.8,1.1,5.1,2.8,7,4.9l-4.7,4.6c-3.1-3.1-6.8-4.6-11.2-4.6c-2.9,0-5.4,0.6-7.6,1.8
						c-2.2,1.2-3.9,2.9-5.2,5c-1.3,2.2-1.9,4.6-1.9,7.4c0,2.7,0.6,5.1,1.9,7.3c1.3,2.2,3,3.9,5.2,5.1c2.2,1.2,4.7,1.8,7.5,1.8
						c3.2,0,5.9-0.7,8.3-2.1V777z"/>
					<path class="st3" d="M1153.6,791.4v6.3h-30.3v-40.4h29.5v6.3h-22v10.5h19.5v6.2h-19.5v11.2H1153.6z"/>
					<path class="st3" d="M1194.2,797.7l-8.3-11.8c-0.3,0-0.9,0.1-1.6,0.1h-9.1v11.8h-7.5v-40.4h16.6c3.5,0,6.6,0.6,9.2,1.7
						c2.6,1.2,4.6,2.8,6,5c1.4,2.2,2.1,4.7,2.1,7.7c0,3-0.7,5.7-2.2,7.9c-1.5,2.2-3.6,3.8-6.4,4.9l9.3,13.3H1194.2z M1191.5,765.7
						c-1.7-1.4-4.2-2.1-7.5-2.1h-8.8v16.1h8.8c3.3,0,5.8-0.7,7.5-2.1c1.7-1.4,2.5-3.4,2.5-6C1194.1,769.1,1193.2,767.1,1191.5,765.7
						z"/>
				</g>
			</g>
		</g>
	</g>
</g>
</svg>
