<?xml version="1.0" encoding="utf-8"?>
<!-- Generator: Adobe Illustrator 25.2.0, SVG Export Plug-In . SVG Version: 6.00 Build 0)  -->
<svg version="1.1" xmlns="http://www.w3.org/2000/svg" xmlns:xlink="http://www.w3.org/1999/xlink" x="0px" y="0px"
	 viewBox="0 0 1421 500" xml:space="preserve">
<style type="text/css">
	.st0{fill:#FFFFFF;}
	.st1{fill:#FF3435;}
	.st2{fill:#F9F9F9;}
	.st3{fill:#272727;}
</style>
<g id="bg">
</g>
<g id="Capa_1">
	<g>
		<g>
			<g>
				<path class="st0" d="M571.4,77l33.8,0l0,29.2l-32.8,0l0,107.3l-38.2,0l0-107.3l-20.3,0l0-29.2l20.3,0l0-5.8
					c0-14.9,4.4-26.7,13.4-35.5c8.9-8.7,21.4-13.1,37.6-13.1c5.7,0,11.1,0.6,16.3,1.8c5.1,1.2,9.4,3,12.9,5.2l-10,27.5
					c-4.4-3.1-9.5-4.6-15.4-4.6c-11.6,0-17.4,6.3-17.4,19L571.4,77z"/>
				<rect x="633" y="23.1" class="st0" width="38.2" height="190.4"/>
				<path class="st0" d="M839.4,81.7l0,131.8l-36.2,0l0-15.7c-5.1,5.7-11.1,10.1-18.1,13.1c-7,3-14.6,4.5-22.8,4.5
					c-17.3,0-31-5-41.1-14.9c-10.1-10-15.2-24.7-15.2-44.3l0-74.4l38.2,0l0,68.8c0,21.2,8.9,31.8,26.7,31.8c9.1,0,16.5-3,22-8.9
					c5.5-6,8.3-14.8,8.3-26.6l0-65.1L839.4,81.7z"/>
				<path class="st0" d="M876.6,59.7c-4.2-4.2-6.3-9.3-6.3-15.5c0-6.1,2.1-11.3,6.3-15.5s9.7-6.2,16.4-6.2c6.7,0,12.2,2,16.4,6
					c4.2,4,6.3,9,6.3,15c0,6.5-2.1,11.8-6.3,16.1c-4.2,4.2-9.7,6.4-16.4,6.4C886.3,66,880.9,63.9,876.6,59.7z"/>
				<rect x="874.9" y="81.7" class="st0" width="38.2" height="131.8"/>
				<path class="st0" d="M1044.7,22.6l0,73.1c-9.5-10.6-22.6-15.9-39.4-15.9c-12.4,0-23.6,2.8-33.7,8.3c-10,5.6-17.9,13.5-23.6,23.8
					c-5.7,10.3-8.6,22.2-8.6,35.8c0,13.6,2.9,25.5,8.6,35.8s13.6,18.2,23.6,23.8c10,5.6,21.3,8.3,33.7,8.3c18,0,31.7-5.7,41.1-17.1
					l0,15.2l36.5,0l0-190.9L1044.7,22.6z M1035.8,174.2c-6.4,6.6-14.4,9.9-24,9.9c-9.8,0-17.9-3.3-24.2-9.9
					c-6.4-6.6-9.6-15.5-9.5-26.6c0-11.1,3.2-20,9.6-26.6c6.4-6.6,14.4-9.9,24.2-9.9c9.6,0,17.6,3.3,24,9.9
					c6.4,6.6,9.6,15.5,9.5,26.6C1045.4,158.7,1042.2,167.6,1035.8,174.2z"/>
			</g>
			<g>
				<path class="st0" d="M609.5,316c8.9,8.4,13.3,20.8,13.3,37.2l0,84.6l-12.3,0l0-23.8c-4.3,7.8-10.5,13.9-18.7,18.3
					c-8.2,4.3-18,6.5-29.4,6.5c-14.8,0-26.6-3.5-35.2-10.5c-8.6-7-12.9-16.2-12.9-27.6c0-11.1,4-20.1,11.9-27
					c7.9-6.9,20.6-10.4,38-10.4l45.8,0l0-10.7c0-12.4-3.4-21.9-10.1-28.4c-6.7-6.5-16.6-9.7-29.5-9.7c-8.9,0-17.3,1.5-25.4,4.6
					c-8.1,3.1-15,7.2-20.6,12.3l-6.4-9.2c6.6-6,14.7-10.6,24-13.9c9.4-3.3,19.2-5,29.4-5C588,303.4,600.7,307.6,609.5,316z
					 M592.5,420.7c7.8-5.1,13.6-12.5,17.5-22.2l0-25.1l-45.5,0c-13.1,0-22.6,2.4-28.5,7.2c-5.9,4.8-8.8,11.3-8.8,19.7
					c0,8.7,3.2,15.6,9.7,20.6c6.5,5,15.6,7.5,27.4,7.5C575.3,428.4,584.8,425.8,592.5,420.7z"/>
				<path class="st0" d="M741.7,429.5c-3.2,3.1-7.3,5.4-12.1,7c-4.9,1.6-9.9,2.4-15.2,2.4c-11.6,0-20.5-3.2-26.8-9.6
					c-6.3-6.4-9.5-15.3-9.5-26.7l0-87.2l-24.5,0l0-11l24.5,0l0-29.1l12.8,0l0,29.1l42.4,0l0,11l-42.4,0l0,85.9
					c0,8.7,2.1,15.3,6.3,19.8c4.2,4.5,10.4,6.8,18.5,6.8c8.3,0,15.3-2.5,20.7-7.4L741.7,429.5z"/>
				<path class="st0" d="M839.9,429.5c-3.2,3.1-7.3,5.4-12.1,7c-4.9,1.6-9.9,2.4-15.2,2.4c-11.6,0-20.5-3.2-26.8-9.6
					c-6.3-6.4-9.5-15.3-9.5-26.7l0-87.2l-24.5,0l0-11l24.5,0l0-29.1l12.8,0l0,29.1l42.4,0l0,11l-42.4,0l0,85.9
					c0,8.7,2.1,15.3,6.3,19.8c4.2,4.5,10.4,6.8,18.5,6.8c8.3,0,15.3-2.5,20.7-7.4L839.9,429.5z"/>
				<path class="st0" d="M958.6,316.1c8.9,8.4,13.3,20.8,13.3,37.2l0,84.6l-12.3,0l0-23.8c-4.3,7.8-10.5,13.9-18.7,18.3
					c-8.2,4.3-18,6.5-29.4,6.5c-14.8,0-26.6-3.5-35.2-10.5c-8.6-7-12.9-16.2-12.9-27.6c0-11.1,4-20.1,11.9-27
					c7.9-6.9,20.6-10.4,38-10.4l45.8,0l0-10.7c0-12.4-3.4-21.9-10.1-28.4c-6.7-6.5-16.6-9.7-29.5-9.7c-8.9,0-17.3,1.5-25.4,4.6
					c-8.1,3.1-15,7.2-20.6,12.3l-6.4-9.2c6.6-6,14.7-10.6,24-13.9c9.4-3.3,19.2-5,29.4-5C937,303.4,949.7,307.6,958.6,316.1z
					 M941.5,420.8c7.8-5.1,13.6-12.5,17.5-22.2l0-25.1l-45.5,0c-13.1,0-22.6,2.4-28.5,7.2c-5.9,4.8-8.8,11.3-8.8,19.7
					c0,8.7,3.2,15.6,9.7,20.6c6.5,5,15.6,7.5,27.4,7.5C924.4,428.5,933.8,425.9,941.5,420.8z"/>
				<path class="st0" d="M1042.9,430.3c-10.2-5.8-18.2-13.8-24-24.2c-5.8-10.3-8.7-21.9-8.7-34.9c0-13.1,2.9-24.8,8.7-35.2
					s13.8-18.3,24-24c10.2-5.7,21.8-8.6,34.8-8.6c10.7,0,20.5,2.1,29.3,6.3c8.8,4.2,15.9,10.3,21.4,18.3l-9.5,6.9
					c-4.8-6.7-10.7-11.6-17.8-15c-7.1-3.3-14.9-5-23.4-5c-10.4,0-19.7,2.3-28,7c-8.3,4.7-14.7,11.3-19.4,19.8
					c-4.7,8.5-7,18.3-7,29.4c0,11.1,2.3,20.9,7,29.4c4.7,8.5,11.2,15.1,19.4,19.8c8.3,4.7,17.6,7,28,7c8.5,0,16.3-1.7,23.4-5
					c7.1-3.3,13-8.3,17.8-15l9.5,6.9c-5.5,8-12.6,14.1-21.4,18.3c-8.8,4.2-18.5,6.3-29.3,6.3C1064.7,439,1053.1,436.1,1042.9,430.3z
					"/>
				<path class="st0" d="M1211.9,366.6l-34.8,31.7l0,39.6l-12.8,0l0-189.7l12.8,0l0,134.2l85.4-78l16.4,0l-57.5,53.9l63.1,79.5
					l-15.8,0L1211.9,366.6z"/>
				<path class="st0" d="M1313.7,434.1c-9.7-3.2-17.3-7.3-22.8-12.3l5.9-10.2c5.5,4.6,12.5,8.4,21.1,11.5c8.6,3.1,17.6,4.6,27,4.6
					c13.5,0,23.4-2.2,29.8-6.6c6.4-4.4,9.6-10.6,9.6-18.4c0-5.6-1.7-10.1-5.2-13.3c-3.5-3.2-7.8-5.6-12.9-7.2
					c-5.1-1.5-12.2-3.2-21.2-4.9c-10.6-1.9-19.1-3.9-25.6-6.1c-6.5-2.2-12-5.8-16.6-10.7c-4.6-4.9-6.9-11.8-6.9-20.5
					c0-10.6,4.4-19.3,13.2-26.2c8.8-6.9,21.3-10.4,37.5-10.3c8.5,0,17,1.2,25.3,3.6c8.3,2.4,15.2,5.5,20.5,9.5l-5.9,10.2
					c-5.5-3.9-11.7-6.9-18.7-8.9c-7-2-14.2-3.1-21.5-3.1c-12.4,0-21.8,2.3-28.1,6.9c-6.3,4.6-9.5,10.7-9.5,18.1
					c0,6,1.8,10.6,5.4,13.9c3.6,3.3,8,5.8,13.2,7.4c5.2,1.6,12.5,3.4,21.9,5.2c10.4,1.9,18.8,3.9,25.2,6c6.4,2.1,11.8,5.6,16.2,10.4
					c4.4,4.8,6.6,11.3,6.6,19.7c0,11.1-4.6,19.9-13.8,26.6c-9.2,6.6-22.2,10-38.9,10C1333.6,439,1323.4,437.4,1313.7,434.1z"/>
			</g>
			<g>
				<path class="st1" d="M431,23.3h-61c-5.2,0-9.3,4.2-9.3,9.3s4.2,9.3,9.3,9.3h51.7v49.7c0,5.2,4.2,9.3,9.3,9.3
					c5.2,0,9.3-4.2,9.3-9.3v-59C440.4,27.5,436.2,23.3,431,23.3z"/>
				<path class="st1" d="M24,164.4v275.3h275.3c45.2,0,81.9-36.7,81.9-81.9V82.5H105.8C60.6,82.5,24,119.1,24,164.4z M269.9,123.2
					h61c5.2,0,9.3,4.2,9.3,9.3v59c0,5.2-4.2,9.3-9.3,9.3c-5.2,0-9.3-4.2-9.3-9.3v-49.7h-51.7c-5.2,0-9.3-4.2-9.3-9.3
					C260.6,127.4,264.8,123.2,269.9,123.2z M210.4,182.5h61c5.2,0,9.3,4.2,9.3,9.3v59c0,5.2-4.2,9.3-9.3,9.3c-5.2,0-9.3-4.2-9.3-9.3
					v-49.7h-51.7c-5.2,0-9.3-4.2-9.3-9.3C201.1,186.6,205.2,182.5,210.4,182.5z"/>
			</g>
		</g>
	</g>
</g>
</svg>
