<?xml version="1.0" encoding="utf-8"?>
<!-- Generator: Adobe Illustrator 22.1.0, SVG Export Plug-In . SVG Version: 6.00 Build 0)  -->
<svg version="1.1" id="Layer_1" xmlns="http://www.w3.org/2000/svg" xmlns:xlink="http://www.w3.org/1999/xlink" x="0px" y="0px"
   viewBox="0 0 291 291" style="enable-background:new 0 0 291 291;" xml:space="preserve">
<style type="text/css">
  .st0{fill:#FFFFFF;}
  .st1{fill:#ACACAC;}
  .st2{fill:#F73435;}
</style>
<title>01Integrates</title>
<desc>Created with Sketch.</desc>
<g id="Page-1">
  <g id="_x30_1Integrates" transform="translate(-5.000000, -3.000000)">
    <g id="Group">

        <image style="overflow:visible;opacity:0.15;enable-background:new    ;" width="300" height="300" id="Bitmap" xlink:href="../Downloads/iconos_svg/Productos/E3212A1B282C8985.png"  transform="matrix(0.9967 0 0 0.9967 0.7687 0.1021)">
      </image>
      <path id="Shape" class="st0" d="M71.4,31.7c-21.2,0-38.5,17.3-38.5,38.5v0.9v156.2v38.5h38.5h157.1c21.2,0,38.5-17.3,38.5-38.5
        V70.2V31.7H71.4z"/>
    </g>
    <g id="Group_1_" transform="translate(63.000000, 78.000000)">
      <path id="Shape_1_" class="st1" d="M165.7,0.7H16.5c-1.4,0-2.5,1.1-2.5,2.5v134.4c0,1.4,1.1,2.5,2.5,2.5h149.2
        c1.4,0,2.5-1.1,2.5-2.5V76c0-1.4-1.1-2.5-2.5-2.5s-2.5,1.1-2.5,2.5v59.1H19V25.3h144.3v76.2c0,1.4,1.1,2.5,2.5,2.5
        s2.5-1.1,2.5-2.5V3.1C168.2,1.8,167.1,0.7,165.7,0.7z M19,5.6h91v14.8H19V5.6z M114.9,20.3V5.6h48.4v14.8h-48.4V20.3z"/>
      <path id="Shape_2_" class="st1" d="M139.2,10.3c-1.4,0-2.6,1.2-2.6,2.6s1.2,2.6,2.6,2.6c1.4,0,2.6-1.2,2.6-2.6
        S140.6,10.3,139.2,10.3z"/>
      <path id="Shape_3_" class="st1" d="M125.7,10.3c-1.4,0-2.6,1.2-2.6,2.6s1.2,2.6,2.6,2.6s2.6-1.2,2.6-2.6S127.2,10.3,125.7,10.3z"
        />
      <path id="Shape_4_" class="st1" d="M152.6,10.3c-1.4,0-2.6,1.2-2.6,2.6s1.2,2.6,2.6,2.6c1.4,0,2.6-1.2,2.6-2.6
        S154.1,10.3,152.6,10.3z"/>
    </g>
    <path id="Shape_6_" class="st2" d="M197.3,176.6l-11.8,11.9c-1.2,1.2-1.2,3.1,0,4.2c1.2,1.2,3.1,1.2,4.2,0l9.6-9.7l10.2,10.1
      c1.2,1.2,3.1,1.2,4.2,0c1.2-1.2,1.2-3.1,0-4.2l-12.3-12.2C200.3,175.4,198.4,175.5,197.3,176.6z"/>
    <path id="Shape_5_" class="st2" d="M197.3,150.4l-11.8,11.9c-1.2,1.2-1.2,3.1,0,4.2c1.2,1.2,3.1,1.2,4.2,0l9.6-9.7l10.2,10.1
      c1.2,1.2,3.1,1.2,4.2,0c1.2-1.2,1.2-3.1,0-4.2l-12.3-12.2C200.3,149.2,198.4,149.3,197.3,150.4z"/>
    <path id="Shape_7_" class="st2" d="M197.3,124.2l-11.8,11.9c-1.2,1.2-1.2,3.1,0,4.2c1.2,1.2,3.1,1.2,4.2,0l9.6-9.7l10.2,10.1
      c1.2,1.2,3.1,1.2,4.2,0c1.2-1.2,1.2-3.1,0-4.2l-12.3-12.2C200.3,123,198.4,123.1,197.3,124.2z"/>
    <path class="st1" d="M140.8,145h-4.6v-20.5c0-1.3-1-2.3-2.3-2.3s-2.3,1-2.3,2.3V145H127c-1.3,0-2.3,1-2.3,2.3v9.1
      c0,1.3,1,2.3,2.3,2.3h4.6v6.8c0,1.3,1,2.3,2.3,2.3s2.3-1,2.3-2.3v-6.8h4.6c1.3,0,2.3-1,2.3-2.3v-9.1C143.1,146,142,145,140.8,145z
       M138.5,154.1h-9.1v-4.6h9.1V154.1z"/>
    <path class="st1" d="M168.2,140.4h-4.6v-16c0-1.3-1-2.3-2.3-2.3s-2.3,1-2.3,2.3v16h-4.6c-1.3,0-2.3,1-2.3,2.3v9.1
      c0,1.3,1,2.3,2.3,2.3h4.6v11.4c0,1.3,1,2.3,2.3,2.3s2.3-1,2.3-2.3v-11.4h4.6c1.3,0,2.3-1,2.3-2.3v-9.1
      C170.4,141.4,169.4,140.4,168.2,140.4z M165.9,149.5h-9.1V145h9.1V149.5z"/>
    <path class="st1" d="M113.4,131.3h-4.6v-6.8c0-1.3-1-2.3-2.3-2.3s-2.3,1-2.3,2.3v6.8h-4.6c-1.3,0-2.3,1-2.3,2.3v9.1
      c0,1.3,1,2.3,2.3,2.3h4.6v20.5c0,1.3,1,2.3,2.3,2.3s2.3-1,2.3-2.3V145h4.6c1.3,0,2.3-1,2.3-2.3v-9.1
      C115.7,132.3,114.7,131.3,113.4,131.3z M111.1,140.4H102v-4.6h9.1V140.4z"/>
    <path class="st1" d="M133.9,176.9c-5,0-9.1,4.1-9.1,9.1s4.1,9.1,9.1,9.1s9.1-4.1,9.1-9.1S139,176.9,133.9,176.9z M133.9,190.6
      c-2.5,0-4.6-2-4.6-4.6s2-4.6,4.6-4.6s4.6,2,4.6,4.6C138.5,188.5,136.5,190.6,133.9,190.6z"/>
    <path class="st1" d="M106.6,176.9c-5,0-9.1,4.1-9.1,9.1s4.1,9.1,9.1,9.1s9.1-4.1,9.1-9.1S111.6,176.9,106.6,176.9z M106.6,190.6
      c-2.5,0-4.6-2-4.6-4.6s2-4.6,4.6-4.6c2.5,0,4.6,2,4.6,4.6C111.1,188.5,109.1,190.6,106.6,190.6z"/>
    <path class="st1" d="M161.3,176.9c-5,0-9.1,4.1-9.1,9.1s4.1,9.1,9.1,9.1s9.1-4.1,9.1-9.1S166.3,176.9,161.3,176.9z M161.3,190.6
      c-2.5,0-4.6-2-4.6-4.6s2-4.6,4.6-4.6s4.6,2,4.6,4.6S163.8,190.6,161.3,190.6z"/>
  </g>
</g>
</svg>
